<svg width="154" height="30" viewBox="0 0 154 30" fill="none" xmlns="http://www.w3.org/2000/svg">
<path d="M39.373 18.5193H37.2816L41.2134 7.9789H43.0538L46.9855 18.5193H44.8941L44.1413 16.3443H40.1259L39.373 18.5193ZM43.472 14.5039L42.1336 10.6558L40.7951 14.5039H43.472ZM48.5004 8.98275H50.1735V10.8231H51.8466V12.5799H50.1735V15.7587C50.1735 16.0933 50.2683 16.361 50.4579 16.5618C50.6587 16.7514 50.9264 16.8462 51.261 16.8462C51.3502 16.8462 51.4227 16.8462 51.4785 16.8462C51.5343 16.8351 51.5844 16.8239 51.6291 16.8127C51.6737 16.8016 51.7183 16.7849 51.7629 16.7626V18.4356C51.6848 18.4691 51.5956 18.497 51.4952 18.5193C51.3056 18.5751 51.0881 18.6029 50.8427 18.6029C50.4635 18.6029 50.1121 18.5416 49.7887 18.4189C49.4764 18.2851 49.2031 18.0954 48.9689 17.8501C48.7458 17.6047 48.5673 17.3147 48.4335 16.9801C48.3108 16.6454 48.2494 16.2662 48.2494 15.8424V12.5799H47.0783V10.9904H47.5802C48.1937 10.9904 48.5004 10.6837 48.5004 10.0702V8.98275ZM54.2679 8.98275H55.941V10.8231H57.6141V12.5799H55.941V15.7587C55.941 16.0933 56.0358 16.361 56.2254 16.5618C56.4262 16.7514 56.6939 16.8462 57.0285 16.8462C57.1178 16.8462 57.1903 16.8462 57.246 16.8462C57.3018 16.8351 57.352 16.8239 57.3966 16.8127C57.4412 16.8016 57.4858 16.7849 57.5304 16.7626V18.4356C57.4524 18.4691 57.3631 18.497 57.2628 18.5193C57.0731 18.5751 56.8556 18.6029 56.6103 18.6029C56.231 18.6029 55.8797 18.5416 55.5562 18.4189C55.2439 18.2851 54.9706 18.0954 54.7364 17.8501C54.5133 17.6047 54.3349 17.3147 54.201 16.9801C54.0783 16.6454 54.017 16.2662 54.017 15.8424V12.5799H52.8458V10.9904H53.3478C53.9612 10.9904 54.2679 10.6837 54.2679 10.0702V8.98275ZM60.5413 14.6712C60.5413 15.307 60.7254 15.8145 61.0934 16.1937C61.4615 16.5729 61.9188 16.7626 62.4654 16.7626C63.0119 16.7626 63.4692 16.5729 63.8373 16.1937C64.2054 15.8145 64.3894 15.307 64.3894 14.6712C64.3894 14.0354 64.2054 13.5279 63.8373 13.1487C63.4692 12.7695 63.0119 12.5799 62.4654 12.5799C61.9188 12.5799 61.4615 12.7695 61.0934 13.1487C60.7254 13.5279 60.5413 14.0354 60.5413 14.6712ZM66.3134 14.6712C66.3134 15.2177 66.2075 15.7308 65.9956 16.2104C65.7948 16.6789 65.5159 17.0916 65.159 17.4485C64.8133 17.8054 64.4061 18.0899 63.9377 18.3018C63.4804 18.5026 62.9896 18.6029 62.4654 18.6029C61.9411 18.6029 61.4448 18.5026 60.9763 18.3018C60.519 18.0899 60.1119 17.8054 59.755 17.4485C59.4092 17.0916 59.1304 16.6789 58.9184 16.2104C58.7177 15.7308 58.6173 15.2177 58.6173 14.6712C58.6173 14.1247 58.7177 13.6172 58.9184 13.1487C59.1304 12.6691 59.4092 12.2508 59.755 11.8939C60.1119 11.537 60.519 11.2581 60.9763 11.0574C61.4448 10.8454 61.9411 10.7395 62.4654 10.7395C62.9896 10.7395 63.4804 10.8454 63.9377 11.0574C64.4061 11.2581 64.8133 11.537 65.159 11.8939C65.5159 12.2508 65.7948 12.6691 65.9956 13.1487C66.2075 13.6172 66.3134 14.1247 66.3134 14.6712ZM71.3248 10.7395C71.4141 10.7395 71.4921 10.7451 71.5591 10.7562C71.626 10.7674 71.6873 10.7785 71.7431 10.7897C71.7989 10.8008 71.8546 10.812 71.9104 10.8231V12.8308C71.8546 12.8197 71.7933 12.8085 71.7264 12.7974C71.6706 12.7862 71.5981 12.7751 71.5089 12.7639C71.4308 12.7527 71.3416 12.7472 71.2412 12.7472C70.7727 12.7472 70.3879 12.9033 70.0868 13.2156C69.7968 13.5168 69.6518 13.9183 69.6518 14.4202V18.5193H67.7277V10.8231H69.1498L69.4845 11.6597C69.6183 11.4924 69.78 11.3418 69.9696 11.2079C70.1258 11.0852 70.3154 10.9793 70.5385 10.8901C70.7727 10.7897 71.0348 10.7395 71.3248 10.7395ZM77.1002 10.7395C77.5575 10.7395 77.9758 10.8176 78.355 10.9737C78.7343 11.1187 79.0577 11.3362 79.3254 11.6262C79.6043 11.9051 79.8162 12.2452 79.9612 12.6468C80.1173 13.0483 80.1954 13.5001 80.1954 14.002V18.5193H78.2714V14.2529C78.2714 13.751 78.1208 13.3495 77.8196 13.0483C77.5296 12.736 77.1504 12.5799 76.6819 12.5799C76.2135 12.5799 75.8287 12.736 75.5275 13.0483C75.2375 13.3495 75.0925 13.751 75.0925 14.2529V18.5193H73.1685V10.8231H74.5906L74.9252 11.576C75.1148 11.4199 75.3212 11.2804 75.5443 11.1577C75.7339 11.0574 75.9569 10.9626 76.2135 10.8733C76.4812 10.7841 76.7768 10.7395 77.1002 10.7395ZM88.8183 16.177C88.7179 16.467 88.5618 16.757 88.3498 17.047C88.1491 17.337 87.8981 17.5991 87.5969 17.8333C87.3069 18.0564 86.9723 18.2404 86.5931 18.3854C86.225 18.5304 85.8235 18.6029 85.3885 18.6029C84.8643 18.6029 84.3679 18.5026 83.8994 18.3018C83.4421 18.0899 83.035 17.8054 82.6781 17.4485C82.3323 17.0916 82.0535 16.6789 81.8416 16.2104C81.6408 15.7308 81.5404 15.2177 81.5404 14.6712C81.5404 14.1247 81.6408 13.6172 81.8416 13.1487C82.0535 12.6691 82.3323 12.2508 82.6781 11.8939C83.035 11.537 83.4421 11.2581 83.8994 11.0574C84.3679 10.8454 84.8643 10.7395 85.3885 10.7395C85.8904 10.7395 86.3644 10.8343 86.8106 11.0239C87.2568 11.2135 87.6471 11.4812 87.9818 11.827C88.3164 12.1727 88.5785 12.591 88.7681 13.0818C88.9689 13.5614 89.0693 14.0912 89.0693 14.6712C89.0693 14.7604 89.0637 14.8497 89.0525 14.9389C89.0414 15.017 89.0302 15.0951 89.0191 15.1731C89.0079 15.2624 88.9968 15.346 88.9856 15.4241H83.6318C83.721 15.8033 83.9106 16.1212 84.2006 16.3777C84.4906 16.6343 84.8866 16.7626 85.3885 16.7626C85.645 16.7626 85.8569 16.7347 86.0243 16.6789C86.2027 16.6231 86.3533 16.5562 86.476 16.4781C86.6098 16.3889 86.7214 16.2885 86.8106 16.177H88.8183ZM85.3885 12.5799C84.8866 12.5799 84.4739 12.7249 84.1504 13.0149C83.8381 13.3049 83.6373 13.6618 83.5481 14.0856H87.2289C87.1396 13.6618 86.9333 13.3049 86.6098 13.0149C86.2975 12.7249 85.8904 12.5799 85.3885 12.5799ZM89.6509 10.8231H91.6586L93.5826 15.8424L95.3394 10.8231H97.3471C96.8005 12.2285 96.3042 13.5001 95.858 14.6377C95.6684 15.1285 95.4788 15.6081 95.2892 16.0766C95.1107 16.5451 94.949 16.9745 94.804 17.3649C94.659 17.7441 94.5363 18.062 94.4359 18.3185C94.3355 18.5751 94.2742 18.7256 94.2519 18.7702C94.0623 19.2276 93.8726 19.6124 93.683 19.9247C93.5046 20.2481 93.3094 20.5102 93.0974 20.711C92.8855 20.9118 92.6569 21.0568 92.4115 21.146C92.1661 21.2352 91.8873 21.2799 91.5749 21.2799C91.4857 21.2799 91.3965 21.2743 91.3073 21.2631C91.2292 21.2631 91.1623 21.2576 91.1065 21.2464C91.0284 21.2352 90.9615 21.2185 90.9057 21.1962V19.6068C91.3296 19.6068 91.653 19.512 91.8761 19.3224C92.1103 19.1327 92.2888 18.8929 92.4115 18.6029L92.5788 18.1847L89.6509 10.8231ZM98.0954 10.9235C98.0954 10.522 98.179 10.1372 98.3463 9.7691C98.5248 9.40102 98.7702 9.08313 99.0825 8.81544C99.4059 8.53659 99.7908 8.31352 100.237 8.14621C100.694 7.9789 101.207 7.89525 101.776 7.89525C102.3 7.89525 102.774 7.9789 103.198 8.14621C103.633 8.31352 104.007 8.54775 104.319 8.8489C104.632 9.15006 104.871 9.50698 105.039 9.91967C105.206 10.3212 105.29 10.7618 105.29 11.2414H103.366C103.366 10.7729 103.226 10.4049 102.947 10.1372C102.668 9.86948 102.278 9.73563 101.776 9.73563C101.274 9.73563 100.884 9.85833 100.605 10.1037C100.326 10.3491 100.187 10.6168 100.187 10.9068C100.187 11.2191 100.321 11.4589 100.588 11.6262C100.856 11.7935 101.191 11.9441 101.592 12.0779C101.994 12.2118 102.429 12.3512 102.897 12.4962C103.377 12.6412 103.817 12.8364 104.219 13.0818C104.62 13.3272 104.955 13.6506 105.223 14.0522C105.49 14.4426 105.624 14.9556 105.624 15.5914C105.624 15.9706 105.529 16.3387 105.34 16.6956C105.161 17.0526 104.905 17.376 104.57 17.666C104.236 17.9449 103.828 18.1735 103.349 18.352C102.88 18.5193 102.356 18.6029 101.776 18.6029C101.185 18.6029 100.655 18.5193 100.187 18.352C99.7294 18.1847 99.339 17.9504 99.0156 17.6493C98.6921 17.337 98.4411 16.9745 98.2627 16.5618C98.0954 16.1379 98.0117 15.6751 98.0117 15.1731H100.019C100.019 15.6416 100.176 16.0264 100.488 16.3276C100.8 16.6176 101.23 16.7626 101.776 16.7626C102.367 16.7626 102.808 16.6399 103.098 16.3945C103.388 16.1379 103.533 15.8424 103.533 15.5077C103.533 15.1843 103.399 14.9333 103.131 14.7549C102.864 14.5764 102.529 14.4202 102.127 14.2864C101.726 14.1414 101.285 14.002 100.806 13.8681C100.337 13.7343 99.9023 13.5502 99.5008 13.316C99.0992 13.0818 98.7646 12.7806 98.4969 12.4126C98.2292 12.0333 98.0954 11.537 98.0954 10.9235ZM111.138 10.7395C111.55 10.7395 111.935 10.8176 112.292 10.9737C112.66 11.1187 112.972 11.3362 113.229 11.6262C113.485 11.9051 113.686 12.2452 113.831 12.6468C113.987 13.0483 114.065 13.5001 114.065 14.002V18.5193H112.141V14.2529C112.141 13.751 111.991 13.3495 111.69 13.0483C111.4 12.736 111.02 12.5799 110.552 12.5799C110.083 12.5799 109.699 12.736 109.398 13.0483C109.108 13.3495 108.963 13.751 108.963 14.2529V18.5193H107.038V7.9789H108.963V11.576C109.108 11.4199 109.28 11.2804 109.481 11.1577C109.66 11.0574 109.883 10.9626 110.15 10.8733C110.429 10.7841 110.758 10.7395 111.138 10.7395ZM117.334 14.6712C117.334 15.307 117.518 15.8145 117.887 16.1937C118.255 16.5729 118.712 16.7626 119.258 16.7626C119.805 16.7626 120.262 16.5729 120.63 16.1937C120.998 15.8145 121.183 15.307 121.183 14.6712C121.183 14.0354 120.998 13.5279 120.63 13.1487C120.262 12.7695 119.805 12.5799 119.258 12.5799C118.712 12.5799 118.255 12.7695 117.887 13.1487C117.518 13.5279 117.334 14.0354 117.334 14.6712ZM123.107 14.6712C123.107 15.2177 123.001 15.7308 122.789 16.2104C122.588 16.6789 122.309 17.0916 121.952 17.4485C121.606 17.8054 121.199 18.0899 120.731 18.3018C120.273 18.5026 119.783 18.6029 119.258 18.6029C118.734 18.6029 118.238 18.5026 117.769 18.3018C117.312 18.0899 116.905 17.8054 116.548 17.4485C116.202 17.0916 115.923 16.6789 115.712 16.2104C115.511 15.7308 115.41 15.2177 115.41 14.6712C115.41 14.1247 115.511 13.6172 115.712 13.1487C115.923 12.6691 116.202 12.2508 116.548 11.8939C116.905 11.537 117.312 11.2581 117.769 11.0574C118.238 10.8454 118.734 10.7395 119.258 10.7395C119.783 10.7395 120.273 10.8454 120.731 11.0574C121.199 11.2581 121.606 11.537 121.952 11.8939C122.309 12.2508 122.588 12.6691 122.789 13.1487C123.001 13.6172 123.107 14.1247 123.107 14.6712ZM128.453 10.7395C128.932 10.7395 129.389 10.8399 129.824 11.0406C130.259 11.2302 130.639 11.5035 130.962 11.8604C131.297 12.2062 131.559 12.6189 131.749 13.0985C131.949 13.5781 132.05 14.1024 132.05 14.6712C132.05 15.2401 131.949 15.7643 131.749 16.2439C131.559 16.7235 131.297 17.1418 130.962 17.4987C130.639 17.8445 130.259 18.1177 129.824 18.3185C129.389 18.5081 128.932 18.6029 128.453 18.6029C128.129 18.6029 127.845 18.5639 127.599 18.4858C127.365 18.4077 127.159 18.3241 126.98 18.2349C126.779 18.1233 126.601 17.9951 126.445 17.8501V21.1962H124.521V10.8231H125.943L126.278 11.576C126.445 11.4199 126.64 11.2804 126.863 11.1577C127.053 11.0574 127.281 10.9626 127.549 10.8733C127.817 10.7841 128.118 10.7395 128.453 10.7395ZM126.278 14.6712C126.278 15.307 126.462 15.8145 126.83 16.1937C127.198 16.5729 127.655 16.7626 128.202 16.7626C128.748 16.7626 129.205 16.5729 129.574 16.1937C129.942 15.8145 130.126 15.307 130.126 14.6712C130.126 14.0354 129.942 13.5279 129.574 13.1487C129.205 12.7695 128.748 12.5799 128.202 12.5799C127.655 12.5799 127.198 12.7695 126.83 13.1487C126.462 13.5279 126.278 14.0354 126.278 14.6712ZM137.406 10.7395C137.886 10.7395 138.343 10.8399 138.778 11.0406C139.213 11.2302 139.592 11.5035 139.916 11.8604C140.25 12.2062 140.512 12.6189 140.702 13.0985C140.903 13.5781 141.003 14.1024 141.003 14.6712C141.003 15.2401 140.903 15.7643 140.702 16.2439C140.512 16.7235 140.25 17.1418 139.916 17.4987C139.592 17.8445 139.213 18.1177 138.778 18.3185C138.343 18.5081 137.886 18.6029 137.406 18.6029C137.083 18.6029 136.798 18.5639 136.553 18.4858C136.319 18.4077 136.112 18.3241 135.934 18.2349C135.733 18.1233 135.555 17.9951 135.398 17.8501V21.1962H133.474V10.8231H134.897L135.231 11.576C135.398 11.4199 135.594 11.2804 135.817 11.1577C136.006 11.0574 136.235 10.9626 136.503 10.8733C136.77 10.7841 137.072 10.7395 137.406 10.7395ZM135.231 14.6712C135.231 15.307 135.415 15.8145 135.783 16.1937C136.151 16.5729 136.609 16.7626 137.155 16.7626C137.702 16.7626 138.159 16.5729 138.527 16.1937C138.895 15.8145 139.079 15.307 139.079 14.6712C139.079 14.0354 138.895 13.5279 138.527 13.1487C138.159 12.7695 137.702 12.5799 137.155 12.5799C136.609 12.5799 136.151 12.7695 135.783 13.1487C135.415 13.5279 135.231 14.0354 135.231 14.6712ZM149.288 16.177C149.187 16.467 149.031 16.757 148.819 17.047C148.618 17.337 148.367 17.5991 148.066 17.8333C147.776 18.0564 147.442 18.2404 147.062 18.3854C146.694 18.5304 146.293 18.6029 145.858 18.6029C145.334 18.6029 144.837 18.5026 144.369 18.3018C143.911 18.0899 143.504 17.8054 143.147 17.4485C142.802 17.0916 142.523 16.6789 142.311 16.2104C142.11 15.7308 142.01 15.2177 142.01 14.6712C142.01 14.1247 142.11 13.6172 142.311 13.1487C142.523 12.6691 142.802 12.2508 143.147 11.8939C143.504 11.537 143.911 11.2581 144.369 11.0574C144.837 10.8454 145.334 10.7395 145.858 10.7395C146.36 10.7395 146.834 10.8343 147.28 11.0239C147.726 11.2135 148.116 11.4812 148.451 11.827C148.786 12.1727 149.048 12.591 149.237 13.0818C149.438 13.5614 149.539 14.0912 149.539 14.6712C149.539 14.7604 149.533 14.8497 149.522 14.9389C149.511 15.017 149.5 15.0951 149.488 15.1731C149.477 15.2624 149.466 15.346 149.455 15.4241H144.101C144.19 15.8033 144.38 16.1212 144.67 16.3777C144.96 16.6343 145.356 16.7626 145.858 16.7626C146.114 16.7626 146.326 16.7347 146.494 16.6789C146.672 16.6231 146.823 16.5562 146.945 16.4781C147.079 16.3889 147.191 16.2885 147.28 16.177H149.288ZM145.858 12.5799C145.356 12.5799 144.943 12.7249 144.62 13.0149C144.307 13.3049 144.107 13.6618 144.017 14.0856H147.698C147.609 13.6618 147.403 13.3049 147.079 13.0149C146.767 12.7249 146.36 12.5799 145.858 12.5799ZM150.622 17.5154C150.622 17.2254 150.728 16.9745 150.94 16.7626C151.163 16.5395 151.42 16.4279 151.71 16.4279C152 16.4279 152.251 16.5395 152.463 16.7626C152.686 16.9745 152.797 17.2254 152.797 17.5154C152.797 17.8054 152.686 18.062 152.463 18.2851C152.251 18.497 152 18.6029 151.71 18.6029C151.42 18.6029 151.163 18.497 150.94 18.2851C150.728 18.062 150.622 17.8054 150.622 17.5154Z" fill="#101828"/>
<circle cx="14.5" cy="15" r="14.5" fill="#101828"/>
<path fillRule="evenodd" clipRule="evenodd" d="M11.94 11.0479C12.7519 10.7116 13.6222 10.5385 14.501 10.5385C15.3799 10.5385 16.2501 10.7116 17.0621 11.0479C17.8741 11.3842 18.6118 11.8772 19.2333 12.4986C19.8547 13.1201 20.3477 13.8578 20.684 14.6698C21.0203 15.4817 21.1934 16.352 21.1934 17.2308L16.4554 17.2308C16.4554 16.9742 16.4049 16.72 16.3067 16.4829C16.2085 16.2458 16.0645 16.0303 15.883 15.8489C15.7015 15.6674 15.4861 15.5234 15.249 15.4252C15.0118 15.327 14.7577 15.2764 14.501 15.2764C14.2444 15.2764 13.9902 15.327 13.7531 15.4252C13.516 15.5234 13.3005 15.6674 13.1191 15.8489C12.9376 16.0303 12.7936 16.2458 12.6954 16.4829C12.5972 16.72 12.5466 16.9742 12.5466 17.2308L7.80865 17.2308C7.80865 16.352 7.98176 15.4817 8.31808 14.6698C8.65441 13.8578 9.14736 13.1201 9.76881 12.4986C10.3903 11.8772 11.128 11.3842 11.94 11.0479Z" fill="#6A65FF"/>
</svg>
