<svg width="164" height="40" viewBox="0 0 164 40" fill="none" xmlns="http://www.w3.org/2000/svg">
<g clipPath="url(#clip0_123_15684)">
<path d="M45.2111 33.0602L45.137 33.1887L41.1512 40.0001L37.1653 33.1887L37.0912 33.0602H12.7742L15.8483 27.8082L15.9561 27.6222H15.9629L16.8409 26.1226H24.9069V26.1248L24.9091 26.1226H41.1512L45.2111 33.0602Z" fill="#101828"/>
<path d="M37.0463 13.8753L32.9864 20.8129H24.862L20.802 13.8753L16.7443 20.8129H16.7421L13.6365 26.1225L12.7585 27.6221H12.7517L12.6439 27.8082L9.56978 33.0601L8.59296 34.6572L0.5 34.6882L4.49932 27.8503L4.55995 27.7484L5.48737 26.1668L5.54575 26.0627L8.56153 20.917L8.62215 20.8129L9.54732 19.2314L12.6799 13.8753H12.6844V13.8731L16.7421 6.93765L20.802 0L24.862 6.93765L28.9242 13.8753H37.0463Z" fill="#6E00FF"/>
<path d="M60.0272 24.0336H56.221L55.5136 25.7592H52.9155L56.8902 16.8789H59.3984L63.3843 25.7592H60.7345L60.0272 24.0336ZM59.2817 22.1818L58.1252 19.3399L56.9687 22.1818H59.2839H59.2817Z" fill="#101828"/>
<path d="M68.7332 25.4802C68.3088 25.746 67.6778 25.8745 67.0355 25.8745C65.2481 25.8745 64.2062 25.0128 64.2062 23.2474V20.9393H63.1912V19.1384H64.2062V17.3486H66.6493V19.1384H68.2437V20.9393H66.6493V23.223C66.6493 23.7303 66.9457 24.0094 67.3814 24.0094C67.6508 24.0094 67.9225 23.9341 68.1269 23.7945L68.7309 25.4824L68.7332 25.4802Z" fill="#101828"/>
<path d="M74.3404 25.4802C73.9159 25.746 73.2849 25.8745 72.6427 25.8745C70.8553 25.8745 69.8133 25.0128 69.8133 23.2474V20.9393H68.7983V19.1384H69.8133V17.3486H72.2565V19.1384H73.8508V20.9393H72.2565V23.223C72.2565 23.7303 72.5529 24.0094 72.9885 24.0094C73.258 24.0094 73.5297 23.9341 73.7341 23.7945L74.3381 25.4824L74.3404 25.4802Z" fill="#101828"/>
<path d="M74.6367 22.3083C74.6367 20.2394 76.2962 18.7686 78.5732 18.7686C80.8502 18.7686 82.5096 20.2394 82.5096 22.3083C82.5096 24.3771 80.8771 25.8723 78.5732 25.8723C76.2692 25.8723 74.6367 24.3882 74.6367 22.3083ZM80.0373 22.3083C80.0373 21.2672 79.4063 20.6846 78.5709 20.6846C77.7356 20.6846 77.1046 21.2672 77.1046 22.3083C77.1046 23.3493 77.7468 23.9585 78.5709 23.9585C79.395 23.9585 80.0373 23.3626 80.0373 22.3083Z" fill="#101828"/>
<path d="M88.3077 18.7683V20.9369C88.0898 20.9125 87.9349 20.8992 87.7553 20.8992C86.765 20.8992 86.0823 21.3932 86.0823 22.5982V25.7569H83.6392V18.8813H85.9678V19.7053C86.4686 19.0829 87.2792 18.7661 88.3077 18.7661V18.7683Z" fill="#101828"/>
<path d="M96.7309 21.8276V25.7615H94.2877V22.2218C94.2877 21.2317 93.8498 20.813 93.1425 20.813C92.3588 20.813 91.7525 21.2959 91.7525 22.4367V25.7615H89.3093V18.8859H91.638V19.6346C92.1904 19.0631 92.9763 18.7729 93.8498 18.7729C95.4823 18.7729 96.7309 19.6989 96.7309 21.8298V21.8276Z" fill="#101828"/>
<path d="M105.45 22.9304H100.382C100.589 23.6282 101.193 24.0335 102.093 24.0335C102.776 24.0335 103.225 23.8431 103.701 23.4377L104.988 24.7579C104.319 25.4933 103.342 25.8743 102.017 25.8743C99.5355 25.8743 97.9277 24.3636 97.9277 22.3102C97.9277 20.2568 99.5603 18.7705 101.761 18.7705C103.818 18.7705 105.491 20.0641 105.491 22.3346C105.491 22.5118 105.466 22.7399 105.453 22.9304H105.45ZM100.344 21.6612H103.2C103.072 20.9391 102.531 20.4806 101.772 20.4806C101.013 20.4806 100.485 20.9369 100.344 21.6612Z" fill="#101828"/>
<path d="M113.835 18.8838L110.826 26.0385C110.094 27.815 109.063 28.3356 107.689 28.3356C106.957 28.3356 106.133 28.0941 105.67 27.7131L106.519 26.0252C106.802 26.28 107.213 26.4306 107.599 26.4306C108.075 26.4306 108.345 26.2534 108.551 25.848L105.567 18.8838H108.075L109.787 23.0836L111.509 18.8838H113.837H113.835Z" fill="#101828"/>
<path d="M114.208 24.7448L114.684 23.7546C115.353 24.3505 116.498 24.7824 117.655 24.7824C119.211 24.7824 119.88 24.1866 119.88 23.4113C119.88 21.2427 114.428 22.6117 114.428 19.3134C114.428 17.9423 115.508 16.7749 117.875 16.7749C118.93 16.7749 120.024 17.054 120.77 17.5613L120.345 18.5758C119.561 18.0818 118.672 17.8536 117.875 17.8536C116.344 17.8536 115.688 18.4872 115.688 19.2624C115.688 21.431 121.14 20.0754 121.14 23.336C121.14 24.6938 120.033 25.8612 117.655 25.8612C116.278 25.8612 114.929 25.4049 114.208 24.7448Z" fill="#6E00FF"/>
<path d="M129.305 21.8896V25.7593H128.07V22.0291C128.07 20.7089 127.401 20.0621 126.231 20.0621C124.919 20.0621 124.071 20.8352 124.071 22.2949V25.7593H122.835V16.3452H124.071V19.9868C124.585 19.34 125.434 18.9723 126.475 18.9723C128.135 18.9723 129.305 19.9115 129.305 21.8896Z" fill="#6E00FF"/>
<path d="M131.002 22.3967C131.002 20.392 132.507 18.9722 134.553 18.9722C136.598 18.9722 138.089 20.392 138.089 22.3967C138.089 24.4013 136.598 25.8345 134.553 25.8345C132.507 25.8345 131.002 24.4013 131.002 22.3967ZM136.841 22.3967C136.841 20.9635 135.864 20.0376 134.553 20.0376C133.241 20.0376 132.251 20.9635 132.251 22.3967C132.251 23.8298 133.241 24.769 134.553 24.769C135.864 24.769 136.841 23.8298 136.841 22.3967Z" fill="#6E00FF"/>
<path d="M146.861 22.3967C146.861 24.4656 145.408 25.8345 143.414 25.8345C142.448 25.8345 141.599 25.4668 141.033 24.7425V28.218H139.798V19.032H140.982V20.0975C141.534 19.3488 142.41 18.9678 143.414 18.9678C145.408 18.9678 146.861 20.3389 146.861 22.3923V22.3967ZM145.612 22.3967C145.612 20.9769 144.622 20.0377 143.31 20.0377C141.999 20.0377 141.022 20.9769 141.022 22.3967C141.022 23.8166 142.012 24.7691 143.31 24.7691C144.608 24.7691 145.612 23.8299 145.612 22.3967Z" fill="#6E00FF"/>
<path d="M155.629 22.3967C155.629 24.4656 154.177 25.8345 152.182 25.8345C151.217 25.8345 150.368 25.4668 149.802 24.7425V28.218H148.567V19.032H149.751V20.0975C150.303 19.3488 151.179 18.9678 152.182 18.9678C154.177 18.9678 155.629 20.3389 155.629 22.3923V22.3967ZM154.383 22.3967C154.383 20.9769 153.393 20.0377 152.081 20.0377C150.77 20.0377 149.793 20.9769 149.793 22.3967C149.793 23.8166 150.784 24.7691 152.081 24.7691C153.379 24.7691 154.383 23.8299 154.383 22.3967Z" fill="#6E00FF"/>
<path d="M163.475 22.8045H157.944C158.099 23.9851 159.063 24.7715 160.415 24.7715C161.212 24.7715 161.881 24.5057 162.382 23.9585L163.064 24.7449C162.447 25.4559 161.508 25.8369 160.376 25.8369C158.178 25.8369 156.712 24.4038 156.712 22.3991C156.712 20.3945 158.165 18.9746 160.132 18.9746C162.099 18.9746 163.502 20.3701 163.502 22.439C163.502 22.5409 163.489 22.6915 163.478 22.8067L163.475 22.8045ZM157.944 21.9295H162.317C162.189 20.7998 161.326 20.0002 160.129 20.0002C158.933 20.0002 158.072 20.7865 157.942 21.9295H157.944Z" fill="#6E00FF"/>
</g>
<defs>
<clipPath id="clip0_123_15684">
<rect width="163" height="40" fill="white" transform="translate(0.5)"/>
</clipPath>
</defs>
</svg>
