<svg width="29" height="30" viewBox="0 0 29 30" fill="none" xmlns="http://www.w3.org/2000/svg">
<circle cx="14.5" cy="15" r="14.5" fill="#101828"/>
<path fillRule="evenodd" clipRule="evenodd" d="M11.94 11.0479C12.7519 10.7116 13.6222 10.5385 14.501 10.5385C15.3799 10.5385 16.2501 10.7116 17.0621 11.0479C17.8741 11.3842 18.6118 11.8772 19.2333 12.4986C19.8547 13.1201 20.3477 13.8578 20.684 14.6698C21.0203 15.4817 21.1934 16.352 21.1934 17.2308L16.4554 17.2308C16.4554 16.9742 16.4049 16.72 16.3067 16.4829C16.2085 16.2458 16.0645 16.0303 15.883 15.8489C15.7015 15.6674 15.4861 15.5234 15.249 15.4252C15.0118 15.327 14.7577 15.2764 14.501 15.2764C14.2444 15.2764 13.9902 15.327 13.7531 15.4252C13.516 15.5234 13.3005 15.6674 13.1191 15.8489C12.9376 16.0303 12.7936 16.2458 12.6954 16.4829C12.5972 16.72 12.5466 16.9742 12.5466 17.2308L7.80865 17.2308C7.80865 16.352 7.98176 15.4817 8.31808 14.6698C8.65441 13.8578 9.14736 13.1201 9.76881 12.4986C10.3903 11.8772 11.128 11.3842 11.94 11.0479Z" fill="#6A65FF"/>
</svg>
