<svg width="30" height="30" viewBox="0 0 30 30" fill="none" xmlns="http://www.w3.org/2000/svg">
<g clip-path="url(#clip0_128_48869)">
<path d="M29.9999 24.7959L29.9516 24.8931L27.2768 30L24.6021 24.8931L24.5517 24.7959H8.23633L10.2981 20.8558L10.3715 20.7169H10.3757L10.9636 19.5918H16.3762V19.5941L16.3783 19.5918H27.2768L29.9999 24.7959Z" fill="#101828"/>
<path d="M24.5224 10.4059L21.7972 15.61H16.3468L13.6217 10.4059L10.8986 15.61L8.81377 19.5918L8.22591 20.7169H8.21961L8.14823 20.8558L6.0865 24.7959L5.43145 25.9927L0 26.0159L2.68318 20.8882L2.72517 20.8118L3.34663 19.6265L3.38652 19.5478L5.40836 15.6887L5.45035 15.61L6.0697 14.4247L8.17342 10.4059H8.17552L10.8986 5.20411L13.6217 0L16.3468 5.20411L19.072 10.4059H24.5224Z" fill="#6E00FF"/>
</g>
<defs>
<clipPath id="clip0_128_48869">
<rect width="30" height="30" fill="white"/>
</clipPath>
</defs>
</svg>
