<svg width="682" height="697" viewBox="0 0 682 697" fill="none" xmlns="http://www.w3.org/2000/svg">
<g filter="url(#filter0_d_32_6562)">
<rect x="131" y="24" width="371" height="538.857" rx="30.0811" fill="white" shape-rendering="crispEdges"/>
<rect x="131.708" y="24.708" width="369.584" height="537.441" rx="29.3731" stroke="url(#paint0_angular_32_6562)" stroke-width="1.41603" shape-rendering="crispEdges"/>
<g filter="url(#filter1_d_32_6562)">
<rect x="91" y="117" width="191" height="184.135" rx="20.0541" fill="white" shape-rendering="crispEdges"/>
<rect x="91.708" y="117.708" width="189.584" height="182.719" rx="19.346" stroke="#E3E5E8" stroke-width="1.41603" shape-rendering="crispEdges"/>
<path d="M111.664 149.299C111.664 148.178 111.922 147.172 112.439 146.282C112.967 145.391 113.676 144.699 114.566 144.204C115.468 143.699 116.451 143.446 117.518 143.446C118.738 143.446 119.821 143.748 120.766 144.353C121.722 144.946 122.415 145.793 122.844 146.892H120.585C120.288 146.287 119.876 145.837 119.348 145.54C118.82 145.243 118.21 145.095 117.518 145.095C116.759 145.095 116.083 145.265 115.49 145.606C114.896 145.947 114.429 146.436 114.088 147.073C113.758 147.711 113.593 148.453 113.593 149.299C113.593 150.146 113.758 150.888 114.088 151.525C114.429 152.163 114.896 152.658 115.49 153.009C116.083 153.35 116.759 153.52 117.518 153.52C118.21 153.52 118.82 153.372 119.348 153.075C119.876 152.778 120.288 152.328 120.585 151.723H122.844C122.415 152.822 121.722 153.669 120.766 154.262C119.821 154.856 118.738 155.153 117.518 155.153C116.44 155.153 115.457 154.906 114.566 154.411C113.676 153.905 112.967 153.207 112.439 152.317C111.922 151.426 111.664 150.421 111.664 149.299ZM124.417 150.47C124.417 149.558 124.604 148.75 124.978 148.046C125.363 147.343 125.879 146.799 126.528 146.414C127.187 146.018 127.913 145.82 128.704 145.82C129.419 145.82 130.04 145.963 130.568 146.249C131.106 146.524 131.535 146.87 131.854 147.288V145.969H133.75V155.054H131.854V153.702C131.535 154.131 131.101 154.488 130.551 154.774C130.002 155.059 129.375 155.202 128.671 155.202C127.891 155.202 127.176 155.004 126.528 154.609C125.879 154.202 125.363 153.641 124.978 152.927C124.604 152.201 124.417 151.382 124.417 150.47ZM131.854 150.503C131.854 149.876 131.722 149.332 131.458 148.871C131.205 148.409 130.87 148.057 130.452 147.815C130.035 147.573 129.584 147.453 129.1 147.453C128.616 147.453 128.166 147.573 127.748 147.815C127.33 148.046 126.99 148.392 126.726 148.854C126.473 149.305 126.346 149.843 126.346 150.47C126.346 151.097 126.473 151.646 126.726 152.119C126.99 152.592 127.33 152.954 127.748 153.207C128.177 153.449 128.627 153.57 129.1 153.57C129.584 153.57 130.035 153.449 130.452 153.207C130.87 152.965 131.205 152.614 131.458 152.152C131.722 151.679 131.854 151.13 131.854 150.503ZM139.517 155.202C138.802 155.202 138.159 155.076 137.588 154.823C137.027 154.559 136.582 154.208 136.252 153.768C135.922 153.317 135.746 152.817 135.724 152.267H137.67C137.703 152.652 137.884 152.976 138.214 153.24C138.555 153.493 138.978 153.619 139.484 153.619C140.011 153.619 140.418 153.52 140.704 153.323C141.001 153.114 141.149 152.85 141.149 152.531C141.149 152.19 140.984 151.938 140.654 151.773C140.336 151.608 139.825 151.426 139.121 151.229C138.439 151.042 137.884 150.86 137.456 150.684C137.027 150.509 136.653 150.239 136.334 149.876C136.027 149.514 135.873 149.036 135.873 148.442C135.873 147.958 136.016 147.519 136.301 147.123C136.587 146.716 136.994 146.397 137.522 146.166C138.06 145.936 138.676 145.82 139.368 145.82C140.402 145.82 141.232 146.084 141.858 146.612C142.496 147.128 142.836 147.837 142.88 148.739H141.001C140.968 148.332 140.803 148.008 140.506 147.766C140.209 147.524 139.808 147.403 139.302 147.403C138.808 147.403 138.428 147.497 138.165 147.683C137.901 147.87 137.769 148.118 137.769 148.425C137.769 148.667 137.857 148.871 138.033 149.036C138.209 149.2 138.423 149.332 138.676 149.431C138.929 149.519 139.302 149.635 139.797 149.778C140.457 149.953 140.995 150.135 141.413 150.322C141.842 150.498 142.21 150.761 142.518 151.113C142.826 151.465 142.985 151.932 142.996 152.515C142.996 153.031 142.853 153.493 142.567 153.9C142.281 154.306 141.875 154.625 141.347 154.856C140.83 155.087 140.22 155.202 139.517 155.202ZM153.354 150.289C153.354 150.629 153.332 150.937 153.288 151.212H146.346C146.401 151.938 146.67 152.52 147.154 152.96C147.638 153.4 148.231 153.619 148.935 153.619C149.946 153.619 150.661 153.196 151.078 152.35H153.107C152.832 153.185 152.332 153.872 151.606 154.411C150.892 154.939 150.001 155.202 148.935 155.202C148.066 155.202 147.286 155.01 146.593 154.625C145.912 154.23 145.373 153.68 144.978 152.976C144.593 152.262 144.4 151.437 144.4 150.503C144.4 149.569 144.587 148.75 144.961 148.046C145.346 147.332 145.879 146.782 146.56 146.397C147.253 146.013 148.044 145.82 148.935 145.82C149.792 145.82 150.556 146.007 151.227 146.381C151.897 146.755 152.42 147.282 152.793 147.964C153.167 148.634 153.354 149.409 153.354 150.289ZM151.392 149.695C151.381 149.003 151.133 148.447 150.65 148.03C150.166 147.612 149.567 147.403 148.852 147.403C148.204 147.403 147.649 147.612 147.187 148.03C146.725 148.436 146.451 148.992 146.363 149.695H151.392ZM158.86 150.47C158.86 149.558 159.047 148.75 159.421 148.046C159.806 147.343 160.322 146.799 160.971 146.414C161.631 146.018 162.362 145.82 163.164 145.82C163.758 145.82 164.34 145.952 164.912 146.216C165.494 146.469 165.956 146.81 166.297 147.238V142.852H168.193V155.054H166.297V153.685C165.989 154.125 165.56 154.488 165.011 154.774C164.472 155.059 163.851 155.202 163.148 155.202C162.356 155.202 161.631 155.004 160.971 154.609C160.322 154.202 159.806 153.641 159.421 152.927C159.047 152.201 158.86 151.382 158.86 150.47ZM166.297 150.503C166.297 149.876 166.165 149.332 165.901 148.871C165.648 148.409 165.313 148.057 164.895 147.815C164.478 147.573 164.027 147.453 163.543 147.453C163.06 147.453 162.609 147.573 162.191 147.815C161.773 148.046 161.433 148.392 161.169 148.854C160.916 149.305 160.79 149.843 160.79 150.47C160.79 151.097 160.916 151.646 161.169 152.119C161.433 152.592 161.773 152.954 162.191 153.207C162.62 153.449 163.071 153.57 163.543 153.57C164.027 153.57 164.478 153.449 164.895 153.207C165.313 152.965 165.648 152.614 165.901 152.152C166.165 151.679 166.297 151.13 166.297 150.503ZM178.989 150.289C178.989 150.629 178.967 150.937 178.923 151.212H171.981C172.036 151.938 172.305 152.52 172.789 152.96C173.273 153.4 173.866 153.619 174.57 153.619C175.581 153.619 176.296 153.196 176.713 152.35H178.742C178.467 153.185 177.967 153.872 177.241 154.411C176.527 154.939 175.636 155.202 174.57 155.202C173.702 155.202 172.921 155.01 172.228 154.625C171.547 154.23 171.008 153.68 170.613 152.976C170.228 152.262 170.035 151.437 170.035 150.503C170.035 149.569 170.222 148.75 170.596 148.046C170.981 147.332 171.514 146.782 172.196 146.397C172.888 146.013 173.68 145.82 174.57 145.82C175.427 145.82 176.191 146.007 176.862 146.381C177.532 146.755 178.055 147.282 178.428 147.964C178.802 148.634 178.989 149.409 178.989 150.289ZM177.027 149.695C177.016 149.003 176.768 148.447 176.285 148.03C175.801 147.612 175.202 147.403 174.487 147.403C173.839 147.403 173.284 147.612 172.822 148.03C172.36 148.436 172.086 148.992 171.998 149.695H177.027ZM184.137 155.202C183.422 155.202 182.779 155.076 182.207 154.823C181.647 154.559 181.202 154.208 180.872 153.768C180.542 153.317 180.366 152.817 180.344 152.267H182.29C182.323 152.652 182.504 152.976 182.834 153.24C183.175 153.493 183.598 153.619 184.104 153.619C184.631 153.619 185.038 153.52 185.324 153.323C185.621 153.114 185.769 152.85 185.769 152.531C185.769 152.19 185.604 151.938 185.274 151.773C184.956 151.608 184.444 151.426 183.741 151.229C183.059 151.042 182.504 150.86 182.075 150.684C181.647 150.509 181.273 150.239 180.954 149.876C180.646 149.514 180.493 149.036 180.493 148.442C180.493 147.958 180.635 147.519 180.921 147.123C181.207 146.716 181.614 146.397 182.141 146.166C182.68 145.936 183.296 145.82 183.988 145.82C185.021 145.82 185.851 146.084 186.478 146.612C187.116 147.128 187.456 147.837 187.5 148.739H185.621C185.588 148.332 185.423 148.008 185.126 147.766C184.829 147.524 184.428 147.403 183.922 147.403C183.428 147.403 183.048 147.497 182.784 147.683C182.521 147.87 182.389 148.118 182.389 148.425C182.389 148.667 182.477 148.871 182.653 149.036C182.828 149.2 183.043 149.332 183.296 149.431C183.548 149.519 183.922 149.635 184.417 149.778C185.076 149.953 185.615 150.135 186.033 150.322C186.462 150.498 186.83 150.761 187.138 151.113C187.445 151.465 187.605 151.932 187.616 152.515C187.616 153.031 187.473 153.493 187.187 153.9C186.901 154.306 186.494 154.625 185.967 154.856C185.45 155.087 184.84 155.202 184.137 155.202ZM189.02 150.503C189.02 149.569 189.207 148.75 189.581 148.046C189.966 147.332 190.493 146.782 191.164 146.397C191.834 146.013 192.604 145.82 193.472 145.82C194.572 145.82 195.478 146.084 196.193 146.612C196.918 147.128 197.408 147.87 197.66 148.838H195.632C195.467 148.387 195.204 148.035 194.841 147.782C194.478 147.53 194.022 147.403 193.472 147.403C192.703 147.403 192.087 147.678 191.625 148.228C191.175 148.766 190.949 149.525 190.949 150.503C190.949 151.481 191.175 152.245 191.625 152.795C192.087 153.345 192.703 153.619 193.472 153.619C194.561 153.619 195.281 153.141 195.632 152.185H197.66C197.397 153.108 196.902 153.845 196.176 154.394C195.451 154.933 194.55 155.202 193.472 155.202C192.604 155.202 191.834 155.01 191.164 154.625C190.493 154.23 189.966 153.68 189.581 152.976C189.207 152.262 189.02 151.437 189.02 150.503ZM201.413 147.288C201.688 146.826 202.051 146.469 202.502 146.216C202.963 145.952 203.508 145.82 204.134 145.82V147.766H203.656C202.919 147.766 202.359 147.953 201.974 148.326C201.6 148.7 201.413 149.349 201.413 150.272V155.054H199.534V145.969H201.413V147.288ZM206.818 144.765C206.478 144.765 206.192 144.649 205.961 144.419C205.73 144.188 205.615 143.902 205.615 143.561C205.615 143.22 205.73 142.935 205.961 142.704C206.192 142.473 206.478 142.358 206.818 142.358C207.148 142.358 207.428 142.473 207.659 142.704C207.89 142.935 208.006 143.22 208.006 143.561C208.006 143.902 207.89 144.188 207.659 144.419C207.428 144.649 207.148 144.765 206.818 144.765ZM207.742 145.969V155.054H205.862V145.969H207.742ZM212.089 147.304C212.408 146.886 212.842 146.535 213.392 146.249C213.942 145.963 214.563 145.82 215.255 145.82C216.047 145.82 216.767 146.018 217.415 146.414C218.075 146.799 218.591 147.343 218.965 148.046C219.339 148.75 219.526 149.558 219.526 150.47C219.526 151.382 219.339 152.201 218.965 152.927C218.591 153.641 218.075 154.202 217.415 154.609C216.767 155.004 216.047 155.202 215.255 155.202C214.563 155.202 213.947 155.065 213.408 154.79C212.87 154.504 212.43 154.153 212.089 153.735V159.374H210.21V145.969H212.089V147.304ZM217.613 150.47C217.613 149.843 217.481 149.305 217.217 148.854C216.965 148.392 216.624 148.046 216.195 147.815C215.777 147.573 215.327 147.453 214.843 147.453C214.37 147.453 213.92 147.573 213.491 147.815C213.073 148.057 212.732 148.409 212.469 148.871C212.216 149.332 212.089 149.876 212.089 150.503C212.089 151.13 212.216 151.679 212.469 152.152C212.732 152.614 213.073 152.965 213.491 153.207C213.92 153.449 214.37 153.57 214.843 153.57C215.327 153.57 215.777 153.449 216.195 153.207C216.624 152.954 216.965 152.592 217.217 152.119C217.481 151.646 217.613 151.097 217.613 150.47ZM223.578 147.502V152.531C223.578 152.872 223.655 153.119 223.809 153.273C223.973 153.416 224.248 153.488 224.633 153.488H225.787V155.054H224.303C223.457 155.054 222.808 154.856 222.358 154.46C221.907 154.065 221.682 153.422 221.682 152.531V147.502H220.61V145.969H221.682V143.71H223.578V145.969H225.787V147.502H223.578ZM228.476 144.765C228.135 144.765 227.85 144.649 227.619 144.419C227.388 144.188 227.272 143.902 227.272 143.561C227.272 143.22 227.388 142.935 227.619 142.704C227.85 142.473 228.135 142.358 228.476 142.358C228.806 142.358 229.086 142.473 229.317 142.704C229.548 142.935 229.663 143.22 229.663 143.561C229.663 143.902 229.548 144.188 229.317 144.419C229.086 144.649 228.806 144.765 228.476 144.765ZM229.399 145.969V155.054H227.52V145.969H229.399ZM235.808 155.202C234.951 155.202 234.176 155.01 233.483 154.625C232.791 154.23 232.247 153.68 231.851 152.976C231.455 152.262 231.257 151.437 231.257 150.503C231.257 149.58 231.461 148.761 231.867 148.046C232.274 147.332 232.829 146.782 233.533 146.397C234.236 146.013 235.022 145.82 235.891 145.82C236.759 145.82 237.545 146.013 238.249 146.397C238.952 146.782 239.507 147.332 239.914 148.046C240.321 148.761 240.524 149.58 240.524 150.503C240.524 151.426 240.315 152.245 239.897 152.96C239.48 153.674 238.908 154.23 238.183 154.625C237.468 155.01 236.677 155.202 235.808 155.202ZM235.808 153.57C236.292 153.57 236.743 153.455 237.16 153.224C237.589 152.993 237.935 152.647 238.199 152.185C238.463 151.723 238.595 151.163 238.595 150.503C238.595 149.843 238.468 149.288 238.216 148.838C237.963 148.376 237.628 148.03 237.21 147.799C236.792 147.568 236.341 147.453 235.858 147.453C235.374 147.453 234.923 147.568 234.506 147.799C234.099 148.03 233.775 148.376 233.533 148.838C233.291 149.288 233.17 149.843 233.17 150.503C233.17 151.481 233.417 152.24 233.912 152.778C234.418 153.306 235.05 153.57 235.808 153.57ZM246.966 145.82C247.681 145.82 248.318 145.969 248.879 146.265C249.451 146.562 249.896 147.002 250.215 147.584C250.533 148.167 250.693 148.871 250.693 149.695V155.054H248.829V149.975C248.829 149.162 248.626 148.541 248.219 148.112C247.813 147.672 247.257 147.453 246.554 147.453C245.85 147.453 245.29 147.672 244.872 148.112C244.465 148.541 244.262 149.162 244.262 149.975V155.054H242.382V145.969H244.262V147.007C244.57 146.634 244.96 146.342 245.433 146.133C245.916 145.925 246.428 145.82 246.966 145.82Z" fill="#171717"/>
<g clip-path="url(#clip0_32_6562)">
<rect x="112" y="195" width="137" height="14" rx="7" fill="#FFD34D"/>
<rect x="111" y="228" width="71" height="13" rx="6.5" fill="#FFD34D"/>
</g>
</g>
<path d="M261.672 67.5627C261.672 68.4366 261.466 69.2611 261.053 70.036C260.641 70.811 259.982 71.4458 259.075 71.9405C258.168 72.4187 257.005 72.6578 255.587 72.6578H252.471V79.6326H249.651V62.4429H255.587C256.906 62.4429 258.019 62.6737 258.926 63.1354C259.85 63.5806 260.534 64.1907 260.979 64.9657C261.441 65.7407 261.672 66.6063 261.672 67.5627ZM255.587 70.3576C256.659 70.3576 257.459 70.1185 257.986 69.6403C258.514 69.1456 258.778 68.4531 258.778 67.5627C258.778 65.683 257.714 64.7431 255.587 64.7431H252.471V70.3576H255.587ZM269.777 79.8552C268.491 79.8552 267.329 79.5666 266.29 78.9895C265.251 78.3959 264.435 77.5715 263.841 76.5162C263.248 75.4444 262.951 74.2077 262.951 72.8062C262.951 71.4211 263.256 70.1927 263.866 69.1209C264.476 68.0491 265.309 67.2247 266.364 66.6476C267.42 66.0705 268.598 65.7819 269.901 65.7819C271.204 65.7819 272.383 66.0705 273.438 66.6476C274.493 67.2247 275.326 68.0491 275.936 69.1209C276.546 70.1927 276.851 71.4211 276.851 72.8062C276.851 74.1912 276.538 75.4197 275.911 76.4914C275.285 77.5632 274.427 78.3959 273.339 78.9895C272.267 79.5666 271.08 79.8552 269.777 79.8552ZM269.777 77.4066C270.503 77.4066 271.179 77.2334 271.806 76.8872C272.449 76.5409 272.968 76.0215 273.364 75.329C273.76 74.6364 273.957 73.7955 273.957 72.8062C273.957 71.8168 273.768 70.9841 273.389 70.3081C273.009 69.6156 272.506 69.0962 271.88 68.7499C271.253 68.4036 270.577 68.2305 269.852 68.2305C269.126 68.2305 268.45 68.4036 267.824 68.7499C267.213 69.0962 266.727 69.6156 266.364 70.3081C266.001 70.9841 265.82 71.8168 265.82 72.8062C265.82 74.2737 266.191 75.4114 266.933 76.2194C267.692 77.0108 268.64 77.4066 269.777 77.4066ZM284.091 79.8552C283.019 79.8552 282.054 79.6655 281.197 79.2863C280.356 78.8906 279.688 78.3629 279.193 77.7034C278.699 77.0273 278.435 76.2771 278.402 75.4526H281.32C281.37 76.0297 281.642 76.5162 282.137 76.9119C282.648 77.2911 283.283 77.4808 284.041 77.4808C284.833 77.4808 285.443 77.3324 285.871 77.0356C286.317 76.7223 286.539 76.3265 286.539 75.8484C286.539 75.3372 286.292 74.958 285.797 74.7106C285.319 74.4633 284.552 74.1912 283.497 73.8944C282.475 73.6141 281.642 73.3421 280.999 73.0782C280.356 72.8144 279.795 72.4104 279.317 71.8663C278.855 71.3222 278.624 70.6049 278.624 69.7145C278.624 68.989 278.839 68.3294 279.268 67.7358C279.696 67.1257 280.306 66.6476 281.098 66.3013C281.906 65.955 282.829 65.7819 283.868 65.7819C285.418 65.7819 286.663 66.1776 287.603 66.9691C288.559 67.7441 289.07 68.8076 289.136 70.1597H286.317C286.267 69.5496 286.02 69.0632 285.575 68.7004C285.129 68.3377 284.527 68.1563 283.769 68.1563C283.027 68.1563 282.458 68.2965 282.062 68.5768C281.667 68.8571 281.469 69.2281 281.469 69.6898C281.469 70.0525 281.601 70.3576 281.865 70.6049C282.128 70.8522 282.45 71.0501 282.829 71.1985C283.208 71.3304 283.769 71.5035 284.511 71.7179C285.5 71.9817 286.308 72.2538 286.935 72.5341C287.578 72.7979 288.13 73.1937 288.592 73.7213C289.054 74.2489 289.293 74.9497 289.309 75.8236C289.309 76.5986 289.095 77.2911 288.666 77.9012C288.237 78.5113 287.627 78.9895 286.836 79.3358C286.061 79.682 285.146 79.8552 284.091 79.8552ZM295.151 68.3047V75.8484C295.151 76.3595 295.266 76.7305 295.497 76.9614C295.744 77.1757 296.157 77.2829 296.734 77.2829H298.465V79.6326H296.239C294.969 79.6326 293.997 79.3358 293.32 78.7422C292.644 78.1486 292.306 77.184 292.306 75.8484V68.3047H290.699V66.0045H292.306V62.616H295.151V66.0045H298.465V68.3047H295.151ZM305.559 72.7567C305.559 71.3881 305.84 70.1762 306.4 69.1209C306.977 68.0656 307.752 67.2494 308.725 66.6723C309.715 66.0787 310.803 65.7819 311.99 65.7819C313.062 65.7819 313.993 65.9963 314.785 66.425C315.593 66.8372 316.236 67.3566 316.714 67.9832V66.0045H319.558V79.6326H316.714V77.6044C316.236 78.2475 315.585 78.7834 314.76 79.2121C313.936 79.6408 312.996 79.8552 311.941 79.8552C310.77 79.8552 309.698 79.5584 308.725 78.9648C307.752 78.3547 306.977 77.5137 306.4 76.442C305.84 75.3537 305.559 74.1253 305.559 72.7567ZM316.714 72.8062C316.714 71.8663 316.516 71.0501 316.121 70.3576C315.741 69.665 315.238 69.1374 314.612 68.7746C313.985 68.4119 313.309 68.2305 312.584 68.2305C311.858 68.2305 311.182 68.4119 310.556 68.7746C309.929 69.1209 309.418 69.6403 309.022 70.3328C308.643 71.0089 308.453 71.8168 308.453 72.7567C308.453 73.6966 308.643 74.521 309.022 75.23C309.418 75.9391 309.929 76.4832 310.556 76.8624C311.199 77.2252 311.875 77.4066 312.584 77.4066C313.309 77.4066 313.985 77.2252 314.612 76.8624C315.238 76.4997 315.741 75.972 316.121 75.2795C316.516 74.5705 316.714 73.746 316.714 72.8062ZM327.758 72.8062C327.758 71.4046 328.038 70.1762 328.599 69.1209C329.176 68.0491 329.967 67.2247 330.973 66.6476C331.979 66.0705 333.133 65.7819 334.436 65.7819C336.084 65.7819 337.445 66.1776 338.517 66.9691C339.605 67.7441 340.339 68.8571 340.718 70.3081H337.676C337.428 69.6321 337.033 69.1044 336.488 68.7252C335.944 68.3459 335.26 68.1563 334.436 68.1563C333.281 68.1563 332.358 68.5685 331.665 69.393C330.989 70.2009 330.651 71.3387 330.651 72.8062C330.651 74.2737 330.989 75.4197 331.665 76.2441C332.358 77.0685 333.281 77.4808 334.436 77.4808C336.068 77.4808 337.148 76.7635 337.676 75.329H340.718C340.322 76.714 339.58 77.8188 338.492 78.6432C337.404 79.4512 336.051 79.8552 334.436 79.8552C333.133 79.8552 331.979 79.5666 330.973 78.9895C329.967 78.3959 329.176 77.5715 328.599 76.5162C328.038 75.4444 327.758 74.2077 327.758 72.8062ZM342.093 72.7567C342.093 71.3881 342.374 70.1762 342.934 69.1209C343.511 68.0656 344.286 67.2494 345.259 66.6723C346.248 66.0787 347.337 65.7819 348.524 65.7819C349.596 65.7819 350.527 65.9963 351.319 66.425C352.127 66.8372 352.77 67.3566 353.248 67.9832V66.0045H356.092V79.6326H353.248V77.6044C352.77 78.2475 352.119 78.7834 351.294 79.2121C350.47 79.6408 349.53 79.8552 348.474 79.8552C347.304 79.8552 346.232 79.5584 345.259 78.9648C344.286 78.3547 343.511 77.5137 342.934 76.442C342.374 75.3537 342.093 74.1253 342.093 72.7567ZM353.248 72.8062C353.248 71.8663 353.05 71.0501 352.654 70.3576C352.275 69.665 351.772 69.1374 351.146 68.7746C350.519 68.4119 349.843 68.2305 349.118 68.2305C348.392 68.2305 347.716 68.4119 347.089 68.7746C346.463 69.1209 345.952 69.6403 345.556 70.3328C345.177 71.0089 344.987 71.8168 344.987 72.7567C344.987 73.6966 345.177 74.521 345.556 75.23C345.952 75.9391 346.463 76.4832 347.089 76.8624C347.732 77.2252 348.409 77.4066 349.118 77.4066C349.843 77.4066 350.519 77.2252 351.146 76.8624C351.772 76.4997 352.275 75.972 352.654 75.2795C353.05 74.5705 353.248 73.746 353.248 72.8062ZM364.248 79.8552C363.176 79.8552 362.211 79.6655 361.354 79.2863C360.513 78.8906 359.845 78.3629 359.351 77.7034C358.856 77.0273 358.592 76.2771 358.559 75.4526H361.478C361.527 76.0297 361.799 76.5162 362.294 76.9119C362.805 77.2911 363.44 77.4808 364.198 77.4808C364.99 77.4808 365.6 77.3324 366.029 77.0356C366.474 76.7223 366.696 76.3265 366.696 75.8484C366.696 75.3372 366.449 74.958 365.954 74.7106C365.476 74.4633 364.709 74.1912 363.654 73.8944C362.632 73.6141 361.799 73.3421 361.156 73.0782C360.513 72.8144 359.952 72.4104 359.474 71.8663C359.013 71.3222 358.782 70.6049 358.782 69.7145C358.782 68.989 358.996 68.3294 359.425 67.7358C359.853 67.1257 360.464 66.6476 361.255 66.3013C362.063 65.955 362.986 65.7819 364.025 65.7819C365.575 65.7819 366.82 66.1776 367.76 66.9691C368.716 67.7441 369.227 68.8076 369.293 70.1597H366.474C366.424 69.5496 366.177 69.0632 365.732 68.7004C365.287 68.3377 364.685 68.1563 363.926 68.1563C363.184 68.1563 362.615 68.2965 362.22 68.5768C361.824 68.8571 361.626 69.2281 361.626 69.6898C361.626 70.0525 361.758 70.3576 362.022 70.6049C362.286 70.8522 362.607 71.0501 362.986 71.1985C363.366 71.3304 363.926 71.5035 364.668 71.7179C365.658 71.9817 366.466 72.2538 367.092 72.5341C367.735 72.7979 368.288 73.1937 368.749 73.7213C369.211 74.2489 369.45 74.9497 369.466 75.8236C369.466 76.5986 369.252 77.2911 368.823 77.9012C368.395 78.5113 367.785 78.9895 366.993 79.3358C366.218 79.682 365.303 79.8552 364.248 79.8552ZM384.509 72.4846C384.509 72.9958 384.476 73.4575 384.41 73.8697H373.997C374.08 74.958 374.484 75.8319 375.209 76.4914C375.935 77.151 376.825 77.4808 377.88 77.4808C379.397 77.4808 380.469 76.8459 381.096 75.5763H384.138C383.726 76.8295 382.975 77.86 381.887 78.668C380.815 79.4594 379.48 79.8552 377.88 79.8552C376.578 79.8552 375.407 79.5666 374.368 78.9895C373.346 78.3959 372.538 77.5715 371.944 76.5162C371.367 75.4444 371.079 74.2077 371.079 72.8062C371.079 71.4046 371.359 70.1762 371.92 69.1209C372.497 68.0491 373.296 67.2247 374.319 66.6476C375.357 66.0705 376.545 65.7819 377.88 65.7819C379.166 65.7819 380.312 66.0622 381.318 66.6228C382.324 67.1835 383.107 67.9749 383.668 68.9972C384.228 70.0031 384.509 71.1655 384.509 72.4846ZM381.566 71.5942C381.549 70.5554 381.178 69.7227 380.453 69.0962C379.727 68.4696 378.828 68.1563 377.757 68.1563C376.784 68.1563 375.951 68.4696 375.259 69.0962C374.566 69.7063 374.154 70.5389 374.022 71.5942H381.566Z" fill="#101828"/>
<path d="M149.55 345.533C149.55 336.806 156.625 329.731 165.352 329.731H467.648C476.375 329.731 483.45 336.806 483.45 345.533V436.526C483.45 445.253 476.375 452.328 467.648 452.328H165.352C156.625 452.328 149.55 445.253 149.55 436.526V345.533Z" fill="white"/>
<path d="M149.55 345.533C149.55 336.806 156.625 329.731 165.352 329.731H467.648C476.375 329.731 483.45 336.806 483.45 345.533V436.526C483.45 445.253 476.375 452.328 467.648 452.328H165.352C156.625 452.328 149.55 445.253 149.55 436.526V345.533Z" stroke="#E3E5E8" stroke-width="1.37407"/>
<path fill-rule="evenodd" clip-rule="evenodd" d="M321.061 375.633H309.974C306.508 375.62 303.668 378.381 303.584 381.848V399.743C303.509 403.247 306.289 406.147 309.791 406.222C309.853 406.222 309.914 406.223 309.974 406.222H323.288C326.771 406.098 329.524 403.228 329.505 399.743V384.426L321.061 375.633Z" stroke="url(#paint1_linear_32_6562)" stroke-width="1.4" stroke-linecap="round" stroke-linejoin="round"/>
<path d="M320.625 375.614V380.462C320.625 382.829 322.54 384.747 324.906 384.754H329.496" stroke="url(#paint2_linear_32_6562)" stroke-width="1.4" stroke-linecap="round" stroke-linejoin="round"/>
<path d="M315.902 387.544V397.613" stroke="url(#paint3_linear_32_6562)" stroke-width="1.4" stroke-linecap="round" stroke-linejoin="round"/>
<path d="M319.811 391.47L315.903 387.545L311.994 391.47" stroke="url(#paint4_linear_32_6562)" stroke-width="1.4" stroke-linecap="round" stroke-linejoin="round"/>
<g filter="url(#filter2_d_32_6562)">
<rect x="212.891" y="470.021" width="208.591" height="54.6323" rx="27.3162" stroke="#EEF0F4" stroke-width="1.64216" shape-rendering="crispEdges"/>
<path d="M271.032 494.839C271.032 495.575 270.854 496.264 270.5 496.908C270.158 497.552 269.613 498.071 268.864 498.465C268.128 498.859 267.196 499.056 266.066 499.056H263.76V504.337H261.001V490.583H266.066C267.13 490.583 268.036 490.767 268.785 491.134C269.534 491.502 270.092 492.008 270.46 492.652C270.841 493.295 271.032 494.025 271.032 494.839ZM265.948 496.829C266.709 496.829 267.274 496.659 267.642 496.317C268.01 495.962 268.194 495.47 268.194 494.839C268.194 493.499 267.445 492.829 265.948 492.829H263.76V496.829H265.948ZM277.641 504.515C276.59 504.515 275.644 504.285 274.803 503.825C273.963 503.352 273.299 502.689 272.813 501.835C272.34 500.981 272.104 499.995 272.104 498.879C272.104 497.762 272.347 496.777 272.833 495.923C273.332 495.069 274.008 494.412 274.862 493.952C275.716 493.479 276.669 493.243 277.72 493.243C278.771 493.243 279.723 493.479 280.577 493.952C281.431 494.412 282.101 495.069 282.587 495.923C283.086 496.777 283.336 497.762 283.336 498.879C283.336 499.995 283.08 500.981 282.567 501.835C282.068 502.689 281.385 503.352 280.518 503.825C279.664 504.285 278.705 504.515 277.641 504.515ZM277.641 502.111C278.14 502.111 278.607 501.992 279.04 501.756C279.487 501.506 279.841 501.138 280.104 500.652C280.367 500.166 280.498 499.575 280.498 498.879C280.498 497.841 280.222 497.046 279.671 496.494C279.132 495.929 278.469 495.647 277.68 495.647C276.892 495.647 276.229 495.929 275.69 496.494C275.165 497.046 274.902 497.841 274.902 498.879C274.902 499.917 275.158 500.718 275.67 501.283C276.196 501.835 276.853 502.111 277.641 502.111ZM289.34 504.515C288.447 504.515 287.646 504.357 286.936 504.042C286.227 503.713 285.662 503.273 285.241 502.721C284.834 502.17 284.611 501.559 284.571 500.889H287.35C287.402 501.309 287.606 501.657 287.961 501.933C288.329 502.209 288.782 502.347 289.321 502.347C289.846 502.347 290.253 502.242 290.542 502.032C290.844 501.821 290.996 501.552 290.996 501.224C290.996 500.869 290.812 500.606 290.444 500.436C290.089 500.252 289.518 500.055 288.729 499.844C287.915 499.647 287.245 499.444 286.719 499.233C286.207 499.023 285.76 498.701 285.379 498.268C285.012 497.834 284.828 497.25 284.828 496.514C284.828 495.91 284.998 495.358 285.34 494.859C285.695 494.36 286.194 493.965 286.838 493.676C287.494 493.387 288.263 493.243 289.143 493.243C290.444 493.243 291.482 493.571 292.257 494.228C293.032 494.872 293.459 495.746 293.538 496.849H290.897C290.858 496.416 290.674 496.074 290.345 495.824C290.03 495.562 289.603 495.43 289.064 495.43C288.565 495.43 288.178 495.522 287.902 495.706C287.639 495.89 287.508 496.146 287.508 496.475C287.508 496.842 287.692 497.125 288.059 497.322C288.427 497.506 288.999 497.696 289.774 497.893C290.562 498.091 291.212 498.294 291.725 498.504C292.237 498.715 292.677 499.043 293.045 499.49C293.426 499.923 293.623 500.501 293.636 501.224C293.636 501.854 293.459 502.419 293.104 502.918C292.762 503.418 292.263 503.812 291.606 504.101C290.963 504.377 290.207 504.515 289.34 504.515ZM298.916 495.686V500.968C298.916 501.335 299.001 501.605 299.172 501.776C299.356 501.933 299.658 502.012 300.078 502.012H301.359V504.337H299.625C297.3 504.337 296.137 503.207 296.137 500.948V495.686H294.837V493.42H296.137V490.721H298.916V493.42H301.359V495.686H298.916ZM306.936 498.839C306.936 497.736 307.152 496.757 307.586 495.903C308.033 495.049 308.63 494.392 309.379 493.933C310.141 493.473 310.988 493.243 311.921 493.243C312.736 493.243 313.445 493.407 314.049 493.736C314.667 494.064 315.159 494.478 315.527 494.977V493.42H318.306V504.337H315.527V502.741C315.173 503.253 314.68 503.68 314.049 504.022C313.432 504.35 312.716 504.515 311.901 504.515C310.982 504.515 310.141 504.278 309.379 503.805C308.63 503.332 308.033 502.669 307.586 501.815C307.152 500.948 306.936 499.956 306.936 498.839ZM315.527 498.879C315.527 498.209 315.396 497.637 315.133 497.164C314.87 496.678 314.516 496.31 314.069 496.061C313.622 495.798 313.143 495.667 312.631 495.667C312.118 495.667 311.645 495.791 311.212 496.041C310.778 496.291 310.424 496.659 310.148 497.145C309.885 497.618 309.754 498.182 309.754 498.839C309.754 499.496 309.885 500.074 310.148 500.573C310.424 501.06 310.778 501.434 311.212 501.697C311.658 501.959 312.131 502.091 312.631 502.091C313.143 502.091 313.622 501.966 314.069 501.716C314.516 501.454 314.87 501.086 315.133 500.613C315.396 500.127 315.527 499.549 315.527 498.879ZM324.632 497.44C324.632 496.087 324.934 494.878 325.538 493.814C326.156 492.737 326.99 491.903 328.041 491.312C329.105 490.707 330.294 490.405 331.608 490.405C333.145 490.405 334.491 490.799 335.647 491.588C336.803 492.376 337.611 493.466 338.071 494.859H334.899C334.583 494.202 334.137 493.709 333.559 493.381C332.994 493.052 332.337 492.888 331.588 492.888C330.787 492.888 330.071 493.079 329.44 493.46C328.823 493.827 328.336 494.353 327.982 495.036C327.64 495.719 327.469 496.521 327.469 497.44C327.469 498.347 327.64 499.148 327.982 499.844C328.336 500.527 328.823 501.06 329.44 501.441C330.071 501.808 330.787 501.992 331.588 501.992C332.337 501.992 332.994 501.828 333.559 501.5C334.137 501.158 334.583 500.659 334.899 500.002H338.071C337.611 501.408 336.803 502.505 335.647 503.293C334.504 504.068 333.158 504.456 331.608 504.456C330.294 504.456 329.105 504.16 328.041 503.569C326.99 502.964 326.156 502.13 325.538 501.066C324.934 500.002 324.632 498.793 324.632 497.44ZM339.521 498.839C339.521 497.736 339.738 496.757 340.171 495.903C340.618 495.049 341.216 494.392 341.965 493.933C342.727 493.473 343.574 493.243 344.507 493.243C345.321 493.243 346.031 493.407 346.635 493.736C347.252 494.064 347.745 494.478 348.113 494.977V493.42H350.891V504.337H348.113V502.741C347.758 503.253 347.265 503.68 346.635 504.022C346.017 504.35 345.301 504.515 344.487 504.515C343.567 504.515 342.727 504.278 341.965 503.805C341.216 503.332 340.618 502.669 340.171 501.815C339.738 500.948 339.521 499.956 339.521 498.839ZM348.113 498.879C348.113 498.209 347.981 497.637 347.719 497.164C347.456 496.678 347.101 496.31 346.655 496.061C346.208 495.798 345.728 495.667 345.216 495.667C344.704 495.667 344.231 495.791 343.797 496.041C343.364 496.291 343.009 496.659 342.733 497.145C342.47 497.618 342.339 498.182 342.339 498.839C342.339 499.496 342.47 500.074 342.733 500.573C343.009 501.06 343.364 501.434 343.797 501.697C344.244 501.959 344.717 502.091 345.216 502.091C345.728 502.091 346.208 501.966 346.655 501.716C347.101 501.454 347.456 501.086 347.719 500.613C347.981 500.127 348.113 499.549 348.113 498.879ZM357.566 504.515C356.673 504.515 355.872 504.357 355.162 504.042C354.453 503.713 353.888 503.273 353.468 502.721C353.06 502.17 352.837 501.559 352.798 500.889H355.576C355.629 501.309 355.832 501.657 356.187 501.933C356.555 502.209 357.008 502.347 357.547 502.347C358.072 502.347 358.479 502.242 358.768 502.032C359.071 501.821 359.222 501.552 359.222 501.224C359.222 500.869 359.038 500.606 358.67 500.436C358.315 500.252 357.744 500.055 356.956 499.844C356.141 499.647 355.471 499.444 354.946 499.233C354.433 499.023 353.987 498.701 353.606 498.268C353.238 497.834 353.054 497.25 353.054 496.514C353.054 495.91 353.225 495.358 353.566 494.859C353.921 494.36 354.42 493.965 355.064 493.676C355.721 493.387 356.489 493.243 357.369 493.243C358.67 493.243 359.708 493.571 360.483 494.228C361.258 494.872 361.685 495.746 361.764 496.849H359.123C359.084 496.416 358.9 496.074 358.571 495.824C358.256 495.562 357.829 495.43 357.291 495.43C356.791 495.43 356.404 495.522 356.128 495.706C355.865 495.89 355.734 496.146 355.734 496.475C355.734 496.842 355.918 497.125 356.286 497.322C356.653 497.506 357.225 497.696 358 497.893C358.788 498.091 359.438 498.294 359.951 498.504C360.463 498.715 360.903 499.043 361.271 499.49C361.652 499.923 361.849 500.501 361.862 501.224C361.862 501.854 361.685 502.419 361.33 502.918C360.989 503.418 360.489 503.812 359.833 504.101C359.189 504.377 358.433 504.515 357.566 504.515ZM374.078 498.642C374.078 499.036 374.052 499.391 374 499.706H366.019C366.084 500.495 366.36 501.112 366.846 501.559C367.332 502.005 367.93 502.229 368.64 502.229C369.664 502.229 370.393 501.789 370.827 500.908H373.803C373.487 501.959 372.883 502.826 371.99 503.51C371.096 504.18 369.999 504.515 368.699 504.515C367.648 504.515 366.702 504.285 365.861 503.825C365.033 503.352 364.383 502.689 363.91 501.835C363.45 500.981 363.22 499.995 363.22 498.879C363.22 497.749 363.45 496.757 363.91 495.903C364.37 495.049 365.014 494.392 365.841 493.933C366.669 493.473 367.621 493.243 368.699 493.243C369.737 493.243 370.663 493.466 371.477 493.913C372.305 494.36 372.942 494.997 373.389 495.824C373.849 496.639 374.078 497.578 374.078 498.642ZM371.221 497.854C371.208 497.145 370.952 496.58 370.453 496.159C369.953 495.726 369.342 495.509 368.62 495.509C367.937 495.509 367.359 495.719 366.886 496.14C366.426 496.547 366.144 497.118 366.038 497.854H371.221Z" fill="#171717"/>
</g>
<g filter="url(#filter3_d_32_6562)">
<rect x="330" y="117" width="254.135" height="254.135" rx="20.0541" fill="white" shape-rendering="crispEdges"/>
<rect x="330.708" y="117.708" width="252.719" height="252.719" rx="19.346" stroke="#6E00FF" stroke-width="1.41603" shape-rendering="crispEdges"/>
<rect x="350.554" y="137.554" width="101" height="101" rx="9.5" stroke="#F0E5FF"/>
<g clip-path="url(#clip1_32_6562)">
<path d="M362.335 187.688C362.335 187.688 375.332 190.609 375.429 190.61C375.641 190.604 375.847 190.547 376.032 190.444C376.217 190.341 376.373 190.194 376.488 190.017C376.604 189.84 376.674 189.637 376.694 189.426C376.713 189.216 376.681 189.003 376.6 188.808C376.026 187.515 372.992 181.051 369.433 180.374L364.167 179.11C363.83 179.037 363.478 179.099 363.187 179.285C362.896 179.47 362.69 179.762 362.614 180.098L361.362 186.18C361.294 186.509 361.358 186.851 361.54 187.133C361.722 187.415 362.007 187.615 362.335 187.688ZM364.857 181.912C364.857 181.912 368.919 182.885 368.944 182.89C370.138 183.101 371.783 185.286 373.043 187.476L364.125 185.465L364.857 181.912ZM438.927 179.275C438.782 179.183 438.62 179.121 438.45 179.092C438.281 179.064 438.108 179.07 437.941 179.11L432.675 180.374C429.116 181.051 426.082 187.514 425.508 188.808C425.428 189.003 425.397 189.215 425.417 189.425C425.437 189.636 425.507 189.838 425.622 190.015C425.737 190.192 425.894 190.338 426.078 190.442C426.262 190.546 426.468 190.603 426.679 190.61C426.772 190.61 439.773 187.688 439.773 187.688C440.101 187.615 440.386 187.415 440.568 187.133C440.75 186.851 440.814 186.509 440.746 186.18L439.494 180.098C439.46 179.93 439.392 179.77 439.294 179.629C439.197 179.488 439.072 179.367 438.927 179.275ZM429.064 187.476C430.322 185.287 431.967 183.102 433.164 182.89C433.19 182.885 437.251 181.912 437.251 181.912L437.983 185.465L429.064 187.476Z" fill="#6E00FF"/>
<path d="M440.773 212.397H420.284C420.724 212.396 421.162 212.349 421.593 212.259C423.123 211.937 424.482 211.066 425.414 209.811C426.346 208.555 426.785 207.002 426.65 205.444L441.048 202.271C441.38 202.198 441.669 201.996 441.851 201.71C442.034 201.423 442.096 201.076 442.023 200.744C441.95 200.413 441.748 200.124 441.462 199.94C441.176 199.757 440.829 199.695 440.497 199.768L425.926 202.979C425.27 201.744 424.228 200.757 422.958 200.17C421.688 199.583 420.261 199.428 418.895 199.729C417.529 200.03 416.299 200.771 415.394 201.837C414.488 202.903 413.957 204.237 413.881 205.634L406.578 207.243C406.243 207.314 405.893 207.252 405.604 207.068C405.315 206.885 405.109 206.596 405.03 206.262C404.84 205.393 404.64 204.461 404.451 203.577L406.49 203.067C406.819 202.985 407.103 202.775 407.278 202.483C407.453 202.192 407.505 201.843 407.422 201.513C407.34 201.183 407.13 200.9 406.839 200.725C406.547 200.55 406.198 200.498 405.868 200.58L403.92 201.068C403.769 200.347 403.659 199.82 403.622 199.641C403.583 199.156 403.749 198.639 404.615 197.648C405.458 196.683 407.614 194.849 412.584 193.41C417.435 191.788 421.627 188.634 424.53 184.423C424.553 184.389 424.575 184.353 424.594 184.316C425.552 182.525 428.797 177.678 432.318 176.628L440.979 175.213C441.314 175.159 441.614 174.973 441.813 174.697C442.011 174.421 442.092 174.078 442.037 173.742C441.983 173.407 441.797 173.107 441.521 172.908C441.245 172.71 440.902 172.629 440.566 172.684L431.829 174.111C431.78 174.119 431.732 174.129 431.685 174.143C426.568 175.597 422.78 182.293 422.367 183.047C419.785 186.718 416.113 189.482 411.872 190.948C407.722 192.149 404.46 193.93 402.685 195.961C401.741 197.043 400.893 198.278 401.08 199.975C401.084 200.016 401.091 200.056 401.099 200.095C401.099 200.095 401.873 203.823 402.527 206.81C402.722 207.67 403.203 208.438 403.893 208.987C404.582 209.536 405.438 209.834 406.319 209.831C406.581 209.831 414.258 208.175 414.258 208.175C414.703 209.407 415.516 210.473 416.586 211.228C417.656 211.983 418.933 212.391 420.243 212.397H381.866C383.175 212.391 384.452 211.983 385.522 211.228C386.593 210.473 387.405 209.407 387.85 208.175C387.85 208.175 395.537 209.834 395.795 209.834C396.676 209.834 397.53 209.535 398.218 208.986C398.906 208.436 399.387 207.669 399.581 206.81C400.235 203.823 401.009 200.095 401.009 200.095C401.017 200.056 401.024 200.016 401.028 199.975C401.215 198.278 400.367 197.043 399.423 195.961C397.649 193.93 394.386 192.149 390.236 190.948C385.99 189.491 382.316 186.725 379.741 183.047C379.328 182.293 375.54 175.597 370.423 174.143C370.376 174.129 370.328 174.119 370.279 174.111L361.542 172.684C361.207 172.63 360.864 172.71 360.588 172.909C360.312 173.107 360.127 173.407 360.072 173.742C360.017 174.078 360.098 174.421 360.296 174.697C360.494 174.973 360.794 175.158 361.129 175.213L369.79 176.628C374.02 177.887 377.479 184.252 377.514 184.317C377.533 184.353 377.555 184.389 377.578 184.423C380.481 188.634 384.673 191.788 389.524 193.41C394.494 194.849 396.65 196.683 397.493 197.648C398.359 198.639 398.525 199.156 398.486 199.641C398.449 199.82 398.339 200.347 398.188 201.068L396.24 200.58C395.91 200.498 395.561 200.55 395.269 200.725C394.978 200.9 394.768 201.183 394.686 201.513C394.603 201.843 394.655 202.192 394.83 202.483C395.005 202.775 395.289 202.985 395.618 203.067L397.657 203.577C397.469 204.461 397.268 205.393 397.078 206.262C397.001 206.593 396.798 206.881 396.513 207.065C396.227 207.249 395.881 207.314 395.548 207.247L388.227 205.634C388.15 204.237 387.619 202.904 386.713 201.839C385.808 200.773 384.578 200.033 383.212 199.732C381.847 199.431 380.42 199.586 379.151 200.172C377.881 200.758 376.838 201.744 376.182 202.979L361.611 199.768C361.279 199.695 360.932 199.757 360.646 199.94C360.36 200.124 360.158 200.413 360.085 200.744C360.012 201.076 360.074 201.423 360.257 201.71C360.439 201.996 360.728 202.198 361.06 202.271L375.458 205.444C375.323 207.002 375.762 208.555 376.694 209.81C377.626 211.066 378.985 211.937 380.515 212.259C380.946 212.349 381.384 212.396 381.824 212.397H361.336C360.996 212.397 360.67 212.532 360.429 212.773C360.189 213.013 360.054 213.339 360.054 213.679C360.054 214.019 360.189 214.345 360.429 214.585C360.67 214.825 360.996 214.96 361.336 214.96H440.773C441.112 214.96 441.438 214.825 441.679 214.585C441.919 214.345 442.054 214.019 442.054 213.679C442.054 213.339 441.919 213.013 441.679 212.773C441.438 212.532 441.112 212.397 440.773 212.397ZM416.528 206.778C416.422 206.286 416.413 205.777 416.503 205.282C416.594 204.786 416.781 204.313 417.054 203.89C417.469 203.253 418.063 202.754 418.762 202.456C419.461 202.157 420.233 202.072 420.98 202.212C421.727 202.352 422.416 202.71 422.959 203.242C423.503 203.773 423.876 204.454 424.033 205.197C424.19 205.941 424.122 206.714 423.839 207.42C423.556 208.125 423.071 208.731 422.444 209.16C421.817 209.59 421.076 209.824 420.316 209.832C419.556 209.841 418.811 209.624 418.174 209.209C417.754 208.932 417.392 208.575 417.109 208.158C416.827 207.74 416.629 207.272 416.528 206.778ZM381.043 209.75C380.549 209.648 380.08 209.448 379.663 209.163C379.247 208.877 378.891 208.512 378.616 208.088C378.201 207.452 377.984 206.706 377.993 205.946C378.001 205.186 378.235 204.445 378.665 203.818C379.094 203.191 379.7 202.705 380.405 202.422C381.111 202.14 381.884 202.072 382.628 202.229C383.372 202.386 384.053 202.76 384.584 203.303C385.115 203.847 385.473 204.536 385.613 205.283C385.753 206.03 385.668 206.802 385.369 207.501C385.07 208.2 384.571 208.794 383.934 209.209C383.512 209.486 383.039 209.677 382.543 209.77C382.047 209.862 381.537 209.856 381.043 209.75Z" fill="#6E00FF"/>
<path d="M381.764 179.268L388.827 183.986C389.111 184.171 389.455 184.237 389.787 184.171C390.119 184.105 390.412 183.911 390.604 183.632C390.793 183.349 390.861 183.003 390.795 182.67C390.729 182.337 390.533 182.043 390.25 181.854L386.095 179.079L390.602 178.563C390.808 178.536 391.003 178.46 391.173 178.342C391.343 178.224 391.482 178.067 391.579 177.884C391.676 177.701 391.727 177.498 391.73 177.291C391.732 177.084 391.685 176.88 391.592 176.695L390.116 173.879L395.379 175.01C395.57 175.047 395.768 175.041 395.956 174.992C396.145 174.942 396.32 174.851 396.469 174.725C396.617 174.599 396.736 174.441 396.815 174.263C396.895 174.085 396.933 173.891 396.928 173.696L396.638 167.662L400.532 170.982C400.671 171.097 400.832 171.182 401.005 171.231C401.179 171.28 401.36 171.293 401.539 171.268C401.717 171.243 401.889 171.181 402.042 171.087C402.195 170.992 402.327 170.866 402.429 170.718L405.801 165.661L407.217 172.37C407.265 172.581 407.365 172.776 407.509 172.939C407.652 173.101 407.834 173.224 408.037 173.298C408.241 173.372 408.459 173.394 408.673 173.362C408.887 173.329 409.09 173.244 409.262 173.113L413.533 169.756L411.172 177.174C411.115 177.367 411.104 177.571 411.139 177.769C411.174 177.967 411.255 178.155 411.374 178.316C411.494 178.478 411.65 178.61 411.829 178.702C412.008 178.793 412.206 178.842 412.407 178.845L416.364 178.799L414.172 180.866C413.925 181.099 413.78 181.42 413.77 181.76C413.76 182.1 413.885 182.43 414.118 182.677C414.351 182.924 414.673 183.069 415.012 183.079C415.352 183.089 415.682 182.964 415.929 182.731L418.573 180.239C419.299 179.682 419.959 179.045 420.541 178.34C421.118 177.474 420.887 176.198 419.617 176.198L414.152 176.261L417.239 166.562C417.314 166.302 417.306 166.025 417.216 165.77C417.125 165.515 416.957 165.294 416.735 165.14C416.512 164.986 416.247 164.905 415.976 164.91C415.706 164.914 415.443 165.003 415.226 165.165L409.299 169.824L407.679 162.15C407.623 161.906 407.497 161.684 407.317 161.511C407.137 161.337 406.91 161.22 406.665 161.172C406.419 161.125 406.165 161.15 405.933 161.244C405.702 161.339 405.503 161.498 405.36 161.703L401.097 168.096L396.048 163.79C395.856 163.633 395.623 163.534 395.377 163.505C395.131 163.477 394.881 163.519 394.658 163.629C394.436 163.738 394.249 163.909 394.121 164.122C393.994 164.334 393.929 164.579 393.937 164.827L394.289 172.154L387.982 170.798C387.744 170.752 387.499 170.773 387.274 170.859C387.048 170.945 386.851 171.093 386.705 171.285C386.559 171.477 386.469 171.707 386.447 171.947C386.424 172.188 386.469 172.43 386.577 172.646L388.455 176.229L382.33 176.929C382.07 176.959 381.824 177.068 381.628 177.242C381.431 177.416 381.292 177.646 381.231 177.901C381.169 178.156 381.187 178.424 381.282 178.669C381.378 178.913 381.546 179.123 381.764 179.268Z" fill="#6E00FF"/>
</g>
<rect x="462.581" y="137.554" width="101" height="101" rx="9.5" stroke="#F0E5FF"/>
<g clip-path="url(#clip2_32_6562)">
<path d="M473.459 196.288L477.554 193.25C478.05 192.882 478.286 192.259 478.16 191.654L476.6 184.186C476.379 183.129 477.258 182.165 478.331 182.289L479.658 182.442C480.05 182.488 480.411 182.678 480.67 182.975L484.033 186.836C484.354 187.205 484.828 187.405 485.316 187.377L492.087 186.994C492.616 186.964 493.125 187.201 493.443 187.625L494.714 189.319C495.078 189.805 495.687 190.039 496.282 189.924L503.869 188.452C504.898 188.252 505.833 189.089 505.749 190.134L505.531 192.815C505.478 193.475 505.019 194.032 504.382 194.211L501.88 194.915M486.601 211.646L493.123 207.153C493.505 206.889 493.984 206.807 494.433 206.928L500.768 208.634C501.468 208.822 502.207 208.511 502.561 207.878L503.294 206.57C503.761 205.736 503.388 204.681 502.501 204.326L500.534 203.539M483.751 204.996L481.254 211.171C480.96 211.899 481.243 212.732 481.92 213.13L494.807 220.703C495.533 221.129 495.798 222.048 495.411 222.795L494.411 224.73C494.026 225.474 493.128 225.789 492.363 225.45L478.367 219.246M498.317 195.917L496.302 196.483C495.698 196.653 495.252 197.163 495.163 197.784L494.992 198.979L494.852 199.964C494.748 200.687 495.153 201.387 495.831 201.658L500.534 203.539M498.317 195.917L499.584 198.663M498.317 195.917L501.88 194.915M501.88 194.915L503.226 197.713M500.534 203.539L501.88 200.879" stroke="#6E00FF" stroke-width="2" stroke-linecap="round"/>
<path d="M524.284 215.129H545.026M531.409 220.196H551.676M524.284 225.263H545.026M502.434 179.663V183.938M507.501 181.088L505.442 183.146M486.917 193.121C486.917 193.121 487.392 192.013 488.184 192.013C489.609 192.013 490.242 193.121 490.242 193.121" stroke="#6E00FF" stroke-width="2" stroke-linecap="round"/>
<path d="M522.384 162.404C518.742 162.246 515.892 162.088 509.717 162.879C504.948 163.49 498.792 167.154 497.367 169.529C496.782 170.504 497.309 171.635 498 172.537C498.588 173.304 499.409 173.804 500.375 173.804C501.642 173.804 502.909 172.063 507.5 169.687C510.521 168.125 512.409 168.262 517.317 168.262C519.696 168.262 516.048 171.622 515.1 173.804C514.111 176.082 513.443 177.37 513.042 179.821C512.652 182.201 512.752 183.602 513.042 185.996C513.326 188.333 513.894 189.57 514.467 191.854C515.525 196.073 517.419 198.279 517.159 202.621C517.046 204.508 515.143 206.887 514.15 208.796C513.246 210.534 512.438 212.078 511.828 213.24C511.102 214.622 510.957 216.471 512.25 217.346V217.346V217.346C513.777 218.379 515.792 217.444 516.814 215.91C518.102 213.975 519.924 211.193 521.592 208.479C522.966 206.243 524.901 203.346 524.917 201.037C524.938 197.932 522.486 195.812 523.65 194.546C524.575 193.541 528.055 196.79 530.026 198.791C530.947 199.727 531.529 200.932 531.756 202.225L533.064 209.668C533.325 211.157 534.011 212.67 535.429 213.196C535.82 213.341 536.234 213.426 536.634 213.387V213.387C538.631 213.196 539.323 210.755 539.058 208.767L537.611 197.919C537.389 196.254 536.577 194.723 535.286 193.649C533.908 192.503 532.017 190.985 530.3 189.796C528.076 188.255 526.5 186.946 526.184 185.996C525.928 185.23 528.965 180.657 530.153 178.913C530.46 178.462 530.816 177.85 531.355 177.938C532.642 178.15 533.066 182.681 535.05 183.937C539.8 186.946 548.35 189.321 549.3 189.162C550.25 189.004 551.617 188.373 551.992 187.104C552.363 185.847 551.834 184.887 550.884 183.937C549.934 182.987 540.909 181.404 539.484 179.821C538.059 178.237 533.467 167.312 533.467 167.312" stroke="#6E00FF" stroke-width="2" stroke-linecap="round"/>
<circle cx="531.884" cy="157.338" r="6.28333" stroke="#6E00FF" stroke-width="2"/>
</g>
<rect x="350.554" y="249.581" width="101" height="101" rx="9.5" stroke="#F0E5FF"/>
<path d="M379 326.054H394.352M386.764 331.524H400.704M374.941 336.818H403.528" stroke="#6E00FF" stroke-width="0.705848"/>
<path d="M392.083 268.22C391.606 266.442 393.461 264.788 392.083 263.518C391.394 262.882 390.573 263.186 389.827 262.613C388.999 261.978 389.054 261.179 388.323 260.443C385.279 257.379 377.043 260.443 377.043 260.443C377.043 260.443 375.556 260.936 374.786 261.528C373.626 262.422 372.718 264.603 372.718 264.603L371.966 270.029M392.083 268.22C392.518 269.842 392.929 269.836 392.955 271.2C392.981 272.63 393.091 273.943 392.083 274.913C391.304 275.662 389.827 276.541 389.827 276.541M392.083 268.22L388.793 266.683M389.827 276.541L400.731 280.52M389.827 276.541L388.793 266.683M389.827 276.541C389.827 276.541 388.801 276.991 387.461 277.445M400.731 280.52L407.687 282.69L422.727 277.445C422.727 277.445 425.394 278.114 426.111 279.435C427.302 281.625 422.727 284.861 422.727 284.861C422.727 284.861 413.929 290.363 407.687 290.106C404.91 289.992 403.436 289.272 400.731 288.659M400.731 280.52V288.659M400.731 288.659C398.668 288.192 395.467 287.393 395.467 287.393L400.731 298.969M400.731 298.969H420.283L434.383 312.354M400.731 298.969L386.631 310.907M434.383 312.354C434.383 312.354 437.284 309.689 439.46 310.002C440.404 310.138 441.167 310.155 441.716 310.907C442.307 311.716 442.002 312.489 441.716 313.439C441.323 314.742 440.43 315.168 439.46 316.152C437.731 317.905 434.383 319.95 434.383 319.95L430.623 316.74M434.383 312.354L430.623 316.74M421.599 333.878L414.643 316.152L407.687 310.002L419.343 307.108L430.623 316.74M421.599 333.878C421.599 333.878 426.352 333.622 427.239 335.686C427.688 336.731 427.653 337.522 427.239 338.58C426.395 340.742 423.978 340.624 421.599 340.932C420.435 341.082 419.739 341.174 418.591 340.932C416.82 340.557 414.643 338.58 414.643 338.58M421.599 333.878L414.643 338.58M414.643 338.58L408.627 323.568C408.627 323.568 399.517 319.516 394.151 316.152C391.112 314.247 389.146 313.421 386.631 310.907M386.631 310.907C383.635 307.913 382.404 305.722 380.803 301.863C379.004 297.527 378.547 290.106 378.547 290.106C378.547 290.106 375.466 291.72 373.846 293.181M373.846 293.181C370.87 295.866 370.034 298.195 368.582 301.863C367.48 304.649 368.608 306.928 366.702 309.279C365.806 310.384 365.322 311.414 363.882 311.63C362.357 311.859 360.611 309.279 360.611 309.279C360.611 309.279 359.734 304.993 360.31 301.863C360.972 298.272 362.112 296.405 363.882 293.181C365.442 290.34 366.554 288.86 368.582 286.308M373.846 293.181L368.582 286.308M368.582 286.308C370.478 283.922 371.693 282.694 373.846 280.52C375.064 279.291 377.043 277.445 377.043 277.445M377.043 277.445L375.727 274.913M377.043 277.445C377.043 277.445 378.201 277.765 379.675 278.029M375.727 274.913C375.727 274.913 374.565 275.058 373.846 274.913C372.551 274.65 372.41 274.389 371.966 273.189C371.53 272.01 371.966 270.029 371.966 270.029M375.727 274.913V268.22M371.966 270.029L375.727 268.22M375.727 268.22L383.059 267.316L385.503 265.146L388.793 266.683M387.461 277.445C386.263 277.851 384.814 278.259 383.623 278.349C382.429 278.44 380.936 278.255 379.675 278.029M387.461 277.445C387.461 277.445 387.571 283.052 383.623 283.233C379.675 283.414 379.675 278.029 379.675 278.029M427.239 329.718C427.239 329.718 425.259 326.357 426.487 324.834C428.188 322.724 429.454 328.276 432.127 328.994C435.373 329.865 438.141 325.138 440.588 327.366C443.572 330.084 432.691 334.058 432.691 334.058" stroke="#6E00FF" stroke-width="2"/>
<rect x="373.353" y="324.642" width="2.82339" height="2.82339" fill="#6E00FF"/>
<rect x="462.054" y="249.081" width="102" height="102" rx="10" fill="#6E00FF"/>
<path d="M499.753 277.933C499.753 277.933 499.248 261.251 513.74 261.082C528.232 260.914 527.558 277.933 527.558 277.933M499.753 277.933H503.292M499.753 277.933C499.753 277.933 497.875 281.064 498.237 283.157C498.713 285.908 503.292 288.213 503.292 288.213M527.558 277.933L524.187 277.428M527.558 277.933C527.558 277.933 529.947 281.001 529.58 283.157C529.118 285.873 524.187 287.707 524.187 287.707M503.292 277.933C503.292 277.933 509.89 277.614 513.74 276.08C516.341 275.043 517.239 271.944 519.975 272.541C522.436 273.078 524.187 277.428 524.187 277.428M503.292 277.933V288.213M524.187 277.428V287.707M524.187 287.707C524.187 287.707 523.38 292.23 519.975 294.958M503.292 288.213C503.292 288.213 504.107 292.369 507.551 294.958M519.975 294.958C518.462 296.17 516.436 297.027 513.74 296.975C511.071 296.924 509.059 296.091 507.551 294.958M519.975 294.958V299.503M519.975 299.503L522.839 300.008M519.975 299.503C519.975 299.503 516.605 304.221 513.74 304.221C510.875 304.221 507.505 299.503 507.505 299.503M522.839 300.008C522.839 300.008 523.471 298.768 524.187 298.323C525.964 297.22 528.788 298.442 529.074 300.514C529.194 301.384 528.569 302.705 528.569 302.705M522.839 300.008L510.197 323.263M528.569 302.705C528.569 302.705 535.861 303.447 539.016 306.412C540.852 308.136 542.555 311.804 542.555 311.804V339.103H533.118M528.569 302.705L525.198 311.804M516.941 336.744L519.975 339.103H526.547M516.941 336.744H514.414M516.941 336.744V326.296M514.414 336.744V339.103H499.248V336.744M514.414 336.744L511.146 326.296M499.248 336.744H485.767C485.767 336.744 484.599 335.645 484.25 334.722C483.809 333.552 484.25 331.52 484.25 331.52L487.62 307.423L490.991 304.727L497.057 302.705M499.248 336.744L498.575 326.296M497.057 302.705C497.057 302.705 496.623 300.968 497.057 300.008C497.787 298.394 499.63 297.652 501.27 298.323C502.537 298.842 503.292 301.188 503.292 301.188M497.057 302.705L498.575 326.296M503.292 301.188L507.505 299.503M503.292 301.188L510.197 323.263M507.505 299.503L507.551 294.958M510.197 323.263L511.146 326.296M520.48 326.296H526.041C526.041 326.296 529.15 329.094 529.58 331.52C530.136 334.66 526.547 339.103 526.547 339.103M520.48 326.296H516.941M520.48 326.296L524.187 314.5M511.146 326.296H516.941M526.547 339.103H533.118M533.118 339.103V319.893M498.575 326.296H494.361" stroke="white" stroke-width="2" stroke-linecap="round"/>
<g clip-path="url(#clip3_32_6562)">
<g filter="url(#filter4_d_32_6562)">
<path d="M555.333 280.667C555.598 280.667 555.853 280.772 556.04 280.96C556.228 281.147 556.333 281.402 556.333 281.667V285C556.333 285.265 556.228 285.52 556.04 285.707C555.853 285.895 555.598 286 555.333 286C555.068 286 554.814 285.895 554.626 285.707C554.439 285.52 554.333 285.265 554.333 285V281.667C554.333 281.402 554.439 281.147 554.626 280.96C554.814 280.772 555.068 280.667 555.333 280.667ZM548.96 283.293C549.147 283.106 549.402 283.001 549.667 283.001C549.932 283.001 550.186 283.106 550.373 283.293L552.707 285.627C552.805 285.718 552.884 285.829 552.938 285.951C552.993 286.074 553.022 286.206 553.025 286.341C553.027 286.475 553.002 286.608 552.952 286.733C552.902 286.857 552.827 286.971 552.732 287.065C552.637 287.16 552.524 287.235 552.399 287.286C552.275 287.336 552.141 287.361 552.007 287.358C551.873 287.356 551.741 287.326 551.618 287.272C551.495 287.217 551.385 287.138 551.293 287.04L548.96 284.707C548.773 284.519 548.667 284.265 548.667 284C548.667 283.735 548.773 283.481 548.96 283.293ZM561.707 283.293C561.894 283.481 561.999 283.735 561.999 284C561.999 284.265 561.894 284.519 561.707 284.707L559.373 287.04C559.282 287.138 559.171 287.217 559.049 287.272C558.926 287.326 558.794 287.356 558.659 287.358C558.525 287.361 558.392 287.336 558.267 287.286C558.143 287.235 558.029 287.16 557.935 287.065C557.84 286.971 557.765 286.857 557.714 286.733C557.664 286.608 557.639 286.475 557.642 286.341C557.644 286.206 557.674 286.074 557.728 285.951C557.783 285.829 557.862 285.718 557.96 285.627L560.293 283.293C560.481 283.106 560.735 283.001 561 283.001C561.265 283.001 561.519 283.106 561.707 283.293ZM546.333 289.667C546.333 289.402 546.439 289.147 546.626 288.96C546.814 288.772 547.068 288.667 547.333 288.667H550.667C550.932 288.667 551.186 288.772 551.374 288.96C551.561 289.147 551.667 289.402 551.667 289.667C551.667 289.932 551.561 290.186 551.374 290.374C551.186 290.561 550.932 290.667 550.667 290.667H547.333C547.068 290.667 546.814 290.561 546.626 290.374C546.439 290.186 546.333 289.932 546.333 289.667ZM554.333 290.649C554.333 289.147 556.096 288.336 557.236 289.315L568.517 298.984C569.731 300.024 569.04 302.012 567.444 302.077L562.324 302.281C561.773 302.303 561.256 302.548 560.888 302.957L557.403 306.853C556.327 308.057 554.333 307.295 554.333 305.68V290.649Z" fill="white"/>
<path d="M552.518 285.815L552.518 285.815L550.185 283.482L552.518 285.815ZM552.518 285.815L552.525 285.822M552.518 285.815L552.525 285.822M552.525 285.822C552.597 285.889 552.655 285.97 552.695 286.06C552.735 286.15 552.756 286.247 552.758 286.345C552.76 286.444 552.742 286.542 552.705 286.633C552.668 286.724 552.613 286.807 552.543 286.877C552.474 286.947 552.391 287.001 552.3 287.038C552.208 287.075 552.11 287.093 552.012 287.092C551.913 287.09 551.816 287.068 551.726 287.028C551.636 286.988 551.555 286.93 551.488 286.858L551.488 286.858M552.525 285.822L551.488 286.858M551.488 286.858L551.482 286.852M551.488 286.858L551.482 286.852M551.482 286.852L549.149 284.518L551.482 286.852ZM559.185 286.851L559.185 286.852L561.518 284.518L559.185 286.851ZM559.185 286.851L559.178 286.858M559.185 286.851L559.178 286.858M559.178 286.858C559.111 286.93 559.03 286.988 558.94 287.028C558.85 287.068 558.753 287.09 558.655 287.092C558.556 287.093 558.458 287.075 558.367 287.038C558.276 287.001 558.193 286.947 558.123 286.877C558.053 286.807 557.999 286.724 557.962 286.633L557.714 286.733M559.178 286.858L557.714 286.733M557.714 286.733L557.962 286.633C557.925 286.542 557.907 286.444 557.908 286.345C557.91 286.247 557.932 286.15 557.972 286.06C558.012 285.97 558.07 285.889 558.142 285.822L558.142 285.822M557.714 286.733L558.142 285.822M558.142 285.822L558.148 285.815M558.142 285.822L558.148 285.815M558.148 285.815L560.482 283.482M558.148 285.815L560.482 283.482M549.667 283.268C549.472 283.268 549.286 283.345 549.148 283.482C549.011 283.619 548.934 283.806 548.934 284C548.934 284.194 549.011 284.381 549.148 284.518L549.667 283.268ZM549.667 283.268C549.861 283.268 550.047 283.345 550.185 283.482L549.667 283.268ZM561.732 284C561.732 283.806 561.655 283.62 561.518 283.482C561.518 283.482 561.518 283.482 561.518 283.482M561.732 284L561.518 283.482M561.732 284C561.732 284.194 561.655 284.381 561.518 284.518L561.732 284ZM561.518 283.482C561.38 283.345 561.194 283.268 561 283.268C560.806 283.268 560.619 283.345 560.482 283.482M561.518 283.482L560.482 283.482M557.062 289.517L557.062 289.517L568.344 299.187C569.373 300.069 568.787 301.756 567.433 301.811L562.314 302.015C562.314 302.015 562.313 302.015 562.313 302.015C561.69 302.039 561.105 302.317 560.69 302.779L560.689 302.78L557.204 306.676L557.204 306.676C556.291 307.697 554.6 307.05 554.6 305.68V290.649C554.6 289.374 556.095 288.687 557.062 289.517ZM555.333 280.933C555.528 280.933 555.714 281.011 555.852 281.148C555.989 281.286 556.067 281.472 556.067 281.667V285C556.067 285.195 555.989 285.381 555.852 285.519C555.714 285.656 555.528 285.733 555.333 285.733C555.139 285.733 554.952 285.656 554.815 285.519C554.677 285.381 554.6 285.195 554.6 285V281.667C554.6 281.472 554.677 281.286 554.815 281.148C554.952 281.011 555.139 280.933 555.333 280.933ZM546.6 289.667C546.6 289.472 546.677 289.286 546.815 289.148C546.952 289.011 547.139 288.933 547.333 288.933H550.667C550.861 288.933 551.048 289.011 551.185 289.148C551.323 289.286 551.4 289.472 551.4 289.667C551.4 289.861 551.323 290.048 551.185 290.185C551.048 290.323 550.861 290.4 550.667 290.4H547.333C547.139 290.4 546.952 290.323 546.815 290.185C546.677 290.048 546.6 289.861 546.6 289.667Z" stroke="#6E00FF" stroke-width="0.533333"/>
</g>
</g>
</g>
</g>
<defs>
<filter id="filter0_d_32_6562" x="67.6076" y="0.6036" width="673.622" height="719.343" filterUnits="userSpaceOnUse" color-interpolation-filters="sRGB">
<feFlood flood-opacity="0" result="BackgroundImageFix"/>
<feColorMatrix in="SourceAlpha" type="matrix" values="0 0 0 0 0 0 0 0 0 0 0 0 0 0 0 0 0 0 127 0" result="hardAlpha"/>
<feOffset dx="66.8508" dy="66.8468"/>
<feGaussianBlur stdDeviation="45.1216"/>
<feComposite in2="hardAlpha" operator="out"/>
<feColorMatrix type="matrix" values="0 0 0 0 0 0 0 0 0 0 0 0 0 0 0 0 0 0 0.04 0"/>
<feBlend mode="normal" in2="BackgroundImageFix" result="effect1_dropShadow_32_6562"/>
<feBlend mode="normal" in="SourceGraphic" in2="effect1_dropShadow_32_6562" result="shape"/>
</filter>
<filter id="filter1_d_32_6562" x="0.75676" y="56.8378" width="371.486" height="364.622" filterUnits="userSpaceOnUse" color-interpolation-filters="sRGB">
<feFlood flood-opacity="0" result="BackgroundImageFix"/>
<feColorMatrix in="SourceAlpha" type="matrix" values="0 0 0 0 0 0 0 0 0 0 0 0 0 0 0 0 0 0 127 0" result="hardAlpha"/>
<feOffset dy="30.0811"/>
<feGaussianBlur stdDeviation="45.1216"/>
<feComposite in2="hardAlpha" operator="out"/>
<feColorMatrix type="matrix" values="0 0 0 0 0 0 0 0 0 0 0 0 0 0 0 0 0 0 0.12 0"/>
<feBlend mode="normal" in2="BackgroundImageFix" result="effect1_dropShadow_32_6562"/>
<feBlend mode="normal" in="SourceGraphic" in2="effect1_dropShadow_32_6562" result="shape"/>
</filter>
<filter id="filter2_d_32_6562" x="172.659" y="456.063" width="289.057" height="135.098" filterUnits="userSpaceOnUse" color-interpolation-filters="sRGB">
<feFlood flood-opacity="0" result="BackgroundImageFix"/>
<feColorMatrix in="SourceAlpha" type="matrix" values="0 0 0 0 0 0 0 0 0 0 0 0 0 0 0 0 0 0 127 0" result="hardAlpha"/>
<feOffset dy="26.2745"/>
<feGaussianBlur stdDeviation="19.7059"/>
<feComposite in2="hardAlpha" operator="out"/>
<feColorMatrix type="matrix" values="0 0 0 0 0.160784 0 0 0 0 0.517647 0 0 0 0 1 0 0 0 0.06 0"/>
<feBlend mode="normal" in2="BackgroundImageFix" result="effect1_dropShadow_32_6562"/>
<feBlend mode="normal" in="SourceGraphic" in2="effect1_dropShadow_32_6562" result="shape"/>
</filter>
<filter id="filter3_d_32_6562" x="239.757" y="56.8378" width="434.622" height="434.622" filterUnits="userSpaceOnUse" color-interpolation-filters="sRGB">
<feFlood flood-opacity="0" result="BackgroundImageFix"/>
<feColorMatrix in="SourceAlpha" type="matrix" values="0 0 0 0 0 0 0 0 0 0 0 0 0 0 0 0 0 0 127 0" result="hardAlpha"/>
<feOffset dy="30.0811"/>
<feGaussianBlur stdDeviation="45.1216"/>
<feComposite in2="hardAlpha" operator="out"/>
<feColorMatrix type="matrix" values="0 0 0 0 0 0 0 0 0 0 0 0 0 0 0 0 0 0 0.12 0"/>
<feBlend mode="normal" in2="BackgroundImageFix" result="effect1_dropShadow_32_6562"/>
<feBlend mode="normal" in="SourceGraphic" in2="effect1_dropShadow_32_6562" result="shape"/>
</filter>
<filter id="filter4_d_32_6562" x="539.667" y="275.333" width="33.4677" height="37.4433" filterUnits="userSpaceOnUse" color-interpolation-filters="sRGB">
<feFlood flood-opacity="0" result="BackgroundImageFix"/>
<feColorMatrix in="SourceAlpha" type="matrix" values="0 0 0 0 0 0 0 0 0 0 0 0 0 0 0 0 0 0 127 0" result="hardAlpha"/>
<feOffset dx="-1.33333"/>
<feGaussianBlur stdDeviation="2.66667"/>
<feComposite in2="hardAlpha" operator="out"/>
<feColorMatrix type="matrix" values="0 0 0 0 0 0 0 0 0 0 0 0 0 0 0 0 0 0 0.23 0"/>
<feBlend mode="normal" in2="BackgroundImageFix" result="effect1_dropShadow_32_6562"/>
<feBlend mode="normal" in="SourceGraphic" in2="effect1_dropShadow_32_6562" result="shape"/>
</filter>
<radialGradient id="paint0_angular_32_6562" cx="0" cy="0" r="1" gradientUnits="userSpaceOnUse" gradientTransform="translate(316.5 293.428) rotate(89.9148) scale(336.072 231.384)">
<stop stop-color="#8B33FF" stop-opacity="0.6"/>
<stop offset="1" stop-color="#8B33FF" stop-opacity="0"/>
</radialGradient>
<linearGradient id="paint1_linear_32_6562" x1="316.544" y1="375.633" x2="316.544" y2="406.222" gradientUnits="userSpaceOnUse">
<stop stop-color="#979FA9"/>
<stop offset="1" stop-color="#101828"/>
</linearGradient>
<linearGradient id="paint2_linear_32_6562" x1="325.061" y1="375.614" x2="325.061" y2="384.754" gradientUnits="userSpaceOnUse">
<stop stop-color="#979FA9"/>
<stop offset="1" stop-color="#101828"/>
</linearGradient>
<linearGradient id="paint3_linear_32_6562" x1="316.402" y1="387.544" x2="316.402" y2="397.613" gradientUnits="userSpaceOnUse">
<stop stop-color="#979FA9"/>
<stop offset="1" stop-color="#101828"/>
</linearGradient>
<linearGradient id="paint4_linear_32_6562" x1="315.903" y1="387.545" x2="315.903" y2="391.47" gradientUnits="userSpaceOnUse">
<stop stop-color="#979FA9"/>
<stop offset="1" stop-color="#101828"/>
</linearGradient>
<clipPath id="clip0_32_6562">
<rect width="151" height="109" fill="white" transform="translate(111.054 172.081)"/>
</clipPath>
<clipPath id="clip1_32_6562">
<rect width="82" height="82" fill="white" transform="translate(360.054 147.054)"/>
</clipPath>
<clipPath id="clip2_32_6562">
<rect width="82" height="82" fill="white" transform="translate(472.081 147.054)"/>
</clipPath>
<clipPath id="clip3_32_6562">
<rect width="32" height="32" fill="white" transform="translate(543 278)"/>
</clipPath>
</defs>
</svg>
