<svg width="494" height="577" viewBox="0 0 494 577" fill="none" xmlns="http://www.w3.org/2000/svg">
<path d="M477 187H126C124.895 187 124 187.895 124 189V575C124 576.105 124.895 577 126 577H477C478.105 577 479 576.105 479 575V189C479 187.895 478.105 187 477 187Z" fill="#F8F2FF" fill-opacity="0.5"/>
<path d="M380.919 0H70.0811C53.4678 0 40 13.4678 40 30.0811V508.776C40 525.389 53.4678 538.857 70.0811 538.857H380.919C397.532 538.857 411 525.389 411 508.776V30.0811C411 13.4678 397.532 0 380.919 0Z" fill="white"/>
<path d="M380.919 0.707031H70.0811C53.8588 0.707031 40.708 13.8578 40.708 30.0801V508.775C40.708 524.997 53.8588 538.148 70.0811 538.148H380.919C397.141 538.148 410.292 524.997 410.292 508.775V30.0801C410.292 13.8578 397.141 0.707031 380.919 0.707031Z" stroke="url(#paint0_radial_4201_4939)" stroke-width="1.41603"/>
<path d="M170.946 93H20.0541C8.97853 93 0 101.979 0 113.054V257.081C0 268.156 8.97853 277.135 20.0541 277.135H170.946C182.021 277.135 191 268.156 191 257.081V113.054C191 101.979 182.021 93 170.946 93Z" fill="white"/>
<path d="M170.946 93.707H20.054C9.36951 93.707 0.708008 102.369 0.708008 113.053V257.08C0.708008 267.765 9.36951 276.426 20.054 276.426H170.946C181.631 276.426 190.292 267.765 190.292 257.08V113.053C190.292 102.369 181.631 93.707 170.946 93.707Z" stroke="#E3E5E8" stroke-width="1.41603"/>
<path d="M20.6641 125.301C20.6641 124.179 20.9231 123.174 21.4391 122.283C21.9671 121.393 22.6761 120.7 23.5661 120.206C24.4681 119.7 25.4521 119.447 26.5181 119.447C27.7381 119.447 28.8211 119.749 29.7661 120.354C30.7231 120.948 31.4151 121.794 31.8441 122.893H29.5851C29.2881 122.289 28.8761 121.838 28.3481 121.541C27.8201 121.244 27.2101 121.096 26.5181 121.096C25.7591 121.096 25.0831 121.266 24.4901 121.607C23.8961 121.948 23.4291 122.437 23.0881 123.075C22.7581 123.712 22.5931 124.454 22.5931 125.301C22.5931 126.147 22.7581 126.889 23.0881 127.527C23.4291 128.164 23.8961 128.659 24.4901 129.011C25.0831 129.351 25.7591 129.522 26.5181 129.522C27.2101 129.522 27.8201 129.373 28.3481 129.077C28.8761 128.78 29.2881 128.329 29.5851 127.724H31.8441C31.4151 128.824 30.7231 129.67 29.7661 130.264C28.8211 130.857 27.7381 131.154 26.5181 131.154C25.4411 131.154 24.4571 130.907 23.5661 130.412C22.6761 129.906 21.9671 129.208 21.4391 128.318C20.9231 127.428 20.6641 126.422 20.6641 125.301ZM33.4171 126.471C33.4171 125.559 33.6041 124.751 33.9781 124.047C34.3631 123.344 34.8791 122.8 35.5281 122.415C36.1881 122.019 36.9131 121.821 37.7051 121.821C38.4191 121.821 39.0401 121.964 39.5681 122.25C40.1061 122.525 40.5351 122.871 40.8541 123.289V121.97H42.7501V131.055H40.8541V129.703C40.5351 130.132 40.1011 130.489 39.5511 130.775C39.0021 131.061 38.3751 131.204 37.6721 131.204C36.8911 131.204 36.1771 131.006 35.5281 130.61C34.8791 130.203 34.3631 129.643 33.9781 128.928C33.6041 128.203 33.4171 127.384 33.4171 126.471ZM40.8541 126.504C40.8541 125.878 40.7221 125.334 40.4581 124.872C40.2051 124.41 39.8701 124.058 39.4521 123.817C39.0351 123.575 38.5841 123.454 38.1001 123.454C37.6171 123.454 37.1661 123.575 36.7481 123.817C36.3301 124.047 35.9901 124.394 35.7261 124.855C35.4731 125.306 35.3471 125.845 35.3471 126.471C35.3471 127.098 35.4731 127.647 35.7261 128.12C35.9901 128.593 36.3301 128.956 36.7481 129.208C37.1771 129.45 37.6281 129.571 38.1001 129.571C38.5841 129.571 39.0351 129.45 39.4521 129.208C39.8701 128.967 40.2051 128.615 40.4581 128.153C40.7221 127.68 40.8541 127.131 40.8541 126.504ZM48.5171 131.204C47.8021 131.204 47.1591 131.077 46.5881 130.824C46.0271 130.561 45.5821 130.209 45.2521 129.769C44.9221 129.318 44.7461 128.818 44.7241 128.269H46.6701C46.7031 128.653 46.8841 128.978 47.2141 129.241C47.5551 129.494 47.9781 129.621 48.4841 129.621C49.0121 129.621 49.4181 129.522 49.7041 129.324C50.0011 129.115 50.1491 128.851 50.1491 128.532C50.1491 128.192 49.9841 127.939 49.6551 127.774C49.3361 127.609 48.8251 127.428 48.1211 127.23C47.4401 127.043 46.8841 126.862 46.4561 126.686C46.0271 126.51 45.6531 126.24 45.3341 125.878C45.0271 125.515 44.8731 125.037 44.8731 124.443C44.8731 123.959 45.0161 123.52 45.3021 123.124C45.5871 122.717 45.9941 122.399 46.5221 122.168C47.0601 121.937 47.6761 121.821 48.3681 121.821C49.4021 121.821 50.2321 122.085 50.8581 122.613C51.4961 123.13 51.8371 123.839 51.8811 124.74H50.0011C49.9681 124.333 49.8031 124.009 49.5061 123.767C49.2091 123.525 48.8081 123.404 48.3021 123.404C47.8081 123.404 47.4291 123.498 47.1651 123.685C46.9011 123.872 46.7691 124.119 46.7691 124.427C46.7691 124.669 46.8571 124.872 47.0331 125.037C47.2091 125.202 47.4231 125.334 47.6761 125.432C47.9291 125.52 48.3021 125.636 48.7971 125.779C49.4571 125.955 49.9951 126.136 50.4131 126.323C50.8421 126.499 51.2101 126.763 51.5181 127.114C51.8261 127.466 51.9851 127.933 51.9961 128.516C51.9961 129.033 51.8531 129.494 51.5671 129.901C51.2811 130.308 50.8751 130.626 50.3471 130.857C49.8301 131.088 49.2201 131.204 48.5171 131.204ZM62.3541 126.29C62.3541 126.631 62.3321 126.938 62.2881 127.213H55.3461C55.4011 127.939 55.6711 128.521 56.1541 128.961C56.6381 129.401 57.2311 129.621 57.9351 129.621C58.9461 129.621 59.6611 129.197 60.0791 128.351H62.1071C61.8321 129.186 61.3321 129.873 60.6061 130.412C59.8921 130.94 59.0011 131.204 57.9351 131.204C57.0671 131.204 56.2861 131.011 55.5941 130.626C54.9121 130.231 54.3731 129.681 53.9781 128.978C53.5931 128.263 53.4011 127.439 53.4011 126.504C53.4011 125.57 53.5871 124.751 53.9611 124.047C54.3461 123.333 54.8791 122.783 55.5611 122.399C56.2531 122.014 57.0451 121.821 57.9351 121.821C58.7921 121.821 59.5561 122.008 60.2271 122.382C60.8971 122.756 61.4201 123.283 61.7931 123.965C62.1671 124.636 62.3541 125.411 62.3541 126.29ZM60.3921 125.696C60.3811 125.004 60.1331 124.449 59.6501 124.031C59.1661 123.613 58.5671 123.404 57.8531 123.404C57.2041 123.404 56.6491 123.613 56.1871 124.031C55.7251 124.438 55.4511 124.993 55.3631 125.696H60.3921ZM67.8611 126.471C67.8611 125.559 68.0471 124.751 68.4211 124.047C68.8061 123.344 69.3231 122.8 69.9711 122.415C70.6311 122.019 71.3621 121.821 72.1641 121.821C72.7581 121.821 73.3401 121.953 73.9121 122.217C74.4951 122.47 74.9561 122.811 75.2971 123.239V118.853H77.1931V131.055H75.2971V129.687C74.9891 130.126 74.5601 130.489 74.0111 130.775C73.4721 131.061 72.8511 131.204 72.1481 131.204C71.3561 131.204 70.6311 131.006 69.9711 130.61C69.3231 130.203 68.8061 129.643 68.4211 128.928C68.0471 128.203 67.8611 127.384 67.8611 126.471ZM75.2971 126.504C75.2971 125.878 75.1651 125.334 74.9011 124.872C74.6481 124.41 74.3131 124.058 73.8951 123.817C73.4781 123.575 73.0271 123.454 72.5431 123.454C72.0601 123.454 71.6091 123.575 71.1911 123.817C70.7741 124.047 70.4331 124.394 70.1691 124.855C69.9161 125.306 69.7901 125.845 69.7901 126.471C69.7901 127.098 69.9161 127.647 70.1691 128.12C70.4331 128.593 70.7741 128.956 71.1911 129.208C71.6201 129.45 72.0711 129.571 72.5431 129.571C73.0271 129.571 73.4781 129.45 73.8951 129.208C74.3131 128.967 74.6481 128.615 74.9011 128.153C75.1651 127.68 75.2971 127.131 75.2971 126.504ZM87.9891 126.29C87.9891 126.631 87.9671 126.938 87.9231 127.213H80.9811C81.0361 127.939 81.3061 128.521 81.7891 128.961C82.2731 129.401 82.8671 129.621 83.5701 129.621C84.5811 129.621 85.2961 129.197 85.7141 128.351H87.7421C87.4671 129.186 86.9671 129.873 86.2411 130.412C85.5271 130.94 84.6361 131.204 83.5701 131.204C82.7021 131.204 81.9211 131.011 81.2291 130.626C80.5471 130.231 80.0081 129.681 79.6131 128.978C79.2281 128.263 79.0361 127.439 79.0361 126.504C79.0361 125.57 79.2221 124.751 79.5961 124.047C79.9811 123.333 80.5141 122.783 81.1961 122.399C81.8881 122.014 82.6801 121.821 83.5701 121.821C84.4271 121.821 85.1911 122.008 85.8621 122.382C86.5331 122.756 87.0551 123.283 87.4281 123.965C87.8021 124.636 87.9891 125.411 87.9891 126.29ZM86.0271 125.696C86.0161 125.004 85.7691 124.449 85.2851 124.031C84.8011 123.613 84.2021 123.404 83.4881 123.404C82.8391 123.404 82.2841 123.613 81.8221 124.031C81.3611 124.438 81.0861 124.993 80.9981 125.696H86.0271ZM93.1371 131.204C92.4221 131.204 91.7791 131.077 91.2071 130.824C90.6471 130.561 90.2021 130.209 89.8721 129.769C89.5421 129.318 89.3661 128.818 89.3441 128.269H91.2901C91.3231 128.653 91.5041 128.978 91.8341 129.241C92.1751 129.494 92.5981 129.621 93.1041 129.621C93.6311 129.621 94.0381 129.522 94.3241 129.324C94.6211 129.115 94.7691 128.851 94.7691 128.532C94.7691 128.192 94.6041 127.939 94.2741 127.774C93.9561 127.609 93.4441 127.428 92.7411 127.23C92.0591 127.043 91.5041 126.862 91.0761 126.686C90.6471 126.51 90.2731 126.24 89.9541 125.878C89.6471 125.515 89.4931 125.037 89.4931 124.443C89.4931 123.959 89.6361 123.52 89.9211 123.124C90.2071 122.717 90.6141 122.399 91.1421 122.168C91.6801 121.937 92.2961 121.821 92.9881 121.821C94.0221 121.821 94.8521 122.085 95.4781 122.613C96.1161 123.13 96.4561 123.839 96.5001 124.74H94.6211C94.5881 124.333 94.4231 124.009 94.1261 123.767C93.8291 123.525 93.4281 123.404 92.9221 123.404C92.4281 123.404 92.0481 123.498 91.7851 123.685C91.5211 123.872 91.3891 124.119 91.3891 124.427C91.3891 124.669 91.4771 124.872 91.6531 125.037C91.8291 125.202 92.0431 125.334 92.2961 125.432C92.5491 125.52 92.9221 125.636 93.4171 125.779C94.0771 125.955 94.6151 126.136 95.0331 126.323C95.4621 126.499 95.8301 126.763 96.1381 127.114C96.4451 127.466 96.6051 127.933 96.6161 128.516C96.6161 129.033 96.4731 129.494 96.1871 129.901C95.9011 130.308 95.4951 130.626 94.9671 130.857C94.4501 131.088 93.8401 131.204 93.1371 131.204ZM98.0201 126.504C98.0201 125.57 98.2071 124.751 98.5811 124.047C98.9661 123.333 99.4931 122.783 100.164 122.399C100.834 122.014 101.604 121.821 102.472 121.821C103.572 121.821 104.479 122.085 105.193 122.613C105.919 123.13 106.408 123.872 106.661 124.839H104.632C104.468 124.388 104.204 124.036 103.841 123.784C103.478 123.531 103.022 123.404 102.472 123.404C101.703 123.404 101.087 123.679 100.626 124.229C100.175 124.767 99.9501 125.526 99.9501 126.504C99.9501 127.483 100.175 128.247 100.626 128.796C101.087 129.346 101.703 129.621 102.472 129.621C103.561 129.621 104.281 129.142 104.632 128.186H106.661C106.397 129.11 105.902 129.846 105.177 130.396C104.451 130.934 103.55 131.204 102.472 131.204C101.604 131.204 100.834 131.011 100.164 130.626C99.4931 130.231 98.9661 129.681 98.5811 128.978C98.2071 128.263 98.0201 127.439 98.0201 126.504ZM110.414 123.289C110.688 122.827 111.051 122.47 111.502 122.217C111.964 121.953 112.508 121.821 113.134 121.821V123.767H112.656C111.92 123.767 111.359 123.954 110.974 124.328C110.6 124.701 110.414 125.35 110.414 126.273V131.055H108.534V121.97H110.414V123.289ZM115.818 120.766C115.478 120.766 115.192 120.651 114.961 120.42C114.73 120.189 114.615 119.903 114.615 119.562C114.615 119.222 114.73 118.936 114.961 118.705C115.192 118.474 115.478 118.359 115.818 118.359C116.148 118.359 116.429 118.474 116.659 118.705C116.89 118.936 117.006 119.222 117.006 119.562C117.006 119.903 116.89 120.189 116.659 120.42C116.429 120.651 116.148 120.766 115.818 120.766ZM116.742 121.97V131.055H114.862V121.97H116.742ZM121.089 123.305C121.408 122.888 121.842 122.536 122.392 122.25C122.942 121.964 123.563 121.821 124.255 121.821C125.047 121.821 125.767 122.019 126.415 122.415C127.075 122.8 127.592 123.344 127.965 124.047C128.339 124.751 128.526 125.559 128.526 126.471C128.526 127.384 128.339 128.203 127.965 128.928C127.592 129.643 127.075 130.203 126.415 130.61C125.767 131.006 125.047 131.204 124.255 131.204C123.563 131.204 122.947 131.066 122.409 130.791C121.87 130.506 121.43 130.154 121.089 129.736V135.375H119.21V121.97H121.089V123.305ZM126.613 126.471C126.613 125.845 126.481 125.306 126.218 124.855C125.965 124.394 125.624 124.047 125.195 123.817C124.777 123.575 124.327 123.454 123.843 123.454C123.37 123.454 122.92 123.575 122.491 123.817C122.073 124.058 121.733 124.41 121.469 124.872C121.216 125.334 121.089 125.878 121.089 126.504C121.089 127.131 121.216 127.68 121.469 128.153C121.733 128.615 122.073 128.967 122.491 129.208C122.92 129.45 123.37 129.571 123.843 129.571C124.327 129.571 124.777 129.45 125.195 129.208C125.624 128.956 125.965 128.593 126.218 128.12C126.481 127.647 126.613 127.098 126.613 126.471ZM132.578 123.503V128.532C132.578 128.873 132.655 129.121 132.809 129.274C132.974 129.417 133.248 129.489 133.633 129.489H134.787V131.055H133.303C132.457 131.055 131.808 130.857 131.358 130.462C130.907 130.066 130.682 129.423 130.682 128.532V123.503H129.61V121.97H130.682V119.711H132.578V121.97H134.787V123.503H132.578ZM137.476 120.766C137.135 120.766 136.85 120.651 136.619 120.42C136.388 120.189 136.273 119.903 136.273 119.562C136.273 119.222 136.388 118.936 136.619 118.705C136.85 118.474 137.135 118.359 137.476 118.359C137.806 118.359 138.086 118.474 138.317 118.705C138.548 118.936 138.663 119.222 138.663 119.562C138.663 119.903 138.548 120.189 138.317 120.42C138.086 120.651 137.806 120.766 137.476 120.766ZM138.4 121.97V131.055H136.52V121.97H138.4ZM144.808 131.204C143.951 131.204 143.176 131.011 142.483 130.626C141.791 130.231 141.247 129.681 140.851 128.978C140.455 128.263 140.257 127.439 140.257 126.504C140.257 125.581 140.461 124.762 140.868 124.047C141.274 123.333 141.829 122.783 142.533 122.399C143.236 122.014 144.022 121.821 144.891 121.821C145.759 121.821 146.545 122.014 147.249 122.399C147.952 122.783 148.507 123.333 148.914 124.047C149.321 124.762 149.524 125.581 149.524 126.504C149.524 127.428 149.315 128.247 148.898 128.961C148.48 129.676 147.908 130.231 147.183 130.626C146.468 131.011 145.677 131.204 144.808 131.204ZM144.808 129.571C145.292 129.571 145.743 129.456 146.16 129.225C146.589 128.994 146.935 128.648 147.199 128.186C147.463 127.724 147.595 127.164 147.595 126.504C147.595 125.845 147.469 125.29 147.216 124.839C146.963 124.377 146.628 124.031 146.21 123.8C145.792 123.569 145.342 123.454 144.858 123.454C144.374 123.454 143.923 123.569 143.506 123.8C143.099 124.031 142.775 124.377 142.533 124.839C142.291 125.29 142.17 125.845 142.17 126.504C142.17 127.483 142.417 128.241 142.912 128.78C143.418 129.307 144.05 129.571 144.808 129.571ZM155.966 121.821C156.681 121.821 157.318 121.97 157.879 122.267C158.451 122.563 158.896 123.003 159.215 123.586C159.533 124.168 159.693 124.872 159.693 125.696V131.055H157.83V125.977C157.83 125.163 157.626 124.542 157.219 124.113C156.813 123.674 156.258 123.454 155.554 123.454C154.851 123.454 154.29 123.674 153.872 124.113C153.465 124.542 153.262 125.163 153.262 125.977V131.055H151.382V121.97H153.262V123.009C153.57 122.635 153.96 122.344 154.433 122.135C154.917 121.926 155.428 121.821 155.966 121.821Z" fill="#171717"/>
<mask id="mask0_4201_4939" style="mask-type:luminance" maskUnits="userSpaceOnUse" x="20" y="148" width="152" height="110">
<path d="M171.054 148.082H20.0542V257.082H171.054V148.082Z" fill="white"/>
</mask>
<g mask="url(#mask0_4201_4939)">
<path d="M151 171H28C24.134 171 21 174.134 21 178C21 181.866 24.134 185 28 185H151C154.866 185 158 181.866 158 178C158 174.134 154.866 171 151 171Z" fill="#FFD34D"/>
<path d="M84.5 204H26.5C22.9101 204 20 206.91 20 210.5C20 214.09 22.9101 217 26.5 217H84.5C88.0899 217 91 214.09 91 210.5C91 206.91 88.0899 204 84.5 204Z" fill="#FFD34D"/>
</g>
<path d="M170.672 43.5612C170.672 44.4351 170.466 45.2595 170.053 46.0345C169.641 46.8095 168.982 47.4443 168.075 47.939C167.168 48.4171 166.005 48.6562 164.587 48.6562H161.471V55.631H158.651V38.4414H164.587C165.906 38.4414 167.019 38.6722 167.926 39.1339C168.85 39.5791 169.534 40.1892 169.979 40.9642C170.441 41.7391 170.672 42.6048 170.672 43.5612ZM164.587 46.356C165.659 46.356 166.459 46.1169 166.987 45.6388C167.514 45.1441 167.778 44.4516 167.778 43.5612C167.778 41.6814 166.714 40.7416 164.587 40.7416H161.471V46.356H164.587ZM178.778 55.8536C177.491 55.8536 176.329 55.5651 175.29 54.988C174.251 54.3944 173.435 53.5699 172.842 52.5146C172.248 51.4428 171.951 50.2062 171.951 48.8046C171.951 47.4196 172.256 46.1911 172.866 45.1194C173.476 44.0476 174.309 43.2231 175.364 42.646C176.42 42.0689 177.599 41.7804 178.901 41.7804C180.204 41.7804 181.383 42.0689 182.438 42.646C183.493 43.2231 184.326 44.0476 184.936 45.1194C185.546 46.1911 185.851 47.4196 185.851 48.8046C185.851 50.1897 185.538 51.4181 184.911 52.4899C184.285 53.5617 183.427 54.3944 182.339 54.988C181.267 55.5651 180.08 55.8536 178.778 55.8536ZM178.778 53.405C179.503 53.405 180.179 53.2319 180.806 52.8856C181.449 52.5394 181.968 52.02 182.364 51.3274C182.76 50.6349 182.957 49.794 182.957 48.8046C182.957 47.8153 182.768 46.9826 182.389 46.3066C182.009 45.614 181.506 45.0946 180.88 44.7484C180.253 44.4021 179.577 44.229 178.852 44.229C178.126 44.229 177.45 44.4021 176.824 44.7484C176.214 45.0946 175.727 45.614 175.364 46.3066C175.002 46.9826 174.82 47.8153 174.82 48.8046C174.82 50.2721 175.191 51.4099 175.933 52.2178C176.692 53.0093 177.64 53.405 178.778 53.405ZM193.091 55.8536C192.019 55.8536 191.054 55.664 190.197 55.2848C189.356 54.889 188.688 54.3614 188.193 53.7018C187.699 53.0258 187.435 52.2755 187.402 51.4511H190.32C190.37 52.0282 190.642 52.5146 191.137 52.9104C191.648 53.2896 192.283 53.4792 193.041 53.4792C193.833 53.4792 194.443 53.3308 194.871 53.034C195.317 52.7207 195.539 52.325 195.539 51.8468C195.539 51.3357 195.292 50.9564 194.797 50.7091C194.319 50.4618 193.552 50.1897 192.497 49.8929C191.475 49.6126 190.642 49.3405 189.999 49.0767C189.356 48.8129 188.795 48.4089 188.317 47.8648C187.855 47.3206 187.625 46.6034 187.625 45.713C187.625 44.9874 187.839 44.3279 188.268 43.7343C188.696 43.1242 189.306 42.646 190.098 42.2998C190.906 41.9535 191.829 41.7804 192.868 41.7804C194.418 41.7804 195.663 42.1761 196.603 42.9676C197.559 43.7425 198.07 44.8061 198.136 46.1582H195.317C195.267 45.5481 195.02 45.0616 194.575 44.6989C194.129 44.3361 193.528 44.1548 192.769 44.1548C192.027 44.1548 191.458 44.2949 191.062 44.5752C190.667 44.8555 190.469 45.2265 190.469 45.6882C190.469 46.051 190.601 46.356 190.865 46.6034C191.128 46.8507 191.45 47.0486 191.829 47.197C192.208 47.3289 192.769 47.502 193.511 47.7164C194.5 47.9802 195.308 48.2522 195.935 48.5326C196.578 48.7964 197.13 49.1921 197.592 49.7198C198.054 50.2474 198.293 50.9482 198.309 51.8221C198.309 52.5971 198.095 53.2896 197.666 53.8997C197.238 54.5098 196.627 54.988 195.836 55.3342C195.061 55.6805 194.146 55.8536 193.091 55.8536ZM204.151 44.3032V51.8468C204.151 52.358 204.266 52.729 204.497 52.9598C204.744 53.1742 205.157 53.2814 205.734 53.2814H207.465V55.631H205.239C203.969 55.631 202.997 55.3342 202.321 54.7406C201.645 54.147 201.307 53.1824 201.307 51.8468V44.3032H199.699V42.003H201.307V38.6145H204.151V42.003H207.465V44.3032H204.151ZM214.56 48.7552C214.56 47.3866 214.84 46.1746 215.4 45.1194C215.978 44.0641 216.753 43.2479 217.725 42.6708C218.715 42.0772 219.803 41.7804 220.99 41.7804C222.062 41.7804 222.994 41.9947 223.785 42.4234C224.593 42.8356 225.236 43.355 225.714 43.9816V42.003H228.559V55.631H225.714V53.6029C225.236 54.246 224.585 54.7818 223.76 55.2106C222.936 55.6393 221.996 55.8536 220.941 55.8536C219.77 55.8536 218.698 55.5568 217.725 54.9632C216.753 54.3531 215.978 53.5122 215.4 52.4404C214.84 51.3522 214.56 50.1237 214.56 48.7552ZM225.714 48.8046C225.714 47.8648 225.516 47.0486 225.121 46.356C224.741 45.6635 224.239 45.1358 223.612 44.7731C222.985 44.4103 222.309 44.229 221.584 44.229C220.858 44.229 220.182 44.4103 219.556 44.7731C218.929 45.1194 218.418 45.6388 218.022 46.3313C217.643 47.0073 217.453 47.8153 217.453 48.7552C217.453 49.695 217.643 50.5195 218.022 51.2285C218.418 51.9375 218.929 52.4816 219.556 52.8609C220.199 53.2236 220.875 53.405 221.584 53.405C222.309 53.405 222.985 53.2236 223.612 52.8609C224.239 52.4981 224.741 51.9705 225.121 51.278C225.516 50.5689 225.714 49.7445 225.714 48.8046ZM236.758 48.8046C236.758 47.4031 237.038 46.1746 237.599 45.1194C238.176 44.0476 238.967 43.2231 239.973 42.646C240.979 42.0689 242.133 41.7804 243.436 41.7804C245.085 41.7804 246.445 42.1761 247.517 42.9676C248.605 43.7425 249.339 44.8555 249.718 46.3066H246.676C246.428 45.6305 246.033 45.1029 245.489 44.7236C244.944 44.3444 244.26 44.1548 243.436 44.1548C242.281 44.1548 241.358 44.567 240.666 45.3914C239.99 46.1994 239.652 47.3371 239.652 48.8046C239.652 50.2721 239.99 51.4181 240.666 52.2426C241.358 53.067 242.281 53.4792 243.436 53.4792C245.068 53.4792 246.148 52.762 246.676 51.3274H249.718C249.322 52.7125 248.58 53.8172 247.492 54.6417C246.404 55.4496 245.052 55.8536 243.436 55.8536C242.133 55.8536 240.979 55.5651 239.973 54.988C238.967 54.3944 238.176 53.5699 237.599 52.5146C237.038 51.4428 236.758 50.2062 236.758 48.8046ZM251.093 48.7552C251.093 47.3866 251.374 46.1746 251.934 45.1194C252.511 44.0641 253.286 43.2479 254.259 42.6708C255.249 42.0772 256.337 41.7804 257.524 41.7804C258.596 41.7804 259.527 41.9947 260.319 42.4234C261.127 42.8356 261.77 43.355 262.248 43.9816V42.003H265.092V55.631H262.248V53.6029C261.77 54.246 261.119 54.7818 260.294 55.2106C259.47 55.6393 258.53 55.8536 257.475 55.8536C256.304 55.8536 255.232 55.5568 254.259 54.9632C253.286 54.3531 252.511 53.5122 251.934 52.4404C251.374 51.3522 251.093 50.1237 251.093 48.7552ZM262.248 48.8046C262.248 47.8648 262.05 47.0486 261.655 46.356C261.275 45.6635 260.772 45.1358 260.146 44.7731C259.519 44.4103 258.843 44.229 258.118 44.229C257.392 44.229 256.716 44.4103 256.09 44.7731C255.463 45.1194 254.952 45.6388 254.556 46.3313C254.177 47.0073 253.987 47.8153 253.987 48.7552C253.987 49.695 254.177 50.5195 254.556 51.2285C254.952 51.9375 255.463 52.4816 256.09 52.8609C256.733 53.2236 257.409 53.405 258.118 53.405C258.843 53.405 259.519 53.2236 260.146 52.8609C260.772 52.4981 261.275 51.9705 261.655 51.278C262.05 50.5689 262.248 49.7445 262.248 48.8046ZM273.248 55.8536C272.176 55.8536 271.212 55.664 270.354 55.2848C269.513 54.889 268.845 54.3614 268.351 53.7018C267.856 53.0258 267.592 52.2755 267.559 51.4511H270.478C270.527 52.0282 270.799 52.5146 271.294 52.9104C271.805 53.2896 272.44 53.4792 273.198 53.4792C273.99 53.4792 274.6 53.3308 275.029 53.034C275.474 52.7207 275.696 52.325 275.696 51.8468C275.696 51.3357 275.449 50.9564 274.954 50.7091C274.476 50.4618 273.71 50.1897 272.654 49.8929C271.632 49.6126 270.799 49.3405 270.156 49.0767C269.513 48.8129 268.953 48.4089 268.474 47.8648C268.013 47.3206 267.782 46.6034 267.782 45.713C267.782 44.9874 267.996 44.3279 268.425 43.7343C268.854 43.1242 269.464 42.646 270.255 42.2998C271.063 41.9535 271.986 41.7804 273.025 41.7804C274.575 41.7804 275.82 42.1761 276.76 42.9676C277.716 43.7425 278.228 44.8061 278.293 46.1582H275.474C275.424 45.5481 275.177 45.0616 274.732 44.6989C274.287 44.3361 273.685 44.1548 272.926 44.1548C272.184 44.1548 271.615 44.2949 271.22 44.5752C270.824 44.8555 270.626 45.2265 270.626 45.6882C270.626 46.051 270.758 46.356 271.022 46.6034C271.286 46.8507 271.607 47.0486 271.986 47.197C272.366 47.3289 272.926 47.502 273.668 47.7164C274.658 47.9802 275.466 48.2522 276.092 48.5326C276.735 48.7964 277.288 49.1921 277.749 49.7198C278.211 50.2474 278.45 50.9482 278.467 51.8221C278.467 52.5971 278.252 53.2896 277.824 53.8997C277.395 54.5098 276.785 54.988 275.993 55.3342C275.218 55.6805 274.303 55.8536 273.248 55.8536ZM293.509 48.4831C293.509 48.9942 293.476 49.4559 293.41 49.8682H282.997C283.08 50.9564 283.484 51.8303 284.209 52.4899C284.935 53.1494 285.825 53.4792 286.88 53.4792C288.397 53.4792 289.469 52.8444 290.096 51.5748H293.138C292.726 52.8279 291.975 53.8585 290.887 54.6664C289.815 55.4579 288.48 55.8536 286.88 55.8536C285.578 55.8536 284.407 55.5651 283.368 54.988C282.346 54.3944 281.538 53.5699 280.944 52.5146C280.367 51.4428 280.079 50.2062 280.079 48.8046C280.079 47.4031 280.359 46.1746 280.92 45.1194C281.497 44.0476 282.296 43.2231 283.319 42.646C284.358 42.0689 285.545 41.7804 286.88 41.7804C288.167 41.7804 289.313 42.0607 290.318 42.6213C291.324 43.1819 292.107 43.9734 292.668 44.9957C293.229 46.0015 293.509 47.164 293.509 48.4831ZM290.566 47.5927C290.549 46.5539 290.178 45.7212 289.453 45.0946C288.727 44.468 287.829 44.1548 286.757 44.1548C285.784 44.1548 284.951 44.468 284.259 45.0946C283.566 45.7047 283.154 46.5374 283.022 47.5927H290.566Z" fill="#101828"/>
<path d="M74.3518 305.73H376.648C385.375 305.73 392.45 312.805 392.45 321.532V412.525C392.45 421.252 385.375 428.327 376.648 428.327H74.3518C65.6248 428.327 58.5498 421.252 58.5498 412.525V321.532C58.5498 312.805 65.6248 305.73 74.3518 305.73Z" fill="white"/>
<path d="M74.3518 305.73H376.648C385.375 305.73 392.45 312.805 392.45 321.532V412.525C392.45 421.252 385.375 428.327 376.648 428.327H74.3518C65.6248 428.327 58.5498 421.252 58.5498 412.525V321.532C58.5498 312.805 65.6248 305.73 74.3518 305.73Z" stroke="#E3E5E8" stroke-width="1.37407"/>
<path fill-rule="evenodd" clip-rule="evenodd" d="M230.061 351.633H218.974C215.507 351.62 212.667 354.382 212.584 357.848V375.743C212.509 379.247 215.289 382.147 218.791 382.222C218.852 382.222 218.914 382.223 218.974 382.222H232.287C235.771 382.098 238.524 379.228 238.504 375.743V360.427L230.061 351.633Z" stroke="url(#paint1_linear_4201_4939)" stroke-width="1.4" stroke-linecap="round" stroke-linejoin="round"/>
<path d="M229.624 351.613V356.461C229.624 358.828 231.539 360.746 233.906 360.753H238.496" stroke="url(#paint2_linear_4201_4939)" stroke-width="1.4" stroke-linecap="round" stroke-linejoin="round"/>
<path d="M224.901 363.543V373.612" stroke="url(#paint3_linear_4201_4939)" stroke-width="1.4" stroke-linecap="round" stroke-linejoin="round"/>
<path d="M228.811 367.472L224.902 363.547L220.994 367.472" stroke="url(#paint4_linear_4201_4939)" stroke-width="1.4" stroke-linecap="round" stroke-linejoin="round"/>
<g filter="url(#filter0_d_4201_4939)">
<path d="M303.166 446.02H149.207C134.121 446.02 121.891 458.249 121.891 473.336C121.891 488.422 134.121 500.652 149.207 500.652H303.166C318.252 500.652 330.482 488.422 330.482 473.336C330.482 458.249 318.252 446.02 303.166 446.02Z" stroke="#EEF0F4" stroke-width="1.64216"/>
<path d="M180.032 470.836C180.032 471.572 179.854 472.262 179.5 472.905C179.158 473.549 178.613 474.068 177.864 474.462C177.128 474.856 176.196 475.053 175.066 475.053H172.76V480.334H170.001V466.58H175.066C176.13 466.58 177.036 466.764 177.785 467.131C178.534 467.499 179.092 468.005 179.46 468.649C179.841 469.293 180.032 470.022 180.032 470.836ZM174.948 472.826C175.709 472.826 176.274 472.656 176.642 472.314C177.01 471.959 177.194 471.467 177.194 470.836C177.194 469.496 176.445 468.826 174.948 468.826H172.76V472.826H174.948ZM186.641 480.512C185.59 480.512 184.644 480.282 183.803 479.822C182.963 479.349 182.299 478.686 181.813 477.832C181.34 476.978 181.104 475.993 181.104 474.876C181.104 473.759 181.347 472.774 181.833 471.92C182.332 471.066 183.008 470.409 183.862 469.949C184.716 469.476 185.669 469.24 186.72 469.24C187.771 469.24 188.723 469.476 189.577 469.949C190.431 470.409 191.101 471.066 191.587 471.92C192.086 472.774 192.336 473.759 192.336 474.876C192.336 475.993 192.08 476.978 191.567 477.832C191.068 478.686 190.385 479.349 189.518 479.822C188.664 480.282 187.705 480.512 186.641 480.512ZM186.641 478.108C187.14 478.108 187.607 477.989 188.04 477.753C188.487 477.503 188.841 477.135 189.104 476.649C189.367 476.163 189.498 475.572 189.498 474.876C189.498 473.838 189.222 473.043 188.671 472.491C188.132 471.927 187.469 471.644 186.68 471.644C185.892 471.644 185.229 471.927 184.69 472.491C184.165 473.043 183.902 473.838 183.902 474.876C183.902 475.914 184.158 476.715 184.67 477.28C185.196 477.832 185.853 478.108 186.641 478.108ZM198.34 480.512C197.447 480.512 196.646 480.354 195.936 480.039C195.227 479.71 194.662 479.27 194.241 478.719C193.834 478.167 193.611 477.556 193.571 476.886H196.35C196.402 477.306 196.606 477.654 196.961 477.93C197.329 478.206 197.782 478.344 198.321 478.344C198.846 478.344 199.253 478.239 199.542 478.029C199.844 477.819 199.996 477.549 199.996 477.221C199.996 476.866 199.812 476.603 199.444 476.433C199.089 476.249 198.518 476.052 197.729 475.841C196.915 475.644 196.245 475.441 195.719 475.231C195.207 475.02 194.76 474.699 194.379 474.265C194.012 473.831 193.828 473.247 193.828 472.511C193.828 471.907 193.998 471.355 194.34 470.856C194.695 470.357 195.194 469.963 195.838 469.674C196.494 469.385 197.263 469.24 198.143 469.24C199.444 469.24 200.482 469.568 201.257 470.225C202.032 470.869 202.459 471.743 202.538 472.846H199.897C199.858 472.413 199.674 472.071 199.345 471.821C199.03 471.559 198.603 471.427 198.064 471.427C197.565 471.427 197.178 471.519 196.902 471.703C196.639 471.887 196.508 472.143 196.508 472.472C196.508 472.84 196.692 473.122 197.059 473.319C197.427 473.503 197.999 473.694 198.774 473.891C199.562 474.088 200.212 474.291 200.725 474.501C201.237 474.712 201.677 475.04 202.045 475.487C202.426 475.92 202.623 476.498 202.636 477.221C202.636 477.851 202.459 478.416 202.104 478.916C201.762 479.415 201.263 479.809 200.606 480.098C199.963 480.374 199.207 480.512 198.34 480.512ZM207.916 471.684V476.965C207.916 477.333 208.001 477.602 208.172 477.773C208.356 477.93 208.658 478.009 209.078 478.009H210.359V480.334H208.625C206.3 480.334 205.137 479.205 205.137 476.945V471.684H203.837V469.417H205.137V466.718H207.916V469.417H210.359V471.684H207.916ZM215.936 474.836C215.936 473.733 216.152 472.754 216.586 471.9C217.033 471.046 217.63 470.39 218.379 469.93C219.141 469.47 219.988 469.24 220.921 469.24C221.736 469.24 222.445 469.404 223.049 469.733C223.667 470.061 224.159 470.475 224.527 470.974V469.417H227.306V480.334H224.527V478.738C224.173 479.251 223.68 479.678 223.049 480.019C222.432 480.348 221.716 480.512 220.901 480.512C219.982 480.512 219.141 480.275 218.379 479.802C217.63 479.329 217.033 478.666 216.586 477.812C216.152 476.945 215.936 475.953 215.936 474.836ZM224.527 474.876C224.527 474.206 224.396 473.634 224.133 473.161C223.87 472.675 223.516 472.308 223.069 472.058C222.622 471.795 222.143 471.664 221.631 471.664C221.118 471.664 220.645 471.789 220.212 472.038C219.778 472.288 219.424 472.656 219.148 473.142C218.885 473.615 218.754 474.18 218.754 474.836C218.754 475.493 218.885 476.071 219.148 476.571C219.424 477.057 219.778 477.431 220.212 477.694C220.658 477.957 221.131 478.088 221.631 478.088C222.143 478.088 222.622 477.963 223.069 477.714C223.516 477.451 223.87 477.083 224.133 476.61C224.396 476.124 224.527 475.546 224.527 474.876ZM233.632 473.437C233.632 472.084 233.934 470.876 234.538 469.811C235.156 468.734 235.99 467.9 237.041 467.309C238.105 466.705 239.294 466.402 240.608 466.402C242.145 466.402 243.491 466.796 244.647 467.585C245.803 468.373 246.611 469.463 247.071 470.856H243.899C243.583 470.199 243.137 469.706 242.559 469.378C241.994 469.05 241.337 468.885 240.588 468.885C239.787 468.885 239.071 469.076 238.44 469.457C237.823 469.825 237.336 470.35 236.982 471.033C236.64 471.716 236.469 472.518 236.469 473.437C236.469 474.344 236.64 475.145 236.982 475.841C237.336 476.525 237.823 477.057 238.44 477.438C239.071 477.805 239.787 477.989 240.588 477.989C241.337 477.989 241.994 477.825 242.559 477.497C243.137 477.155 243.583 476.656 243.899 475.999H247.071C246.611 477.405 245.803 478.502 244.647 479.29C243.504 480.065 242.158 480.453 240.608 480.453C239.294 480.453 238.105 480.157 237.041 479.566C235.99 478.962 235.156 478.127 234.538 477.063C233.934 475.999 233.632 474.79 233.632 473.437ZM248.521 474.836C248.521 473.733 248.738 472.754 249.171 471.9C249.618 471.046 250.216 470.39 250.965 469.93C251.727 469.47 252.574 469.24 253.507 469.24C254.321 469.24 255.031 469.404 255.635 469.733C256.252 470.061 256.745 470.475 257.113 470.974V469.417H259.891V480.334H257.113V478.738C256.758 479.251 256.265 479.678 255.635 480.019C255.017 480.348 254.301 480.512 253.487 480.512C252.567 480.512 251.727 480.275 250.965 479.802C250.216 479.329 249.618 478.666 249.171 477.812C248.738 476.945 248.521 475.953 248.521 474.836ZM257.113 474.876C257.113 474.206 256.981 473.634 256.719 473.161C256.456 472.675 256.101 472.308 255.655 472.058C255.208 471.795 254.728 471.664 254.216 471.664C253.704 471.664 253.231 471.789 252.797 472.038C252.364 472.288 252.009 472.656 251.733 473.142C251.47 473.615 251.339 474.18 251.339 474.836C251.339 475.493 251.47 476.071 251.733 476.571C252.009 477.057 252.364 477.431 252.797 477.694C253.244 477.957 253.717 478.088 254.216 478.088C254.728 478.088 255.208 477.963 255.655 477.714C256.101 477.451 256.456 477.083 256.719 476.61C256.981 476.124 257.113 475.546 257.113 474.876ZM266.566 480.512C265.673 480.512 264.872 480.354 264.162 480.039C263.453 479.71 262.888 479.27 262.468 478.719C262.06 478.167 261.837 477.556 261.798 476.886H264.576C264.629 477.306 264.832 477.654 265.187 477.93C265.555 478.206 266.008 478.344 266.547 478.344C267.072 478.344 267.479 478.239 267.768 478.029C268.071 477.819 268.222 477.549 268.222 477.221C268.222 476.866 268.038 476.603 267.67 476.433C267.315 476.249 266.744 476.052 265.956 475.841C265.141 475.644 264.471 475.441 263.946 475.231C263.433 475.02 262.987 474.699 262.606 474.265C262.238 473.831 262.054 473.247 262.054 472.511C262.054 471.907 262.225 471.355 262.566 470.856C262.921 470.357 263.42 469.963 264.064 469.674C264.721 469.385 265.489 469.24 266.369 469.24C267.67 469.24 268.708 469.568 269.483 470.225C270.258 470.869 270.685 471.743 270.764 472.846H268.123C268.084 472.413 267.9 472.071 267.571 471.821C267.256 471.559 266.829 471.427 266.291 471.427C265.791 471.427 265.404 471.519 265.128 471.703C264.865 471.887 264.734 472.143 264.734 472.472C264.734 472.84 264.918 473.122 265.286 473.319C265.653 473.503 266.225 473.694 267 473.891C267.788 474.088 268.438 474.291 268.951 474.501C269.463 474.712 269.903 475.04 270.271 475.487C270.652 475.92 270.849 476.498 270.862 477.221C270.862 477.851 270.685 478.416 270.33 478.916C269.989 479.415 269.489 479.809 268.833 480.098C268.189 480.374 267.433 480.512 266.566 480.512ZM283.078 474.639C283.078 475.034 283.052 475.388 283 475.704H275.019C275.084 476.492 275.36 477.109 275.846 477.556C276.332 478.003 276.93 478.226 277.64 478.226C278.664 478.226 279.393 477.786 279.827 476.906H282.803C282.487 477.957 281.883 478.824 280.99 479.507C280.096 480.177 278.999 480.512 277.699 480.512C276.648 480.512 275.702 480.282 274.861 479.822C274.033 479.349 273.383 478.686 272.91 477.832C272.45 476.978 272.22 475.993 272.22 474.876C272.22 473.746 272.45 472.754 272.91 471.9C273.37 471.046 274.014 470.39 274.841 469.93C275.669 469.47 276.621 469.24 277.699 469.24C278.737 469.24 279.663 469.463 280.477 469.91C281.305 470.357 281.942 470.994 282.389 471.821C282.849 472.636 283.078 473.575 283.078 474.639ZM280.221 473.851C280.208 473.142 279.952 472.577 279.453 472.156C278.953 471.723 278.342 471.506 277.62 471.506C276.937 471.506 276.359 471.716 275.886 472.137C275.426 472.544 275.144 473.115 275.038 473.851H280.221Z" fill="#171717"/>
</g>
<path d="M473.081 93H259.054C247.979 93 239 101.979 239 113.054V327.081C239 338.156 247.979 347.135 259.054 347.135H473.081C484.156 347.135 493.135 338.156 493.135 327.081V113.054C493.135 101.979 484.156 93 473.081 93Z" fill="white"/>
<path d="M473.081 93.707H259.054C248.369 93.707 239.708 102.369 239.708 113.053V327.08C239.708 337.765 248.369 346.426 259.054 346.426H473.081C483.765 346.426 492.427 337.765 492.427 327.08V113.053C492.427 102.369 483.765 93.707 473.081 93.707Z" stroke="#6E00FF" stroke-width="1.41603"/>
<path d="M351.054 113.555H269.054C263.807 113.555 259.554 117.808 259.554 123.055V205.055C259.554 210.301 263.807 214.555 269.054 214.555H351.054C356.301 214.555 360.554 210.301 360.554 205.055V123.055C360.554 117.808 356.301 113.555 351.054 113.555Z" stroke="#F0E5FF"/>
<mask id="mask1_4201_4939" style="mask-type:luminance" maskUnits="userSpaceOnUse" x="269" y="123" width="83" height="83">
<path d="M351.054 123.055H269.054V205.055H351.054V123.055Z" fill="white"/>
</mask>
<g mask="url(#mask1_4201_4939)">
<path d="M271.334 163.688C271.334 163.688 284.332 166.608 284.429 166.609C284.64 166.603 284.847 166.547 285.032 166.443C285.216 166.34 285.373 166.193 285.488 166.016C285.603 165.839 285.674 165.636 285.693 165.425C285.713 165.215 285.681 165.003 285.6 164.807C285.026 163.514 281.992 157.05 278.433 156.373L273.167 155.11C272.83 155.036 272.478 155.099 272.187 155.284C271.896 155.469 271.689 155.761 271.613 156.098L270.361 162.179C270.294 162.508 270.358 162.85 270.54 163.132C270.722 163.414 271.007 163.614 271.334 163.688ZM273.856 157.911C273.856 157.911 277.918 158.884 277.943 158.889C279.137 159.101 280.782 161.286 282.042 163.475L273.125 161.464L273.856 157.911ZM347.926 155.274C347.781 155.182 347.619 155.12 347.45 155.092C347.281 155.063 347.107 155.07 346.94 155.11L341.674 156.373C338.115 157.05 335.082 163.514 334.507 164.807C334.428 165.003 334.396 165.215 334.416 165.425C334.436 165.635 334.507 165.837 334.622 166.014C334.737 166.191 334.893 166.338 335.077 166.441C335.261 166.545 335.467 166.602 335.678 166.609C335.772 166.609 348.773 163.688 348.773 163.688C349.1 163.614 349.385 163.414 349.567 163.132C349.749 162.85 349.813 162.508 349.746 162.179L348.494 156.098C348.459 155.929 348.391 155.77 348.294 155.628C348.196 155.487 348.071 155.366 347.926 155.274ZM338.063 163.476C339.322 161.286 340.967 159.101 342.164 158.889C342.189 158.884 346.251 157.911 346.251 157.911L346.982 161.464L338.063 163.476Z" fill="#6E00FF"/>
<path d="M349.772 188.398H329.284C329.724 188.397 330.162 188.35 330.593 188.26C332.123 187.938 333.482 187.067 334.414 185.812C335.345 184.556 335.785 183.003 335.65 181.446L350.048 178.273C350.38 178.199 350.668 177.997 350.851 177.711C351.034 177.425 351.096 177.077 351.023 176.746C350.95 176.414 350.748 176.125 350.462 175.942C350.176 175.759 349.829 175.697 349.497 175.769L334.926 178.98C334.27 177.745 333.228 176.758 331.958 176.171C330.688 175.584 329.261 175.43 327.895 175.731C326.529 176.032 325.299 176.772 324.393 177.838C323.488 178.905 322.957 180.238 322.881 181.635L315.578 183.244C315.243 183.316 314.893 183.253 314.604 183.07C314.315 182.886 314.108 182.597 314.03 182.263C313.84 181.394 313.639 180.462 313.451 179.578L315.489 179.069C315.819 178.986 316.103 178.776 316.278 178.485C316.453 178.193 316.505 177.844 316.422 177.514C316.34 177.185 316.13 176.901 315.838 176.726C315.547 176.551 315.198 176.499 314.868 176.582L312.92 177.069C312.769 176.348 312.659 175.821 312.622 175.643C312.583 175.157 312.749 174.64 313.614 173.649C314.457 172.684 316.614 170.851 321.584 169.411C326.435 167.789 330.627 164.636 333.53 160.425C333.553 160.39 333.574 160.354 333.594 160.317C334.552 158.527 337.797 153.68 341.318 152.629L349.979 151.215C350.314 151.16 350.614 150.974 350.813 150.698C351.011 150.422 351.092 150.079 351.037 149.743C350.982 149.408 350.797 149.108 350.521 148.91C350.245 148.711 349.901 148.63 349.566 148.685L340.829 150.112C340.78 150.12 340.732 150.13 340.685 150.144C335.568 151.599 331.78 158.295 331.367 159.049C328.785 162.719 325.113 165.483 320.871 166.949C316.722 168.151 313.459 169.931 311.685 171.962C310.74 173.044 309.892 174.279 310.08 175.977C310.084 176.017 310.09 176.057 310.099 176.097C310.099 176.097 310.873 179.824 311.527 182.812C311.721 183.671 312.203 184.439 312.892 184.988C313.582 185.537 314.438 185.835 315.319 185.832C315.58 185.832 323.258 184.176 323.258 184.176C323.703 185.408 324.515 186.474 325.586 187.229C326.656 187.984 327.932 188.393 329.242 188.398H290.865C292.175 188.393 293.452 187.984 294.522 187.229C295.592 186.474 296.405 185.408 296.849 184.176C296.849 184.176 304.537 185.835 304.795 185.835C305.675 185.835 306.53 185.537 307.218 184.987C307.906 184.438 308.387 183.67 308.581 182.812C309.235 179.824 310.009 176.097 310.009 176.097C310.017 176.057 310.024 176.017 310.028 175.977C310.215 174.279 309.367 173.044 308.423 171.962C306.648 169.931 303.386 168.151 299.236 166.949C294.99 165.492 291.316 162.726 288.741 159.049C288.328 158.295 284.54 151.599 279.423 150.144C279.376 150.131 279.328 150.12 279.279 150.112L270.542 148.685C270.206 148.631 269.863 148.712 269.588 148.91C269.312 149.109 269.126 149.408 269.072 149.744C269.017 150.079 269.097 150.422 269.296 150.698C269.494 150.974 269.794 151.16 270.129 151.215L278.789 152.629C283.02 153.888 286.479 160.254 286.514 160.318C286.533 160.355 286.555 160.391 286.578 160.425C289.481 164.636 293.673 167.789 298.524 169.411C303.494 170.851 305.65 172.684 306.493 173.649C307.359 174.64 307.525 175.157 307.486 175.643C307.449 175.821 307.339 176.348 307.188 177.069L305.239 176.582C304.91 176.499 304.561 176.551 304.269 176.726C303.978 176.901 303.768 177.185 303.685 177.514C303.603 177.844 303.655 178.193 303.83 178.485C304.005 178.776 304.288 178.986 304.618 179.069L306.657 179.578C306.468 180.462 306.268 181.394 306.078 182.264C306.001 182.594 305.798 182.882 305.512 183.066C305.227 183.25 304.881 183.315 304.548 183.248L297.227 181.635C297.15 180.238 296.618 178.906 295.713 177.84C294.807 176.774 293.578 176.034 292.212 175.733C290.846 175.433 289.42 175.587 288.15 176.173C286.881 176.76 285.838 177.746 285.182 178.98L270.611 175.769C270.279 175.697 269.932 175.759 269.646 175.942C269.36 176.125 269.158 176.414 269.085 176.746C269.012 177.077 269.074 177.425 269.256 177.711C269.439 177.997 269.728 178.199 270.06 178.273L284.458 181.445C284.322 183.003 284.762 184.556 285.694 185.812C286.626 187.067 287.985 187.938 289.515 188.26C289.945 188.35 290.384 188.397 290.824 188.398H270.335C269.995 188.398 269.669 188.533 269.429 188.774C269.189 189.014 269.054 189.34 269.054 189.68C269.054 190.02 269.189 190.346 269.429 190.586C269.669 190.827 269.995 190.962 270.335 190.962H349.772C350.112 190.962 350.438 190.827 350.679 190.586C350.919 190.346 351.054 190.02 351.054 189.68C351.054 189.34 350.919 189.014 350.679 188.774C350.438 188.533 350.112 188.398 349.772 188.398ZM325.528 182.78C325.421 182.287 325.413 181.779 325.503 181.283C325.593 180.787 325.78 180.314 326.053 179.891C326.469 179.255 327.063 178.755 327.762 178.457C328.461 178.158 329.233 178.073 329.98 178.213C330.727 178.353 331.416 178.712 331.959 179.243C332.502 179.774 332.876 180.455 333.033 181.199C333.189 181.942 333.122 182.716 332.839 183.421C332.556 184.127 332.071 184.732 331.443 185.162C330.816 185.591 330.076 185.825 329.316 185.834C328.556 185.842 327.811 185.625 327.174 185.21C326.753 184.933 326.391 184.576 326.109 184.159C325.827 183.742 325.629 183.273 325.528 182.78ZM290.043 185.752C289.549 185.649 289.08 185.449 288.663 185.164C288.246 184.878 287.891 184.513 287.616 184.09C287.201 183.453 286.984 182.707 286.993 181.947C287.001 181.187 287.235 180.447 287.664 179.82C288.094 179.192 288.7 178.707 289.405 178.424C290.111 178.141 290.884 178.074 291.628 178.23C292.372 178.387 293.052 178.761 293.584 179.304C294.115 179.848 294.473 180.537 294.613 181.284C294.753 182.031 294.668 182.803 294.369 183.502C294.07 184.201 293.571 184.795 292.934 185.21C292.512 185.487 292.039 185.678 291.543 185.771C291.046 185.864 290.537 185.857 290.043 185.752Z" fill="#6E00FF"/>
<path d="M290.764 155.268L297.827 159.986C298.11 160.17 298.455 160.237 298.787 160.171C299.119 160.105 299.412 159.911 299.604 159.632C299.792 159.349 299.861 159.003 299.795 158.67C299.728 158.336 299.532 158.043 299.25 157.854L295.094 155.079L299.602 154.563C299.807 154.536 300.003 154.46 300.173 154.342C300.343 154.224 300.482 154.067 300.579 153.884C300.675 153.701 300.727 153.498 300.729 153.291C300.732 153.084 300.684 152.88 300.592 152.695L299.116 149.878L304.379 151.01C304.57 151.047 304.768 151.041 304.956 150.991C305.145 150.942 305.32 150.851 305.469 150.725C305.617 150.598 305.736 150.44 305.815 150.262C305.895 150.084 305.933 149.891 305.928 149.696L305.638 143.662L309.532 146.981C309.671 147.097 309.832 147.181 310.005 147.231C310.178 147.28 310.36 147.293 310.539 147.268C310.717 147.243 310.889 147.181 311.042 147.086C311.195 146.992 311.327 146.866 311.429 146.717L314.801 141.66L316.216 148.37C316.265 148.581 316.365 148.776 316.509 148.938C316.652 149.1 316.833 149.224 317.037 149.298C317.24 149.372 317.459 149.394 317.673 149.361C317.887 149.329 318.089 149.244 318.262 149.113L322.533 145.756L320.172 153.174C320.115 153.367 320.104 153.571 320.139 153.769C320.174 153.967 320.255 154.154 320.374 154.316C320.494 154.478 320.649 154.61 320.829 154.702C321.008 154.793 321.206 154.842 321.407 154.844L325.364 154.799L323.172 156.865C322.924 157.098 322.78 157.42 322.769 157.76C322.759 158.1 322.885 158.429 323.118 158.677C323.351 158.924 323.672 159.069 324.012 159.079C324.352 159.089 324.682 158.964 324.929 158.731L327.573 156.238C328.299 155.682 328.959 155.045 329.541 154.34C330.118 153.473 329.887 152.198 328.617 152.198L323.151 152.261L326.239 142.562C326.314 142.302 326.306 142.025 326.215 141.769C326.125 141.514 325.957 141.294 325.734 141.14C325.512 140.986 325.247 140.905 324.976 140.909C324.706 140.914 324.443 141.003 324.226 141.165L318.298 145.824L316.679 138.149C316.623 137.906 316.497 137.684 316.317 137.51C316.136 137.337 315.91 137.219 315.664 137.172C315.419 137.125 315.165 137.15 314.933 137.244C314.702 137.338 314.502 137.498 314.359 137.703L310.097 144.095L305.048 139.79C304.856 139.633 304.623 139.534 304.377 139.505C304.13 139.476 303.881 139.519 303.658 139.629C303.436 139.738 303.249 139.909 303.121 140.122C302.993 140.334 302.929 140.579 302.937 140.827L303.288 148.154L296.981 146.797C296.744 146.751 296.499 146.773 296.273 146.859C296.048 146.945 295.851 147.092 295.705 147.285C295.558 147.477 295.469 147.706 295.446 147.947C295.424 148.187 295.469 148.429 295.577 148.645L297.455 152.229L291.33 152.929C291.069 152.959 290.824 153.068 290.627 153.242C290.431 153.416 290.292 153.646 290.23 153.901C290.169 154.156 290.187 154.424 290.282 154.668C290.378 154.913 290.546 155.122 290.764 155.268Z" fill="#6E00FF"/>
</g>
<path d="M463.081 113.555H381.081C375.834 113.555 371.581 117.808 371.581 123.055V205.055C371.581 210.301 375.834 214.555 381.081 214.555H463.081C468.328 214.555 472.581 210.301 472.581 205.055V123.055C472.581 117.808 468.328 113.555 463.081 113.555Z" stroke="#F0E5FF"/>
<mask id="mask2_4201_4939" style="mask-type:luminance" maskUnits="userSpaceOnUse" x="381" y="123" width="83" height="83">
<path d="M463.081 123.055H381.081V205.055H463.081V123.055Z" fill="white"/>
</mask>
<g mask="url(#mask2_4201_4939)">
<path d="M382.459 172.287L386.554 169.249C387.05 168.881 387.286 168.258 387.16 167.653L385.6 160.185C385.379 159.128 386.258 158.164 387.331 158.288L388.658 158.441C389.05 158.487 389.411 158.677 389.67 158.974L393.033 162.835C393.354 163.204 393.828 163.404 394.316 163.376L401.087 162.993C401.616 162.963 402.125 163.2 402.443 163.624L403.714 165.318C404.078 165.804 404.687 166.038 405.282 165.923L412.869 164.451C413.898 164.251 414.833 165.088 414.749 166.133L414.531 168.814C414.478 169.474 414.019 170.031 413.382 170.21L410.88 170.914M410.88 170.914L407.317 171.916M410.88 170.914L412.226 173.712M395.601 187.645L402.123 183.152C402.505 182.888 402.984 182.806 403.433 182.927L409.768 184.633C410.468 184.821 411.207 184.51 411.561 183.877L412.294 182.569C412.761 181.735 412.388 180.68 411.501 180.325L409.534 179.538M409.534 179.538L404.831 177.657C404.153 177.386 403.748 176.686 403.852 175.963L403.992 174.978L404.163 173.783C404.252 173.162 404.698 172.652 405.302 172.482L407.317 171.916M409.534 179.538L410.88 176.878M392.751 180.995L390.254 187.17C389.96 187.898 390.243 188.731 390.92 189.129L403.807 196.702C404.533 197.128 404.798 198.047 404.411 198.794L403.411 200.729C403.026 201.473 402.128 201.788 401.363 201.449L387.367 195.245M407.317 171.916L408.584 174.662" stroke="#6E00FF" stroke-width="2" stroke-linecap="round"/>
<path d="M433.284 191.13H454.025M440.409 196.197H460.675M433.284 201.264H454.025M411.434 155.664V159.939M416.5 157.089L414.442 159.147M395.917 169.122C395.917 169.122 396.392 168.014 397.184 168.014C398.609 168.014 399.242 169.122 399.242 169.122" stroke="#6E00FF" stroke-width="2" stroke-linecap="round"/>
<path d="M431.384 138.402C427.742 138.244 424.892 138.086 418.717 138.877C413.948 139.488 407.792 143.152 406.367 145.527C405.782 146.502 406.309 147.633 407 148.535C407.588 149.302 408.409 149.802 409.375 149.802C410.642 149.802 411.909 148.061 416.5 145.685C419.521 144.123 421.409 144.26 426.317 144.26C428.696 144.26 425.048 147.62 424.1 149.802C423.111 152.08 422.443 153.368 422.042 155.819C421.652 158.199 421.752 159.6 422.042 161.994C422.326 164.331 422.894 165.568 423.467 167.852C424.525 172.071 426.419 174.277 426.159 178.619C426.046 180.506 424.143 182.885 423.15 184.794C422.246 186.532 421.438 188.076 420.828 189.238C420.102 190.62 419.957 192.469 421.25 193.344C422.777 194.377 424.792 193.442 425.814 191.908C427.102 189.973 428.924 187.191 430.592 184.477C431.966 182.241 433.901 179.344 433.917 177.035C433.938 173.93 431.486 171.81 432.65 170.544C433.575 169.539 437.055 172.788 439.026 174.789C439.947 175.725 440.529 176.93 440.756 178.223L442.064 185.666C442.325 187.155 443.011 188.668 444.429 189.194C444.82 189.339 445.234 189.424 445.634 189.385C447.631 189.194 448.323 186.753 448.058 184.765L446.611 173.917C446.389 172.252 445.577 170.721 444.286 169.647C442.908 168.501 441.017 166.983 439.3 165.794C437.076 164.253 435.5 162.944 435.184 161.994C434.928 161.228 437.965 156.655 439.153 154.911C439.46 154.46 439.816 153.848 440.355 153.936C441.642 154.148 442.066 158.679 444.05 159.935C448.8 162.944 457.35 165.319 458.3 165.16C459.25 165.002 460.617 164.371 460.992 163.102C461.363 161.845 460.834 160.885 459.884 159.935C458.934 158.985 449.909 157.402 448.484 155.819C447.059 154.235 442.467 143.31 442.467 143.31" stroke="#6E00FF" stroke-width="2" stroke-linecap="round"/>
<path d="M440.884 139.621C444.354 139.621 447.167 136.808 447.167 133.338C447.167 129.868 444.354 127.055 440.884 127.055C437.414 127.055 434.601 129.868 434.601 133.338C434.601 136.808 437.414 139.621 440.884 139.621Z" stroke="#6E00FF" stroke-width="2"/>
</g>
<path d="M351.054 225.582H269.054C263.807 225.582 259.554 229.835 259.554 235.082V317.082C259.554 322.329 263.807 326.582 269.054 326.582H351.054C356.301 326.582 360.554 322.329 360.554 317.082V235.082C360.554 229.835 356.301 225.582 351.054 225.582Z" stroke="#F0E5FF"/>
<path d="M287.999 302.055H303.351M295.763 307.525H309.704M283.94 312.819H312.527" stroke="#6E00FF" stroke-width="0.705848"/>
<path d="M301.083 244.221C300.605 242.443 302.461 240.789 301.083 239.519C300.393 238.883 299.573 239.187 298.826 238.614C297.999 237.979 298.054 237.18 297.322 236.444C294.279 233.38 286.042 236.444 286.042 236.444C286.042 236.444 284.555 236.937 283.786 237.529C282.625 238.423 281.718 240.604 281.718 240.604L280.966 246.03M301.083 244.221C301.518 245.843 301.929 245.837 301.954 247.201C301.981 248.631 302.091 249.944 301.083 250.914C300.303 251.663 298.826 252.542 298.826 252.542M301.083 244.221L297.792 242.684M280.966 246.03C280.966 246.03 280.53 248.011 280.966 249.19C281.41 250.39 281.551 250.651 282.846 250.914C283.565 251.059 284.726 250.914 284.726 250.914M280.966 246.03L284.726 244.221M298.826 252.542L309.731 256.521M298.826 252.542L297.792 242.684M298.826 252.542C298.826 252.542 297.801 252.992 296.461 253.446M297.792 242.684L294.502 241.147L292.058 243.317L284.726 244.221M309.731 256.521L316.687 258.691L331.727 253.446C331.727 253.446 334.393 254.115 335.111 255.436C336.301 257.626 331.727 260.862 331.727 260.862C331.727 260.862 322.929 266.364 316.687 266.107C313.91 265.993 312.436 265.273 309.731 264.66M309.731 256.521V264.66M296.461 253.446C295.263 253.852 293.814 254.26 292.622 254.35C291.429 254.441 289.936 254.256 288.674 254.03M296.461 253.446C296.461 253.446 296.57 259.053 292.622 259.234C288.674 259.415 288.674 254.03 288.674 254.03M309.731 264.66C307.668 264.193 304.467 263.394 304.467 263.394L309.731 274.97M309.731 274.97H329.283L343.383 288.355M309.731 274.97L295.63 286.908M343.383 288.355C343.383 288.355 346.283 285.69 348.459 286.003C349.403 286.139 350.166 286.156 350.715 286.908C351.306 287.717 351.002 288.49 350.715 289.44C350.322 290.743 349.43 291.169 348.459 292.153C346.731 293.906 343.383 295.951 343.383 295.951L339.623 292.741M343.383 288.355L339.623 292.741M295.63 286.908C298.146 289.422 300.111 290.248 303.151 292.153C308.517 295.517 317.627 299.569 317.627 299.569L323.643 314.581M295.63 286.908C292.635 283.914 291.403 281.723 289.802 277.864C288.003 273.528 287.546 266.107 287.546 266.107C287.546 266.107 284.466 267.721 282.846 269.182M339.623 292.741L328.343 283.109L316.687 286.003L323.643 292.153L330.599 309.879M330.599 309.879C330.599 309.879 335.351 309.623 336.239 311.687C336.688 312.732 336.652 313.523 336.239 314.581C335.394 316.743 332.978 316.625 330.599 316.933C329.435 317.083 328.738 317.175 327.591 316.933C325.82 316.558 323.643 314.581 323.643 314.581M330.599 309.879L323.643 314.581M282.846 269.182C279.87 271.867 279.034 274.196 277.582 277.864C276.48 280.65 277.608 282.929 275.702 285.28C274.806 286.385 274.322 287.415 272.882 287.631C271.357 287.86 269.611 285.28 269.611 285.28C269.611 285.28 268.734 280.994 269.31 277.864C269.971 274.273 271.112 272.406 272.882 269.182C274.442 266.341 275.554 264.861 277.582 262.309M282.846 269.182L277.582 262.309M277.582 262.309C279.478 259.923 280.692 258.695 282.846 256.521C284.064 255.292 286.042 253.446 286.042 253.446M286.042 253.446L284.726 250.914M286.042 253.446C286.042 253.446 287.201 253.766 288.674 254.03M284.726 250.914V244.221M336.239 305.719C336.239 305.719 334.259 302.358 335.487 300.835C337.188 298.725 338.454 304.277 341.127 304.995C344.372 305.866 347.14 301.139 349.587 303.367C352.572 306.085 341.691 310.059 341.691 310.059" stroke="#6E00FF" stroke-width="2"/>
<path d="M285.176 300.641H282.353V303.464H285.176V300.641Z" fill="#6E00FF"/>
<path d="M463.054 225.082H381.054C375.531 225.082 371.054 229.559 371.054 235.082V317.082C371.054 322.605 375.531 327.082 381.054 327.082H463.054C468.577 327.082 473.054 322.605 473.054 317.082V235.082C473.054 229.559 468.577 225.082 463.054 225.082Z" fill="#6E00FF"/>
<path d="M408.753 253.934C408.753 253.934 408.247 237.252 422.74 237.083C437.232 236.915 436.557 253.934 436.557 253.934M408.753 253.934H412.292M408.753 253.934C408.753 253.934 406.874 257.065 407.236 259.158C407.712 261.909 412.292 264.214 412.292 264.214M436.557 253.934L433.187 253.429M436.557 253.934C436.557 253.934 438.946 257.002 438.58 259.158C438.117 261.874 433.187 263.708 433.187 263.708M412.292 253.934C412.292 253.934 418.89 253.615 422.74 252.081C425.34 251.044 426.239 247.945 428.974 248.542C431.436 249.079 433.187 253.429 433.187 253.429M412.292 253.934V264.214M412.292 264.214C412.292 264.214 413.107 268.37 416.551 270.959M433.187 253.429V263.708M433.187 263.708C433.187 263.708 432.379 268.231 428.974 270.959M428.974 270.959C427.461 272.171 425.435 273.028 422.74 272.976C420.071 272.925 418.059 272.092 416.551 270.959M428.974 270.959V275.504M416.551 270.959L416.505 275.504M428.974 275.504L431.839 276.009M428.974 275.504C428.974 275.504 425.604 280.222 422.74 280.222C419.875 280.222 416.505 275.504 416.505 275.504M431.839 276.009C431.839 276.009 432.471 274.769 433.187 274.324C434.964 273.221 437.788 274.443 438.074 276.515C438.194 277.385 437.568 278.706 437.568 278.706M431.839 276.009L419.197 299.264M416.505 275.504L412.292 277.189M437.568 278.706C437.568 278.706 444.861 279.448 448.016 282.413C449.852 284.137 451.555 287.805 451.555 287.805V315.104H442.118M437.568 278.706L434.198 287.805M419.197 299.264L412.292 277.189M419.197 299.264L420.145 302.297M442.118 315.104H435.546M442.118 315.104V295.894M425.941 312.745L428.974 315.104H435.546M425.941 312.745H423.413M425.941 312.745V302.297M435.546 315.104C435.546 315.104 439.136 310.661 438.58 307.521C438.149 305.095 435.041 302.297 435.041 302.297H429.48M423.413 312.745V315.104H408.247V312.745M423.413 312.745L420.145 302.297M425.941 302.297H429.48M425.941 302.297H420.145M408.247 312.745H394.767C394.767 312.745 393.599 311.646 393.25 310.723C392.808 309.553 393.25 307.521 393.25 307.521L396.62 283.424L399.99 280.728L406.057 278.706M408.247 312.745L407.575 302.297M406.057 278.706C406.057 278.706 405.623 276.969 406.057 276.009C406.787 274.395 408.63 273.653 410.27 274.324C411.537 274.843 412.292 277.189 412.292 277.189M406.057 278.706L407.575 302.297M407.575 302.297H403.361M429.48 302.297L433.187 290.501" stroke="white" stroke-width="2" stroke-linecap="round"/>
<mask id="mask3_4201_4939" style="mask-type:luminance" maskUnits="userSpaceOnUse" x="452" y="254" width="32" height="32">
<path d="M484 254H452V286H484V254Z" fill="white"/>
</mask>
<g mask="url(#mask3_4201_4939)">
<g filter="url(#filter1_d_4201_4939)">
<path d="M464.333 256.668C464.599 256.668 464.853 256.773 465.041 256.96C465.228 257.148 465.333 257.402 465.333 257.668V261.001C465.333 261.266 465.228 261.52 465.041 261.708C464.853 261.895 464.599 262.001 464.333 262.001C464.068 262.001 463.814 261.895 463.626 261.708C463.439 261.52 463.333 261.266 463.333 261.001V257.668C463.333 257.402 463.439 257.148 463.626 256.96C463.814 256.773 464.068 256.668 464.333 256.668ZM457.96 259.294C458.148 259.107 458.402 259.002 458.667 259.002C458.932 259.002 459.186 259.107 459.373 259.294L461.707 261.628C461.805 261.719 461.884 261.829 461.939 261.952C461.993 262.075 462.023 262.207 462.025 262.341C462.027 262.476 462.003 262.609 461.952 262.734C461.902 262.858 461.827 262.971 461.732 263.066C461.637 263.161 461.524 263.236 461.4 263.286C461.275 263.337 461.142 263.361 461.007 263.359C460.873 263.357 460.741 263.327 460.618 263.273C460.495 263.218 460.385 263.139 460.293 263.041L457.96 260.708C457.773 260.52 457.668 260.266 457.668 260.001C457.668 259.736 457.773 259.482 457.96 259.294ZM470.707 259.294C470.894 259.482 470.999 259.736 470.999 260.001C470.999 260.266 470.894 260.52 470.707 260.708L468.373 263.041C468.282 263.139 468.172 263.218 468.049 263.273C467.926 263.327 467.794 263.357 467.66 263.359C467.525 263.361 467.392 263.337 467.267 263.286C467.143 263.236 467.03 263.161 466.935 263.066C466.84 262.971 466.765 262.858 466.715 262.734C466.664 262.609 466.64 262.476 466.642 262.341C466.644 262.207 466.674 262.075 466.728 261.952C466.783 261.829 466.862 261.719 466.96 261.628L469.293 259.294C469.481 259.107 469.735 259.002 470 259.002C470.265 259.002 470.519 259.107 470.707 259.294ZM455.333 265.668C455.333 265.402 455.439 265.148 455.626 264.96C455.814 264.773 456.068 264.668 456.333 264.668H459.667C459.932 264.668 460.186 264.773 460.374 264.96C460.561 265.148 460.667 265.402 460.667 265.668C460.667 265.933 460.561 266.187 460.374 266.375C460.186 266.562 459.932 266.668 459.667 266.668H456.333C456.068 266.668 455.814 266.562 455.626 266.375C455.439 266.187 455.333 265.933 455.333 265.668ZM463.333 266.65C463.333 265.148 465.096 264.337 466.236 265.316L477.517 274.985C478.731 276.025 478.04 278.013 476.444 278.078L471.324 278.282C470.773 278.304 470.256 278.549 469.888 278.958L466.403 282.854C465.327 284.058 463.333 283.296 463.333 281.681V266.65Z" fill="white"/>
<path d="M459.185 259.483L461.518 261.816L461.525 261.823M459.185 259.483C459.047 259.345 458.861 259.268 458.667 259.268M459.185 259.483L458.667 259.268M461.525 261.823C461.597 261.89 461.655 261.971 461.695 262.061C461.735 262.151 461.757 262.248 461.758 262.346C461.76 262.445 461.742 262.542 461.705 262.634C461.668 262.725 461.613 262.808 461.544 262.878C461.474 262.947 461.391 263.002 461.3 263.039C461.208 263.076 461.111 263.094 461.012 263.092C460.914 263.091 460.817 263.069 460.727 263.029C460.637 262.989 460.556 262.931 460.489 262.859M461.525 261.823L460.489 262.859M460.489 262.859L460.482 262.852L458.149 260.519M458.149 260.519C458.011 260.381 457.934 260.195 457.934 260.001C457.934 259.807 458.011 259.62 458.149 259.483C458.286 259.346 458.473 259.268 458.667 259.268M458.149 260.519L458.667 259.268M470.518 260.519L468.185 262.852L468.178 262.859M468.178 262.859C468.111 262.931 468.03 262.989 467.94 263.029C467.85 263.069 467.753 263.091 467.655 263.092C467.556 263.094 467.459 263.076 467.367 263.039C467.276 263.002 467.193 262.947 467.123 262.878C467.054 262.808 466.999 262.725 466.962 262.634C466.925 262.542 466.907 262.445 466.909 262.346C466.91 262.248 466.932 262.151 466.972 262.061C467.012 261.971 467.07 261.89 467.142 261.823M468.178 262.859L467.142 261.823M467.142 261.823L467.149 261.816L469.482 259.483M466.062 265.518L477.344 275.187C478.373 276.069 477.788 277.756 476.433 277.812L471.314 278.016C470.69 278.04 470.105 278.318 469.69 278.78L466.204 282.676C465.292 283.697 463.6 283.051 463.6 281.681V266.65C463.6 265.375 465.096 264.688 466.062 265.518ZM464.333 256.934C464.528 256.934 464.715 257.011 464.852 257.149C464.99 257.286 465.067 257.473 465.067 257.668V261.001C465.067 261.195 464.99 261.382 464.852 261.519C464.715 261.657 464.528 261.734 464.333 261.734C464.139 261.734 463.952 261.657 463.815 261.519C463.677 261.382 463.6 261.195 463.6 261.001V257.668C463.6 257.473 463.677 257.286 463.815 257.149C463.952 257.011 464.139 256.934 464.333 256.934ZM455.6 265.668C455.6 265.473 455.677 265.286 455.815 265.149C455.952 265.011 456.139 264.934 456.333 264.934H459.667C459.861 264.934 460.048 265.011 460.185 265.149C460.323 265.286 460.4 265.473 460.4 265.668C460.4 265.862 460.323 266.049 460.185 266.186C460.048 266.324 459.861 266.401 459.667 266.401H456.333C456.139 266.401 455.952 266.324 455.815 266.186C455.677 266.049 455.6 265.862 455.6 265.668Z" stroke="#6E00FF" stroke-width="0.533333"/>
</g>
</g>
<defs>
<filter id="filter0_d_4201_4939" x="81.658" y="432.062" width="289.057" height="135.097" filterUnits="userSpaceOnUse" color-interpolation-filters="sRGB">
<feFlood flood-opacity="0" result="BackgroundImageFix"/>
<feColorMatrix in="SourceAlpha" type="matrix" values="0 0 0 0 0 0 0 0 0 0 0 0 0 0 0 0 0 0 127 0" result="hardAlpha"/>
<feOffset dy="26.2745"/>
<feGaussianBlur stdDeviation="19.7059"/>
<feComposite in2="hardAlpha" operator="out"/>
<feColorMatrix type="matrix" values="0 0 0 0 0.160784 0 0 0 0 0.517647 0 0 0 0 1 0 0 0 0.06 0"/>
<feBlend mode="normal" in2="BackgroundImageFix" result="effect1_dropShadow_4201_4939"/>
<feBlend mode="normal" in="SourceGraphic" in2="effect1_dropShadow_4201_4939" result="shape"/>
</filter>
<filter id="filter1_d_4201_4939" x="448.666" y="251.335" width="33.4684" height="37.444" filterUnits="userSpaceOnUse" color-interpolation-filters="sRGB">
<feFlood flood-opacity="0" result="BackgroundImageFix"/>
<feColorMatrix in="SourceAlpha" type="matrix" values="0 0 0 0 0 0 0 0 0 0 0 0 0 0 0 0 0 0 127 0" result="hardAlpha"/>
<feOffset dx="-1.33333"/>
<feGaussianBlur stdDeviation="2.66667"/>
<feComposite in2="hardAlpha" operator="out"/>
<feColorMatrix type="matrix" values="0 0 0 0 0 0 0 0 0 0 0 0 0 0 0 0 0 0 0.23 0"/>
<feBlend mode="normal" in2="BackgroundImageFix" result="effect1_dropShadow_4201_4939"/>
<feBlend mode="normal" in="SourceGraphic" in2="effect1_dropShadow_4201_4939" result="shape"/>
</filter>
<radialGradient id="paint0_radial_4201_4939" cx="0" cy="0" r="1" gradientUnits="userSpaceOnUse" gradientTransform="translate(225.5 269.427) rotate(89.9148) scale(336.072 231.384)">
<stop stop-color="#8B33FF" stop-opacity="0.6"/>
<stop offset="1" stop-color="#8B33FF" stop-opacity="0"/>
</radialGradient>
<linearGradient id="paint1_linear_4201_4939" x1="225.543" y1="351.633" x2="225.543" y2="382.222" gradientUnits="userSpaceOnUse">
<stop stop-color="#979FA9"/>
<stop offset="1" stop-color="#101828"/>
</linearGradient>
<linearGradient id="paint2_linear_4201_4939" x1="234.06" y1="351.613" x2="234.06" y2="360.753" gradientUnits="userSpaceOnUse">
<stop stop-color="#979FA9"/>
<stop offset="1" stop-color="#101828"/>
</linearGradient>
<linearGradient id="paint3_linear_4201_4939" x1="nan" y1="nan" x2="nan" y2="nan" gradientUnits="userSpaceOnUse">
<stop stop-color="#979FA9"/>
<stop offset="1" stop-color="#101828"/>
</linearGradient>
<linearGradient id="paint4_linear_4201_4939" x1="224.902" y1="363.547" x2="224.902" y2="367.472" gradientUnits="userSpaceOnUse">
<stop stop-color="#979FA9"/>
<stop offset="1" stop-color="#101828"/>
</linearGradient>
</defs>
</svg>
