<svg width="675" height="599" viewBox="0 0 675 599" fill="none" xmlns="http://www.w3.org/2000/svg">
<g filter="url(#filter0_d_4139_5317)">
<rect x="131" y="20" width="371" height="538.857" rx="30.0811" fill="white" shape-rendering="crispEdges"/>
<rect x="132" y="21" width="369" height="536.857" rx="29.0811" stroke="#E0C9FF" strokeWidth="2" shape-rendering="crispEdges"/>
<g filter="url(#filter1_d_4139_5317)">
<rect x="91" y="113" width="191" height="184.135" rx="20.0541" fill="white" shape-rendering="crispEdges"/>
<rect x="91.708" y="113.708" width="189.584" height="182.719" rx="19.346" stroke="#E3E5E8" strokeWidth="1.41603" shape-rendering="crispEdges"/>
<path d="M111.664 145.3C111.664 144.179 111.923 143.173 112.439 142.283C112.967 141.392 113.676 140.7 114.566 140.205C115.468 139.699 116.452 139.447 117.518 139.447C118.738 139.447 119.821 139.749 120.766 140.353C121.723 140.947 122.415 141.793 122.844 142.893H120.585C120.288 142.288 119.876 141.837 119.348 141.541C118.82 141.244 118.21 141.095 117.518 141.095C116.759 141.095 116.083 141.266 115.49 141.607C114.896 141.947 114.429 142.436 114.088 143.074C113.758 143.712 113.593 144.454 113.593 145.3C113.593 146.146 113.758 146.888 114.088 147.526C114.429 148.164 114.896 148.658 115.49 149.01C116.083 149.351 116.759 149.521 117.518 149.521C118.21 149.521 118.82 149.373 119.348 149.076C119.876 148.779 120.288 148.329 120.585 147.724H122.844C122.415 148.823 121.723 149.67 120.766 150.263C119.821 150.857 118.738 151.154 117.518 151.154C116.441 151.154 115.457 150.906 114.566 150.412C113.676 149.906 112.967 149.208 112.439 148.318C111.923 147.427 111.664 146.421 111.664 145.3ZM124.417 146.471C124.417 145.558 124.604 144.75 124.978 144.047C125.363 143.343 125.879 142.799 126.528 142.415C127.188 142.019 127.913 141.821 128.705 141.821C129.419 141.821 130.04 141.964 130.568 142.25C131.106 142.524 131.535 142.871 131.854 143.288V141.969H133.75V151.055H131.854V149.703C131.535 150.131 131.101 150.489 130.551 150.774C130.002 151.06 129.375 151.203 128.672 151.203C127.891 151.203 127.177 151.005 126.528 150.609C125.879 150.203 125.363 149.642 124.978 148.928C124.604 148.202 124.417 147.383 124.417 146.471ZM131.854 146.504C131.854 145.877 131.722 145.333 131.458 144.871C131.205 144.41 130.87 144.058 130.452 143.816C130.035 143.574 129.584 143.453 129.1 143.453C128.617 143.453 128.166 143.574 127.748 143.816C127.33 144.047 126.99 144.393 126.726 144.855C126.473 145.306 126.347 145.844 126.347 146.471C126.347 147.097 126.473 147.647 126.726 148.12C126.99 148.592 127.33 148.955 127.748 149.208C128.177 149.45 128.628 149.571 129.1 149.571C129.584 149.571 130.035 149.45 130.452 149.208C130.87 148.966 131.205 148.614 131.458 148.153C131.722 147.68 131.854 147.13 131.854 146.504ZM139.517 151.203C138.802 151.203 138.159 151.077 137.588 150.824C137.027 150.56 136.582 150.208 136.252 149.769C135.922 149.318 135.746 148.818 135.724 148.268H137.67C137.703 148.653 137.884 148.977 138.214 149.241C138.555 149.494 138.978 149.62 139.484 149.62C140.012 149.62 140.418 149.521 140.704 149.323C141.001 149.114 141.149 148.851 141.149 148.532C141.149 148.191 140.984 147.938 140.655 147.773C140.336 147.609 139.825 147.427 139.121 147.229C138.44 147.042 137.884 146.861 137.456 146.685C137.027 146.509 136.653 146.24 136.334 145.877C136.027 145.514 135.873 145.036 135.873 144.443C135.873 143.959 136.016 143.519 136.302 143.124C136.587 142.717 136.994 142.398 137.522 142.167C138.06 141.936 138.676 141.821 139.368 141.821C140.402 141.821 141.232 142.085 141.858 142.612C142.496 143.129 142.837 143.838 142.881 144.739H141.001C140.968 144.333 140.803 144.008 140.506 143.767C140.209 143.525 139.808 143.404 139.302 143.404C138.808 143.404 138.429 143.497 138.165 143.684C137.901 143.871 137.769 144.118 137.769 144.426C137.769 144.668 137.857 144.871 138.033 145.036C138.209 145.201 138.423 145.333 138.676 145.432C138.929 145.52 139.302 145.635 139.797 145.778C140.457 145.954 140.995 146.136 141.413 146.322C141.842 146.498 142.21 146.762 142.518 147.114C142.826 147.466 142.985 147.933 142.996 148.515C142.996 149.032 142.853 149.494 142.567 149.9C142.281 150.307 141.875 150.626 141.347 150.857C140.83 151.088 140.22 151.203 139.517 151.203ZM153.354 146.289C153.354 146.63 153.332 146.938 153.288 147.213H146.346C146.401 147.938 146.671 148.521 147.154 148.961C147.638 149.4 148.231 149.62 148.935 149.62C149.946 149.62 150.661 149.197 151.079 148.351H153.107C152.832 149.186 152.332 149.873 151.606 150.412C150.892 150.939 150.001 151.203 148.935 151.203C148.067 151.203 147.286 151.011 146.594 150.626C145.912 150.23 145.373 149.681 144.978 148.977C144.593 148.263 144.401 147.438 144.401 146.504C144.401 145.569 144.587 144.75 144.961 144.047C145.346 143.332 145.879 142.783 146.561 142.398C147.253 142.013 148.045 141.821 148.935 141.821C149.792 141.821 150.556 142.008 151.227 142.382C151.897 142.755 152.42 143.283 152.793 143.964C153.167 144.635 153.354 145.41 153.354 146.289ZM151.392 145.696C151.381 145.003 151.133 144.448 150.65 144.03C150.166 143.613 149.567 143.404 148.853 143.404C148.204 143.404 147.649 143.613 147.187 144.03C146.725 144.437 146.451 144.992 146.363 145.696H151.392ZM158.861 146.471C158.861 145.558 159.047 144.75 159.421 144.047C159.806 143.343 160.323 142.799 160.971 142.415C161.631 142.019 162.362 141.821 163.164 141.821C163.758 141.821 164.34 141.953 164.912 142.217C165.495 142.469 165.956 142.81 166.297 143.239V138.853H168.193V151.055H166.297V149.686C165.989 150.126 165.56 150.489 165.011 150.774C164.472 151.06 163.851 151.203 163.148 151.203C162.356 151.203 161.631 151.005 160.971 150.609C160.323 150.203 159.806 149.642 159.421 148.928C159.047 148.202 158.861 147.383 158.861 146.471ZM166.297 146.504C166.297 145.877 166.165 145.333 165.901 144.871C165.648 144.41 165.313 144.058 164.895 143.816C164.478 143.574 164.027 143.453 163.543 143.453C163.06 143.453 162.609 143.574 162.191 143.816C161.774 144.047 161.433 144.393 161.169 144.855C160.916 145.306 160.79 145.844 160.79 146.471C160.79 147.097 160.916 147.647 161.169 148.12C161.433 148.592 161.774 148.955 162.191 149.208C162.62 149.45 163.071 149.571 163.543 149.571C164.027 149.571 164.478 149.45 164.895 149.208C165.313 148.966 165.648 148.614 165.901 148.153C166.165 147.68 166.297 147.13 166.297 146.504ZM178.989 146.289C178.989 146.63 178.967 146.938 178.923 147.213H171.981C172.036 147.938 172.306 148.521 172.789 148.961C173.273 149.4 173.867 149.62 174.57 149.62C175.581 149.62 176.296 149.197 176.714 148.351H178.742C178.467 149.186 177.967 149.873 177.241 150.412C176.527 150.939 175.636 151.203 174.57 151.203C173.702 151.203 172.921 151.011 172.229 150.626C171.547 150.23 171.008 149.681 170.613 148.977C170.228 148.263 170.036 147.438 170.036 146.504C170.036 145.569 170.222 144.75 170.596 144.047C170.981 143.332 171.514 142.783 172.196 142.398C172.888 142.013 173.68 141.821 174.57 141.821C175.427 141.821 176.191 142.008 176.862 142.382C177.533 142.755 178.055 143.283 178.428 143.964C178.802 144.635 178.989 145.41 178.989 146.289ZM177.027 145.696C177.016 145.003 176.769 144.448 176.285 144.03C175.801 143.613 175.202 143.404 174.488 143.404C173.839 143.404 173.284 143.613 172.822 144.03C172.361 144.437 172.086 144.992 171.998 145.696H177.027ZM184.137 151.203C183.422 151.203 182.779 151.077 182.207 150.824C181.647 150.56 181.202 150.208 180.872 149.769C180.542 149.318 180.366 148.818 180.344 148.268H182.29C182.323 148.653 182.504 148.977 182.834 149.241C183.175 149.494 183.598 149.62 184.104 149.62C184.631 149.62 185.038 149.521 185.324 149.323C185.621 149.114 185.769 148.851 185.769 148.532C185.769 148.191 185.604 147.938 185.274 147.773C184.956 147.609 184.444 147.427 183.741 147.229C183.059 147.042 182.504 146.861 182.076 146.685C181.647 146.509 181.273 146.24 180.954 145.877C180.647 145.514 180.493 145.036 180.493 144.443C180.493 143.959 180.636 143.519 180.921 143.124C181.207 142.717 181.614 142.398 182.142 142.167C182.68 141.936 183.296 141.821 183.988 141.821C185.022 141.821 185.852 142.085 186.478 142.612C187.116 143.129 187.456 143.838 187.5 144.739H185.621C185.588 144.333 185.423 144.008 185.126 143.767C184.829 143.525 184.428 143.404 183.922 143.404C183.428 143.404 183.048 143.497 182.785 143.684C182.521 143.871 182.389 144.118 182.389 144.426C182.389 144.668 182.477 144.871 182.653 145.036C182.829 145.201 183.043 145.333 183.296 145.432C183.549 145.52 183.922 145.635 184.417 145.778C185.077 145.954 185.615 146.136 186.033 146.322C186.462 146.498 186.83 146.762 187.138 147.114C187.445 147.466 187.605 147.933 187.616 148.515C187.616 149.032 187.473 149.494 187.187 149.9C186.901 150.307 186.495 150.626 185.967 150.857C185.45 151.088 184.84 151.203 184.137 151.203ZM189.02 146.504C189.02 145.569 189.207 144.75 189.581 144.047C189.966 143.332 190.493 142.783 191.164 142.398C191.834 142.013 192.604 141.821 193.472 141.821C194.572 141.821 195.479 142.085 196.193 142.612C196.919 143.129 197.408 143.871 197.661 144.838H195.632C195.468 144.388 195.204 144.036 194.841 143.783C194.478 143.53 194.022 143.404 193.472 143.404C192.703 143.404 192.087 143.679 191.626 144.228C191.175 144.767 190.95 145.525 190.95 146.504C190.95 147.482 191.175 148.246 191.626 148.796C192.087 149.345 192.703 149.62 193.472 149.62C194.561 149.62 195.281 149.142 195.632 148.186H197.661C197.397 149.109 196.902 149.846 196.177 150.395C195.451 150.934 194.55 151.203 193.472 151.203C192.604 151.203 191.834 151.011 191.164 150.626C190.493 150.23 189.966 149.681 189.581 148.977C189.207 148.263 189.02 147.438 189.02 146.504ZM201.414 143.288C201.688 142.827 202.051 142.469 202.502 142.217C202.964 141.953 203.508 141.821 204.134 141.821V143.767H203.656C202.92 143.767 202.359 143.953 201.974 144.327C201.6 144.701 201.414 145.35 201.414 146.273V151.055H199.534V141.969H201.414V143.288ZM206.818 140.766C206.478 140.766 206.192 140.65 205.961 140.419C205.73 140.189 205.615 139.903 205.615 139.562C205.615 139.221 205.73 138.935 205.961 138.705C206.192 138.474 206.478 138.358 206.818 138.358C207.148 138.358 207.429 138.474 207.659 138.705C207.89 138.935 208.006 139.221 208.006 139.562C208.006 139.903 207.89 140.189 207.659 140.419C207.429 140.65 207.148 140.766 206.818 140.766ZM207.742 141.969V151.055H205.862V141.969H207.742ZM212.089 143.305C212.408 142.887 212.842 142.535 213.392 142.25C213.942 141.964 214.563 141.821 215.255 141.821C216.047 141.821 216.767 142.019 217.415 142.415C218.075 142.799 218.592 143.343 218.965 144.047C219.339 144.75 219.526 145.558 219.526 146.471C219.526 147.383 219.339 148.202 218.965 148.928C218.592 149.642 218.075 150.203 217.415 150.609C216.767 151.005 216.047 151.203 215.255 151.203C214.563 151.203 213.947 151.066 213.409 150.791C212.87 150.505 212.43 150.153 212.089 149.736V155.375H210.21V141.969H212.089V143.305ZM217.613 146.471C217.613 145.844 217.481 145.306 217.218 144.855C216.965 144.393 216.624 144.047 216.195 143.816C215.777 143.574 215.327 143.453 214.843 143.453C214.37 143.453 213.92 143.574 213.491 143.816C213.073 144.058 212.733 144.41 212.469 144.871C212.216 145.333 212.089 145.877 212.089 146.504C212.089 147.13 212.216 147.68 212.469 148.153C212.733 148.614 213.073 148.966 213.491 149.208C213.92 149.45 214.37 149.571 214.843 149.571C215.327 149.571 215.777 149.45 216.195 149.208C216.624 148.955 216.965 148.592 217.218 148.12C217.481 147.647 217.613 147.097 217.613 146.471ZM223.578 143.503V148.532C223.578 148.873 223.655 149.12 223.809 149.274C223.974 149.417 224.248 149.488 224.633 149.488H225.787V151.055H224.303C223.457 151.055 222.808 150.857 222.358 150.461C221.907 150.065 221.682 149.422 221.682 148.532V143.503H220.61V141.969H221.682V139.71H223.578V141.969H225.787V143.503H223.578ZM228.476 140.766C228.135 140.766 227.85 140.65 227.619 140.419C227.388 140.189 227.273 139.903 227.273 139.562C227.273 139.221 227.388 138.935 227.619 138.705C227.85 138.474 228.135 138.358 228.476 138.358C228.806 138.358 229.086 138.474 229.317 138.705C229.548 138.935 229.663 139.221 229.663 139.562C229.663 139.903 229.548 140.189 229.317 140.419C229.086 140.65 228.806 140.766 228.476 140.766ZM229.4 141.969V151.055H227.52V141.969H229.4ZM235.808 151.203C234.951 151.203 234.176 151.011 233.483 150.626C232.791 150.23 232.247 149.681 231.851 148.977C231.455 148.263 231.257 147.438 231.257 146.504C231.257 145.58 231.461 144.761 231.868 144.047C232.274 143.332 232.829 142.783 233.533 142.398C234.236 142.013 235.022 141.821 235.891 141.821C236.759 141.821 237.545 142.013 238.249 142.398C238.952 142.783 239.507 143.332 239.914 144.047C240.321 144.761 240.524 145.58 240.524 146.504C240.524 147.427 240.315 148.246 239.898 148.961C239.48 149.675 238.908 150.23 238.183 150.626C237.468 151.011 236.677 151.203 235.808 151.203ZM235.808 149.571C236.292 149.571 236.743 149.455 237.16 149.224C237.589 148.994 237.935 148.647 238.199 148.186C238.463 147.724 238.595 147.163 238.595 146.504C238.595 145.844 238.469 145.289 238.216 144.838C237.963 144.377 237.628 144.03 237.21 143.8C236.792 143.569 236.342 143.453 235.858 143.453C235.374 143.453 234.923 143.569 234.506 143.8C234.099 144.03 233.775 144.377 233.533 144.838C233.291 145.289 233.17 145.844 233.17 146.504C233.17 147.482 233.417 148.241 233.912 148.779C234.418 149.307 235.05 149.571 235.808 149.571ZM246.966 141.821C247.681 141.821 248.318 141.969 248.879 142.266C249.451 142.563 249.896 143.003 250.215 143.585C250.533 144.168 250.693 144.871 250.693 145.696V151.055H248.83V145.976C248.83 145.163 248.626 144.542 248.219 144.113C247.813 143.673 247.258 143.453 246.554 143.453C245.851 143.453 245.29 143.673 244.872 144.113C244.465 144.542 244.262 145.163 244.262 145.976V151.055H242.382V141.969H244.262V143.008C244.57 142.634 244.96 142.343 245.433 142.134C245.917 141.925 246.428 141.821 246.966 141.821Z" fill="#171717"/>
<g clipPath="url(#clip0_4139_5317)">
<rect x="112" y="191" width="137" height="14" rx="7" fill="#FFD34D"/>
<rect x="111" y="224" width="71" height="13" rx="6.5" fill="#FFD34D"/>
</g>
</g>
<path d="M261.672 63.5629C261.672 64.4369 261.466 65.2613 261.053 66.0363C260.641 66.8113 259.982 67.4461 259.075 67.9407C258.168 68.4189 257.005 68.658 255.587 68.658H252.471V75.6328H249.651V58.4431H255.587C256.906 58.4431 258.019 58.674 258.926 59.1357C259.85 59.5809 260.534 60.191 260.979 60.9659C261.441 61.7409 261.672 62.6066 261.672 63.5629ZM255.587 66.3578C256.659 66.3578 257.459 66.1187 257.987 65.6405C258.514 65.1459 258.778 64.4533 258.778 63.5629C258.778 61.6832 257.714 60.7433 255.587 60.7433H252.471V66.3578H255.587ZM269.778 75.8554C268.491 75.8554 267.329 75.5669 266.29 74.9897C265.251 74.3961 264.435 73.5717 263.842 72.5164C263.248 71.4446 262.951 70.208 262.951 68.8064C262.951 67.4213 263.256 66.1929 263.866 65.1211C264.476 64.0494 265.309 63.2249 266.364 62.6478C267.42 62.0707 268.599 61.7821 269.901 61.7821C271.204 61.7821 272.383 62.0707 273.438 62.6478C274.493 63.2249 275.326 64.0494 275.936 65.1211C276.546 66.1929 276.851 67.4213 276.851 68.8064C276.851 70.1915 276.538 71.4199 275.911 72.4917C275.285 73.5635 274.427 74.3961 273.339 74.9897C272.267 75.5669 271.08 75.8554 269.778 75.8554ZM269.778 73.4068C270.503 73.4068 271.179 73.2337 271.806 72.8874C272.449 72.5411 272.968 72.0217 273.364 71.3292C273.76 70.6367 273.957 69.7957 273.957 68.8064C273.957 67.8171 273.768 66.9844 273.389 66.3083C273.009 65.6158 272.506 65.0964 271.88 64.7501C271.253 64.4039 270.577 64.2307 269.852 64.2307C269.126 64.2307 268.45 64.4039 267.824 64.7501C267.214 65.0964 266.727 65.6158 266.364 66.3083C266.002 66.9844 265.82 67.8171 265.82 68.8064C265.82 70.2739 266.191 71.4117 266.933 72.2196C267.692 73.0111 268.64 73.4068 269.778 73.4068ZM284.091 75.8554C283.019 75.8554 282.054 75.6658 281.197 75.2865C280.356 74.8908 279.688 74.3632 279.193 73.7036C278.699 73.0276 278.435 72.2773 278.402 71.4529H281.32C281.37 72.03 281.642 72.5164 282.137 72.9121C282.648 73.2914 283.283 73.481 284.041 73.481C284.833 73.481 285.443 73.3326 285.871 73.0358C286.317 72.7225 286.539 72.3268 286.539 71.8486C286.539 71.3375 286.292 70.9582 285.797 70.7109C285.319 70.4635 284.552 70.1915 283.497 69.8947C282.475 69.6144 281.642 69.3423 280.999 69.0785C280.356 68.8147 279.795 68.4107 279.317 67.8665C278.855 67.3224 278.625 66.6051 278.625 65.7147C278.625 64.9892 278.839 64.3297 279.268 63.7361C279.696 63.126 280.306 62.6478 281.098 62.3015C281.906 61.9553 282.829 61.7821 283.868 61.7821C285.418 61.7821 286.663 62.1779 287.603 62.9693C288.559 63.7443 289.07 64.8079 289.136 66.1599H286.317C286.267 65.5499 286.02 65.0634 285.575 64.7007C285.129 64.3379 284.528 64.1565 283.769 64.1565C283.027 64.1565 282.458 64.2967 282.062 64.577C281.667 64.8573 281.469 65.2283 281.469 65.69C281.469 66.0528 281.601 66.3578 281.865 66.6051C282.128 66.8525 282.45 67.0503 282.829 67.1987C283.208 67.3307 283.769 67.5038 284.511 67.7181C285.5 67.982 286.308 68.254 286.935 68.5343C287.578 68.7982 288.13 69.1939 288.592 69.7215C289.054 70.2492 289.293 70.95 289.309 71.8239C289.309 72.5989 289.095 73.2914 288.666 73.9015C288.238 74.5116 287.627 74.9897 286.836 75.336C286.061 75.6823 285.146 75.8554 284.091 75.8554ZM295.151 64.3049V71.8486C295.151 72.3598 295.266 72.7308 295.497 72.9616C295.744 73.176 296.157 73.2831 296.734 73.2831H298.465V75.6328H296.239C294.969 75.6328 293.997 75.336 293.321 74.7424C292.645 74.1488 292.307 73.1842 292.307 71.8486V64.3049H290.699V62.0047H292.307V58.6163H295.151V62.0047H298.465V64.3049H295.151ZM305.56 68.7569C305.56 67.3884 305.84 66.1764 306.4 65.1211C306.978 64.0659 307.753 63.2497 308.725 62.6725C309.715 62.0789 310.803 61.7821 311.99 61.7821C313.062 61.7821 313.994 61.9965 314.785 62.4252C315.593 62.8374 316.236 63.3568 316.714 63.9834V62.0047H319.559V75.6328H316.714V73.6047C316.236 74.2477 315.585 74.7836 314.76 75.2123C313.936 75.6411 312.996 75.8554 311.941 75.8554C310.77 75.8554 309.698 75.5586 308.725 74.965C307.753 74.3549 306.978 73.514 306.4 72.4422C305.84 71.3539 305.56 70.1255 305.56 68.7569ZM316.714 68.8064C316.714 67.8665 316.516 67.0503 316.121 66.3578C315.741 65.6653 315.239 65.1376 314.612 64.7749C313.985 64.4121 313.309 64.2307 312.584 64.2307C311.858 64.2307 311.182 64.4121 310.556 64.7749C309.929 65.1211 309.418 65.6405 309.022 66.3331C308.643 67.0091 308.453 67.8171 308.453 68.7569C308.453 69.6968 308.643 70.5213 309.022 71.2303C309.418 71.9393 309.929 72.4834 310.556 72.8627C311.199 73.2254 311.875 73.4068 312.584 73.4068C313.309 73.4068 313.985 73.2254 314.612 72.8627C315.239 72.4999 315.741 71.9723 316.121 71.2797C316.516 70.5707 316.714 69.7463 316.714 68.8064ZM327.758 68.8064C327.758 67.4049 328.038 66.1764 328.599 65.1211C329.176 64.0494 329.967 63.2249 330.973 62.6478C331.979 62.0707 333.133 61.7821 334.436 61.7821C336.085 61.7821 337.445 62.1779 338.517 62.9693C339.605 63.7443 340.339 64.8573 340.718 66.3083H337.676C337.428 65.6323 337.033 65.1047 336.489 64.7254C335.944 64.3462 335.26 64.1565 334.436 64.1565C333.281 64.1565 332.358 64.5688 331.666 65.3932C330.99 66.2012 330.652 67.3389 330.652 68.8064C330.652 70.2739 330.99 71.4199 331.666 72.2443C332.358 73.0688 333.281 73.481 334.436 73.481C336.068 73.481 337.148 72.7637 337.676 71.3292H340.718C340.322 72.7143 339.58 73.819 338.492 74.6435C337.404 75.4514 336.052 75.8554 334.436 75.8554C333.133 75.8554 331.979 75.5669 330.973 74.9897C329.967 74.3961 329.176 73.5717 328.599 72.5164C328.038 71.4446 327.758 70.208 327.758 68.8064ZM342.093 68.7569C342.093 67.3884 342.374 66.1764 342.934 65.1211C343.511 64.0659 344.286 63.2497 345.259 62.6725C346.249 62.0789 347.337 61.7821 348.524 61.7821C349.596 61.7821 350.527 61.9965 351.319 62.4252C352.127 62.8374 352.77 63.3568 353.248 63.9834V62.0047H356.092V75.6328H353.248V73.6047C352.77 74.2477 352.119 74.7836 351.294 75.2123C350.47 75.6411 349.53 75.8554 348.475 75.8554C347.304 75.8554 346.232 75.5586 345.259 74.965C344.286 74.3549 343.511 73.514 342.934 72.4422C342.374 71.3539 342.093 70.1255 342.093 68.7569ZM353.248 68.8064C353.248 67.8665 353.05 67.0503 352.655 66.3578C352.275 65.6653 351.772 65.1376 351.146 64.7749C350.519 64.4121 349.843 64.2307 349.118 64.2307C348.392 64.2307 347.716 64.4121 347.09 64.7749C346.463 65.1211 345.952 65.6405 345.556 66.3331C345.177 67.0091 344.987 67.8171 344.987 68.7569C344.987 69.6968 345.177 70.5213 345.556 71.2303C345.952 71.9393 346.463 72.4834 347.09 72.8627C347.733 73.2254 348.409 73.4068 349.118 73.4068C349.843 73.4068 350.519 73.2254 351.146 72.8627C351.772 72.4999 352.275 71.9723 352.655 71.2797C353.05 70.5707 353.248 69.7463 353.248 68.8064ZM364.248 75.8554C363.176 75.8554 362.212 75.6658 361.354 75.2865C360.513 74.8908 359.845 74.3632 359.351 73.7036C358.856 73.0276 358.592 72.2773 358.559 71.4529H361.478C361.527 72.03 361.799 72.5164 362.294 72.9121C362.805 73.2914 363.44 73.481 364.198 73.481C364.99 73.481 365.6 73.3326 366.029 73.0358C366.474 72.7225 366.696 72.3268 366.696 71.8486C366.696 71.3375 366.449 70.9582 365.954 70.7109C365.476 70.4635 364.71 70.1915 363.654 69.8947C362.632 69.6144 361.799 69.3423 361.156 69.0785C360.513 68.8147 359.953 68.4107 359.474 67.8665C359.013 67.3224 358.782 66.6051 358.782 65.7147C358.782 64.9892 358.996 64.3297 359.425 63.7361C359.854 63.126 360.464 62.6478 361.255 62.3015C362.063 61.9553 362.986 61.7821 364.025 61.7821C365.575 61.7821 366.82 62.1779 367.76 62.9693C368.716 63.7443 369.228 64.8079 369.293 66.1599H366.474C366.424 65.5499 366.177 65.0634 365.732 64.7007C365.287 64.3379 364.685 64.1565 363.926 64.1565C363.184 64.1565 362.615 64.2967 362.22 64.577C361.824 64.8573 361.626 65.2283 361.626 65.69C361.626 66.0528 361.758 66.3578 362.022 66.6051C362.286 66.8525 362.607 67.0503 362.986 67.1987C363.366 67.3307 363.926 67.5038 364.668 67.7181C365.658 67.982 366.466 68.254 367.092 68.5343C367.735 68.7982 368.288 69.1939 368.749 69.7215C369.211 70.2492 369.45 70.95 369.467 71.8239C369.467 72.5989 369.252 73.2914 368.824 73.9015C368.395 74.5116 367.785 74.9897 366.993 75.336C366.218 75.6823 365.303 75.8554 364.248 75.8554ZM384.509 68.4849C384.509 68.996 384.476 69.4577 384.41 69.8699H373.997C374.08 70.9582 374.484 71.8321 375.209 72.4917C375.935 73.1512 376.825 73.481 377.88 73.481C379.397 73.481 380.469 72.8462 381.096 71.5765H384.138C383.726 72.8297 382.975 73.8603 381.887 74.6682C380.815 75.4597 379.48 75.8554 377.88 75.8554C376.578 75.8554 375.407 75.5669 374.368 74.9897C373.346 74.3961 372.538 73.5717 371.944 72.5164C371.367 71.4446 371.079 70.208 371.079 68.8064C371.079 67.4049 371.359 66.1764 371.92 65.1211C372.497 64.0494 373.296 63.2249 374.319 62.6478C375.358 62.0707 376.545 61.7821 377.88 61.7821C379.167 61.7821 380.313 62.0625 381.318 62.6231C382.324 63.1837 383.107 63.9752 383.668 64.9975C384.229 66.0033 384.509 67.1658 384.509 68.4849ZM381.566 67.5945C381.549 66.5557 381.178 65.723 380.453 65.0964C379.727 64.4698 378.829 64.1565 377.757 64.1565C376.784 64.1565 375.951 64.4698 375.259 65.0964C374.566 65.7065 374.154 66.5392 374.022 67.5945H381.566Z" fill="#101828"/>
<path d="M165.352 325.73H467.648C476.375 325.73 483.45 332.805 483.45 341.532V432.524C483.45 441.252 476.375 448.326 467.648 448.326H165.352C156.625 448.326 149.55 441.252 149.55 432.524V341.532C149.55 332.805 156.625 325.73 165.352 325.73Z" fill="white"/>
<path d="M165.352 325.73H467.648C476.375 325.73 483.45 332.805 483.45 341.532V432.524C483.45 441.252 476.375 448.326 467.648 448.326H165.352C156.625 448.326 149.55 441.252 149.55 432.524V341.532C149.55 332.805 156.625 325.73 165.352 325.73Z" stroke="#E3E5E8" strokeWidth="1.37407"/>
<path fillRule="evenodd" clipRule="evenodd" d="M321.061 371.629H309.974C306.507 371.616 303.667 374.377 303.584 377.844V395.739C303.509 399.242 306.289 402.142 309.791 402.217C309.852 402.217 309.914 402.219 309.974 402.217H323.287C326.771 402.094 329.524 399.224 329.504 395.739V380.422L321.061 371.629Z" stroke="url(#paint0_linear_4139_5317)" strokeWidth="1.4" strokeLinecap="round" strokeLinejoin="round"/>
<path d="M320.624 371.609V376.458C320.624 378.824 322.539 380.743 324.906 380.749H329.496" stroke="url(#paint1_linear_4139_5317)" strokeWidth="1.4" strokeLinecap="round" strokeLinejoin="round"/>
<path d="M315.901 383.539V393.607" stroke="url(#paint2_linear_4139_5317)" strokeWidth="1.4" strokeLinecap="round" strokeLinejoin="round"/>
<path d="M319.811 387.468L315.902 383.543L311.994 387.468" stroke="url(#paint3_linear_4139_5317)" strokeWidth="1.4" strokeLinecap="round" strokeLinejoin="round"/>
<g filter="url(#filter2_d_4139_5317)">
<rect x="212.891" y="466.02" width="208.591" height="54.6323" rx="27.3162" stroke="#EEF0F4" strokeWidth="1.64216" shape-rendering="crispEdges"/>
<path d="M271.032 490.838C271.032 491.573 270.854 492.263 270.5 492.907C270.158 493.551 269.613 494.069 268.864 494.464C268.128 494.858 267.196 495.055 266.066 495.055H263.76V500.336H261.001V486.581H266.066C267.13 486.581 268.036 486.765 268.785 487.133C269.534 487.501 270.092 488.007 270.46 488.65C270.841 489.294 271.032 490.023 271.032 490.838ZM265.948 492.828C266.709 492.828 267.274 492.657 267.642 492.316C268.01 491.961 268.194 491.468 268.194 490.838C268.194 489.498 267.445 488.828 265.948 488.828H263.76V492.828H265.948ZM277.641 500.513C276.59 500.513 275.644 500.283 274.803 499.824C273.963 499.351 273.299 498.687 272.813 497.833C272.34 496.979 272.104 495.994 272.104 494.877C272.104 493.761 272.347 492.775 272.833 491.922C273.332 491.068 274.008 490.411 274.862 489.951C275.716 489.478 276.669 489.242 277.72 489.242C278.771 489.242 279.723 489.478 280.577 489.951C281.431 490.411 282.101 491.068 282.587 491.922C283.086 492.775 283.336 493.761 283.336 494.877C283.336 495.994 283.08 496.979 282.567 497.833C282.068 498.687 281.385 499.351 280.518 499.824C279.664 500.283 278.705 500.513 277.641 500.513ZM277.641 498.109C278.14 498.109 278.607 497.991 279.04 497.754C279.487 497.505 279.841 497.137 280.104 496.651C280.367 496.165 280.498 495.574 280.498 494.877C280.498 493.84 280.222 493.045 279.671 492.493C279.132 491.928 278.469 491.646 277.68 491.646C276.892 491.646 276.229 491.928 275.69 492.493C275.165 493.045 274.902 493.84 274.902 494.877C274.902 495.915 275.158 496.717 275.67 497.282C276.196 497.833 276.853 498.109 277.641 498.109ZM289.34 500.513C288.447 500.513 287.646 500.356 286.936 500.04C286.227 499.712 285.662 499.272 285.241 498.72C284.834 498.168 284.611 497.557 284.571 496.887H287.35C287.402 497.308 287.606 497.656 287.961 497.932C288.329 498.208 288.782 498.346 289.321 498.346C289.846 498.346 290.253 498.241 290.542 498.03C290.844 497.82 290.996 497.551 290.996 497.222C290.996 496.868 290.812 496.605 290.444 496.434C290.089 496.25 289.518 496.053 288.729 495.843C287.915 495.646 287.245 495.442 286.719 495.232C286.207 495.022 285.76 494.7 285.379 494.267C285.012 493.833 284.828 493.248 284.828 492.513C284.828 491.908 284.998 491.357 285.34 490.857C285.695 490.358 286.194 489.964 286.838 489.675C287.494 489.386 288.263 489.242 289.143 489.242C290.444 489.242 291.482 489.57 292.257 490.227C293.032 490.871 293.459 491.744 293.538 492.848H290.897C290.858 492.414 290.674 492.073 290.345 491.823C290.03 491.56 289.603 491.429 289.064 491.429C288.565 491.429 288.178 491.521 287.902 491.705C287.639 491.889 287.508 492.145 287.508 492.473C287.508 492.841 287.692 493.124 288.059 493.321C288.427 493.505 288.999 493.695 289.774 493.892C290.562 494.089 291.212 494.293 291.725 494.503C292.237 494.713 292.677 495.042 293.045 495.488C293.426 495.922 293.623 496.5 293.636 497.222C293.636 497.853 293.459 498.418 293.104 498.917C292.762 499.416 292.263 499.81 291.606 500.099C290.963 500.375 290.207 500.513 289.34 500.513ZM298.916 491.685V496.966C298.916 497.334 299.001 497.603 299.172 497.774C299.356 497.932 299.658 498.011 300.078 498.011H301.359V500.336H299.625C297.3 500.336 296.137 499.206 296.137 496.947V491.685H294.837V489.419H296.137V486.719H298.916V489.419H301.359V491.685H298.916ZM306.936 494.838C306.936 493.734 307.152 492.756 307.586 491.902C308.033 491.048 308.63 490.391 309.379 489.931C310.141 489.471 310.988 489.242 311.921 489.242C312.736 489.242 313.445 489.406 314.049 489.734C314.667 490.063 315.159 490.476 315.527 490.976V489.419H318.306V500.336H315.527V498.74C315.173 499.252 314.68 499.679 314.049 500.021C313.432 500.349 312.716 500.513 311.901 500.513C310.982 500.513 310.141 500.277 309.379 499.804C308.63 499.331 308.033 498.668 307.586 497.814C307.152 496.947 306.936 495.955 306.936 494.838ZM315.527 494.877C315.527 494.207 315.396 493.636 315.133 493.163C314.87 492.677 314.516 492.309 314.069 492.059C313.622 491.797 313.143 491.665 312.631 491.665C312.118 491.665 311.645 491.79 311.212 492.04C310.778 492.289 310.424 492.657 310.148 493.143C309.885 493.616 309.754 494.181 309.754 494.838C309.754 495.495 309.885 496.073 310.148 496.572C310.424 497.058 310.778 497.433 311.212 497.695C311.658 497.958 312.131 498.089 312.631 498.089C313.143 498.089 313.622 497.965 314.069 497.715C314.516 497.452 314.87 497.084 315.133 496.612C315.396 496.125 315.527 495.547 315.527 494.877ZM324.632 493.439C324.632 492.086 324.934 490.877 325.538 489.813C326.156 488.736 326.99 487.902 328.041 487.31C329.105 486.706 330.294 486.404 331.608 486.404C333.145 486.404 334.491 486.798 335.647 487.586C336.803 488.374 337.611 489.465 338.071 490.857H334.899C334.583 490.201 334.137 489.708 333.559 489.379C332.994 489.051 332.337 488.887 331.588 488.887C330.787 488.887 330.071 489.077 329.44 489.458C328.823 489.826 328.336 490.352 327.982 491.035C327.64 491.718 327.469 492.519 327.469 493.439C327.469 494.345 327.64 495.147 327.982 495.843C328.336 496.526 328.823 497.058 329.44 497.439C330.071 497.807 330.787 497.991 331.588 497.991C332.337 497.991 332.994 497.827 333.559 497.498C334.137 497.157 334.583 496.658 334.899 496.001H338.071C337.611 497.406 336.803 498.503 335.647 499.292C334.504 500.067 333.158 500.454 331.608 500.454C330.294 500.454 329.105 500.159 328.041 499.567C326.99 498.963 326.156 498.129 325.538 497.065C324.934 496.001 324.632 494.792 324.632 493.439ZM339.521 494.838C339.521 493.734 339.738 492.756 340.171 491.902C340.618 491.048 341.216 490.391 341.965 489.931C342.727 489.471 343.574 489.242 344.507 489.242C345.321 489.242 346.031 489.406 346.635 489.734C347.252 490.063 347.745 490.476 348.113 490.976V489.419H350.891V500.336H348.113V498.74C347.758 499.252 347.265 499.679 346.635 500.021C346.017 500.349 345.301 500.513 344.487 500.513C343.567 500.513 342.727 500.277 341.965 499.804C341.216 499.331 340.618 498.668 340.171 497.814C339.738 496.947 339.521 495.955 339.521 494.838ZM348.113 494.877C348.113 494.207 347.981 493.636 347.719 493.163C347.456 492.677 347.101 492.309 346.655 492.059C346.208 491.797 345.728 491.665 345.216 491.665C344.704 491.665 344.231 491.79 343.797 492.04C343.364 492.289 343.009 492.657 342.733 493.143C342.47 493.616 342.339 494.181 342.339 494.838C342.339 495.495 342.47 496.073 342.733 496.572C343.009 497.058 343.364 497.433 343.797 497.695C344.244 497.958 344.717 498.089 345.216 498.089C345.728 498.089 346.208 497.965 346.655 497.715C347.101 497.452 347.456 497.084 347.719 496.612C347.981 496.125 348.113 495.547 348.113 494.877ZM357.566 500.513C356.673 500.513 355.872 500.356 355.162 500.04C354.453 499.712 353.888 499.272 353.468 498.72C353.06 498.168 352.837 497.557 352.798 496.887H355.576C355.629 497.308 355.832 497.656 356.187 497.932C356.555 498.208 357.008 498.346 357.547 498.346C358.072 498.346 358.479 498.241 358.768 498.03C359.071 497.82 359.222 497.551 359.222 497.222C359.222 496.868 359.038 496.605 358.67 496.434C358.315 496.25 357.744 496.053 356.956 495.843C356.141 495.646 355.471 495.442 354.946 495.232C354.433 495.022 353.987 494.7 353.606 494.267C353.238 493.833 353.054 493.248 353.054 492.513C353.054 491.908 353.225 491.357 353.566 490.857C353.921 490.358 354.42 489.964 355.064 489.675C355.721 489.386 356.489 489.242 357.369 489.242C358.67 489.242 359.708 489.57 360.483 490.227C361.258 490.871 361.685 491.744 361.764 492.848H359.123C359.084 492.414 358.9 492.073 358.571 491.823C358.256 491.56 357.829 491.429 357.291 491.429C356.791 491.429 356.404 491.521 356.128 491.705C355.865 491.889 355.734 492.145 355.734 492.473C355.734 492.841 355.918 493.124 356.286 493.321C356.653 493.505 357.225 493.695 358 493.892C358.788 494.089 359.438 494.293 359.951 494.503C360.463 494.713 360.903 495.042 361.271 495.488C361.652 495.922 361.849 496.5 361.862 497.222C361.862 497.853 361.685 498.418 361.33 498.917C360.989 499.416 360.489 499.81 359.833 500.099C359.189 500.375 358.433 500.513 357.566 500.513ZM374.078 494.641C374.078 495.035 374.052 495.39 374 495.705H366.019C366.084 496.493 366.36 497.111 366.846 497.557C367.332 498.004 367.93 498.227 368.64 498.227C369.664 498.227 370.393 497.787 370.827 496.907H373.803C373.487 497.958 372.883 498.825 371.99 499.508C371.096 500.178 369.999 500.513 368.699 500.513C367.648 500.513 366.702 500.283 365.861 499.824C365.033 499.351 364.383 498.687 363.91 497.833C363.45 496.979 363.22 495.994 363.22 494.877C363.22 493.748 363.45 492.756 363.91 491.902C364.37 491.048 365.014 490.391 365.841 489.931C366.669 489.471 367.621 489.242 368.699 489.242C369.737 489.242 370.663 489.465 371.477 489.912C372.305 490.358 372.942 490.995 373.389 491.823C373.849 492.638 374.078 493.577 374.078 494.641ZM371.221 493.853C371.208 493.143 370.952 492.578 370.453 492.158C369.953 491.724 369.342 491.508 368.62 491.508C367.937 491.508 367.359 491.718 366.886 492.138C366.426 492.546 366.144 493.117 366.038 493.853H371.221Z" fill="#171717"/>
</g>
<g filter="url(#filter3_d_4139_5317)">
<rect x="330" y="113" width="254.135" height="254.135" rx="20.0541" fill="white" shape-rendering="crispEdges"/>
<rect x="331" y="114" width="252.135" height="252.135" rx="19.0541" stroke="#6E00FF" strokeWidth="2" shape-rendering="crispEdges"/>
<rect x="350.554" y="133.555" width="101" height="101" rx="9.5" stroke="#F0E5FF"/>
<g clipPath="url(#clip1_4139_5317)">
<path d="M362.334 183.688C362.334 183.688 375.332 186.608 375.429 186.609C375.64 186.603 375.847 186.547 376.032 186.443C376.216 186.34 376.373 186.193 376.488 186.016C376.603 185.839 376.674 185.636 376.693 185.425C376.713 185.215 376.681 185.003 376.6 184.807C376.026 183.514 372.992 177.05 369.433 176.373L364.167 175.11C363.83 175.036 363.478 175.099 363.187 175.284C362.896 175.469 362.689 175.761 362.613 176.098L361.361 182.179C361.294 182.508 361.358 182.85 361.54 183.132C361.722 183.414 362.007 183.614 362.334 183.688ZM364.856 177.911C364.856 177.911 368.918 178.885 368.943 178.889C370.137 179.101 371.782 181.286 373.042 183.475L364.125 181.464L364.856 177.911ZM438.926 175.274C438.781 175.182 438.619 175.12 438.45 175.092C438.281 175.063 438.107 175.07 437.94 175.11L432.674 176.373C429.115 177.05 426.082 183.514 425.507 184.807C425.428 185.003 425.396 185.215 425.416 185.425C425.436 185.635 425.507 185.837 425.622 186.014C425.737 186.191 425.893 186.338 426.077 186.441C426.261 186.545 426.467 186.602 426.678 186.609C426.772 186.609 439.773 183.688 439.773 183.688C440.1 183.614 440.385 183.414 440.567 183.132C440.749 182.85 440.813 182.508 440.746 182.179L439.494 176.098C439.459 175.929 439.391 175.77 439.294 175.628C439.196 175.487 439.071 175.367 438.926 175.274ZM429.063 183.476C430.322 181.286 431.967 179.101 433.164 178.889C433.189 178.885 437.251 177.911 437.251 177.911L437.982 181.464L429.063 183.476Z" fill="#6E00FF"/>
<path d="M440.772 208.398H420.284C420.724 208.396 421.162 208.35 421.593 208.259C423.123 207.938 424.482 207.067 425.414 205.811C426.345 204.556 426.785 203.003 426.65 201.445L441.048 198.272C441.38 198.199 441.668 197.997 441.851 197.71C442.034 197.424 442.096 197.077 442.023 196.745C441.95 196.413 441.748 196.124 441.462 195.941C441.176 195.758 440.829 195.696 440.497 195.769L425.926 198.98C425.27 197.744 424.228 196.758 422.958 196.171C421.688 195.584 420.261 195.429 418.895 195.73C417.529 196.031 416.299 196.772 415.393 197.838C414.488 198.904 413.957 200.238 413.881 201.634L406.578 203.244C406.243 203.315 405.893 203.252 405.604 203.069C405.315 202.886 405.108 202.596 405.03 202.263C404.84 201.394 404.639 200.462 404.451 199.578L406.489 199.068C406.819 198.986 407.103 198.776 407.278 198.484C407.453 198.193 407.505 197.844 407.422 197.514C407.34 197.184 407.13 196.901 406.838 196.726C406.547 196.551 406.198 196.499 405.868 196.581L403.92 197.068C403.769 196.348 403.659 195.821 403.622 195.642C403.583 195.157 403.749 194.64 404.614 193.648C405.457 192.684 407.614 190.85 412.584 189.411C417.435 187.789 421.627 184.635 424.53 180.424C424.553 180.389 424.574 180.354 424.594 180.317C425.552 178.526 428.797 173.679 432.318 172.628L440.979 171.214C441.314 171.159 441.614 170.974 441.813 170.698C442.011 170.422 442.092 170.078 442.037 169.743C441.982 169.408 441.797 169.108 441.521 168.909C441.245 168.711 440.901 168.63 440.566 168.685L431.829 170.112C431.78 170.119 431.732 170.13 431.685 170.143C426.568 171.598 422.78 178.294 422.367 179.048C419.785 182.718 416.113 185.482 411.871 186.949C407.722 188.15 404.459 189.931 402.685 191.962C401.74 193.044 400.892 194.279 401.08 195.976C401.084 196.016 401.09 196.056 401.099 196.096C401.099 196.096 401.873 199.824 402.527 202.811C402.721 203.671 403.203 204.438 403.892 204.987C404.582 205.537 405.438 205.834 406.319 205.832C406.58 205.832 414.258 204.176 414.258 204.176C414.703 205.408 415.515 206.474 416.586 207.229C417.656 207.984 418.932 208.392 420.242 208.398H381.865C383.175 208.392 384.452 207.984 385.522 207.229C386.592 206.474 387.405 205.408 387.849 204.176C387.849 204.176 395.537 205.834 395.795 205.834C396.675 205.835 397.53 205.536 398.218 204.987C398.906 204.437 399.387 203.67 399.581 202.811C400.235 199.824 401.009 196.096 401.009 196.096C401.017 196.056 401.024 196.016 401.028 195.976C401.215 194.279 400.367 193.044 399.423 191.962C397.648 189.931 394.386 188.15 390.236 186.949C385.99 185.491 382.316 182.725 379.741 179.048C379.328 178.294 375.54 171.598 370.423 170.143C370.376 170.13 370.328 170.119 370.279 170.112L361.542 168.685C361.206 168.63 360.863 168.711 360.588 168.91C360.312 169.108 360.126 169.408 360.072 169.743C360.017 170.078 360.097 170.422 360.296 170.698C360.494 170.973 360.794 171.159 361.129 171.214L369.789 172.629C374.02 173.888 377.479 180.253 377.514 180.318C377.533 180.354 377.555 180.39 377.578 180.424C380.481 184.635 384.673 187.789 389.524 189.411C394.494 190.85 396.65 192.684 397.493 193.648C398.359 194.64 398.525 195.157 398.486 195.642C398.449 195.821 398.339 196.348 398.188 197.068L396.239 196.581C395.91 196.499 395.561 196.551 395.269 196.726C394.978 196.901 394.768 197.184 394.685 197.514C394.603 197.844 394.655 198.193 394.83 198.484C395.005 198.776 395.288 198.986 395.618 199.068L397.657 199.578C397.468 200.462 397.268 201.394 397.078 202.263C397.001 202.594 396.798 202.882 396.512 203.066C396.227 203.25 395.881 203.315 395.548 203.248L388.227 201.634C388.15 200.238 387.618 198.905 386.713 197.839C385.807 196.774 384.578 196.034 383.212 195.733C381.846 195.432 380.42 195.587 379.15 196.173C377.881 196.759 376.838 197.745 376.182 198.98L361.611 195.769C361.279 195.696 360.932 195.758 360.646 195.941C360.36 196.124 360.158 196.413 360.085 196.745C360.012 197.077 360.074 197.424 360.256 197.71C360.439 197.997 360.728 198.199 361.06 198.272L375.458 201.445C375.322 203.002 375.762 204.556 376.694 205.811C377.626 207.067 378.985 207.938 380.515 208.259C380.945 208.35 381.384 208.396 381.824 208.398H361.335C360.995 208.398 360.669 208.533 360.429 208.773C360.189 209.014 360.054 209.34 360.054 209.679C360.054 210.019 360.189 210.345 360.429 210.586C360.669 210.826 360.995 210.961 361.335 210.961H440.772C441.112 210.961 441.438 210.826 441.679 210.586C441.919 210.345 442.054 210.019 442.054 209.679C442.054 209.34 441.919 209.014 441.679 208.773C441.438 208.533 441.112 208.398 440.772 208.398ZM416.528 202.779C416.421 202.287 416.413 201.778 416.503 201.283C416.593 200.787 416.78 200.314 417.053 199.891C417.469 199.254 418.063 198.755 418.762 198.456C419.461 198.158 420.233 198.073 420.98 198.213C421.727 198.353 422.416 198.711 422.959 199.242C423.502 199.774 423.876 200.454 424.033 201.198C424.189 201.942 424.122 202.715 423.839 203.421C423.556 204.126 423.071 204.732 422.443 205.161C421.816 205.591 421.076 205.824 420.316 205.833C419.556 205.842 418.811 205.625 418.174 205.21C417.753 204.933 417.391 204.575 417.109 204.158C416.827 203.741 416.629 203.273 416.528 202.779ZM381.043 205.751C380.549 205.648 380.08 205.449 379.663 205.163C379.246 204.878 378.891 204.513 378.616 204.089C378.201 203.452 377.984 202.707 377.993 201.947C378.001 201.187 378.235 200.446 378.664 199.819C379.094 199.192 379.7 198.706 380.405 198.423C381.111 198.14 381.884 198.073 382.628 198.23C383.372 198.387 384.052 198.76 384.584 199.304C385.115 199.847 385.473 200.536 385.613 201.284C385.753 202.031 385.668 202.802 385.369 203.501C385.07 204.2 384.571 204.795 383.934 205.21C383.512 205.487 383.039 205.677 382.543 205.77C382.046 205.863 381.537 205.857 381.043 205.751Z" fill="#6E00FF"/>
<path d="M381.764 175.268L388.827 179.985C389.11 180.17 389.455 180.236 389.787 180.17C390.119 180.104 390.412 179.911 390.604 179.631C390.792 179.349 390.861 179.003 390.795 178.669C390.728 178.336 390.532 178.043 390.25 177.854L386.094 175.078L390.602 174.562C390.807 174.535 391.003 174.459 391.173 174.341C391.343 174.223 391.482 174.066 391.579 173.883C391.675 173.701 391.727 173.497 391.729 173.291C391.732 173.084 391.684 172.879 391.592 172.694L390.116 169.878L395.379 171.01C395.57 171.047 395.768 171.04 395.956 170.991C396.145 170.941 396.32 170.85 396.469 170.724C396.617 170.598 396.736 170.44 396.815 170.262C396.895 170.084 396.933 169.89 396.928 169.695L396.638 163.661L400.532 166.981C400.671 167.096 400.832 167.181 401.005 167.23C401.178 167.28 401.36 167.292 401.539 167.267C401.717 167.243 401.889 167.181 402.042 167.086C402.195 166.991 402.327 166.865 402.429 166.717L405.801 161.66L407.216 168.369C407.265 168.58 407.365 168.776 407.509 168.938C407.652 169.1 407.833 169.224 408.037 169.298C408.24 169.371 408.459 169.393 408.673 169.361C408.887 169.329 409.089 169.243 409.262 169.112L413.533 165.755L411.172 173.173C411.115 173.367 411.104 173.57 411.139 173.768C411.174 173.967 411.255 174.154 411.374 174.316C411.494 174.478 411.649 174.609 411.829 174.701C412.008 174.793 412.206 174.842 412.407 174.844L416.364 174.798L414.172 176.865C413.924 177.098 413.78 177.42 413.769 177.759C413.759 178.099 413.885 178.429 414.118 178.676C414.351 178.924 414.672 179.068 415.012 179.079C415.352 179.089 415.682 178.963 415.929 178.73L418.573 176.238C419.299 175.682 419.959 175.045 420.541 174.339C421.118 173.473 420.887 172.197 419.617 172.197L414.151 172.26L417.239 162.561C417.314 162.301 417.306 162.024 417.215 161.769C417.125 161.514 416.957 161.294 416.734 161.139C416.512 160.985 416.247 160.904 415.976 160.909C415.706 160.913 415.443 161.003 415.226 161.164L409.298 165.824L407.679 158.149C407.623 157.905 407.497 157.683 407.317 157.51C407.136 157.336 406.91 157.219 406.664 157.172C406.419 157.124 406.165 157.149 405.933 157.244C405.702 157.338 405.502 157.497 405.359 157.702L401.097 164.095L396.048 159.79C395.856 159.632 395.623 159.533 395.377 159.504C395.13 159.476 394.881 159.519 394.658 159.628C394.436 159.737 394.249 159.909 394.121 160.121C393.993 160.334 393.929 160.578 393.937 160.826L394.288 168.153L387.981 166.797C387.744 166.751 387.499 166.772 387.273 166.858C387.048 166.944 386.851 167.092 386.705 167.284C386.558 167.477 386.469 167.706 386.446 167.946C386.424 168.187 386.469 168.429 386.577 168.645L388.455 172.228L382.33 172.929C382.069 172.959 381.824 173.068 381.627 173.242C381.431 173.415 381.292 173.645 381.23 173.9C381.169 174.156 381.187 174.423 381.282 174.668C381.378 174.912 381.546 175.122 381.764 175.268Z" fill="#6E00FF"/>
</g>
<rect x="462.581" y="133.555" width="101" height="101" rx="9.5" stroke="#F0E5FF"/>
<g clipPath="url(#clip2_4139_5317)">
<path d="M473.459 192.289L477.554 189.251C478.05 188.883 478.286 188.26 478.16 187.656L476.6 180.187C476.379 179.13 477.258 178.167 478.331 178.291L479.658 178.444C480.05 178.489 480.411 178.679 480.67 178.977L484.033 182.838C484.354 183.207 484.828 183.406 485.316 183.379L492.087 182.995C492.616 182.965 493.125 183.202 493.443 183.626L494.714 185.321C495.078 185.806 495.687 186.041 496.282 185.925L503.869 184.453C504.898 184.254 505.833 185.091 505.749 186.135L505.531 188.816C505.478 189.476 505.019 190.033 504.382 190.212L501.88 190.916M486.601 207.647L493.123 203.154C493.505 202.891 493.984 202.809 494.433 202.929L500.768 204.635C501.468 204.824 502.207 204.513 502.561 203.88L503.294 202.571C503.761 201.737 503.388 200.683 502.501 200.327L500.534 199.541M483.751 200.997L481.254 207.173C480.96 207.9 481.243 208.734 481.92 209.131L494.807 216.704C495.533 217.13 495.798 218.049 495.411 218.797L494.411 220.731C494.026 221.475 493.128 221.791 492.363 221.452L478.367 215.247M498.317 191.918L496.302 192.485C495.698 192.655 495.252 193.164 495.163 193.785L494.992 194.981L494.852 195.966C494.748 196.688 495.153 197.388 495.831 197.66L500.534 199.541M498.317 191.918L499.584 194.664M498.317 191.918L501.88 190.916M501.88 190.916L503.226 193.714M500.534 199.541L501.88 196.881" stroke="#6E00FF" strokeWidth="2" strokeLinecap="round"/>
<path d="M524.284 211.131H545.025M531.409 216.197H551.675M524.284 221.264H545.025M502.434 175.664V179.939M507.5 177.089L505.442 179.147M486.917 189.122C486.917 189.122 487.392 188.014 488.184 188.014C489.609 188.014 490.242 189.122 490.242 189.122" stroke="#6E00FF" strokeWidth="2" strokeLinecap="round"/>
<path d="M522.384 158.406C518.742 158.248 515.892 158.09 509.717 158.882C504.948 159.493 498.792 163.157 497.367 165.532C496.782 166.506 497.309 167.637 498 168.54C498.588 169.307 499.409 169.807 500.375 169.807C501.642 169.807 502.909 168.065 507.5 165.69C510.521 164.127 512.409 164.265 517.317 164.265C519.696 164.265 516.048 167.625 515.1 169.807C514.111 172.084 513.443 173.372 513.042 175.823C512.652 178.203 512.752 179.604 513.042 181.998C513.326 184.336 513.894 185.573 514.467 187.857C515.525 192.075 517.419 194.282 517.159 198.623C517.046 200.51 515.143 202.89 514.15 204.798C513.246 206.537 512.438 208.081 511.828 209.242C511.102 210.625 510.957 212.474 512.25 213.348V213.348V213.348C513.777 214.381 515.792 213.447 516.814 211.912C518.102 209.978 519.924 207.195 521.592 204.482C522.966 202.245 524.901 199.348 524.917 197.04C524.938 193.935 522.486 191.815 523.65 190.548C524.575 189.543 528.055 192.792 530.026 194.794C530.947 195.729 531.529 196.934 531.756 198.227L533.064 205.67C533.325 207.159 534.011 208.672 535.429 209.198C535.82 209.343 536.234 209.428 536.634 209.39V209.39C538.631 209.199 539.323 206.758 539.058 204.769L537.611 193.921C537.389 192.257 536.577 190.726 535.286 189.652C533.908 188.505 532.017 186.987 530.3 185.798C528.076 184.258 526.5 182.948 526.184 181.998C525.928 181.232 528.965 176.66 530.153 174.915C530.46 174.464 530.816 173.852 531.355 173.941C532.642 174.153 533.066 178.683 535.05 179.94C539.8 182.948 548.35 185.323 549.3 185.165C550.25 185.006 551.617 184.376 551.992 183.107C552.363 181.85 551.834 180.89 550.884 179.94C549.934 178.99 540.909 177.407 539.484 175.823C538.059 174.24 533.467 163.315 533.467 163.315" stroke="#6E00FF" strokeWidth="2" strokeLinecap="round"/>
<circle cx="531.884" cy="153.338" r="6.28333" stroke="#6E00FF" strokeWidth="2"/>
</g>
<rect x="350.554" y="245.582" width="101" height="101" rx="9.5" stroke="#F0E5FF"/>
<path d="M378.999 322.055H394.351M386.763 327.525H400.704M374.94 332.819H403.527" stroke="#6E00FF" strokeWidth="0.705848"/>
<path d="M392.083 264.221C391.605 262.443 393.461 260.789 392.083 259.519C391.393 258.883 390.573 259.187 389.826 258.614C388.999 257.979 389.054 257.18 388.322 256.444C385.279 253.38 377.042 256.444 377.042 256.444C377.042 256.444 375.555 256.937 374.786 257.529C373.625 258.423 372.718 260.604 372.718 260.604L371.966 266.03M392.083 264.221C392.518 265.843 392.929 265.837 392.954 267.201C392.981 268.631 393.091 269.944 392.083 270.914C391.303 271.663 389.826 272.542 389.826 272.542M392.083 264.221L388.792 262.684M389.826 272.542L400.731 276.521M389.826 272.542L388.792 262.684M389.826 272.542C389.826 272.542 388.801 272.992 387.461 273.446M400.731 276.521L407.687 278.691L422.727 273.446C422.727 273.446 425.393 274.115 426.111 275.436C427.301 277.625 422.727 280.862 422.727 280.862C422.727 280.862 413.929 286.364 407.687 286.107C404.91 285.993 403.436 285.273 400.731 284.66M400.731 276.521V284.66M400.731 284.66C398.668 284.193 395.467 283.394 395.467 283.394L400.731 294.97M400.731 294.97H420.283L434.383 308.355M400.731 294.97L386.63 306.908M434.383 308.355C434.383 308.355 437.283 305.69 439.459 306.003C440.403 306.139 441.166 306.156 441.715 306.908C442.306 307.717 442.002 308.49 441.715 309.44C441.322 310.743 440.43 311.169 439.459 312.153C437.731 313.906 434.383 315.951 434.383 315.951L430.623 312.741M434.383 308.355L430.623 312.741M421.599 329.879L414.643 312.153L407.687 306.003L419.343 303.109L430.623 312.741M421.599 329.879C421.599 329.879 426.351 329.623 427.239 331.687C427.688 332.732 427.652 333.523 427.239 334.581C426.394 336.743 423.978 336.625 421.599 336.933C420.435 337.083 419.738 337.175 418.591 336.933C416.82 336.558 414.643 334.581 414.643 334.581M421.599 329.879L414.643 334.581M414.643 334.581L408.627 319.569C408.627 319.569 399.517 315.517 394.151 312.153C391.111 310.248 389.146 309.422 386.63 306.908M386.63 306.908C383.635 303.914 382.403 301.723 380.802 297.864C379.003 293.528 378.546 286.107 378.546 286.107C378.546 286.107 375.466 287.721 373.846 289.182M373.846 289.182C370.87 291.867 370.034 294.196 368.582 297.864C367.48 300.65 368.608 302.929 366.702 305.28C365.806 306.385 365.322 307.415 363.882 307.631C362.357 307.86 360.611 305.28 360.611 305.28C360.611 305.28 359.734 300.994 360.31 297.864C360.971 294.273 362.112 292.406 363.882 289.182C365.442 286.341 366.554 284.861 368.582 282.309M373.846 289.182L368.582 282.309M368.582 282.309C370.478 279.923 371.692 278.695 373.846 276.521C375.064 275.292 377.042 273.446 377.042 273.446M377.042 273.446L375.726 270.914M377.042 273.446C377.042 273.446 378.201 273.766 379.674 274.03M375.726 270.914C375.726 270.914 374.565 271.059 373.846 270.914C372.551 270.651 372.41 270.39 371.966 269.19C371.53 268.011 371.966 266.03 371.966 266.03M375.726 270.914V264.221M371.966 266.03L375.726 264.221M375.726 264.221L383.058 263.317L385.502 261.147L388.792 262.684M387.461 273.446C386.263 273.852 384.814 274.26 383.622 274.35C382.429 274.441 380.936 274.256 379.674 274.03M387.461 273.446C387.461 273.446 387.57 279.053 383.622 279.234C379.674 279.415 379.674 274.03 379.674 274.03M427.239 325.718C427.239 325.718 425.259 322.358 426.487 320.835C428.188 318.725 429.454 324.277 432.127 324.995C435.372 325.866 438.14 321.139 440.587 323.367C443.572 326.085 432.691 330.059 432.691 330.059" stroke="#6E00FF" strokeWidth="2"/>
<rect x="373.353" y="320.645" width="2.82339" height="2.82339" fill="#6E00FF"/>
<rect x="462.054" y="245.082" width="102" height="102" rx="10" fill="#6E00FF"/>
<path d="M499.753 273.934C499.753 273.934 499.247 257.252 513.74 257.083C528.232 256.915 527.557 273.934 527.557 273.934M499.753 273.934H503.292M499.753 273.934C499.753 273.934 497.874 277.065 498.236 279.158C498.712 281.909 503.292 284.214 503.292 284.214M527.557 273.934L524.187 273.429M527.557 273.934C527.557 273.934 529.946 277.002 529.58 279.158C529.117 281.874 524.187 283.708 524.187 283.708M503.292 273.934C503.292 273.934 509.89 273.615 513.74 272.081C516.34 271.044 517.239 267.945 519.974 268.542C522.436 269.079 524.187 273.429 524.187 273.429M503.292 273.934V284.214M524.187 273.429V283.708M524.187 283.708C524.187 283.708 523.379 288.231 519.974 290.959M503.292 284.214C503.292 284.214 504.107 288.37 507.551 290.959M519.974 290.959C518.461 292.171 516.435 293.028 513.74 292.976C511.071 292.925 509.059 292.092 507.551 290.959M519.974 290.959V295.504M519.974 295.504L522.839 296.009M519.974 295.504C519.974 295.504 516.604 300.222 513.74 300.222C510.875 300.222 507.505 295.504 507.505 295.504M522.839 296.009C522.839 296.009 523.471 294.769 524.187 294.324C525.964 293.221 528.788 294.443 529.074 296.515C529.194 297.385 528.568 298.705 528.568 298.705M522.839 296.009L510.197 319.264M528.568 298.705C528.568 298.705 535.861 299.448 539.016 302.413C540.852 304.137 542.555 307.805 542.555 307.805V335.104H533.118M528.568 298.705L525.198 307.805M516.941 332.745L519.974 335.104H526.546M516.941 332.745H514.413M516.941 332.745V322.297M514.413 332.745V335.104H499.247V332.745M514.413 332.745L511.145 322.297M499.247 332.745H485.767C485.767 332.745 484.599 331.646 484.25 330.723C483.808 329.553 484.25 327.521 484.25 327.521L487.62 303.424L490.99 300.728L497.057 298.705M499.247 332.745L498.575 322.297M497.057 298.705C497.057 298.705 496.623 296.969 497.057 296.009C497.787 294.395 499.63 293.653 501.27 294.324C502.537 294.843 503.292 297.189 503.292 297.189M497.057 298.705L498.575 322.297M503.292 297.189L507.505 295.504M503.292 297.189L510.197 319.264M507.505 295.504L507.551 290.959M510.197 319.264L511.145 322.297M520.48 322.297H526.041C526.041 322.297 529.149 325.095 529.58 327.521C530.136 330.661 526.546 335.104 526.546 335.104M520.48 322.297H516.941M520.48 322.297L524.187 310.501M511.145 322.297H516.941M526.546 335.104H533.118M533.118 335.104V315.894M498.575 322.297H494.361" stroke="white" strokeWidth="2" strokeLinecap="round"/>
<g clipPath="url(#clip3_4139_5317)">
<g filter="url(#filter4_d_4139_5317)">
<path d="M555.333 276.668C555.599 276.668 555.853 276.773 556.041 276.961C556.228 277.148 556.333 277.403 556.333 277.668V281.001C556.333 281.267 556.228 281.521 556.041 281.708C555.853 281.896 555.599 282.001 555.333 282.001C555.068 282.001 554.814 281.896 554.626 281.708C554.439 281.521 554.333 281.267 554.333 281.001V277.668C554.333 277.403 554.439 277.148 554.626 276.961C554.814 276.773 555.068 276.668 555.333 276.668ZM548.96 279.295C549.148 279.107 549.402 279.002 549.667 279.002C549.932 279.002 550.186 279.107 550.373 279.295L552.707 281.628C552.805 281.72 552.884 281.83 552.939 281.953C552.993 282.075 553.023 282.208 553.025 282.342C553.027 282.476 553.003 282.61 552.952 282.734C552.902 282.859 552.827 282.972 552.732 283.067C552.637 283.162 552.524 283.237 552.4 283.287C552.275 283.337 552.142 283.362 552.007 283.359C551.873 283.357 551.741 283.328 551.618 283.273C551.495 283.218 551.385 283.14 551.293 283.041L548.96 280.708C548.773 280.52 548.668 280.266 548.668 280.001C548.668 279.736 548.773 279.482 548.96 279.295ZM561.707 279.295C561.894 279.482 561.999 279.736 561.999 280.001C561.999 280.266 561.894 280.52 561.707 280.708L559.373 283.041C559.282 283.14 559.172 283.218 559.049 283.273C558.926 283.328 558.794 283.357 558.66 283.359C558.525 283.362 558.392 283.337 558.267 283.287C558.143 283.237 558.03 283.162 557.935 283.067C557.84 282.972 557.765 282.859 557.715 282.734C557.664 282.61 557.64 282.476 557.642 282.342C557.644 282.208 557.674 282.075 557.728 281.953C557.783 281.83 557.862 281.72 557.96 281.628L560.293 279.295C560.481 279.107 560.735 279.002 561 279.002C561.265 279.002 561.519 279.107 561.707 279.295ZM546.333 285.668C546.333 285.403 546.439 285.148 546.626 284.961C546.814 284.773 547.068 284.668 547.333 284.668H550.667C550.932 284.668 551.186 284.773 551.374 284.961C551.561 285.148 551.667 285.403 551.667 285.668C551.667 285.933 551.561 286.188 551.374 286.375C551.186 286.563 550.932 286.668 550.667 286.668H547.333C547.068 286.668 546.814 286.563 546.626 286.375C546.439 286.188 546.333 285.933 546.333 285.668ZM554.333 286.651C554.333 285.148 556.096 284.337 557.236 285.316L568.517 294.985C569.731 296.025 569.04 298.013 567.444 298.079L562.324 298.283C561.773 298.304 561.256 298.549 560.888 298.959L557.403 302.855C556.327 304.059 554.333 303.296 554.333 301.681V286.651Z" fill="white"/>
<path d="M552.518 281.817L552.518 281.817L550.185 279.483L552.518 281.817ZM552.518 281.817L552.525 281.823M552.518 281.817L552.525 281.823M552.525 281.823C552.597 281.89 552.655 281.971 552.695 282.061C552.735 282.151 552.757 282.248 552.758 282.347C552.76 282.445 552.742 282.543 552.705 282.634C552.668 282.726 552.613 282.808 552.544 282.878C552.474 282.948 552.391 283.003 552.3 283.04C552.208 283.076 552.111 283.095 552.012 283.093C551.914 283.091 551.817 283.07 551.727 283.029C551.637 282.989 551.556 282.932 551.489 282.86L551.489 282.859M552.525 281.823L551.489 282.859M551.489 282.859L551.482 282.853M551.489 282.859L551.482 282.853M551.482 282.853L549.149 280.52L551.482 282.853ZM559.185 282.853L559.185 282.853L561.518 280.52L559.185 282.853ZM559.185 282.853L559.178 282.86M559.185 282.853L559.178 282.86M559.178 282.86C559.111 282.932 559.03 282.989 558.94 283.029C558.85 283.07 558.753 283.091 558.655 283.093C558.556 283.095 558.459 283.076 558.367 283.04C558.276 283.003 558.193 282.948 558.123 282.878C558.054 282.808 557.999 282.726 557.962 282.634C557.925 282.543 557.907 282.445 557.909 282.347C557.91 282.248 557.932 282.151 557.972 282.061C558.012 281.971 558.07 281.89 558.142 281.823L558.142 281.823M559.178 282.86L558.142 281.823M558.142 281.823L558.149 281.817M558.142 281.823L558.149 281.817M558.149 281.817L560.482 279.483L558.149 281.817ZM549.667 279.269C549.473 279.269 549.286 279.346 549.149 279.483C549.011 279.621 548.934 279.807 548.934 280.001C548.934 280.196 549.011 280.382 549.149 280.519L549.667 279.269ZM549.667 279.269C549.861 279.269 550.047 279.346 550.185 279.483L549.667 279.269ZM557.062 285.518L557.063 285.518L568.344 295.188C569.373 296.07 568.788 297.757 567.433 297.812L562.314 298.016C562.314 298.016 562.314 298.016 562.314 298.016C561.69 298.04 561.105 298.318 560.69 298.78L560.689 298.781L557.204 302.677L557.204 302.677C556.292 303.698 554.6 303.052 554.6 301.681V286.651C554.6 285.376 556.096 284.688 557.062 285.518ZM555.333 276.935C555.528 276.935 555.715 277.012 555.852 277.149C555.99 277.287 556.067 277.473 556.067 277.668V281.001C556.067 281.196 555.99 281.382 555.852 281.52C555.715 281.657 555.528 281.735 555.333 281.735C555.139 281.735 554.952 281.657 554.815 281.52C554.677 281.382 554.6 281.196 554.6 281.001V277.668C554.6 277.473 554.677 277.287 554.815 277.149C554.952 277.012 555.139 276.935 555.333 276.935ZM546.6 285.668C546.6 285.473 546.677 285.287 546.815 285.149C546.952 285.012 547.139 284.935 547.333 284.935H550.667C550.861 284.935 551.048 285.012 551.185 285.149C551.323 285.287 551.4 285.473 551.4 285.668C551.4 285.862 551.323 286.049 551.185 286.187C551.048 286.324 550.861 286.401 550.667 286.401H547.333C547.139 286.401 546.952 286.324 546.815 286.187C546.677 286.049 546.6 285.862 546.6 285.668Z" stroke="#6E00FF" strokeWidth="0.533333"/>
</g>
</g>
</g>
</g>
<defs>
<filter id="filter0_d_4139_5317" x="51" y="0" width="553.135" height="598.855" filterUnits="userSpaceOnUse" color-interpolation-filters="sRGB">
<feFlood flood-opacity="0" result="BackgroundImageFix"/>
<feColorMatrix in="SourceAlpha" type="matrix" values="0 0 0 0 0 0 0 0 0 0 0 0 0 0 0 0 0 0 127 0" result="hardAlpha"/>
<feOffset dx="-10" dy="10"/>
<feGaussianBlur stdDeviation="15"/>
<feComposite in2="hardAlpha" operator="out"/>
<feColorMatrix type="matrix" values="0 0 0 0 0 0 0 0 0 0 0 0 0 0 0 0 0 0 0.04 0"/>
<feBlend mode="normal" in2="BackgroundImageFix" result="effect1_dropShadow_4139_5317"/>
<feBlend mode="normal" in="SourceGraphic" in2="effect1_dropShadow_4139_5317" result="shape"/>
</filter>
<filter id="filter1_d_4139_5317" x="0.75676" y="52.8378" width="371.486" height="364.623" filterUnits="userSpaceOnUse" color-interpolation-filters="sRGB">
<feFlood flood-opacity="0" result="BackgroundImageFix"/>
<feColorMatrix in="SourceAlpha" type="matrix" values="0 0 0 0 0 0 0 0 0 0 0 0 0 0 0 0 0 0 127 0" result="hardAlpha"/>
<feOffset dy="30.0811"/>
<feGaussianBlur stdDeviation="45.1216"/>
<feComposite in2="hardAlpha" operator="out"/>
<feColorMatrix type="matrix" values="0 0 0 0 0 0 0 0 0 0 0 0 0 0 0 0 0 0 0.12 0"/>
<feBlend mode="normal" in2="BackgroundImageFix" result="effect1_dropShadow_4139_5317"/>
<feBlend mode="normal" in="SourceGraphic" in2="effect1_dropShadow_4139_5317" result="shape"/>
</filter>
<filter id="filter2_d_4139_5317" x="172.659" y="452.062" width="289.057" height="135.097" filterUnits="userSpaceOnUse" color-interpolation-filters="sRGB">
<feFlood flood-opacity="0" result="BackgroundImageFix"/>
<feColorMatrix in="SourceAlpha" type="matrix" values="0 0 0 0 0 0 0 0 0 0 0 0 0 0 0 0 0 0 127 0" result="hardAlpha"/>
<feOffset dy="26.2745"/>
<feGaussianBlur stdDeviation="19.7059"/>
<feComposite in2="hardAlpha" operator="out"/>
<feColorMatrix type="matrix" values="0 0 0 0 0.160784 0 0 0 0 0.517647 0 0 0 0 1 0 0 0 0.06 0"/>
<feBlend mode="normal" in2="BackgroundImageFix" result="effect1_dropShadow_4139_5317"/>
<feBlend mode="normal" in="SourceGraphic" in2="effect1_dropShadow_4139_5317" result="shape"/>
</filter>
<filter id="filter3_d_4139_5317" x="239.757" y="52.8378" width="434.622" height="434.623" filterUnits="userSpaceOnUse" color-interpolation-filters="sRGB">
<feFlood flood-opacity="0" result="BackgroundImageFix"/>
<feColorMatrix in="SourceAlpha" type="matrix" values="0 0 0 0 0 0 0 0 0 0 0 0 0 0 0 0 0 0 127 0" result="hardAlpha"/>
<feOffset dy="30.0811"/>
<feGaussianBlur stdDeviation="45.1216"/>
<feComposite in2="hardAlpha" operator="out"/>
<feColorMatrix type="matrix" values="0 0 0 0 0 0 0 0 0 0 0 0 0 0 0 0 0 0 0.12 0"/>
<feBlend mode="normal" in2="BackgroundImageFix" result="effect1_dropShadow_4139_5317"/>
<feBlend mode="normal" in="SourceGraphic" in2="effect1_dropShadow_4139_5317" result="shape"/>
</filter>
<filter id="filter4_d_4139_5317" x="539.667" y="271.335" width="33.4679" height="37.444" filterUnits="userSpaceOnUse" color-interpolation-filters="sRGB">
<feFlood flood-opacity="0" result="BackgroundImageFix"/>
<feColorMatrix in="SourceAlpha" type="matrix" values="0 0 0 0 0 0 0 0 0 0 0 0 0 0 0 0 0 0 127 0" result="hardAlpha"/>
<feOffset dx="-1.33333"/>
<feGaussianBlur stdDeviation="2.66667"/>
<feComposite in2="hardAlpha" operator="out"/>
<feColorMatrix type="matrix" values="0 0 0 0 0 0 0 0 0 0 0 0 0 0 0 0 0 0 0.23 0"/>
<feBlend mode="normal" in2="BackgroundImageFix" result="effect1_dropShadow_4139_5317"/>
<feBlend mode="normal" in="SourceGraphic" in2="effect1_dropShadow_4139_5317" result="shape"/>
</filter>
<linearGradient id="paint0_linear_4139_5317" x1="316.543" y1="371.629" x2="316.543" y2="402.218" gradientUnits="userSpaceOnUse">
<stop stop-color="#979FA9"/>
<stop offset="1" stop-color="#101828"/>
</linearGradient>
<linearGradient id="paint1_linear_4139_5317" x1="325.06" y1="371.609" x2="325.06" y2="380.749" gradientUnits="userSpaceOnUse">
<stop stop-color="#979FA9"/>
<stop offset="1" stop-color="#101828"/>
</linearGradient>
<linearGradient id="paint2_linear_4139_5317" x1="316.401" y1="383.539" x2="316.401" y2="393.607" gradientUnits="userSpaceOnUse">
<stop stop-color="#979FA9"/>
<stop offset="1" stop-color="#101828"/>
</linearGradient>
<linearGradient id="paint3_linear_4139_5317" x1="315.902" y1="383.543" x2="315.902" y2="387.468" gradientUnits="userSpaceOnUse">
<stop stop-color="#979FA9"/>
<stop offset="1" stop-color="#101828"/>
</linearGradient>
<clipPath id="clip0_4139_5317">
<rect width="151" height="109" fill="white" transform="translate(111.054 168.082)"/>
</clipPath>
<clipPath id="clip1_4139_5317">
<rect width="82" height="82" fill="white" transform="translate(360.054 143.055)"/>
</clipPath>
<clipPath id="clip2_4139_5317">
<rect width="82" height="82" fill="white" transform="translate(472.081 143.055)"/>
</clipPath>
<clipPath id="clip3_4139_5317">
<rect width="32" height="32" fill="white" transform="translate(543 274)"/>
</clipPath>
</defs>
</svg>
