<svg width="498" height="528" viewBox="0 0 498 528" fill="none" xmlns="http://www.w3.org/2000/svg">
<g opacity="0.6">
<line x1="395.407" y1="25.0066" x2="399.092" y2="14.8822" stroke="#A866FF" stroke-width="1.73"/>
<line x1="418.437" y1="24.5337" x2="423.824" y2="15.203" stroke="#A866FF" stroke-width="1.73"/>
<line x1="441.612" y1="24.0731" x2="448.537" y2="15.8196" stroke="#A866FF" stroke-width="1.73"/>
<line x1="464.962" y1="23.2933" x2="473.215" y2="16.3678" stroke="#A866FF" stroke-width="1.73"/>
<line x1="234.923" y1="24.6186" x2="226.669" y2="17.6931" stroke="#A866FF" stroke-width="1.73"/>
<line x1="258.063" y1="25.1852" x2="251.137" y2="16.9317" stroke="#A866FF" stroke-width="1.73"/>
<line x1="281.064" y1="25.3987" x2="275.677" y2="16.068" stroke="#A866FF" stroke-width="1.73"/>
<line x1="303.967" y1="25.5983" x2="300.282" y2="15.4739" stroke="#A866FF" stroke-width="1.73"/>
<line x1="326.81" y1="25.7897" x2="324.939" y2="15.1792" stroke="#A866FF" stroke-width="1.73"/>
<line x1="349.635" y1="25.6395" x2="349.635" y2="14.8653" stroke="#A866FF" stroke-width="1.73"/>
<line x1="372.486" y1="25.4893" x2="374.357" y2="14.8788" stroke="#A866FF" stroke-width="1.73"/>
<line x1="371.167" y1="43.8617" x2="374.852" y2="33.7373" stroke="#A866FF" stroke-width="1.73"/>
<line x1="394.194" y1="43.3881" x2="399.581" y2="34.0573" stroke="#A866FF" stroke-width="1.73"/>
<line x1="417.368" y1="42.9284" x2="424.294" y2="34.6749" stroke="#A866FF" stroke-width="1.73"/>
<line x1="440.722" y1="42.1484" x2="448.975" y2="35.2229" stroke="#A866FF" stroke-width="1.73"/>
<line x1="464.278" y1="41.0517" x2="473.609" y2="35.6646" stroke="#A866FF" stroke-width="1.73"/>
<line x1="233.823" y1="44.0404" x2="226.897" y2="35.7869" stroke="#A866FF" stroke-width="1.73"/>
<line x1="256.824" y1="44.2531" x2="251.437" y2="34.9223" stroke="#A866FF" stroke-width="1.73"/>
<line x1="279.723" y1="44.4534" x2="276.038" y2="34.329" stroke="#A866FF" stroke-width="1.73"/>
<line x1="302.566" y1="44.644" x2="300.695" y2="34.0335" stroke="#A866FF" stroke-width="1.73"/>
<line x1="325.391" y1="44.4938" x2="325.391" y2="33.7196" stroke="#A866FF" stroke-width="1.73"/>
<line x1="348.246" y1="44.3436" x2="350.117" y2="33.7331" stroke="#A866FF" stroke-width="1.73"/>
<line x1="346.923" y1="62.7168" x2="350.608" y2="52.5924" stroke="#A866FF" stroke-width="1.73"/>
<line x1="369.953" y1="62.2432" x2="375.34" y2="52.9124" stroke="#A866FF" stroke-width="1.73"/>
<line x1="393.128" y1="61.7826" x2="400.053" y2="53.5291" stroke="#A866FF" stroke-width="1.73"/>
<line x1="416.481" y1="61.0028" x2="424.735" y2="54.0773" stroke="#A866FF" stroke-width="1.73"/>
<line x1="440.038" y1="59.906" x2="449.368" y2="54.519" stroke="#A866FF" stroke-width="1.73"/>
<line x1="463.82" y1="59.169" x2="473.944" y2="55.484" stroke="#A866FF" stroke-width="1.73"/>
<line x1="232.58" y1="63.1082" x2="227.193" y2="53.7774" stroke="#A866FF" stroke-width="1.73"/>
<line x1="255.483" y1="63.3085" x2="251.798" y2="53.1841" stroke="#A866FF" stroke-width="1.73"/>
<line x1="278.326" y1="63.4991" x2="276.455" y2="52.8886" stroke="#A866FF" stroke-width="1.73"/>
<line x1="301.151" y1="63.3489" x2="301.151" y2="52.5747" stroke="#A866FF" stroke-width="1.73"/>
<line x1="324.002" y1="63.1987" x2="325.873" y2="52.5882" stroke="#A866FF" stroke-width="1.73"/>
<line x1="322.683" y1="81.5712" x2="326.368" y2="71.4468" stroke="#A866FF" stroke-width="1.73"/>
<line x1="345.71" y1="81.0983" x2="351.097" y2="71.7675" stroke="#A866FF" stroke-width="1.73"/>
<line x1="368.884" y1="80.6377" x2="375.81" y2="72.3842" stroke="#A866FF" stroke-width="1.73"/>
<line x1="392.238" y1="79.8579" x2="400.491" y2="72.9324" stroke="#A866FF" stroke-width="1.73"/>
<line x1="415.797" y1="78.7611" x2="425.128" y2="73.3741" stroke="#A866FF" stroke-width="1.73"/>
<line x1="439.58" y1="78.0242" x2="449.704" y2="74.3392" stroke="#A866FF" stroke-width="1.73"/>
<line x1="463.604" y1="76.9748" x2="474.214" y2="75.1039" stroke="#A866FF" stroke-width="1.73"/>
<line x1="231.24" y1="82.1629" x2="227.555" y2="72.0385" stroke="#A866FF" stroke-width="1.73"/>
<line x1="254.082" y1="82.3543" x2="252.212" y2="71.7438" stroke="#A866FF" stroke-width="1.73"/>
<line x1="276.907" y1="82.2041" x2="276.907" y2="71.4299" stroke="#A866FF" stroke-width="1.73"/>
<line x1="299.762" y1="82.0539" x2="301.633" y2="71.4434" stroke="#A866FF" stroke-width="1.73"/>
<line x1="298.439" y1="100.426" x2="302.124" y2="90.3019" stroke="#A866FF" stroke-width="1.73"/>
<line x1="321.469" y1="99.9526" x2="326.856" y2="90.6219" stroke="#A866FF" stroke-width="1.73"/>
<line x1="344.644" y1="99.4929" x2="351.569" y2="91.2394" stroke="#A866FF" stroke-width="1.73"/>
<line x1="367.997" y1="98.7122" x2="376.251" y2="91.7867" stroke="#A866FF" stroke-width="1.73"/>
<line x1="391.554" y1="97.6162" x2="400.884" y2="92.2292" stroke="#A866FF" stroke-width="1.73"/>
<line x1="415.336" y1="96.8785" x2="425.46" y2="93.1935" stroke="#A866FF" stroke-width="1.73"/>
<line x1="439.36" y1="95.83" x2="449.971" y2="93.9591" stroke="#A866FF" stroke-width="1.73"/>
<line x1="229.842" y1="101.209" x2="227.971" y2="90.5981" stroke="#A866FF" stroke-width="1.73"/>
<line x1="252.667" y1="101.058" x2="252.667" y2="90.2842" stroke="#A866FF" stroke-width="1.73"/>
<line x1="275.518" y1="100.908" x2="277.389" y2="90.2977" stroke="#A866FF" stroke-width="1.73"/>
<line x1="477.097" y1="96.5365" x2="466.323" y2="96.5365" stroke="#A866FF" stroke-width="1.73"/>
<line x1="274.199" y1="119.281" x2="277.884" y2="109.156" stroke="#A866FF" stroke-width="1.73"/>
<line x1="297.226" y1="118.808" x2="302.613" y2="109.477" stroke="#A866FF" stroke-width="1.73"/>
<line x1="320.4" y1="118.347" x2="327.326" y2="110.094" stroke="#A866FF" stroke-width="1.73"/>
<line x1="343.754" y1="117.567" x2="352.007" y2="110.642" stroke="#A866FF" stroke-width="1.73"/>
<line x1="367.313" y1="116.471" x2="376.644" y2="111.084" stroke="#A866FF" stroke-width="1.73"/>
<line x1="391.096" y1="115.734" x2="401.22" y2="112.049" stroke="#A866FF" stroke-width="1.73"/>
<line x1="415.12" y1="114.684" x2="425.73" y2="112.813" stroke="#A866FF" stroke-width="1.73"/>
<line x1="228.423" y1="119.913" x2="228.423" y2="109.139" stroke="#A866FF" stroke-width="1.73"/>
<line x1="251.278" y1="119.763" x2="253.149" y2="109.153" stroke="#A866FF" stroke-width="1.73"/>
<line x1="452.854" y1="115.392" x2="442.08" y2="115.392" stroke="#A866FF" stroke-width="1.73"/>
<line x1="476.826" y1="116.388" x2="466.215" y2="114.517" stroke="#A866FF" stroke-width="1.73"/>
<line x1="249.955" y1="138.136" x2="253.64" y2="128.011" stroke="#A866FF" stroke-width="1.73"/>
<line x1="272.985" y1="137.662" x2="278.373" y2="128.331" stroke="#A866FF" stroke-width="1.73"/>
<line x1="296.16" y1="137.202" x2="303.086" y2="128.949" stroke="#A866FF" stroke-width="1.73"/>
<line x1="319.514" y1="136.422" x2="327.767" y2="129.497" stroke="#A866FF" stroke-width="1.73"/>
<line x1="343.07" y1="135.326" x2="352.4" y2="129.939" stroke="#A866FF" stroke-width="1.73"/>
<line x1="366.852" y1="134.589" x2="376.976" y2="130.904" stroke="#A866FF" stroke-width="1.73"/>
<line x1="390.876" y1="133.539" x2="401.487" y2="131.668" stroke="#A866FF" stroke-width="1.73"/>
<line x1="227.034" y1="138.618" x2="228.905" y2="128.008" stroke="#A866FF" stroke-width="1.73"/>
<line x1="428.614" y1="134.246" x2="417.839" y2="134.246" stroke="#A866FF" stroke-width="1.73"/>
<line x1="452.582" y1="135.243" x2="441.971" y2="133.372" stroke="#A866FF" stroke-width="1.73"/>
<line x1="476.315" y1="136.214" x2="466.191" y2="132.529" stroke="#A866FF" stroke-width="1.73"/>
<line x1="225.715" y1="156.991" x2="229.4" y2="146.866" stroke="#A866FF" stroke-width="1.73"/>
<line x1="248.742" y1="156.517" x2="254.129" y2="147.186" stroke="#A866FF" stroke-width="1.73"/>
<line x1="271.916" y1="156.057" x2="278.842" y2="147.803" stroke="#A866FF" stroke-width="1.73"/>
<line x1="295.27" y1="155.277" x2="303.523" y2="148.351" stroke="#A866FF" stroke-width="1.73"/>
<line x1="318.829" y1="154.18" x2="328.16" y2="148.793" stroke="#A866FF" stroke-width="1.73"/>
<line x1="342.612" y1="153.443" x2="352.736" y2="149.758" stroke="#A866FF" stroke-width="1.73"/>
<line x1="366.636" y1="152.395" x2="377.247" y2="150.524" stroke="#A866FF" stroke-width="1.73"/>
<line x1="475.584" y1="155.678" x2="466.253" y2="150.291" stroke="#A866FF" stroke-width="1.73"/>
<line x1="404.373" y1="153.101" x2="393.599" y2="153.101" stroke="#A866FF" stroke-width="1.73"/>
<line x1="428.342" y1="154.098" x2="417.731" y2="152.227" stroke="#A866FF" stroke-width="1.73"/>
<line x1="452.071" y1="155.069" x2="441.947" y2="151.384" stroke="#A866FF" stroke-width="1.73"/>
<line x1="224.502" y1="175.372" x2="229.889" y2="166.042" stroke="#A866FF" stroke-width="1.73"/>
<line x1="247.676" y1="174.912" x2="254.602" y2="166.658" stroke="#A866FF" stroke-width="1.73"/>
<line x1="271.03" y1="174.132" x2="279.283" y2="167.206" stroke="#A866FF" stroke-width="1.73"/>
<line x1="294.586" y1="173.035" x2="303.917" y2="167.648" stroke="#A866FF" stroke-width="1.73"/>
<line x1="318.368" y1="172.298" x2="328.492" y2="168.613" stroke="#A866FF" stroke-width="1.73"/>
<line x1="342.392" y1="171.249" x2="353.003" y2="169.378" stroke="#A866FF" stroke-width="1.73"/>
<line x1="451.34" y1="174.533" x2="442.009" y2="169.146" stroke="#A866FF" stroke-width="1.73"/>
<line x1="474.653" y1="175.457" x2="466.399" y2="168.532" stroke="#A866FF" stroke-width="1.73"/>
<line x1="380.13" y1="171.955" x2="369.355" y2="171.955" stroke="#A866FF" stroke-width="1.73"/>
<line x1="404.098" y1="172.953" x2="393.487" y2="171.082" stroke="#A866FF" stroke-width="1.73"/>
<line x1="427.831" y1="173.924" x2="417.707" y2="170.239" stroke="#A866FF" stroke-width="1.73"/>
<line x1="223.432" y1="193.767" x2="230.358" y2="185.513" stroke="#A866FF" stroke-width="1.73"/>
<line x1="246.786" y1="192.986" x2="255.039" y2="186.061" stroke="#A866FF" stroke-width="1.73"/>
<line x1="270.346" y1="191.89" x2="279.676" y2="186.503" stroke="#A866FF" stroke-width="1.73"/>
<line x1="294.128" y1="191.153" x2="304.252" y2="187.468" stroke="#A866FF" stroke-width="1.73"/>
<line x1="318.152" y1="190.104" x2="328.763" y2="188.233" stroke="#A866FF" stroke-width="1.73"/>
<line x1="427.1" y1="193.389" x2="417.769" y2="188.001" stroke="#A866FF" stroke-width="1.73"/>
<line x1="450.409" y1="194.311" x2="442.155" y2="187.386" stroke="#A866FF" stroke-width="1.73"/>
<line x1="473.549" y1="194.879" x2="466.624" y2="186.626" stroke="#A866FF" stroke-width="1.73"/>
<line x1="355.889" y1="190.811" x2="345.115" y2="190.811" stroke="#A866FF" stroke-width="1.73"/>
<line x1="379.858" y1="191.808" x2="369.247" y2="189.937" stroke="#A866FF" stroke-width="1.73"/>
<line x1="403.591" y1="192.779" x2="393.466" y2="189.094" stroke="#A866FF" stroke-width="1.73"/>
<line x1="222.546" y1="211.841" x2="230.799" y2="204.916" stroke="#A866FF" stroke-width="1.73"/>
<line x1="246.102" y1="210.745" x2="255.433" y2="205.357" stroke="#A866FF" stroke-width="1.73"/>
<line x1="269.884" y1="210.008" x2="280.009" y2="206.323" stroke="#A866FF" stroke-width="1.73"/>
<line x1="293.909" y1="208.958" x2="304.519" y2="207.087" stroke="#A866FF" stroke-width="1.73"/>
<line x1="402.856" y1="212.243" x2="393.525" y2="206.856" stroke="#A866FF" stroke-width="1.73"/>
<line x1="426.169" y1="213.167" x2="417.915" y2="206.241" stroke="#A866FF" stroke-width="1.73"/>
<line x1="449.306" y1="213.733" x2="442.38" y2="205.48" stroke="#A866FF" stroke-width="1.73"/>
<line x1="472.311" y1="213.947" x2="466.923" y2="204.616" stroke="#A866FF" stroke-width="1.73"/>
<line x1="331.646" y1="209.666" x2="320.871" y2="209.666" stroke="#A866FF" stroke-width="1.73"/>
<line x1="355.614" y1="210.662" x2="345.004" y2="208.791" stroke="#A866FF" stroke-width="1.73"/>
<line x1="379.347" y1="211.633" x2="369.223" y2="207.948" stroke="#A866FF" stroke-width="1.73"/>
<line x1="221.862" y1="229.6" x2="231.192" y2="224.213" stroke="#A866FF" stroke-width="1.73"/>
<line x1="245.644" y1="228.863" x2="255.768" y2="225.178" stroke="#A866FF" stroke-width="1.73"/>
<line x1="269.668" y1="227.813" x2="280.279" y2="225.943" stroke="#A866FF" stroke-width="1.73"/>
<line x1="378.616" y1="231.098" x2="369.285" y2="225.711" stroke="#A866FF" stroke-width="1.73"/>
<line x1="401.925" y1="232.022" x2="393.672" y2="225.096" stroke="#A866FF" stroke-width="1.73"/>
<line x1="425.065" y1="232.588" x2="418.14" y2="224.335" stroke="#A866FF" stroke-width="1.73"/>
<line x1="448.067" y1="232.801" x2="442.68" y2="223.47" stroke="#A866FF" stroke-width="1.73"/>
<line x1="470.97" y1="233.001" x2="467.285" y2="222.877" stroke="#A866FF" stroke-width="1.73"/>
<line x1="307.405" y1="228.52" x2="296.631" y2="228.52" stroke="#A866FF" stroke-width="1.73"/>
<line x1="331.374" y1="229.517" x2="320.763" y2="227.646" stroke="#A866FF" stroke-width="1.73"/>
<line x1="355.107" y1="230.488" x2="344.982" y2="226.803" stroke="#A866FF" stroke-width="1.73"/>
<line x1="221.4" y1="247.717" x2="231.525" y2="244.032" stroke="#A866FF" stroke-width="1.73"/>
<line x1="245.425" y1="246.669" x2="256.035" y2="244.798" stroke="#A866FF" stroke-width="1.73"/>
<line x1="354.372" y1="249.953" x2="345.041" y2="244.566" stroke="#A866FF" stroke-width="1.73"/>
<line x1="377.685" y1="250.876" x2="369.431" y2="243.951" stroke="#A866FF" stroke-width="1.73"/>
<line x1="400.825" y1="251.443" x2="393.9" y2="243.189" stroke="#A866FF" stroke-width="1.73"/>
<line x1="423.827" y1="251.656" x2="418.439" y2="242.326" stroke="#A866FF" stroke-width="1.73"/>
<line x1="446.726" y1="251.857" x2="443.041" y2="241.732" stroke="#A866FF" stroke-width="1.73"/>
<line x1="469.569" y1="252.047" x2="467.698" y2="241.437" stroke="#A866FF" stroke-width="1.73"/>
<line x1="283.162" y1="247.375" x2="272.388" y2="247.375" stroke="#A866FF" stroke-width="1.73"/>
<line x1="307.13" y1="248.372" x2="296.52" y2="246.501" stroke="#A866FF" stroke-width="1.73"/>
<line x1="330.863" y1="249.343" x2="320.739" y2="245.658" stroke="#A866FF" stroke-width="1.73"/>
<line x1="221.184" y1="265.523" x2="231.795" y2="263.652" stroke="#A866FF" stroke-width="1.73"/>
<line x1="330.132" y1="268.807" x2="320.801" y2="263.42" stroke="#A866FF" stroke-width="1.73"/>
<line x1="353.441" y1="269.731" x2="345.188" y2="262.806" stroke="#A866FF" stroke-width="1.73"/>
<line x1="376.581" y1="270.298" x2="369.656" y2="262.044" stroke="#A866FF" stroke-width="1.73"/>
<line x1="399.583" y1="270.511" x2="394.196" y2="261.181" stroke="#A866FF" stroke-width="1.73"/>
<line x1="422.486" y1="270.711" x2="418.801" y2="260.586" stroke="#A866FF" stroke-width="1.73"/>
<line x1="445.329" y1="270.902" x2="443.458" y2="260.292" stroke="#A866FF" stroke-width="1.73"/>
<line x1="468.153" y1="270.752" x2="468.153" y2="259.978" stroke="#A866FF" stroke-width="1.73"/>
<line x1="258.921" y1="266.23" x2="248.147" y2="266.229" stroke="#A866FF" stroke-width="1.73"/>
<line x1="282.89" y1="267.227" x2="272.279" y2="265.356" stroke="#A866FF" stroke-width="1.73"/>
<line x1="306.623" y1="268.198" x2="296.499" y2="264.513" stroke="#A866FF" stroke-width="1.73"/>
<line x1="305.888" y1="287.663" x2="296.558" y2="282.275" stroke="#A866FF" stroke-width="1.73"/>
<line x1="329.201" y1="288.585" x2="320.947" y2="281.66" stroke="#A866FF" stroke-width="1.73"/>
<line x1="352.341" y1="289.153" x2="345.416" y2="280.899" stroke="#A866FF" stroke-width="1.73"/>
<line x1="375.343" y1="289.366" x2="369.956" y2="280.035" stroke="#A866FF" stroke-width="1.73"/>
<line x1="398.242" y1="289.566" x2="394.557" y2="279.442" stroke="#A866FF" stroke-width="1.73"/>
<line x1="421.085" y1="289.757" x2="419.214" y2="279.146" stroke="#A866FF" stroke-width="1.73"/>
<line x1="443.91" y1="289.606" x2="443.91" y2="278.832" stroke="#A866FF" stroke-width="1.73"/>
<line x1="466.764" y1="289.456" x2="468.635" y2="278.846" stroke="#A866FF" stroke-width="1.73"/>
<line x1="234.678" y1="285.085" x2="223.904" y2="285.085" stroke="#A866FF" stroke-width="1.73"/>
<line x1="258.646" y1="286.082" x2="248.036" y2="284.211" stroke="#A866FF" stroke-width="1.73"/>
<line x1="282.379" y1="287.053" x2="272.255" y2="283.368" stroke="#A866FF" stroke-width="1.73"/>
<line x1="465.442" y1="307.829" x2="469.127" y2="297.704" stroke="#A866FF" stroke-width="1.73"/>
<line x1="281.648" y1="306.517" x2="272.317" y2="301.13" stroke="#A866FF" stroke-width="1.73"/>
<line x1="304.957" y1="307.441" x2="296.704" y2="300.515" stroke="#A866FF" stroke-width="1.73"/>
<line x1="328.097" y1="308.007" x2="321.172" y2="299.754" stroke="#A866FF" stroke-width="1.73"/>
<line x1="351.099" y1="308.221" x2="345.712" y2="298.89" stroke="#A866FF" stroke-width="1.73"/>
<line x1="374.002" y1="308.42" x2="370.317" y2="298.296" stroke="#A866FF" stroke-width="1.73"/>
<line x1="396.845" y1="308.612" x2="394.974" y2="298.001" stroke="#A866FF" stroke-width="1.73"/>
<line x1="419.67" y1="308.462" x2="419.67" y2="297.687" stroke="#A866FF" stroke-width="1.73"/>
<line x1="442.521" y1="308.311" x2="444.392" y2="297.701" stroke="#A866FF" stroke-width="1.73"/>
<line x1="234.406" y1="304.936" x2="223.795" y2="303.065" stroke="#A866FF" stroke-width="1.73"/>
<line x1="258.139" y1="305.907" x2="248.015" y2="302.222" stroke="#A866FF" stroke-width="1.73"/>
<line x1="441.201" y1="326.684" x2="444.886" y2="316.559" stroke="#A866FF" stroke-width="1.73"/>
<line x1="464.228" y1="326.21" x2="469.615" y2="316.879" stroke="#A866FF" stroke-width="1.73"/>
<line x1="257.404" y1="325.372" x2="248.074" y2="319.985" stroke="#A866FF" stroke-width="1.73"/>
<line x1="280.717" y1="326.296" x2="272.463" y2="319.37" stroke="#A866FF" stroke-width="1.73"/>
<line x1="303.857" y1="326.862" x2="296.932" y2="318.609" stroke="#A866FF" stroke-width="1.73"/>
<line x1="326.859" y1="327.075" x2="321.472" y2="317.744" stroke="#A866FF" stroke-width="1.73"/>
<line x1="349.758" y1="327.275" x2="346.073" y2="317.151" stroke="#A866FF" stroke-width="1.73"/>
<line x1="372.601" y1="327.467" x2="370.73" y2="316.856" stroke="#A866FF" stroke-width="1.73"/>
<line x1="395.426" y1="327.317" x2="395.426" y2="316.542" stroke="#A866FF" stroke-width="1.73"/>
<line x1="418.28" y1="327.166" x2="420.151" y2="316.556" stroke="#A866FF" stroke-width="1.73"/>
<line x1="233.895" y1="324.762" x2="223.771" y2="321.077" stroke="#A866FF" stroke-width="1.73"/>
<line x1="416.958" y1="345.539" x2="420.643" y2="335.414" stroke="#A866FF" stroke-width="1.73"/>
<line x1="439.988" y1="345.065" x2="445.375" y2="335.735" stroke="#A866FF" stroke-width="1.73"/>
<line x1="463.162" y1="344.605" x2="470.088" y2="336.351" stroke="#A866FF" stroke-width="1.73"/>
<line x1="233.164" y1="344.227" x2="223.833" y2="338.84" stroke="#A866FF" stroke-width="1.73"/>
<line x1="256.473" y1="345.15" x2="248.22" y2="338.225" stroke="#A866FF" stroke-width="1.73"/>
<line x1="279.613" y1="345.717" x2="272.688" y2="337.463" stroke="#A866FF" stroke-width="1.73"/>
<line x1="302.615" y1="345.93" x2="297.228" y2="336.6" stroke="#A866FF" stroke-width="1.73"/>
<line x1="325.518" y1="346.131" x2="321.833" y2="336.006" stroke="#A866FF" stroke-width="1.73"/>
<line x1="348.361" y1="346.321" x2="346.49" y2="335.711" stroke="#A866FF" stroke-width="1.73"/>
<line x1="371.186" y1="346.171" x2="371.186" y2="335.397" stroke="#A866FF" stroke-width="1.73"/>
<line x1="394.037" y1="346.021" x2="395.908" y2="335.41" stroke="#A866FF" stroke-width="1.73"/>
<line x1="392.718" y1="364.393" x2="396.402" y2="354.269" stroke="#A866FF" stroke-width="1.73"/>
<line x1="415.744" y1="363.92" x2="421.131" y2="354.59" stroke="#A866FF" stroke-width="1.73"/>
<line x1="438.919" y1="363.46" x2="445.844" y2="355.206" stroke="#A866FF" stroke-width="1.73"/>
<line x1="462.272" y1="362.68" x2="470.526" y2="355.754" stroke="#A866FF" stroke-width="1.73"/>
<line x1="232.233" y1="364.005" x2="223.979" y2="357.08" stroke="#A866FF" stroke-width="1.73"/>
<line x1="255.373" y1="364.572" x2="248.448" y2="356.318" stroke="#A866FF" stroke-width="1.73"/>
<line x1="278.375" y1="364.785" x2="272.988" y2="355.455" stroke="#A866FF" stroke-width="1.73"/>
<line x1="301.274" y1="364.985" x2="297.589" y2="354.861" stroke="#A866FF" stroke-width="1.73"/>
<line x1="324.117" y1="365.176" x2="322.246" y2="354.566" stroke="#A866FF" stroke-width="1.73"/>
<line x1="346.942" y1="365.026" x2="346.942" y2="354.252" stroke="#A866FF" stroke-width="1.73"/>
<line x1="369.797" y1="364.876" x2="371.667" y2="354.265" stroke="#A866FF" stroke-width="1.73"/>
</g>
<g filter="url(#filter0_d_469_37623)">
<rect x="132" y="66" width="300" height="330" rx="16.4111" fill="white"/>
<rect x="132.5" y="66.5" width="299" height="329" rx="15.9111" stroke="#EDF0F3"/>
<path d="M182.128 115.288C180.848 115.288 179.664 115.056 178.576 114.592C177.504 114.128 176.56 113.48 175.744 112.648C174.944 111.816 174.32 110.84 173.872 109.72C173.424 108.6 173.2 107.376 173.2 106.048C173.2 104.72 173.416 103.496 173.848 102.376C174.296 101.24 174.92 100.264 175.72 99.448C176.536 98.616 177.488 97.976 178.576 97.528C179.664 97.064 180.848 96.832 182.128 96.832C183.408 96.832 184.552 97.048 185.56 97.48C186.584 97.912 187.448 98.488 188.152 99.208C188.856 99.912 189.36 100.688 189.664 101.536L186.736 102.904C186.4 102.008 185.832 101.272 185.032 100.696C184.232 100.104 183.264 99.808 182.128 99.808C181.008 99.808 180.016 100.072 179.152 100.6C178.304 101.128 177.64 101.856 177.16 102.784C176.696 103.712 176.464 104.8 176.464 106.048C176.464 107.296 176.696 108.392 177.16 109.336C177.64 110.264 178.304 110.992 179.152 111.52C180.016 112.048 181.008 112.312 182.128 112.312C183.264 112.312 184.232 112.024 185.032 111.448C185.832 110.856 186.4 110.112 186.736 109.216L189.664 110.584C189.36 111.432 188.856 112.216 188.152 112.936C187.448 113.64 186.584 114.208 185.56 114.64C184.552 115.072 183.408 115.288 182.128 115.288ZM197.72 115.288C196.44 115.288 195.272 114.992 194.216 114.4C193.176 113.808 192.344 113 191.72 111.976C191.112 110.952 190.808 109.784 190.808 108.472C190.808 107.16 191.112 105.992 191.72 104.968C192.344 103.944 193.176 103.136 194.216 102.544C195.256 101.952 196.424 101.656 197.72 101.656C199 101.656 200.16 101.952 201.2 102.544C202.24 103.136 203.064 103.944 203.672 104.968C204.296 105.976 204.608 107.144 204.608 108.472C204.608 109.784 204.296 110.952 203.672 111.976C203.048 113 202.216 113.808 201.176 114.4C200.136 114.992 198.984 115.288 197.72 115.288ZM197.72 112.408C198.424 112.408 199.04 112.24 199.568 111.904C200.112 111.568 200.536 111.104 200.84 110.512C201.16 109.904 201.32 109.224 201.32 108.472C201.32 107.704 201.16 107.032 200.84 106.456C200.536 105.864 200.112 105.4 199.568 105.064C199.04 104.712 198.424 104.536 197.72 104.536C197 104.536 196.368 104.712 195.824 105.064C195.28 105.4 194.848 105.864 194.528 106.456C194.224 107.032 194.072 107.704 194.072 108.472C194.072 109.224 194.224 109.904 194.528 110.512C194.848 111.104 195.28 111.568 195.824 111.904C196.368 112.24 197 112.408 197.72 112.408ZM206.512 115V101.944H209.464V104.968L209.128 104.464C209.368 103.52 209.848 102.816 210.568 102.352C211.288 101.888 212.136 101.656 213.112 101.656C214.184 101.656 215.128 101.936 215.944 102.496C216.76 103.056 217.288 103.792 217.528 104.704L216.64 104.776C217.04 103.736 217.64 102.96 218.44 102.448C219.24 101.92 220.16 101.656 221.2 101.656C222.128 101.656 222.952 101.864 223.672 102.28C224.408 102.696 224.984 103.28 225.4 104.032C225.816 104.768 226.024 105.624 226.024 106.6V115H222.88V107.344C222.88 106.768 222.776 106.272 222.568 105.856C222.36 105.44 222.072 105.12 221.704 104.896C221.336 104.656 220.888 104.536 220.36 104.536C219.864 104.536 219.424 104.656 219.04 104.896C218.656 105.12 218.36 105.44 218.152 105.856C217.944 106.272 217.84 106.768 217.84 107.344V115H214.696V107.344C214.696 106.768 214.592 106.272 214.384 105.856C214.176 105.44 213.88 105.12 213.496 104.896C213.128 104.656 212.688 104.536 212.176 104.536C211.68 104.536 211.24 104.656 210.856 104.896C210.472 105.12 210.176 105.44 209.968 105.856C209.76 106.272 209.656 106.768 209.656 107.344V115H206.512ZM228.204 119.8V101.944H231.156V104.536L230.868 103.888C231.316 103.184 231.924 102.64 232.692 102.256C233.46 101.856 234.348 101.656 235.356 101.656C236.588 101.656 237.7 101.96 238.692 102.568C239.684 103.176 240.468 103.992 241.044 105.016C241.636 106.04 241.932 107.192 241.932 108.472C241.932 109.736 241.644 110.888 241.068 111.928C240.492 112.968 239.708 113.792 238.716 114.4C237.724 114.992 236.596 115.288 235.332 115.288C234.388 115.288 233.516 115.104 232.716 114.736C231.932 114.352 231.308 113.808 230.844 113.104L231.348 112.48V119.8H228.204ZM234.972 112.408C235.692 112.408 236.332 112.24 236.892 111.904C237.452 111.568 237.884 111.104 238.188 110.512C238.508 109.92 238.668 109.24 238.668 108.472C238.668 107.704 238.508 107.032 238.188 106.456C237.884 105.864 237.452 105.4 236.892 105.064C236.332 104.712 235.692 104.536 234.972 104.536C234.284 104.536 233.66 104.704 233.1 105.04C232.556 105.376 232.124 105.848 231.804 106.456C231.5 107.048 231.348 107.72 231.348 108.472C231.348 109.24 231.5 109.92 231.804 110.512C232.124 111.104 232.556 111.568 233.1 111.904C233.66 112.24 234.284 112.408 234.972 112.408ZM250.041 115.288C248.697 115.288 247.521 114.984 246.513 114.376C245.505 113.768 244.721 112.944 244.161 111.904C243.601 110.864 243.321 109.712 243.321 108.448C243.321 107.136 243.601 105.976 244.161 104.968C244.737 103.944 245.513 103.136 246.489 102.544C247.481 101.952 248.585 101.656 249.801 101.656C250.825 101.656 251.721 101.824 252.489 102.16C253.273 102.496 253.937 102.96 254.481 103.552C255.025 104.144 255.441 104.824 255.729 105.592C256.017 106.344 256.161 107.16 256.161 108.04C256.161 108.264 256.145 108.496 256.113 108.736C256.097 108.976 256.057 109.184 255.993 109.36H245.913V106.96H254.217L252.729 108.088C252.873 107.352 252.833 106.696 252.609 106.12C252.401 105.544 252.049 105.088 251.553 104.752C251.073 104.416 250.489 104.248 249.801 104.248C249.145 104.248 248.561 104.416 248.049 104.752C247.537 105.072 247.145 105.552 246.873 106.192C246.617 106.816 246.521 107.576 246.585 108.472C246.521 109.272 246.625 109.984 246.897 110.608C247.185 111.216 247.601 111.688 248.145 112.024C248.705 112.36 249.345 112.528 250.065 112.528C250.785 112.528 251.393 112.376 251.889 112.072C252.401 111.768 252.801 111.36 253.089 110.848L255.633 112.096C255.377 112.72 254.977 113.272 254.433 113.752C253.889 114.232 253.241 114.608 252.489 114.88C251.753 115.152 250.937 115.288 250.041 115.288ZM264.016 115.144C262.544 115.144 261.4 114.744 260.584 113.944C259.784 113.128 259.384 111.984 259.384 110.512V104.752H257.128V101.944H257.368C258.008 101.944 258.504 101.776 258.856 101.44C259.208 101.104 259.384 100.616 259.384 99.976V98.968H262.528V101.944H265.528V104.752H262.528V110.344C262.528 110.776 262.6 111.144 262.744 111.448C262.904 111.752 263.144 111.984 263.464 112.144C263.8 112.304 264.224 112.384 264.736 112.384C264.848 112.384 264.976 112.376 265.12 112.36C265.28 112.344 265.432 112.328 265.576 112.312V115C265.352 115.032 265.096 115.064 264.808 115.096C264.52 115.128 264.256 115.144 264.016 115.144ZM267.498 115V101.944H270.642V115H267.498ZM267.498 100.48V97.12H270.642V100.48H267.498ZM279.017 115.144C277.545 115.144 276.401 114.744 275.585 113.944C274.785 113.128 274.385 111.984 274.385 110.512V104.752H272.129V101.944H272.369C273.009 101.944 273.505 101.776 273.857 101.44C274.209 101.104 274.385 100.616 274.385 99.976V98.968H277.529V101.944H280.529V104.752H277.529V110.344C277.529 110.776 277.601 111.144 277.745 111.448C277.905 111.752 278.145 111.984 278.465 112.144C278.801 112.304 279.225 112.384 279.737 112.384C279.849 112.384 279.977 112.376 280.121 112.36C280.281 112.344 280.433 112.328 280.577 112.312V115C280.353 115.032 280.097 115.064 279.809 115.096C279.521 115.128 279.257 115.144 279.017 115.144ZM282.499 115V101.944H285.643V115H282.499ZM282.499 100.48V97.12H285.643V100.48H282.499ZM292.002 115L286.866 101.944H290.298L294.018 112.216H292.746L296.49 101.944H299.922L294.786 115H292.002ZM307.137 115.288C305.793 115.288 304.617 114.984 303.609 114.376C302.601 113.768 301.817 112.944 301.257 111.904C300.697 110.864 300.417 109.712 300.417 108.448C300.417 107.136 300.697 105.976 301.257 104.968C301.833 103.944 302.609 103.136 303.585 102.544C304.577 101.952 305.681 101.656 306.897 101.656C307.921 101.656 308.817 101.824 309.585 102.16C310.369 102.496 311.033 102.96 311.577 103.552C312.121 104.144 312.537 104.824 312.825 105.592C313.113 106.344 313.257 107.16 313.257 108.04C313.257 108.264 313.241 108.496 313.209 108.736C313.193 108.976 313.153 109.184 313.089 109.36H303.009V106.96H311.313L309.825 108.088C309.969 107.352 309.929 106.696 309.705 106.12C309.497 105.544 309.145 105.088 308.649 104.752C308.169 104.416 307.585 104.248 306.897 104.248C306.241 104.248 305.657 104.416 305.145 104.752C304.633 105.072 304.241 105.552 303.969 106.192C303.713 106.816 303.617 107.576 303.681 108.472C303.617 109.272 303.721 109.984 303.993 110.608C304.281 111.216 304.697 111.688 305.241 112.024C305.801 112.36 306.441 112.528 307.161 112.528C307.881 112.528 308.489 112.376 308.985 112.072C309.497 111.768 309.897 111.36 310.185 110.848L312.729 112.096C312.473 112.72 312.073 113.272 311.529 113.752C310.985 114.232 310.337 114.608 309.585 114.88C308.849 115.152 308.033 115.288 307.137 115.288ZM328.018 115.288C326.706 115.288 325.482 115.056 324.346 114.592C323.21 114.128 322.218 113.48 321.37 112.648C320.522 111.816 319.858 110.84 319.378 109.72C318.914 108.584 318.682 107.36 318.682 106.048C318.682 104.72 318.914 103.496 319.378 102.376C319.842 101.256 320.498 100.28 321.346 99.448C322.194 98.616 323.186 97.976 324.322 97.528C325.458 97.064 326.69 96.832 328.018 96.832C329.346 96.832 330.578 97.064 331.714 97.528C332.85 97.992 333.842 98.64 334.69 99.472C335.538 100.288 336.194 101.256 336.658 102.376C337.138 103.496 337.378 104.72 337.378 106.048C337.378 107.36 337.138 108.584 336.658 109.72C336.178 110.84 335.514 111.816 334.666 112.648C333.818 113.48 332.826 114.128 331.69 114.592C330.57 115.056 329.346 115.288 328.018 115.288ZM328.018 112.312C328.898 112.312 329.706 112.16 330.442 111.856C331.178 111.536 331.818 111.096 332.362 110.536C332.922 109.976 333.346 109.312 333.634 108.544C333.938 107.776 334.09 106.944 334.09 106.048C334.09 105.152 333.938 104.328 333.634 103.576C333.346 102.808 332.922 102.144 332.362 101.584C331.818 101.008 331.178 100.568 330.442 100.264C329.706 99.96 328.898 99.808 328.018 99.808C327.154 99.808 326.354 99.96 325.618 100.264C324.882 100.568 324.234 101.008 323.674 101.584C323.13 102.144 322.706 102.808 322.402 103.576C322.098 104.328 321.946 105.152 321.946 106.048C321.946 106.944 322.098 107.776 322.402 108.544C322.706 109.312 323.13 109.976 323.674 110.536C324.234 111.096 324.882 111.536 325.618 111.856C326.354 112.16 327.154 112.312 328.018 112.312ZM341.048 115V104.752H338.744V101.944H341.048V101.512C341.048 100.52 341.248 99.68 341.648 98.992C342.064 98.288 342.64 97.752 343.376 97.384C344.112 97.016 344.984 96.832 345.992 96.832C346.184 96.832 346.392 96.848 346.616 96.88C346.856 96.896 347.056 96.92 347.216 96.952V99.664C347.056 99.632 346.904 99.616 346.76 99.616C346.632 99.6 346.512 99.592 346.4 99.592C345.696 99.592 345.152 99.752 344.768 100.072C344.384 100.376 344.192 100.856 344.192 101.512V101.944H349.904V104.752H344.192V115H341.048ZM350.552 115V104.752H348.248V101.944H350.552V101.512C350.552 100.52 350.752 99.68 351.152 98.992C351.552 98.288 352.12 97.752 352.856 97.384C353.608 97.016 354.488 96.832 355.496 96.832C355.688 96.832 355.896 96.848 356.12 96.88C356.36 96.896 356.552 96.92 356.696 96.952V99.664C356.552 99.632 356.408 99.616 356.264 99.616C356.136 99.6 356.016 99.592 355.904 99.592C355.2 99.592 354.656 99.752 354.272 100.072C353.888 100.376 353.696 100.856 353.696 101.512V101.944H356.576V104.752H353.696V115H350.552ZM364.116 115.288C362.772 115.288 361.596 114.984 360.588 114.376C359.58 113.768 358.796 112.944 358.236 111.904C357.676 110.864 357.396 109.712 357.396 108.448C357.396 107.136 357.676 105.976 358.236 104.968C358.812 103.944 359.588 103.136 360.564 102.544C361.556 101.952 362.66 101.656 363.876 101.656C364.9 101.656 365.796 101.824 366.564 102.16C367.348 102.496 368.012 102.96 368.556 103.552C369.1 104.144 369.516 104.824 369.804 105.592C370.092 106.344 370.236 107.16 370.236 108.04C370.236 108.264 370.22 108.496 370.188 108.736C370.172 108.976 370.132 109.184 370.068 109.36H359.988V106.96H368.292L366.804 108.088C366.948 107.352 366.908 106.696 366.684 106.12C366.476 105.544 366.124 105.088 365.628 104.752C365.148 104.416 364.564 104.248 363.876 104.248C363.22 104.248 362.636 104.416 362.124 104.752C361.612 105.072 361.22 105.552 360.948 106.192C360.692 106.816 360.596 107.576 360.66 108.472C360.596 109.272 360.7 109.984 360.972 110.608C361.26 111.216 361.676 111.688 362.22 112.024C362.78 112.36 363.42 112.528 364.14 112.528C364.86 112.528 365.468 112.376 365.964 112.072C366.476 111.768 366.876 111.36 367.164 110.848L369.708 112.096C369.452 112.72 369.052 113.272 368.508 113.752C367.964 114.232 367.316 114.608 366.564 114.88C365.828 115.152 365.012 115.288 364.116 115.288ZM372.139 115V101.944H375.091V104.848L374.851 104.416C375.155 103.44 375.627 102.76 376.267 102.376C376.923 101.992 377.707 101.8 378.619 101.8H379.387V104.584H378.259C377.363 104.584 376.643 104.864 376.099 105.424C375.555 105.968 375.283 106.736 375.283 107.728V115H372.139ZM385.604 115.288C384.212 115.288 382.996 114.96 381.956 114.304C380.932 113.632 380.228 112.728 379.844 111.592L382.196 110.464C382.532 111.2 382.996 111.776 383.588 112.192C384.196 112.608 384.868 112.816 385.604 112.816C386.18 112.816 386.636 112.688 386.972 112.432C387.308 112.176 387.476 111.84 387.476 111.424C387.476 111.168 387.404 110.96 387.26 110.8C387.132 110.624 386.948 110.48 386.708 110.368C386.484 110.24 386.236 110.136 385.964 110.056L383.828 109.456C382.724 109.136 381.884 108.648 381.308 107.992C380.748 107.336 380.468 106.56 380.468 105.664C380.468 104.864 380.668 104.168 381.068 103.576C381.484 102.968 382.052 102.496 382.772 102.16C383.508 101.824 384.348 101.656 385.292 101.656C386.524 101.656 387.612 101.952 388.556 102.544C389.5 103.136 390.172 103.968 390.572 105.04L388.172 106.168C387.948 105.576 387.572 105.104 387.044 104.752C386.516 104.4 385.924 104.224 385.268 104.224C384.74 104.224 384.324 104.344 384.02 104.584C383.716 104.824 383.564 105.136 383.564 105.52C383.564 105.76 383.628 105.968 383.756 106.144C383.884 106.32 384.06 106.464 384.284 106.576C384.524 106.688 384.796 106.792 385.1 106.888L387.188 107.512C388.26 107.832 389.084 108.312 389.66 108.952C390.252 109.592 390.548 110.376 390.548 111.304C390.548 112.088 390.34 112.784 389.924 113.392C389.508 113.984 388.932 114.448 388.196 114.784C387.46 115.12 386.596 115.288 385.604 115.288Z" fill="#171717"/>
<rect x="177.391" y="144.684" width="66.5138" height="29.0435" rx="14.5217" stroke="#918EA4" stroke-opacity="0.25" stroke-width="1.36759"/>
<path d="M191.346 163.337C190.828 163.337 190.347 163.242 189.902 163.052C189.464 162.863 189.085 162.6 188.764 162.265C188.451 161.922 188.221 161.524 188.075 161.072L189.311 160.536C189.508 161.003 189.793 161.371 190.165 161.641C190.537 161.904 190.956 162.035 191.423 162.035C191.685 162.035 191.911 161.995 192.101 161.915C192.298 161.827 192.448 161.71 192.55 161.564C192.659 161.419 192.714 161.244 192.714 161.039C192.714 160.799 192.641 160.602 192.495 160.449C192.356 160.288 192.145 160.164 191.86 160.077L190.296 159.573C189.661 159.376 189.184 159.081 188.863 158.687C188.542 158.293 188.381 157.83 188.381 157.298C188.381 156.831 188.494 156.419 188.72 156.061C188.954 155.704 189.275 155.427 189.683 155.23C190.099 155.026 190.573 154.923 191.105 154.923C191.594 154.923 192.043 155.011 192.451 155.186C192.86 155.354 193.21 155.591 193.501 155.897C193.801 156.196 194.023 156.55 194.169 156.958L192.943 157.505C192.783 157.097 192.542 156.783 192.221 156.565C191.9 156.338 191.528 156.225 191.105 156.225C190.857 156.225 190.639 156.269 190.449 156.357C190.259 156.437 190.11 156.554 190 156.707C189.898 156.853 189.847 157.028 189.847 157.232C189.847 157.458 189.92 157.659 190.066 157.834C190.212 158.001 190.434 158.133 190.733 158.228L192.232 158.698C192.881 158.91 193.367 159.201 193.687 159.573C194.016 159.945 194.18 160.405 194.18 160.952C194.18 161.419 194.059 161.831 193.819 162.188C193.578 162.545 193.246 162.826 192.823 163.031C192.4 163.235 191.908 163.337 191.346 163.337ZM198.222 163.337C197.609 163.337 197.073 163.198 196.614 162.921C196.154 162.644 195.797 162.268 195.541 161.794C195.286 161.32 195.159 160.795 195.159 160.219C195.159 159.621 195.286 159.092 195.541 158.632C195.804 158.166 196.158 157.797 196.603 157.527C197.055 157.257 197.558 157.123 198.113 157.123C198.579 157.123 198.988 157.199 199.338 157.352C199.695 157.505 199.998 157.717 200.246 157.987C200.494 158.257 200.684 158.567 200.815 158.917C200.946 159.26 201.012 159.632 201.012 160.033C201.012 160.135 201.005 160.241 200.99 160.35C200.983 160.459 200.964 160.554 200.935 160.634H196.34V159.54H200.126L199.447 160.055C199.513 159.719 199.495 159.42 199.393 159.158C199.298 158.895 199.137 158.687 198.911 158.534C198.692 158.381 198.426 158.304 198.113 158.304C197.814 158.304 197.547 158.381 197.314 158.534C197.08 158.68 196.902 158.899 196.778 159.19C196.661 159.475 196.617 159.821 196.647 160.23C196.617 160.594 196.665 160.919 196.789 161.203C196.92 161.481 197.11 161.696 197.358 161.849C197.613 162.002 197.905 162.079 198.233 162.079C198.561 162.079 198.838 162.009 199.064 161.871C199.298 161.732 199.48 161.546 199.611 161.313L200.771 161.882C200.654 162.166 200.472 162.418 200.224 162.637C199.976 162.855 199.681 163.027 199.338 163.151C199.002 163.275 198.63 163.337 198.222 163.337ZM202.098 163.206V157.254H203.444V158.578L203.335 158.381C203.473 157.936 203.688 157.626 203.98 157.451C204.279 157.276 204.637 157.188 205.052 157.188H205.402V158.457H204.888C204.48 158.457 204.152 158.585 203.904 158.84C203.656 159.088 203.532 159.438 203.532 159.891V163.206H202.098ZM207.985 163.206L205.643 157.254H207.208L208.904 161.936H208.324L210.031 157.254H211.595L209.254 163.206H207.985ZM212.387 163.206V157.254H213.821V163.206H212.387ZM212.387 156.586V155.055H213.821V156.586H212.387ZM218.01 163.337C217.419 163.337 216.887 163.202 216.413 162.932C215.946 162.655 215.578 162.283 215.308 161.816C215.038 161.342 214.903 160.81 214.903 160.219C214.903 159.628 215.038 159.099 215.308 158.632C215.578 158.166 215.946 157.797 216.413 157.527C216.887 157.257 217.419 157.123 218.01 157.123C218.433 157.123 218.827 157.199 219.192 157.352C219.557 157.498 219.87 157.702 220.133 157.965C220.403 158.22 220.596 158.527 220.713 158.884L219.454 159.431C219.345 159.132 219.159 158.891 218.896 158.709C218.641 158.527 218.346 158.435 218.01 158.435C217.697 158.435 217.416 158.512 217.168 158.665C216.927 158.818 216.738 159.03 216.599 159.3C216.46 159.57 216.391 159.88 216.391 160.23C216.391 160.58 216.46 160.89 216.599 161.16C216.738 161.43 216.927 161.641 217.168 161.794C217.416 161.947 217.697 162.024 218.01 162.024C218.353 162.024 218.652 161.933 218.907 161.75C219.163 161.568 219.345 161.324 219.454 161.017L220.713 161.586C220.596 161.922 220.406 162.225 220.144 162.494C219.881 162.757 219.568 162.965 219.203 163.118C218.838 163.264 218.441 163.337 218.01 163.337ZM224.623 163.337C224.01 163.337 223.474 163.198 223.015 162.921C222.555 162.644 222.198 162.268 221.942 161.794C221.687 161.32 221.559 160.795 221.559 160.219C221.559 159.621 221.687 159.092 221.942 158.632C222.205 158.166 222.559 157.797 223.004 157.527C223.456 157.257 223.959 157.123 224.513 157.123C224.98 157.123 225.389 157.199 225.739 157.352C226.096 157.505 226.399 157.717 226.647 157.987C226.895 158.257 227.084 158.567 227.216 158.917C227.347 159.26 227.413 159.632 227.413 160.033C227.413 160.135 227.405 160.241 227.391 160.35C227.384 160.459 227.365 160.554 227.336 160.634H222.741V159.54H226.527L225.848 160.055C225.914 159.719 225.896 159.42 225.793 159.158C225.699 158.895 225.538 158.687 225.312 158.534C225.093 158.381 224.827 158.304 224.513 158.304C224.214 158.304 223.948 158.381 223.715 158.534C223.481 158.68 223.303 158.899 223.179 159.19C223.062 159.475 223.018 159.821 223.047 160.23C223.018 160.594 223.066 160.919 223.19 161.203C223.321 161.481 223.511 161.696 223.759 161.849C224.014 162.002 224.306 162.079 224.634 162.079C224.962 162.079 225.239 162.009 225.465 161.871C225.699 161.732 225.881 161.546 226.012 161.313L227.172 161.882C227.055 162.166 226.873 162.418 226.625 162.637C226.377 162.855 226.082 163.027 225.739 163.151C225.403 163.275 225.031 163.337 224.623 163.337ZM230.764 163.337C230.129 163.337 229.575 163.187 229.101 162.888C228.634 162.582 228.313 162.17 228.138 161.652L229.21 161.138C229.363 161.473 229.575 161.736 229.845 161.926C230.122 162.115 230.428 162.21 230.764 162.21C231.026 162.21 231.234 162.152 231.388 162.035C231.541 161.918 231.617 161.765 231.617 161.575C231.617 161.459 231.584 161.364 231.519 161.291C231.46 161.211 231.377 161.145 231.267 161.094C231.165 161.036 231.052 160.988 230.928 160.952L229.954 160.678C229.451 160.532 229.068 160.31 228.806 160.011C228.55 159.712 228.423 159.358 228.423 158.95C228.423 158.585 228.514 158.268 228.696 157.998C228.886 157.721 229.145 157.505 229.473 157.352C229.808 157.199 230.191 157.123 230.622 157.123C231.183 157.123 231.679 157.257 232.11 157.527C232.54 157.797 232.846 158.176 233.029 158.665L231.935 159.179C231.832 158.91 231.661 158.694 231.42 158.534C231.18 158.373 230.91 158.293 230.611 158.293C230.37 158.293 230.18 158.348 230.042 158.457C229.903 158.567 229.834 158.709 229.834 158.884C229.834 158.993 229.863 159.088 229.921 159.168C229.98 159.249 230.06 159.314 230.162 159.365C230.272 159.416 230.396 159.464 230.534 159.508L231.486 159.792C231.975 159.938 232.35 160.157 232.613 160.449C232.883 160.74 233.018 161.098 233.018 161.521C233.018 161.878 232.923 162.195 232.733 162.473C232.544 162.742 232.281 162.954 231.946 163.107C231.61 163.26 231.216 163.337 230.764 163.337Z" fill="#171717"/>
<rect x="250.743" y="144.684" width="73.5138" height="29.0435" rx="14.5217" stroke="#6E00FF" stroke-width="1.36759"/>
<path d="M261.121 163.206L263.932 155.055H265.858L268.67 163.206H267.05L266.471 161.455H263.32L262.729 163.206H261.121ZM263.746 160.142H266.044L264.687 156.083H265.103L263.746 160.142ZM271.838 163.271C271.167 163.271 270.646 163.089 270.274 162.724C269.909 162.352 269.727 161.831 269.727 161.16V158.534H268.699V157.254H268.808C269.1 157.254 269.326 157.177 269.486 157.024C269.647 156.871 269.727 156.648 269.727 156.357V155.897H271.16V157.254H272.528V158.534H271.16V161.083C271.16 161.28 271.193 161.448 271.259 161.586C271.332 161.725 271.441 161.831 271.587 161.904C271.74 161.977 271.933 162.013 272.167 162.013C272.218 162.013 272.276 162.009 272.342 162.002C272.415 161.995 272.484 161.988 272.55 161.98V163.206C272.448 163.22 272.331 163.235 272.2 163.249C272.068 163.264 271.948 163.271 271.838 163.271ZM276.358 163.271C275.687 163.271 275.165 163.089 274.793 162.724C274.429 162.352 274.246 161.831 274.246 161.16V158.534H273.218V157.254H273.327C273.619 157.254 273.845 157.177 274.006 157.024C274.166 156.871 274.246 156.648 274.246 156.357V155.897H275.68V157.254H277.047V158.534H275.68V161.083C275.68 161.28 275.712 161.448 275.778 161.586C275.851 161.725 275.96 161.831 276.106 161.904C276.259 161.977 276.453 162.013 276.686 162.013C276.737 162.013 276.796 162.009 276.861 162.002C276.934 161.995 277.003 161.988 277.069 161.98V163.206C276.967 163.22 276.85 163.235 276.719 163.249C276.588 163.264 276.467 163.271 276.358 163.271ZM281.021 163.337C280.437 163.337 279.905 163.202 279.424 162.932C278.949 162.662 278.57 162.294 278.286 161.827C278.009 161.36 277.87 160.828 277.87 160.23C277.87 159.632 278.009 159.099 278.286 158.632C278.57 158.166 278.949 157.797 279.424 157.527C279.898 157.257 280.43 157.123 281.021 157.123C281.604 157.123 282.133 157.257 282.607 157.527C283.081 157.797 283.457 158.166 283.734 158.632C284.019 159.092 284.161 159.624 284.161 160.23C284.161 160.828 284.019 161.36 283.734 161.827C283.45 162.294 283.07 162.662 282.596 162.932C282.122 163.202 281.597 163.337 281.021 163.337ZM281.021 162.024C281.342 162.024 281.623 161.947 281.863 161.794C282.111 161.641 282.305 161.43 282.443 161.16C282.589 160.882 282.662 160.573 282.662 160.23C282.662 159.88 282.589 159.573 282.443 159.311C282.305 159.041 282.111 158.829 281.863 158.676C281.623 158.516 281.342 158.435 281.021 158.435C280.693 158.435 280.405 158.516 280.157 158.676C279.909 158.829 279.712 159.041 279.566 159.311C279.427 159.573 279.358 159.88 279.358 160.23C279.358 160.573 279.427 160.882 279.566 161.16C279.712 161.43 279.909 161.641 280.157 161.794C280.405 161.947 280.693 162.024 281.021 162.024ZM285.248 163.206V157.254H286.593V158.578L286.484 158.381C286.623 157.936 286.838 157.626 287.13 157.451C287.429 157.276 287.786 157.188 288.202 157.188H288.552V158.457H288.038C287.629 158.457 287.301 158.585 287.053 158.84C286.805 159.088 286.681 159.438 286.681 159.891V163.206H285.248ZM289.34 163.206V157.254H290.686V158.424L290.576 158.217C290.715 157.859 290.941 157.589 291.254 157.407C291.575 157.217 291.947 157.123 292.37 157.123C292.808 157.123 293.195 157.217 293.53 157.407C293.873 157.597 294.139 157.863 294.329 158.206C294.518 158.541 294.613 158.931 294.613 159.376V163.206H293.18V159.715C293.18 159.453 293.129 159.227 293.027 159.037C292.925 158.848 292.783 158.702 292.6 158.6C292.425 158.49 292.217 158.435 291.977 158.435C291.743 158.435 291.535 158.49 291.353 158.6C291.171 158.702 291.028 158.848 290.926 159.037C290.824 159.227 290.773 159.453 290.773 159.715V163.206H289.34ZM298.648 163.337C298.035 163.337 297.499 163.198 297.04 162.921C296.58 162.644 296.223 162.268 295.967 161.794C295.712 161.32 295.585 160.795 295.585 160.219C295.585 159.621 295.712 159.092 295.967 158.632C296.23 158.166 296.584 157.797 297.029 157.527C297.481 157.257 297.984 157.123 298.539 157.123C299.005 157.123 299.414 157.199 299.764 157.352C300.121 157.505 300.424 157.717 300.672 157.987C300.92 158.257 301.11 158.567 301.241 158.917C301.372 159.26 301.438 159.632 301.438 160.033C301.438 160.135 301.431 160.241 301.416 160.35C301.409 160.459 301.39 160.554 301.361 160.634H296.766V159.54H300.552L299.873 160.055C299.939 159.719 299.921 159.42 299.819 159.158C299.724 158.895 299.563 158.687 299.337 158.534C299.118 158.381 298.852 158.304 298.539 158.304C298.239 158.304 297.973 158.381 297.74 158.534C297.506 158.68 297.328 158.899 297.204 159.19C297.087 159.475 297.043 159.821 297.072 160.23C297.043 160.594 297.091 160.919 297.215 161.203C297.346 161.481 297.536 161.696 297.784 161.849C298.039 162.002 298.331 162.079 298.659 162.079C298.987 162.079 299.264 162.009 299.49 161.871C299.724 161.732 299.906 161.546 300.037 161.313L301.197 161.882C301.08 162.166 300.898 162.418 300.65 162.637C300.402 162.855 300.107 163.027 299.764 163.151C299.428 163.275 299.056 163.337 298.648 163.337ZM303.246 165.623C303.086 165.623 302.929 165.609 302.776 165.58C302.623 165.558 302.484 165.518 302.36 165.459V164.256C302.455 164.278 302.568 164.3 302.699 164.322C302.838 164.343 302.966 164.354 303.082 164.354C303.41 164.354 303.648 164.278 303.793 164.125C303.947 163.971 304.082 163.771 304.198 163.523L304.592 162.604L304.57 163.807L301.977 157.254H303.52L305.336 162.09H304.789L306.594 157.254H308.148L305.555 163.807C305.402 164.194 305.216 164.522 304.997 164.792C304.778 165.062 304.523 165.266 304.231 165.405C303.947 165.551 303.618 165.623 303.246 165.623ZM311.2 163.337C310.565 163.337 310.011 163.187 309.537 162.888C309.07 162.582 308.749 162.17 308.574 161.652L309.646 161.138C309.799 161.473 310.011 161.736 310.281 161.926C310.558 162.115 310.864 162.21 311.2 162.21C311.462 162.21 311.67 162.152 311.823 162.035C311.976 161.918 312.053 161.765 312.053 161.575C312.053 161.459 312.02 161.364 311.954 161.291C311.896 161.211 311.812 161.145 311.703 161.094C311.601 161.036 311.488 160.988 311.364 160.952L310.39 160.678C309.887 160.532 309.504 160.31 309.241 160.011C308.986 159.712 308.858 159.358 308.858 158.95C308.858 158.585 308.949 158.268 309.132 157.998C309.321 157.721 309.58 157.505 309.909 157.352C310.244 157.199 310.627 157.123 311.057 157.123C311.619 157.123 312.115 157.257 312.545 157.527C312.976 157.797 313.282 158.176 313.464 158.665L312.37 159.179C312.268 158.91 312.097 158.694 311.856 158.534C311.615 158.373 311.345 158.293 311.046 158.293C310.806 158.293 310.616 158.348 310.477 158.457C310.339 158.567 310.27 158.709 310.27 158.884C310.27 158.993 310.299 159.088 310.357 159.168C310.415 159.249 310.496 159.314 310.598 159.365C310.707 159.416 310.831 159.464 310.97 159.508L311.922 159.792C312.41 159.938 312.786 160.157 313.049 160.449C313.318 160.74 313.453 161.098 313.453 161.521C313.453 161.878 313.359 162.195 313.169 162.473C312.979 162.742 312.717 162.954 312.381 163.107C312.046 163.26 311.652 163.337 311.2 163.337Z" fill="#171717"/>
<rect x="331.095" y="144.684" width="55.5138" height="29.0435" rx="14.5217" stroke="#918EA4" stroke-opacity="0.25" stroke-width="1.36759"/>
<path d="M346.155 163.337C345.557 163.337 344.999 163.231 344.481 163.02C343.963 162.808 343.511 162.513 343.124 162.133C342.738 161.754 342.435 161.309 342.216 160.799C342.005 160.281 341.899 159.723 341.899 159.125C341.899 158.519 342.005 157.961 342.216 157.451C342.428 156.94 342.727 156.495 343.113 156.116C343.5 155.737 343.952 155.445 344.47 155.241C344.988 155.029 345.55 154.923 346.155 154.923C346.76 154.923 347.322 155.029 347.84 155.241C348.358 155.452 348.81 155.748 349.196 156.127C349.583 156.499 349.882 156.94 350.094 157.451C350.312 157.961 350.422 158.519 350.422 159.125C350.422 159.723 350.312 160.281 350.094 160.799C349.875 161.309 349.572 161.754 349.186 162.133C348.799 162.513 348.347 162.808 347.829 163.02C347.318 163.231 346.76 163.337 346.155 163.337ZM346.155 161.98C346.556 161.98 346.924 161.911 347.26 161.772C347.595 161.626 347.887 161.426 348.135 161.171C348.391 160.915 348.584 160.613 348.715 160.263C348.854 159.912 348.923 159.533 348.923 159.125C348.923 158.716 348.854 158.341 348.715 157.998C348.584 157.648 348.391 157.345 348.135 157.09C347.887 156.827 347.595 156.627 347.26 156.488C346.924 156.349 346.556 156.28 346.155 156.28C345.761 156.28 345.396 156.349 345.061 156.488C344.725 156.627 344.43 156.827 344.175 157.09C343.927 157.345 343.733 157.648 343.595 157.998C343.456 158.341 343.387 158.716 343.387 159.125C343.387 159.533 343.456 159.912 343.595 160.263C343.733 160.613 343.927 160.915 344.175 161.171C344.43 161.426 344.725 161.626 345.061 161.772C345.396 161.911 345.761 161.98 346.155 161.98ZM352.314 163.206V158.534H351.264V157.254H352.314V157.057C352.314 156.605 352.405 156.222 352.587 155.908C352.777 155.587 353.04 155.343 353.375 155.175C353.711 155.007 354.108 154.923 354.568 154.923C354.655 154.923 354.75 154.931 354.852 154.945C354.961 154.953 355.053 154.964 355.126 154.978V156.214C355.053 156.2 354.983 156.193 354.918 156.193C354.859 156.185 354.805 156.182 354.754 156.182C354.433 156.182 354.185 156.255 354.01 156.4C353.835 156.539 353.747 156.758 353.747 157.057V157.254H356.351V158.534H353.747V163.206H352.314ZM356.646 163.206V158.534H355.596V157.254H356.646V157.057C356.646 156.605 356.738 156.222 356.92 155.908C357.102 155.587 357.361 155.343 357.697 155.175C358.039 155.007 358.441 154.923 358.9 154.923C358.988 154.923 359.082 154.931 359.185 154.945C359.294 154.953 359.382 154.964 359.447 154.978V156.214C359.382 156.2 359.316 156.193 359.25 156.193C359.192 156.185 359.137 156.182 359.086 156.182C358.765 156.182 358.517 156.255 358.342 156.4C358.167 156.539 358.08 156.758 358.08 157.057V157.254H359.392V158.534H358.08V163.206H356.646ZM363.048 163.337C362.435 163.337 361.899 163.198 361.44 162.921C360.98 162.644 360.623 162.268 360.368 161.794C360.112 161.32 359.985 160.795 359.985 160.219C359.985 159.621 360.112 159.092 360.368 158.632C360.63 158.166 360.984 157.797 361.429 157.527C361.881 157.257 362.384 157.123 362.939 157.123C363.405 157.123 363.814 157.199 364.164 157.352C364.521 157.505 364.824 157.717 365.072 157.987C365.32 158.257 365.51 158.567 365.641 158.917C365.772 159.26 365.838 159.632 365.838 160.033C365.838 160.135 365.831 160.241 365.816 160.35C365.809 160.459 365.791 160.554 365.761 160.634H361.166V159.54H364.952L364.273 160.055C364.339 159.719 364.321 159.42 364.219 159.158C364.124 158.895 363.963 158.687 363.737 158.534C363.519 158.381 363.252 158.304 362.939 158.304C362.64 158.304 362.373 158.381 362.14 158.534C361.907 158.68 361.728 158.899 361.604 159.19C361.487 159.475 361.443 159.821 361.473 160.23C361.443 160.594 361.491 160.919 361.615 161.203C361.746 161.481 361.936 161.696 362.184 161.849C362.439 162.002 362.731 162.079 363.059 162.079C363.387 162.079 363.664 162.009 363.891 161.871C364.124 161.732 364.306 161.546 364.438 161.313L365.597 161.882C365.481 162.166 365.298 162.418 365.05 162.637C364.802 162.855 364.507 163.027 364.164 163.151C363.829 163.275 363.457 163.337 363.048 163.337ZM366.924 163.206V157.254H368.27V158.578L368.161 158.381C368.299 157.936 368.514 157.626 368.806 157.451C369.105 157.276 369.463 157.188 369.878 157.188H370.229V158.457H369.714C369.306 158.457 368.978 158.585 368.73 158.84C368.482 159.088 368.358 159.438 368.358 159.891V163.206H366.924ZM373.281 163.337C372.647 163.337 372.092 163.187 371.618 162.888C371.151 162.582 370.831 162.17 370.655 161.652L371.728 161.138C371.881 161.473 372.092 161.736 372.362 161.926C372.639 162.115 372.946 162.21 373.281 162.21C373.544 162.21 373.752 162.152 373.905 162.035C374.058 161.918 374.135 161.765 374.135 161.575C374.135 161.459 374.102 161.364 374.036 161.291C373.978 161.211 373.894 161.145 373.785 161.094C373.682 161.036 373.569 160.988 373.445 160.952L372.472 160.678C371.968 160.532 371.585 160.31 371.323 160.011C371.068 159.712 370.94 159.358 370.94 158.95C370.94 158.585 371.031 158.268 371.213 157.998C371.403 157.721 371.662 157.505 371.99 157.352C372.326 157.199 372.709 157.123 373.139 157.123C373.701 157.123 374.197 157.257 374.627 157.527C375.057 157.797 375.364 158.176 375.546 158.665L374.452 159.179C374.35 158.91 374.178 158.694 373.938 158.534C373.697 158.373 373.427 158.293 373.128 158.293C372.887 158.293 372.698 158.348 372.559 158.457C372.421 158.567 372.351 158.709 372.351 158.884C372.351 158.993 372.38 159.088 372.439 159.168C372.497 159.249 372.577 159.314 372.68 159.365C372.789 159.416 372.913 159.464 373.051 159.508L374.003 159.792C374.492 159.938 374.868 160.157 375.13 160.449C375.4 160.74 375.535 161.098 375.535 161.521C375.535 161.878 375.44 162.195 375.251 162.473C375.061 162.742 374.798 162.954 374.463 163.107C374.127 163.26 373.733 163.337 373.281 163.337Z" fill="#171717"/>
<rect x="191.739" y="198.411" width="180.522" height="16.4111" rx="8.20553" fill="#F0E5FF"/>
<rect x="201.996" y="238.822" width="160.008" height="16.4111" rx="8.20553" fill="#F8F2FF"/>
<rect x="231.399" y="279.233" width="101.202" height="16.4111" rx="8.20553" fill="#F8F2FF"/>
<path d="M180.798 319.644L383.202 319.644" stroke="#918EA4" stroke-opacity="0.25" stroke-width="1.36759"/>
</g>
<defs>
<filter id="filter0_d_469_37623" x="0.711475" y="0.35574" width="496.933" height="526.933" filterUnits="userSpaceOnUse" color-interpolation-filters="sRGB">
<feFlood flood-opacity="0" result="BackgroundImageFix"/>
<feColorMatrix in="SourceAlpha" type="matrix" values="0 0 0 0 0 0 0 0 0 0 0 0 0 0 0 0 0 0 127 0" result="hardAlpha"/>
<feOffset dx="-32.8221" dy="32.8221"/>
<feGaussianBlur stdDeviation="49.2332"/>
<feComposite in2="hardAlpha" operator="out"/>
<feColorMatrix type="matrix" values="0 0 0 0 0 0 0 0 0 0 0 0 0 0 0 0 0 0 0.08 0"/>
<feBlend mode="normal" in2="BackgroundImageFix" result="effect1_dropShadow_469_37623"/>
<feBlend mode="normal" in="SourceGraphic" in2="effect1_dropShadow_469_37623" result="shape"/>
</filter>
</defs>
</svg>
