<svg width="642" height="544" viewBox="0 0 642 544" fill="none" xmlns="http://www.w3.org/2000/svg">
<rect width="302.75" height="346" transform="translate(255.229 99)" fill="#F9FAFB"/>
<g opacity="0.6">
<line x1="559.052" y1="26.9664" x2="562.737" y2="16.8419" stroke="#A866FF" stroke-width="1.73"/>
<line x1="582.083" y1="26.4938" x2="587.47" y2="17.1631" stroke="#A866FF" stroke-width="1.73"/>
<line x1="605.257" y1="26.0333" x2="612.183" y2="17.7798" stroke="#A866FF" stroke-width="1.73"/>
<line x1="628.607" y1="25.2534" x2="636.861" y2="18.3279" stroke="#A866FF" stroke-width="1.73"/>
<line x1="398.568" y1="26.5786" x2="390.315" y2="19.6531" stroke="#A866FF" stroke-width="1.73"/>
<line x1="421.708" y1="27.1454" x2="414.783" y2="18.8919" stroke="#A866FF" stroke-width="1.73"/>
<line x1="444.71" y1="27.3588" x2="439.323" y2="18.0281" stroke="#A866FF" stroke-width="1.73"/>
<line x1="467.613" y1="27.5581" x2="463.928" y2="17.4336" stroke="#A866FF" stroke-width="1.73"/>
<line x1="490.456" y1="27.7498" x2="488.585" y2="17.1393" stroke="#A866FF" stroke-width="1.73"/>
<line x1="513.281" y1="27.5996" x2="513.281" y2="16.8254" stroke="#A866FF" stroke-width="1.73"/>
<line x1="536.132" y1="27.4494" x2="538.002" y2="16.8389" stroke="#A866FF" stroke-width="1.73"/>
<line x1="534.812" y1="45.8218" x2="538.497" y2="35.6974" stroke="#A866FF" stroke-width="1.73"/>
<line x1="557.839" y1="45.3478" x2="563.226" y2="36.0171" stroke="#A866FF" stroke-width="1.73"/>
<line x1="581.013" y1="44.8883" x2="587.939" y2="36.6348" stroke="#A866FF" stroke-width="1.73"/>
<line x1="604.367" y1="44.1084" x2="612.62" y2="37.1829" stroke="#A866FF" stroke-width="1.73"/>
<line x1="627.923" y1="43.0116" x2="637.254" y2="37.6245" stroke="#A866FF" stroke-width="1.73"/>
<line x1="397.468" y1="46.0003" x2="390.543" y2="37.7468" stroke="#A866FF" stroke-width="1.73"/>
<line x1="420.47" y1="46.2128" x2="415.083" y2="36.8821" stroke="#A866FF" stroke-width="1.73"/>
<line x1="443.369" y1="46.4135" x2="439.684" y2="36.2891" stroke="#A866FF" stroke-width="1.73"/>
<line x1="466.212" y1="46.6038" x2="464.341" y2="35.9933" stroke="#A866FF" stroke-width="1.73"/>
<line x1="489.036" y1="46.4536" x2="489.036" y2="35.6794" stroke="#A866FF" stroke-width="1.73"/>
<line x1="511.891" y1="46.3034" x2="513.762" y2="35.6929" stroke="#A866FF" stroke-width="1.73"/>
<line x1="510.569" y1="64.6768" x2="514.254" y2="54.5524" stroke="#A866FF" stroke-width="1.73"/>
<line x1="533.599" y1="64.2032" x2="538.986" y2="54.8725" stroke="#A866FF" stroke-width="1.73"/>
<line x1="556.773" y1="63.7428" x2="563.698" y2="55.4893" stroke="#A866FF" stroke-width="1.73"/>
<line x1="580.127" y1="62.9629" x2="588.38" y2="56.0374" stroke="#A866FF" stroke-width="1.73"/>
<line x1="603.683" y1="61.8661" x2="613.013" y2="56.479" stroke="#A866FF" stroke-width="1.73"/>
<line x1="627.465" y1="61.1291" x2="637.589" y2="57.4441" stroke="#A866FF" stroke-width="1.73"/>
<line x1="396.226" y1="65.0682" x2="390.839" y2="55.7375" stroke="#A866FF" stroke-width="1.73"/>
<line x1="419.129" y1="65.2685" x2="415.444" y2="55.1441" stroke="#A866FF" stroke-width="1.73"/>
<line x1="441.971" y1="65.4593" x2="440.1" y2="54.8488" stroke="#A866FF" stroke-width="1.73"/>
<line x1="464.796" y1="65.3091" x2="464.796" y2="54.5349" stroke="#A866FF" stroke-width="1.73"/>
<line x1="487.648" y1="65.1589" x2="489.519" y2="54.5484" stroke="#A866FF" stroke-width="1.73"/>
<line x1="486.329" y1="83.5313" x2="490.014" y2="73.4069" stroke="#A866FF" stroke-width="1.73"/>
<line x1="509.355" y1="83.0582" x2="514.742" y2="73.7275" stroke="#A866FF" stroke-width="1.73"/>
<line x1="532.53" y1="82.5978" x2="539.455" y2="74.3443" stroke="#A866FF" stroke-width="1.73"/>
<line x1="555.883" y1="81.8178" x2="564.137" y2="74.8923" stroke="#A866FF" stroke-width="1.73"/>
<line x1="579.442" y1="80.7211" x2="588.773" y2="75.334" stroke="#A866FF" stroke-width="1.73"/>
<line x1="603.225" y1="79.984" x2="613.349" y2="76.2991" stroke="#A866FF" stroke-width="1.73"/>
<line x1="627.249" y1="78.9348" x2="637.86" y2="77.0638" stroke="#A866FF" stroke-width="1.73"/>
<line x1="394.885" y1="84.123" x2="391.2" y2="73.9986" stroke="#A866FF" stroke-width="1.73"/>
<line x1="417.728" y1="84.3143" x2="415.857" y2="73.7038" stroke="#A866FF" stroke-width="1.73"/>
<line x1="440.553" y1="84.1641" x2="440.553" y2="73.3899" stroke="#A866FF" stroke-width="1.73"/>
<line x1="463.408" y1="84.0139" x2="465.279" y2="73.4034" stroke="#A866FF" stroke-width="1.73"/>
<line x1="462.085" y1="102.386" x2="465.77" y2="92.2619" stroke="#A866FF" stroke-width="1.73"/>
<line x1="485.115" y1="101.913" x2="490.502" y2="92.582" stroke="#A866FF" stroke-width="1.73"/>
<line x1="508.29" y1="101.453" x2="515.215" y2="93.1993" stroke="#A866FF" stroke-width="1.73"/>
<line x1="531.643" y1="100.672" x2="539.897" y2="93.7468" stroke="#A866FF" stroke-width="1.73"/>
<line x1="555.199" y1="99.5761" x2="564.53" y2="94.189" stroke="#A866FF" stroke-width="1.73"/>
<line x1="578.981" y1="98.8385" x2="589.106" y2="95.1535" stroke="#A866FF" stroke-width="1.73"/>
<line x1="603.006" y1="97.7897" x2="613.617" y2="95.9188" stroke="#A866FF" stroke-width="1.73"/>
<line x1="393.488" y1="103.169" x2="391.617" y2="92.5583" stroke="#A866FF" stroke-width="1.73"/>
<line x1="416.313" y1="103.019" x2="416.313" y2="92.2444" stroke="#A866FF" stroke-width="1.73"/>
<line x1="439.164" y1="102.868" x2="441.035" y2="92.2579" stroke="#A866FF" stroke-width="1.73"/>
<line x1="640.743" y1="98.4963" x2="629.969" y2="98.4963" stroke="#A866FF" stroke-width="1.73"/>
<line x1="437.844" y1="121.241" x2="441.529" y2="111.116" stroke="#A866FF" stroke-width="1.73"/>
<line x1="460.871" y1="120.768" x2="466.258" y2="111.437" stroke="#A866FF" stroke-width="1.73"/>
<line x1="484.045" y1="120.307" x2="490.971" y2="112.054" stroke="#A866FF" stroke-width="1.73"/>
<line x1="507.399" y1="119.527" x2="515.653" y2="112.602" stroke="#A866FF" stroke-width="1.73"/>
<line x1="530.959" y1="118.431" x2="540.29" y2="113.043" stroke="#A866FF" stroke-width="1.73"/>
<line x1="554.741" y1="117.694" x2="564.866" y2="114.009" stroke="#A866FF" stroke-width="1.73"/>
<line x1="578.766" y1="116.644" x2="589.376" y2="114.773" stroke="#A866FF" stroke-width="1.73"/>
<line x1="392.069" y1="121.874" x2="392.069" y2="111.099" stroke="#A866FF" stroke-width="1.73"/>
<line x1="414.924" y1="121.723" x2="416.794" y2="111.113" stroke="#A866FF" stroke-width="1.73"/>
<line x1="616.499" y1="117.352" x2="605.725" y2="117.352" stroke="#A866FF" stroke-width="1.73"/>
<line x1="640.471" y1="118.348" x2="629.86" y2="116.477" stroke="#A866FF" stroke-width="1.73"/>
<line x1="413.601" y1="140.096" x2="417.286" y2="129.971" stroke="#A866FF" stroke-width="1.73"/>
<line x1="436.631" y1="139.622" x2="442.018" y2="130.291" stroke="#A866FF" stroke-width="1.73"/>
<line x1="459.805" y1="139.162" x2="466.731" y2="130.909" stroke="#A866FF" stroke-width="1.73"/>
<line x1="483.159" y1="138.382" x2="491.412" y2="131.457" stroke="#A866FF" stroke-width="1.73"/>
<line x1="506.715" y1="137.286" x2="516.046" y2="131.898" stroke="#A866FF" stroke-width="1.73"/>
<line x1="530.497" y1="136.548" x2="540.622" y2="132.864" stroke="#A866FF" stroke-width="1.73"/>
<line x1="554.522" y1="135.499" x2="565.132" y2="133.628" stroke="#A866FF" stroke-width="1.73"/>
<line x1="390.679" y1="140.578" x2="392.55" y2="129.968" stroke="#A866FF" stroke-width="1.73"/>
<line x1="592.259" y1="136.206" x2="581.485" y2="136.206" stroke="#A866FF" stroke-width="1.73"/>
<line x1="616.228" y1="137.203" x2="605.617" y2="135.332" stroke="#A866FF" stroke-width="1.73"/>
<line x1="639.961" y1="138.174" x2="629.837" y2="134.489" stroke="#A866FF" stroke-width="1.73"/>
<line x1="389.361" y1="158.951" x2="393.046" y2="148.826" stroke="#A866FF" stroke-width="1.73"/>
<line x1="412.388" y1="158.477" x2="417.775" y2="149.146" stroke="#A866FF" stroke-width="1.73"/>
<line x1="435.562" y1="158.017" x2="442.487" y2="149.763" stroke="#A866FF" stroke-width="1.73"/>
<line x1="458.916" y1="157.237" x2="467.169" y2="150.311" stroke="#A866FF" stroke-width="1.73"/>
<line x1="482.475" y1="156.14" x2="491.805" y2="150.753" stroke="#A866FF" stroke-width="1.73"/>
<line x1="506.257" y1="155.403" x2="516.381" y2="151.718" stroke="#A866FF" stroke-width="1.73"/>
<line x1="530.281" y1="154.355" x2="540.892" y2="152.484" stroke="#A866FF" stroke-width="1.73"/>
<line x1="639.23" y1="157.638" x2="629.899" y2="152.251" stroke="#A866FF" stroke-width="1.73"/>
<line x1="568.019" y1="155.061" x2="557.244" y2="155.061" stroke="#A866FF" stroke-width="1.73"/>
<line x1="591.987" y1="156.058" x2="581.377" y2="154.187" stroke="#A866FF" stroke-width="1.73"/>
<line x1="615.717" y1="157.029" x2="605.592" y2="153.344" stroke="#A866FF" stroke-width="1.73"/>
<line x1="388.147" y1="177.332" x2="393.534" y2="168.001" stroke="#A866FF" stroke-width="1.73"/>
<line x1="411.322" y1="176.872" x2="418.247" y2="168.618" stroke="#A866FF" stroke-width="1.73"/>
<line x1="434.675" y1="176.092" x2="442.929" y2="169.166" stroke="#A866FF" stroke-width="1.73"/>
<line x1="458.232" y1="174.995" x2="467.562" y2="169.608" stroke="#A866FF" stroke-width="1.73"/>
<line x1="482.014" y1="174.258" x2="492.138" y2="170.573" stroke="#A866FF" stroke-width="1.73"/>
<line x1="506.038" y1="173.209" x2="516.649" y2="171.338" stroke="#A866FF" stroke-width="1.73"/>
<line x1="614.985" y1="176.493" x2="605.655" y2="171.106" stroke="#A866FF" stroke-width="1.73"/>
<line x1="638.298" y1="177.417" x2="630.045" y2="170.492" stroke="#A866FF" stroke-width="1.73"/>
<line x1="543.775" y1="173.915" x2="533.001" y2="173.915" stroke="#A866FF" stroke-width="1.73"/>
<line x1="567.743" y1="174.912" x2="557.133" y2="173.041" stroke="#A866FF" stroke-width="1.73"/>
<line x1="591.477" y1="175.884" x2="581.352" y2="172.199" stroke="#A866FF" stroke-width="1.73"/>
<line x1="387.078" y1="195.727" x2="394.003" y2="187.473" stroke="#A866FF" stroke-width="1.73"/>
<line x1="410.431" y1="194.946" x2="418.685" y2="188.021" stroke="#A866FF" stroke-width="1.73"/>
<line x1="433.991" y1="193.85" x2="443.322" y2="188.463" stroke="#A866FF" stroke-width="1.73"/>
<line x1="457.773" y1="193.113" x2="467.898" y2="189.428" stroke="#A866FF" stroke-width="1.73"/>
<line x1="481.798" y1="192.064" x2="492.409" y2="190.193" stroke="#A866FF" stroke-width="1.73"/>
<line x1="590.745" y1="195.348" x2="581.415" y2="189.961" stroke="#A866FF" stroke-width="1.73"/>
<line x1="614.054" y1="196.272" x2="605.801" y2="189.346" stroke="#A866FF" stroke-width="1.73"/>
<line x1="637.195" y1="196.839" x2="630.269" y2="188.585" stroke="#A866FF" stroke-width="1.73"/>
<line x1="519.535" y1="192.77" x2="508.761" y2="192.77" stroke="#A866FF" stroke-width="1.73"/>
<line x1="543.503" y1="193.768" x2="532.893" y2="191.897" stroke="#A866FF" stroke-width="1.73"/>
<line x1="567.236" y1="194.739" x2="557.112" y2="191.054" stroke="#A866FF" stroke-width="1.73"/>
<line x1="386.191" y1="213.801" x2="394.445" y2="206.876" stroke="#A866FF" stroke-width="1.73"/>
<line x1="409.747" y1="212.705" x2="419.078" y2="207.317" stroke="#A866FF" stroke-width="1.73"/>
<line x1="433.529" y1="211.967" x2="443.654" y2="208.282" stroke="#A866FF" stroke-width="1.73"/>
<line x1="457.554" y1="210.918" x2="468.164" y2="209.047" stroke="#A866FF" stroke-width="1.73"/>
<line x1="566.502" y1="214.203" x2="557.171" y2="208.816" stroke="#A866FF" stroke-width="1.73"/>
<line x1="589.814" y1="215.126" x2="581.561" y2="208.201" stroke="#A866FF" stroke-width="1.73"/>
<line x1="612.951" y1="215.693" x2="606.025" y2="207.44" stroke="#A866FF" stroke-width="1.73"/>
<line x1="635.956" y1="215.907" x2="630.569" y2="206.576" stroke="#A866FF" stroke-width="1.73"/>
<line x1="495.291" y1="211.626" x2="484.517" y2="211.626" stroke="#A866FF" stroke-width="1.73"/>
<line x1="519.26" y1="212.622" x2="508.649" y2="210.751" stroke="#A866FF" stroke-width="1.73"/>
<line x1="542.992" y1="213.593" x2="532.868" y2="209.908" stroke="#A866FF" stroke-width="1.73"/>
<line x1="385.507" y1="231.559" x2="394.838" y2="226.172" stroke="#A866FF" stroke-width="1.73"/>
<line x1="409.289" y1="230.823" x2="419.414" y2="227.138" stroke="#A866FF" stroke-width="1.73"/>
<line x1="433.314" y1="229.774" x2="443.924" y2="227.903" stroke="#A866FF" stroke-width="1.73"/>
<line x1="542.261" y1="233.058" x2="532.93" y2="227.671" stroke="#A866FF" stroke-width="1.73"/>
<line x1="565.571" y1="233.982" x2="557.317" y2="227.056" stroke="#A866FF" stroke-width="1.73"/>
<line x1="588.71" y1="234.548" x2="581.785" y2="226.295" stroke="#A866FF" stroke-width="1.73"/>
<line x1="611.713" y1="234.761" x2="606.326" y2="225.43" stroke="#A866FF" stroke-width="1.73"/>
<line x1="634.615" y1="234.961" x2="630.93" y2="224.837" stroke="#A866FF" stroke-width="1.73"/>
<line x1="471.051" y1="230.48" x2="460.277" y2="230.48" stroke="#A866FF" stroke-width="1.73"/>
<line x1="495.02" y1="231.477" x2="484.409" y2="229.606" stroke="#A866FF" stroke-width="1.73"/>
<line x1="518.752" y1="232.449" x2="508.628" y2="228.764" stroke="#A866FF" stroke-width="1.73"/>
<line x1="385.046" y1="249.677" x2="395.17" y2="245.992" stroke="#A866FF" stroke-width="1.73"/>
<line x1="409.07" y1="248.629" x2="419.681" y2="246.758" stroke="#A866FF" stroke-width="1.73"/>
<line x1="518.018" y1="251.913" x2="508.687" y2="246.526" stroke="#A866FF" stroke-width="1.73"/>
<line x1="541.331" y1="252.836" x2="533.077" y2="245.91" stroke="#A866FF" stroke-width="1.73"/>
<line x1="564.47" y1="253.403" x2="557.545" y2="245.149" stroke="#A866FF" stroke-width="1.73"/>
<line x1="587.473" y1="253.616" x2="582.085" y2="244.285" stroke="#A866FF" stroke-width="1.73"/>
<line x1="610.372" y1="253.816" x2="606.687" y2="243.692" stroke="#A866FF" stroke-width="1.73"/>
<line x1="633.215" y1="254.007" x2="631.344" y2="243.397" stroke="#A866FF" stroke-width="1.73"/>
<line x1="446.808" y1="249.335" x2="436.033" y2="249.335" stroke="#A866FF" stroke-width="1.73"/>
<line x1="470.776" y1="250.332" x2="460.165" y2="248.461" stroke="#A866FF" stroke-width="1.73"/>
<line x1="494.509" y1="251.303" x2="484.384" y2="247.618" stroke="#A866FF" stroke-width="1.73"/>
<line x1="384.83" y1="267.483" x2="395.441" y2="265.612" stroke="#A866FF" stroke-width="1.73"/>
<line x1="493.777" y1="270.767" x2="484.447" y2="265.38" stroke="#A866FF" stroke-width="1.73"/>
<line x1="517.087" y1="271.691" x2="508.833" y2="264.765" stroke="#A866FF" stroke-width="1.73"/>
<line x1="540.227" y1="272.258" x2="533.302" y2="264.004" stroke="#A866FF" stroke-width="1.73"/>
<line x1="563.228" y1="272.472" x2="557.841" y2="263.141" stroke="#A866FF" stroke-width="1.73"/>
<line x1="586.132" y1="272.671" x2="582.447" y2="262.546" stroke="#A866FF" stroke-width="1.73"/>
<line x1="608.974" y1="272.862" x2="607.103" y2="262.252" stroke="#A866FF" stroke-width="1.73"/>
<line x1="631.799" y1="272.712" x2="631.799" y2="261.938" stroke="#A866FF" stroke-width="1.73"/>
<line x1="422.567" y1="268.189" x2="411.793" y2="268.189" stroke="#A866FF" stroke-width="1.73"/>
<line x1="446.535" y1="269.186" x2="435.925" y2="267.315" stroke="#A866FF" stroke-width="1.73"/>
<line x1="470.269" y1="270.158" x2="460.144" y2="266.473" stroke="#A866FF" stroke-width="1.73"/>
<line x1="469.533" y1="289.623" x2="460.203" y2="284.236" stroke="#A866FF" stroke-width="1.73"/>
<line x1="492.846" y1="290.545" x2="484.593" y2="283.62" stroke="#A866FF" stroke-width="1.73"/>
<line x1="515.987" y1="291.113" x2="509.061" y2="282.86" stroke="#A866FF" stroke-width="1.73"/>
<line x1="538.988" y1="291.326" x2="533.601" y2="281.995" stroke="#A866FF" stroke-width="1.73"/>
<line x1="561.887" y1="291.526" x2="558.202" y2="281.401" stroke="#A866FF" stroke-width="1.73"/>
<line x1="584.73" y1="291.717" x2="582.859" y2="281.106" stroke="#A866FF" stroke-width="1.73"/>
<line x1="607.555" y1="291.566" x2="607.555" y2="280.792" stroke="#A866FF" stroke-width="1.73"/>
<line x1="630.41" y1="291.416" x2="632.281" y2="280.806" stroke="#A866FF" stroke-width="1.73"/>
<line x1="398.323" y1="287.045" x2="387.549" y2="287.045" stroke="#A866FF" stroke-width="1.73"/>
<line x1="422.292" y1="288.042" x2="411.682" y2="286.171" stroke="#A866FF" stroke-width="1.73"/>
<line x1="446.024" y1="289.013" x2="435.9" y2="285.328" stroke="#A866FF" stroke-width="1.73"/>
<line x1="629.088" y1="309.789" x2="632.773" y2="299.664" stroke="#A866FF" stroke-width="1.73"/>
<line x1="445.293" y1="308.477" x2="435.962" y2="303.09" stroke="#A866FF" stroke-width="1.73"/>
<line x1="468.602" y1="309.4" x2="460.349" y2="302.475" stroke="#A866FF" stroke-width="1.73"/>
<line x1="491.743" y1="309.967" x2="484.817" y2="301.714" stroke="#A866FF" stroke-width="1.73"/>
<line x1="514.744" y1="310.181" x2="509.357" y2="300.85" stroke="#A866FF" stroke-width="1.73"/>
<line x1="537.647" y1="310.38" x2="533.962" y2="300.256" stroke="#A866FF" stroke-width="1.73"/>
<line x1="560.49" y1="310.572" x2="558.619" y2="299.961" stroke="#A866FF" stroke-width="1.73"/>
<line x1="583.315" y1="310.421" x2="583.315" y2="299.647" stroke="#A866FF" stroke-width="1.73"/>
<line x1="606.166" y1="310.271" x2="608.037" y2="299.661" stroke="#A866FF" stroke-width="1.73"/>
<line x1="398.051" y1="306.896" x2="387.44" y2="305.025" stroke="#A866FF" stroke-width="1.73"/>
<line x1="421.784" y1="307.867" x2="411.66" y2="304.182" stroke="#A866FF" stroke-width="1.73"/>
<line x1="604.847" y1="328.644" x2="608.532" y2="318.519" stroke="#A866FF" stroke-width="1.73"/>
<line x1="627.874" y1="328.17" x2="633.261" y2="318.839" stroke="#A866FF" stroke-width="1.73"/>
<line x1="421.05" y1="327.332" x2="411.719" y2="321.945" stroke="#A866FF" stroke-width="1.73"/>
<line x1="444.362" y1="328.256" x2="436.108" y2="321.33" stroke="#A866FF" stroke-width="1.73"/>
<line x1="467.502" y1="328.823" x2="460.577" y2="320.569" stroke="#A866FF" stroke-width="1.73"/>
<line x1="490.504" y1="329.035" x2="485.117" y2="319.704" stroke="#A866FF" stroke-width="1.73"/>
<line x1="513.404" y1="329.235" x2="509.719" y2="319.111" stroke="#A866FF" stroke-width="1.73"/>
<line x1="536.247" y1="329.427" x2="534.376" y2="318.817" stroke="#A866FF" stroke-width="1.73"/>
<line x1="559.072" y1="329.277" x2="559.072" y2="318.503" stroke="#A866FF" stroke-width="1.73"/>
<line x1="581.925" y1="329.127" x2="583.796" y2="318.516" stroke="#A866FF" stroke-width="1.73"/>
<line x1="397.541" y1="326.723" x2="387.417" y2="323.038" stroke="#A866FF" stroke-width="1.73"/>
<line x1="580.603" y1="347.499" x2="584.288" y2="337.375" stroke="#A866FF" stroke-width="1.73"/>
<line x1="603.634" y1="347.025" x2="609.021" y2="337.694" stroke="#A866FF" stroke-width="1.73"/>
<line x1="626.808" y1="346.565" x2="633.734" y2="338.311" stroke="#A866FF" stroke-width="1.73"/>
<line x1="396.81" y1="346.187" x2="387.479" y2="340.8" stroke="#A866FF" stroke-width="1.73"/>
<line x1="420.119" y1="347.11" x2="411.865" y2="340.184" stroke="#A866FF" stroke-width="1.73"/>
<line x1="443.259" y1="347.677" x2="436.334" y2="339.423" stroke="#A866FF" stroke-width="1.73"/>
<line x1="466.261" y1="347.89" x2="460.874" y2="338.559" stroke="#A866FF" stroke-width="1.73"/>
<line x1="489.164" y1="348.091" x2="485.479" y2="337.966" stroke="#A866FF" stroke-width="1.73"/>
<line x1="512.007" y1="348.281" x2="510.136" y2="337.671" stroke="#A866FF" stroke-width="1.73"/>
<line x1="534.831" y1="348.131" x2="534.831" y2="337.357" stroke="#A866FF" stroke-width="1.73"/>
<line x1="557.682" y1="347.981" x2="559.553" y2="337.37" stroke="#A866FF" stroke-width="1.73"/>
<line x1="556.363" y1="366.353" x2="560.048" y2="356.229" stroke="#A866FF" stroke-width="1.73"/>
<line x1="579.39" y1="365.88" x2="584.777" y2="356.55" stroke="#A866FF" stroke-width="1.73"/>
<line x1="602.564" y1="365.42" x2="609.489" y2="357.166" stroke="#A866FF" stroke-width="1.73"/>
<line x1="625.918" y1="364.64" x2="634.171" y2="357.715" stroke="#A866FF" stroke-width="1.73"/>
<line x1="395.879" y1="365.965" x2="387.625" y2="359.04" stroke="#A866FF" stroke-width="1.73"/>
<line x1="419.019" y1="366.532" x2="412.094" y2="358.278" stroke="#A866FF" stroke-width="1.73"/>
<line x1="442.02" y1="366.745" x2="436.633" y2="357.415" stroke="#A866FF" stroke-width="1.73"/>
<line x1="464.92" y1="366.945" x2="461.235" y2="356.82" stroke="#A866FF" stroke-width="1.73"/>
<line x1="487.762" y1="367.137" x2="485.891" y2="356.526" stroke="#A866FF" stroke-width="1.73"/>
<line x1="510.587" y1="366.986" x2="510.587" y2="356.212" stroke="#A866FF" stroke-width="1.73"/>
<line x1="533.442" y1="366.836" x2="535.313" y2="356.226" stroke="#A866FF" stroke-width="1.73"/>
</g>
<g filter="url(#filter0_d_932_1701)">
<rect x="132" y="66" width="303.605" height="346" rx="16.4111" fill="white"/>
<rect x="132.5" y="66.5" width="302.605" height="345" rx="15.9111" stroke="#EDF0F3"/>
<path d="M173.328 115.881L180.358 95.5043H185.172L192.201 115.881H188.153L186.703 111.505H178.826L177.349 115.881H173.328ZM179.893 108.223H185.637L182.245 98.0753H183.284L179.893 108.223ZM199.576 116.045C197.899 116.045 196.595 115.59 195.665 114.678C194.753 113.748 194.297 112.444 194.297 110.767V104.202H191.726V101.002H192C192.729 101.002 193.294 100.811 193.695 100.428C194.097 100.045 194.297 99.4885 194.297 98.7591V97.6104H197.88V101.002H201.299V104.202H197.88V110.575C197.88 111.067 197.962 111.487 198.126 111.833C198.309 112.18 198.582 112.444 198.947 112.626C199.33 112.809 199.813 112.9 200.397 112.9C200.524 112.9 200.67 112.891 200.834 112.873C201.017 112.854 201.19 112.836 201.354 112.818V115.881C201.099 115.918 200.807 115.954 200.479 115.991C200.15 116.027 199.85 116.045 199.576 116.045ZM210.328 116.045C208.65 116.045 207.346 115.59 206.416 114.678C205.505 113.748 205.049 112.444 205.049 110.767V104.202H202.478V101.002H202.751C203.481 101.002 204.046 100.811 204.447 100.428C204.848 100.045 205.049 99.4885 205.049 98.7591V97.6104H208.632V101.002H212.051V104.202H208.632V110.575C208.632 111.067 208.714 111.487 208.878 111.833C209.06 112.18 209.334 112.444 209.699 112.626C210.082 112.809 210.565 112.9 211.148 112.9C211.276 112.9 211.422 112.891 211.586 112.873C211.768 112.854 211.941 112.836 212.106 112.818V115.881C211.85 115.918 211.559 115.954 211.23 115.991C210.902 116.027 210.601 116.045 210.328 116.045ZM221.438 116.21C219.979 116.21 218.648 115.872 217.445 115.198C216.259 114.523 215.311 113.602 214.6 112.435C213.907 111.268 213.561 109.937 213.561 108.442C213.561 106.946 213.907 105.615 214.6 104.448C215.311 103.281 216.259 102.36 217.445 101.686C218.63 101.011 219.961 100.674 221.438 100.674C222.897 100.674 224.219 101.011 225.404 101.686C226.589 102.36 227.528 103.281 228.221 104.448C228.932 105.597 229.288 106.928 229.288 108.442C229.288 109.937 228.932 111.268 228.221 112.435C227.51 113.602 226.562 114.523 225.377 115.198C224.191 115.872 222.879 116.21 221.438 116.21ZM221.438 112.927C222.24 112.927 222.942 112.736 223.544 112.353C224.164 111.97 224.647 111.441 224.994 110.767C225.358 110.074 225.541 109.299 225.541 108.442C225.541 107.566 225.358 106.801 224.994 106.144C224.647 105.469 224.164 104.941 223.544 104.558C222.942 104.157 222.24 103.956 221.438 103.956C220.618 103.956 219.897 104.157 219.277 104.558C218.657 104.941 218.165 105.469 217.8 106.144C217.454 106.801 217.281 107.566 217.281 108.442C217.281 109.299 217.454 110.074 217.8 110.767C218.165 111.441 218.657 111.97 219.277 112.353C219.897 112.736 220.618 112.927 221.438 112.927ZM231.458 115.881V101.002H234.822V104.312L234.549 103.819C234.895 102.707 235.433 101.932 236.163 101.494C236.91 101.057 237.804 100.838 238.843 100.838H239.718V104.011H238.433C237.412 104.011 236.591 104.33 235.971 104.968C235.351 105.588 235.041 106.463 235.041 107.594V115.881H231.458ZM241.141 115.881V101.002H244.506V103.929L244.232 103.409C244.579 102.515 245.144 101.841 245.928 101.385C246.73 100.911 247.66 100.674 248.718 100.674C249.812 100.674 250.778 100.911 251.617 101.385C252.474 101.859 253.14 102.525 253.614 103.382C254.088 104.22 254.325 105.196 254.325 106.308V115.881H250.742V107.156C250.742 106.5 250.614 105.934 250.359 105.46C250.104 104.986 249.748 104.622 249.292 104.366C248.855 104.093 248.335 103.956 247.733 103.956C247.15 103.956 246.63 104.093 246.174 104.366C245.718 104.622 245.363 104.986 245.107 105.46C244.852 105.934 244.724 106.5 244.724 107.156V115.881H241.141ZM263.865 116.21C262.333 116.21 260.993 115.863 259.844 115.17C258.695 114.477 257.802 113.538 257.163 112.353C256.525 111.168 256.206 109.855 256.206 108.414C256.206 106.919 256.525 105.597 257.163 104.448C257.82 103.281 258.704 102.36 259.816 101.686C260.947 101.011 262.205 100.674 263.591 100.674C264.758 100.674 265.779 100.865 266.654 101.248C267.548 101.631 268.305 102.16 268.925 102.835C269.545 103.509 270.019 104.284 270.347 105.159C270.675 106.016 270.839 106.946 270.839 107.949C270.839 108.205 270.821 108.469 270.785 108.743C270.766 109.016 270.721 109.253 270.648 109.454H259.16V106.719H268.624L266.928 108.004C267.092 107.165 267.046 106.418 266.791 105.761C266.554 105.105 266.153 104.585 265.588 104.202C265.041 103.819 264.375 103.628 263.591 103.628C262.843 103.628 262.178 103.819 261.594 104.202C261.011 104.567 260.564 105.114 260.254 105.843C259.962 106.554 259.853 107.421 259.926 108.442C259.853 109.353 259.971 110.165 260.281 110.876C260.61 111.569 261.084 112.107 261.704 112.49C262.342 112.873 263.071 113.064 263.892 113.064C264.712 113.064 265.405 112.891 265.971 112.544C266.554 112.198 267.01 111.733 267.338 111.149L270.237 112.572C269.946 113.283 269.49 113.912 268.87 114.459C268.25 115.006 267.511 115.435 266.654 115.745C265.816 116.055 264.886 116.21 263.865 116.21ZM274.814 121.926C274.412 121.926 274.02 121.89 273.637 121.817C273.255 121.762 272.908 121.662 272.598 121.516V118.507C272.835 118.562 273.118 118.617 273.446 118.671C273.792 118.726 274.112 118.753 274.403 118.753C275.224 118.753 275.816 118.562 276.181 118.179C276.564 117.796 276.901 117.295 277.193 116.675L278.178 114.377L278.123 117.386L271.641 101.002H275.497L280.038 113.091H278.67L283.183 101.002H287.067L280.585 117.386C280.202 118.352 279.737 119.173 279.19 119.847C278.643 120.522 278.005 121.033 277.275 121.379C276.564 121.744 275.744 121.926 274.814 121.926ZM300.378 116.21C299.084 116.21 297.88 115.973 296.768 115.498C295.674 115.024 294.726 114.368 293.923 113.529C293.139 112.672 292.565 111.678 292.2 110.548L295.291 109.208C295.783 110.375 296.495 111.295 297.425 111.97C298.354 112.626 299.403 112.955 300.57 112.955C301.226 112.955 301.792 112.854 302.266 112.654C302.758 112.435 303.132 112.143 303.387 111.779C303.661 111.414 303.797 110.976 303.797 110.466C303.797 109.864 303.615 109.372 303.25 108.989C302.904 108.588 302.375 108.278 301.664 108.059L297.753 106.801C296.166 106.308 294.972 105.57 294.17 104.585C293.367 103.6 292.966 102.443 292.966 101.111C292.966 99.9444 293.249 98.9141 293.814 98.0206C294.398 97.1271 295.2 96.4342 296.221 95.9419C297.26 95.4313 298.446 95.1761 299.777 95.1761C300.998 95.1761 302.12 95.3949 303.141 95.8325C304.162 96.2519 305.037 96.8445 305.767 97.6104C306.514 98.358 307.071 99.2423 307.435 100.263L304.372 101.631C303.971 100.61 303.369 99.8259 302.567 99.2788C301.764 98.7135 300.834 98.4309 299.777 98.4309C299.157 98.4309 298.61 98.5403 298.136 98.7591C297.662 98.9597 297.288 99.2515 297.014 99.6344C296.759 99.9991 296.631 100.437 296.631 100.947C296.631 101.513 296.814 102.014 297.178 102.452C297.543 102.871 298.099 103.199 298.847 103.436L302.594 104.612C304.217 105.141 305.429 105.871 306.232 106.801C307.052 107.731 307.463 108.879 307.463 110.247C307.463 111.414 307.162 112.444 306.56 113.338C305.958 114.231 305.129 114.933 304.071 115.444C303.013 115.954 301.783 116.21 300.378 116.21ZM309.964 115.881V95.1761H313.547V103.929L313.055 103.409C313.401 102.515 313.967 101.841 314.751 101.385C315.553 100.911 316.483 100.674 317.541 100.674C318.635 100.674 319.601 100.911 320.44 101.385C321.297 101.859 321.963 102.525 322.437 103.382C322.911 104.22 323.148 105.196 323.148 106.308V115.881H319.565V107.156C319.565 106.5 319.437 105.934 319.182 105.46C318.926 104.986 318.571 104.622 318.115 104.366C317.677 104.093 317.158 103.956 316.556 103.956C315.972 103.956 315.453 104.093 314.997 104.366C314.541 104.622 314.186 104.986 313.93 105.46C313.675 105.934 313.547 106.5 313.547 107.156V115.881H309.964ZM332.906 116.21C331.447 116.21 330.116 115.872 328.913 115.198C327.728 114.523 326.779 113.602 326.068 112.435C325.375 111.268 325.029 109.937 325.029 108.442C325.029 106.946 325.375 105.615 326.068 104.448C326.779 103.281 327.728 102.36 328.913 101.686C330.098 101.011 331.429 100.674 332.906 100.674C334.365 100.674 335.687 101.011 336.872 101.686C338.057 102.36 338.997 103.281 339.689 104.448C340.401 105.597 340.756 106.928 340.756 108.442C340.756 109.937 340.401 111.268 339.689 112.435C338.978 113.602 338.03 114.523 336.845 115.198C335.66 115.872 334.347 116.21 332.906 116.21ZM332.906 112.927C333.708 112.927 334.411 112.736 335.012 112.353C335.632 111.97 336.115 111.441 336.462 110.767C336.827 110.074 337.009 109.299 337.009 108.442C337.009 107.566 336.827 106.801 336.462 106.144C336.115 105.469 335.632 104.941 335.012 104.558C334.411 104.157 333.708 103.956 332.906 103.956C332.086 103.956 331.365 104.157 330.745 104.558C330.125 104.941 329.633 105.469 329.268 106.144C328.922 106.801 328.749 107.566 328.749 108.442C328.749 109.299 328.922 110.074 329.268 110.767C329.633 111.441 330.125 111.97 330.745 112.353C331.365 112.736 332.086 112.927 332.906 112.927ZM342.926 121.352V101.002H346.291V103.956L345.962 103.217C346.473 102.415 347.166 101.795 348.041 101.358C348.916 100.902 349.928 100.674 351.077 100.674C352.481 100.674 353.749 101.02 354.879 101.713C356.01 102.406 356.903 103.336 357.56 104.503C358.234 105.67 358.572 106.983 358.572 108.442C358.572 109.882 358.243 111.195 357.587 112.38C356.93 113.566 356.037 114.505 354.906 115.198C353.776 115.872 352.49 116.21 351.05 116.21C349.974 116.21 348.98 116 348.068 115.58C347.175 115.143 346.464 114.523 345.935 113.721L346.509 113.009V121.352H342.926ZM350.64 112.927C351.46 112.927 352.189 112.736 352.828 112.353C353.466 111.97 353.958 111.441 354.305 110.767C354.669 110.092 354.852 109.317 354.852 108.442C354.852 107.566 354.669 106.801 354.305 106.144C353.958 105.469 353.466 104.941 352.828 104.558C352.189 104.157 351.46 103.956 350.64 103.956C349.855 103.956 349.144 104.147 348.506 104.53C347.886 104.913 347.394 105.451 347.029 106.144C346.683 106.819 346.509 107.585 346.509 108.442C346.509 109.317 346.683 110.092 347.029 110.767C347.394 111.441 347.886 111.97 348.506 112.353C349.144 112.736 349.855 112.927 350.64 112.927ZM360.756 121.352V101.002H364.121V103.956L363.792 103.217C364.303 102.415 364.996 101.795 365.871 101.358C366.746 100.902 367.758 100.674 368.907 100.674C370.311 100.674 371.578 101.02 372.709 101.713C373.84 102.406 374.733 103.336 375.389 104.503C376.064 105.67 376.401 106.983 376.401 108.442C376.401 109.882 376.073 111.195 375.417 112.38C374.76 113.566 373.867 114.505 372.736 115.198C371.606 115.872 370.32 116.21 368.88 116.21C367.804 116.21 366.81 116 365.898 115.58C365.005 115.143 364.294 114.523 363.765 113.721L364.339 113.009V121.352H360.756ZM368.469 112.927C369.29 112.927 370.019 112.736 370.658 112.353C371.296 111.97 371.788 111.441 372.135 110.767C372.499 110.092 372.682 109.317 372.682 108.442C372.682 107.566 372.499 106.801 372.135 106.144C371.788 105.469 371.296 104.941 370.658 104.558C370.019 104.157 369.29 103.956 368.469 103.956C367.685 103.956 366.974 104.147 366.336 104.53C365.716 104.913 365.224 105.451 364.859 106.144C364.513 106.819 364.339 107.585 364.339 108.442C364.339 109.317 364.513 110.092 364.859 110.767C365.224 111.441 365.716 111.97 366.336 112.353C366.974 112.736 367.685 112.927 368.469 112.927ZM385.643 116.21C384.111 116.21 382.771 115.863 381.622 115.17C380.473 114.477 379.58 113.538 378.942 112.353C378.304 111.168 377.984 109.855 377.984 108.414C377.984 106.919 378.304 105.597 378.942 104.448C379.598 103.281 380.483 102.36 381.595 101.686C382.725 101.011 383.984 100.674 385.369 100.674C386.536 100.674 387.558 100.865 388.433 101.248C389.326 101.631 390.083 102.16 390.703 102.835C391.323 103.509 391.797 104.284 392.125 105.159C392.454 106.016 392.618 106.946 392.618 107.949C392.618 108.205 392.599 108.469 392.563 108.743C392.545 109.016 392.499 109.253 392.426 109.454H380.938V106.719H390.402L388.706 108.004C388.87 107.165 388.825 106.418 388.57 105.761C388.333 105.105 387.931 104.585 387.366 104.202C386.819 103.819 386.154 103.628 385.369 103.628C384.622 103.628 383.956 103.819 383.373 104.202C382.789 104.567 382.343 105.114 382.033 105.843C381.741 106.554 381.631 107.421 381.704 108.442C381.631 109.353 381.75 110.165 382.06 110.876C382.388 111.569 382.862 112.107 383.482 112.49C384.12 112.873 384.85 113.064 385.67 113.064C386.491 113.064 387.184 112.891 387.749 112.544C388.333 112.198 388.788 111.733 389.117 111.149L392.016 112.572C391.724 113.283 391.268 113.912 390.648 114.459C390.028 115.006 389.29 115.435 388.433 115.745C387.594 116.055 386.664 116.21 385.643 116.21Z" fill="#171717"/>
<path d="M238.748 148.645V136.418H240.061V141.916H246.625V136.418H247.938V148.645H246.625V143.147H240.061V148.645H238.748ZM249.995 148.645V139.848H251.226V148.645H249.995ZM249.995 138.224V136.418H251.226V138.224H249.995ZM253.089 148.645V139.848H254.319V141.292L254.155 141.079C254.363 140.663 254.675 140.335 255.091 140.094C255.517 139.854 256.032 139.733 256.633 139.733H257.191V140.964H256.42C255.785 140.964 255.277 141.161 254.894 141.555C254.511 141.949 254.319 142.507 254.319 143.229V148.645H253.089ZM261.982 148.841C261.161 148.841 260.417 148.645 259.75 148.251C259.093 147.846 258.574 147.293 258.191 146.593C257.808 145.893 257.616 145.1 257.616 144.214C257.616 143.327 257.802 142.545 258.174 141.867C258.546 141.177 259.049 140.636 259.684 140.242C260.33 139.848 261.052 139.651 261.85 139.651C262.485 139.651 263.048 139.772 263.541 140.012C264.044 140.242 264.471 140.559 264.821 140.964C265.171 141.358 265.439 141.807 265.625 142.31C265.811 142.802 265.904 143.311 265.904 143.836C265.904 143.945 265.898 144.071 265.887 144.214C265.876 144.345 265.86 144.482 265.838 144.624H258.404V143.475H265.133L264.542 143.967C264.64 143.366 264.569 142.83 264.328 142.359C264.099 141.878 263.765 141.5 263.327 141.227C262.89 140.942 262.397 140.8 261.85 140.8C261.303 140.8 260.795 140.942 260.324 141.227C259.865 141.511 259.504 141.911 259.241 142.425C258.978 142.928 258.874 143.53 258.929 144.23C258.874 144.93 258.984 145.543 259.257 146.068C259.542 146.582 259.925 146.982 260.406 147.266C260.898 147.55 261.424 147.693 261.982 147.693C262.627 147.693 263.169 147.54 263.606 147.233C264.044 146.927 264.399 146.544 264.673 146.084L265.723 146.642C265.548 147.036 265.28 147.403 264.919 147.742C264.558 148.07 264.126 148.338 263.623 148.546C263.13 148.743 262.583 148.841 261.982 148.841ZM272.093 148.841C271.535 148.841 271.038 148.738 270.6 148.53C270.162 148.311 269.818 148.015 269.566 147.643C269.314 147.271 269.189 146.845 269.189 146.363C269.189 145.904 269.287 145.488 269.484 145.116C269.681 144.733 269.987 144.41 270.403 144.148C270.819 143.885 271.349 143.699 271.995 143.59L275.441 143.016V144.131L272.29 144.657C271.656 144.766 271.196 144.968 270.912 145.264C270.638 145.559 270.502 145.909 270.502 146.314C270.502 146.708 270.655 147.042 270.961 147.315C271.278 147.589 271.683 147.726 272.175 147.726C272.777 147.726 273.302 147.6 273.751 147.348C274.199 147.085 274.55 146.735 274.801 146.298C275.053 145.86 275.179 145.373 275.179 144.837V142.605C275.179 142.08 274.987 141.653 274.604 141.325C274.221 140.997 273.724 140.833 273.111 140.833C272.575 140.833 272.104 140.97 271.7 141.243C271.295 141.506 270.994 141.85 270.797 142.277L269.681 141.67C269.845 141.298 270.102 140.959 270.452 140.652C270.813 140.346 271.224 140.105 271.683 139.93C272.143 139.744 272.619 139.651 273.111 139.651C273.756 139.651 274.325 139.777 274.818 140.029C275.321 140.28 275.709 140.63 275.983 141.079C276.267 141.517 276.409 142.025 276.409 142.605V148.645H275.179V146.889L275.359 147.069C275.206 147.397 274.965 147.698 274.637 147.972C274.32 148.234 273.942 148.448 273.505 148.612C273.078 148.765 272.608 148.841 272.093 148.841ZM281.489 148.743C280.701 148.743 280.094 148.513 279.667 148.054C279.24 147.594 279.027 146.938 279.027 146.084V141.079H277.402V139.848H277.813C278.185 139.848 278.48 139.728 278.699 139.487C278.918 139.236 279.027 138.924 279.027 138.552V137.813H280.258V139.848H282.194V141.079H280.258V146.084C280.258 146.38 280.302 146.642 280.389 146.872C280.477 147.091 280.624 147.266 280.832 147.397C281.051 147.529 281.341 147.594 281.702 147.594C281.79 147.594 281.894 147.589 282.014 147.578C282.134 147.567 282.238 147.556 282.326 147.545V148.645C282.194 148.677 282.047 148.699 281.883 148.71C281.718 148.732 281.587 148.743 281.489 148.743ZM287.195 148.743C286.407 148.743 285.8 148.513 285.373 148.054C284.946 147.594 284.733 146.938 284.733 146.084V141.079H283.108V139.848H283.519C283.891 139.848 284.186 139.728 284.405 139.487C284.624 139.236 284.733 138.924 284.733 138.552V137.813H285.964V139.848H287.9V141.079H285.964V146.084C285.964 146.38 286.008 146.642 286.095 146.872C286.183 147.091 286.33 147.266 286.538 147.397C286.757 147.529 287.047 147.594 287.408 147.594C287.496 147.594 287.6 147.589 287.72 147.578C287.84 147.567 287.944 147.556 288.032 147.545V148.645C287.9 148.677 287.753 148.699 287.589 148.71C287.425 148.732 287.293 148.743 287.195 148.743ZM293.335 148.841C292.504 148.841 291.749 148.645 291.07 148.251C290.392 147.846 289.851 147.299 289.446 146.61C289.052 145.909 288.855 145.116 288.855 144.23C288.855 143.355 289.052 142.572 289.446 141.883C289.84 141.194 290.37 140.652 291.038 140.258C291.716 139.854 292.482 139.651 293.335 139.651C294.189 139.651 294.949 139.848 295.616 140.242C296.295 140.636 296.825 141.177 297.208 141.867C297.602 142.556 297.799 143.344 297.799 144.23C297.799 145.127 297.597 145.926 297.192 146.626C296.787 147.315 296.245 147.857 295.567 148.251C294.9 148.645 294.156 148.841 293.335 148.841ZM293.335 147.611C293.926 147.611 294.457 147.463 294.927 147.168C295.408 146.872 295.786 146.467 296.059 145.953C296.344 145.439 296.486 144.865 296.486 144.23C296.486 143.595 296.344 143.026 296.059 142.523C295.786 142.02 295.408 141.621 294.927 141.325C294.457 141.03 293.926 140.882 293.335 140.882C292.744 140.882 292.208 141.03 291.727 141.325C291.256 141.621 290.879 142.02 290.595 142.523C290.31 143.026 290.168 143.595 290.168 144.23C290.168 144.865 290.31 145.439 290.595 145.953C290.879 146.467 291.256 146.872 291.727 147.168C292.208 147.463 292.744 147.611 293.335 147.611ZM299.313 148.645V139.848H300.544V141.292L300.38 141.079C300.588 140.663 300.9 140.335 301.315 140.094C301.742 139.854 302.256 139.733 302.858 139.733H303.416V140.964H302.645C302.01 140.964 301.501 141.161 301.119 141.555C300.736 141.949 300.544 142.507 300.544 143.229V148.645H299.313ZM304.202 148.645V139.848H305.433V141.555L305.154 141.489C305.373 140.92 305.728 140.472 306.221 140.144C306.724 139.815 307.304 139.651 307.96 139.651C308.584 139.651 309.142 139.793 309.634 140.078C310.137 140.362 310.531 140.756 310.816 141.26C311.111 141.752 311.259 142.31 311.259 142.933V148.645H310.028V143.409C310.028 142.873 309.929 142.419 309.733 142.047C309.547 141.675 309.279 141.391 308.928 141.194C308.589 140.986 308.195 140.882 307.747 140.882C307.298 140.882 306.899 140.986 306.549 141.194C306.199 141.391 305.925 141.681 305.728 142.064C305.531 142.436 305.433 142.884 305.433 143.409V148.645H304.202ZM316.957 148.841C316.137 148.841 315.393 148.645 314.725 148.251C314.069 147.846 313.549 147.293 313.166 146.593C312.784 145.893 312.592 145.1 312.592 144.214C312.592 143.327 312.778 142.545 313.15 141.867C313.522 141.177 314.025 140.636 314.66 140.242C315.305 139.848 316.027 139.651 316.826 139.651C317.461 139.651 318.024 139.772 318.516 140.012C319.02 140.242 319.446 140.559 319.796 140.964C320.147 141.358 320.415 141.807 320.601 142.31C320.787 142.802 320.88 143.311 320.88 143.836C320.88 143.945 320.874 144.071 320.863 144.214C320.852 144.345 320.836 144.482 320.814 144.624H313.38V143.475H320.108L319.518 143.967C319.616 143.366 319.545 142.83 319.304 142.359C319.074 141.878 318.741 141.5 318.303 141.227C317.865 140.942 317.373 140.8 316.826 140.8C316.279 140.8 315.77 140.942 315.3 141.227C314.84 141.511 314.479 141.911 314.217 142.425C313.954 142.928 313.85 143.53 313.905 144.23C313.85 144.93 313.96 145.543 314.233 146.068C314.518 146.582 314.901 146.982 315.382 147.266C315.874 147.55 316.399 147.693 316.957 147.693C317.603 147.693 318.144 147.54 318.582 147.233C319.02 146.927 319.375 146.544 319.649 146.084L320.699 146.642C320.524 147.036 320.256 147.403 319.895 147.742C319.534 148.07 319.102 148.338 318.598 148.546C318.106 148.743 317.559 148.841 316.957 148.841ZM322.574 152.255C322.399 152.255 322.218 152.239 322.032 152.206C321.857 152.184 321.682 152.14 321.507 152.074V150.926C321.617 150.937 321.753 150.953 321.917 150.975C322.092 151.008 322.267 151.024 322.443 151.024C322.979 151.024 323.389 150.909 323.673 150.68C323.958 150.461 324.237 150.034 324.51 149.399L325.068 148.087L325.035 149.17L321.31 139.848H322.639L325.692 147.545H325.347L328.383 139.848H329.745L325.725 149.76C325.55 150.187 325.325 150.592 325.052 150.975C324.789 151.358 324.456 151.664 324.051 151.894C323.646 152.135 323.154 152.255 322.574 152.255Z" fill="#918EA4"/>
<rect x="179.194" y="178.826" width="66.5138" height="29.0435" rx="14.5217" stroke="#918EA4" stroke-opacity="0.25" stroke-width="1.36759"/>
<path d="M193.148 197.479C192.63 197.479 192.149 197.384 191.704 197.194C191.266 197.005 190.887 196.742 190.566 196.407C190.253 196.064 190.023 195.666 189.877 195.214L191.113 194.678C191.31 195.145 191.595 195.513 191.967 195.783C192.339 196.046 192.758 196.177 193.225 196.177C193.487 196.177 193.713 196.137 193.903 196.057C194.1 195.969 194.25 195.852 194.352 195.707C194.461 195.561 194.516 195.386 194.516 195.181C194.516 194.941 194.443 194.744 194.297 194.591C194.158 194.43 193.947 194.306 193.662 194.219L192.098 193.715C191.463 193.518 190.986 193.223 190.665 192.829C190.344 192.435 190.183 191.972 190.183 191.44C190.183 190.973 190.296 190.561 190.522 190.203C190.756 189.846 191.077 189.569 191.485 189.372C191.901 189.168 192.375 189.066 192.907 189.066C193.396 189.066 193.845 189.153 194.253 189.328C194.662 189.496 195.012 189.733 195.303 190.039C195.603 190.338 195.825 190.692 195.971 191.101L194.745 191.648C194.585 191.239 194.344 190.925 194.023 190.707C193.702 190.481 193.331 190.367 192.907 190.367C192.659 190.367 192.441 190.411 192.251 190.499C192.061 190.579 191.912 190.696 191.802 190.849C191.7 190.995 191.649 191.17 191.649 191.374C191.649 191.6 191.722 191.801 191.868 191.976C192.014 192.144 192.236 192.275 192.535 192.37L194.034 192.84C194.684 193.052 195.169 193.343 195.489 193.715C195.818 194.087 195.982 194.547 195.982 195.094C195.982 195.561 195.861 195.973 195.621 196.33C195.38 196.688 195.048 196.968 194.625 197.173C194.202 197.377 193.71 197.479 193.148 197.479ZM200.024 197.479C199.411 197.479 198.875 197.34 198.416 197.063C197.956 196.786 197.599 196.41 197.343 195.936C197.088 195.462 196.961 194.937 196.961 194.361C196.961 193.763 197.088 193.234 197.343 192.774C197.606 192.308 197.96 191.939 198.405 191.669C198.857 191.4 199.36 191.265 199.915 191.265C200.381 191.265 200.79 191.341 201.14 191.494C201.497 191.648 201.8 191.859 202.048 192.129C202.296 192.399 202.486 192.709 202.617 193.059C202.748 193.402 202.814 193.774 202.814 194.175C202.814 194.277 202.807 194.383 202.792 194.492C202.785 194.602 202.766 194.696 202.737 194.777H198.142V193.683H201.928L201.249 194.197C201.315 193.861 201.297 193.562 201.195 193.3C201.1 193.037 200.939 192.829 200.713 192.676C200.494 192.523 200.228 192.446 199.915 192.446C199.616 192.446 199.349 192.523 199.116 192.676C198.882 192.822 198.704 193.041 198.58 193.332C198.463 193.617 198.419 193.963 198.449 194.372C198.419 194.736 198.467 195.061 198.591 195.346C198.722 195.623 198.912 195.838 199.16 195.991C199.415 196.144 199.707 196.221 200.035 196.221C200.363 196.221 200.64 196.151 200.866 196.013C201.1 195.874 201.282 195.688 201.413 195.455L202.573 196.024C202.456 196.308 202.274 196.56 202.026 196.779C201.778 196.998 201.483 197.169 201.14 197.293C200.804 197.417 200.432 197.479 200.024 197.479ZM203.9 197.348V191.396H205.246V192.72L205.137 192.523C205.275 192.078 205.49 191.768 205.782 191.593C206.081 191.418 206.439 191.33 206.854 191.33H207.204V192.599H206.69C206.282 192.599 205.954 192.727 205.706 192.982C205.458 193.23 205.334 193.58 205.334 194.033V197.348H203.9ZM209.787 197.348L207.445 191.396H209.01L210.706 196.079H210.126L211.833 191.396H213.397L211.056 197.348H209.787ZM214.189 197.348V191.396H215.623V197.348H214.189ZM214.189 190.729V189.197H215.623V190.729H214.189ZM219.812 197.479C219.221 197.479 218.689 197.344 218.215 197.074C217.748 196.797 217.38 196.425 217.11 195.958C216.84 195.484 216.705 194.952 216.705 194.361C216.705 193.77 216.84 193.241 217.11 192.774C217.38 192.308 217.748 191.939 218.215 191.669C218.689 191.4 219.221 191.265 219.812 191.265C220.235 191.265 220.629 191.341 220.994 191.494C221.359 191.64 221.672 191.844 221.935 192.107C222.205 192.362 222.398 192.669 222.515 193.026L221.256 193.573C221.147 193.274 220.961 193.033 220.698 192.851C220.443 192.669 220.148 192.578 219.812 192.578C219.499 192.578 219.218 192.654 218.97 192.807C218.729 192.96 218.54 193.172 218.401 193.442C218.262 193.712 218.193 194.022 218.193 194.372C218.193 194.722 218.262 195.032 218.401 195.302C218.54 195.572 218.729 195.783 218.97 195.936C219.218 196.089 219.499 196.166 219.812 196.166C220.155 196.166 220.454 196.075 220.709 195.893C220.965 195.71 221.147 195.466 221.256 195.16L222.515 195.728C222.398 196.064 222.208 196.367 221.946 196.637C221.683 196.899 221.37 197.107 221.005 197.26C220.64 197.406 220.243 197.479 219.812 197.479ZM226.425 197.479C225.812 197.479 225.276 197.34 224.817 197.063C224.357 196.786 224 196.41 223.744 195.936C223.489 195.462 223.361 194.937 223.361 194.361C223.361 193.763 223.489 193.234 223.744 192.774C224.007 192.308 224.361 191.939 224.806 191.669C225.258 191.4 225.761 191.265 226.315 191.265C226.782 191.265 227.191 191.341 227.541 191.494C227.898 191.648 228.201 191.859 228.449 192.129C228.697 192.399 228.887 192.709 229.018 193.059C229.149 193.402 229.215 193.774 229.215 194.175C229.215 194.277 229.207 194.383 229.193 194.492C229.186 194.602 229.167 194.696 229.138 194.777H224.543V193.683H228.329L227.65 194.197C227.716 193.861 227.698 193.562 227.595 193.3C227.501 193.037 227.34 192.829 227.114 192.676C226.895 192.523 226.629 192.446 226.315 192.446C226.016 192.446 225.75 192.523 225.517 192.676C225.283 192.822 225.105 193.041 224.981 193.332C224.864 193.617 224.82 193.963 224.849 194.372C224.82 194.736 224.868 195.061 224.992 195.346C225.123 195.623 225.313 195.838 225.561 195.991C225.816 196.144 226.108 196.221 226.436 196.221C226.764 196.221 227.041 196.151 227.267 196.013C227.501 195.874 227.683 195.688 227.814 195.455L228.974 196.024C228.857 196.308 228.675 196.56 228.427 196.779C228.179 196.998 227.884 197.169 227.541 197.293C227.205 197.417 226.833 197.479 226.425 197.479ZM232.566 197.479C231.931 197.479 231.377 197.329 230.903 197.03C230.436 196.724 230.115 196.312 229.94 195.794L231.012 195.28C231.165 195.615 231.377 195.878 231.647 196.068C231.924 196.257 232.23 196.352 232.566 196.352C232.828 196.352 233.036 196.294 233.19 196.177C233.343 196.06 233.419 195.907 233.419 195.717C233.419 195.601 233.386 195.506 233.321 195.433C233.262 195.353 233.179 195.287 233.069 195.236C232.967 195.178 232.854 195.13 232.73 195.094L231.756 194.82C231.253 194.674 230.87 194.452 230.608 194.153C230.352 193.854 230.225 193.5 230.225 193.092C230.225 192.727 230.316 192.41 230.498 192.14C230.688 191.863 230.947 191.648 231.275 191.494C231.61 191.341 231.993 191.265 232.424 191.265C232.985 191.265 233.481 191.4 233.912 191.669C234.342 191.939 234.648 192.319 234.831 192.807L233.737 193.321C233.634 193.052 233.463 192.836 233.222 192.676C232.982 192.516 232.712 192.435 232.413 192.435C232.172 192.435 231.982 192.49 231.844 192.599C231.705 192.709 231.636 192.851 231.636 193.026C231.636 193.135 231.665 193.23 231.723 193.311C231.782 193.391 231.862 193.456 231.964 193.507C232.074 193.559 232.198 193.606 232.336 193.65L233.288 193.934C233.777 194.08 234.152 194.299 234.415 194.591C234.685 194.882 234.82 195.24 234.82 195.663C234.82 196.02 234.725 196.337 234.535 196.615C234.346 196.884 234.083 197.096 233.748 197.249C233.412 197.402 233.018 197.479 232.566 197.479Z" fill="#171717"/>
<rect x="252.611" y="178.892" width="73.3814" height="28.9111" rx="14.4555" stroke="#6E00FF" stroke-width="1.5"/>
<path d="M262.922 197.348L265.734 189.197H267.659L270.471 197.348H268.852L268.272 195.597H265.121L264.53 197.348H262.922ZM265.548 194.284H267.845L266.489 190.225H266.905L265.548 194.284ZM273.64 197.413C272.969 197.413 272.448 197.231 272.076 196.866C271.711 196.494 271.529 195.973 271.529 195.302V192.676H270.5V191.396H270.609C270.901 191.396 271.127 191.319 271.288 191.166C271.448 191.013 271.529 190.791 271.529 190.499V190.039H272.962V191.396H274.329V192.676H272.962V195.225C272.962 195.422 272.995 195.59 273.06 195.728C273.133 195.867 273.243 195.973 273.388 196.046C273.542 196.119 273.735 196.155 273.968 196.155C274.019 196.155 274.078 196.151 274.143 196.144C274.216 196.137 274.286 196.13 274.351 196.122V197.348C274.249 197.362 274.132 197.377 274.001 197.391C273.87 197.406 273.749 197.413 273.64 197.413ZM278.16 197.413C277.488 197.413 276.967 197.231 276.595 196.866C276.23 196.494 276.048 195.973 276.048 195.302V192.676H275.02V191.396H275.129C275.421 191.396 275.647 191.319 275.807 191.166C275.968 191.013 276.048 190.791 276.048 190.499V190.039H277.481V191.396H278.849V192.676H277.481V195.225C277.481 195.422 277.514 195.59 277.58 195.728C277.653 195.867 277.762 195.973 277.908 196.046C278.061 196.119 278.254 196.155 278.488 196.155C278.539 196.155 278.597 196.151 278.663 196.144C278.736 196.137 278.805 196.13 278.871 196.122V197.348C278.769 197.362 278.652 197.377 278.521 197.391C278.389 197.406 278.269 197.413 278.16 197.413ZM282.822 197.479C282.239 197.479 281.707 197.344 281.225 197.074C280.751 196.804 280.372 196.436 280.087 195.969C279.81 195.502 279.672 194.97 279.672 194.372C279.672 193.774 279.81 193.241 280.087 192.774C280.372 192.308 280.751 191.939 281.225 191.669C281.699 191.4 282.232 191.265 282.822 191.265C283.406 191.265 283.935 191.4 284.409 191.669C284.883 191.939 285.259 192.308 285.536 192.774C285.82 193.234 285.962 193.766 285.962 194.372C285.962 194.97 285.82 195.502 285.536 195.969C285.251 196.436 284.872 196.804 284.398 197.074C283.924 197.344 283.399 197.479 282.822 197.479ZM282.822 196.166C283.143 196.166 283.424 196.089 283.665 195.936C283.913 195.783 284.106 195.572 284.245 195.302C284.391 195.025 284.464 194.715 284.464 194.372C284.464 194.022 284.391 193.715 284.245 193.453C284.106 193.183 283.913 192.971 283.665 192.818C283.424 192.658 283.143 192.578 282.822 192.578C282.494 192.578 282.206 192.658 281.958 192.818C281.71 192.971 281.513 193.183 281.367 193.453C281.229 193.715 281.16 194.022 281.16 194.372C281.16 194.715 281.229 195.025 281.367 195.302C281.513 195.572 281.71 195.783 281.958 195.936C282.206 196.089 282.494 196.166 282.822 196.166ZM287.049 197.348V191.396H288.395V192.72L288.286 192.523C288.424 192.078 288.639 191.768 288.931 191.593C289.23 191.418 289.588 191.33 290.003 191.33H290.353V192.599H289.839C289.431 192.599 289.103 192.727 288.855 192.982C288.607 193.23 288.483 193.58 288.483 194.033V197.348H287.049ZM291.141 197.348V191.396H292.487V192.567L292.378 192.359C292.516 192.001 292.742 191.731 293.056 191.549C293.377 191.359 293.749 191.265 294.172 191.265C294.61 191.265 294.996 191.359 295.332 191.549C295.675 191.739 295.941 192.005 296.13 192.348C296.32 192.683 296.415 193.073 296.415 193.518V197.348H294.982V193.858C294.982 193.595 294.931 193.369 294.828 193.179C294.726 192.99 294.584 192.844 294.402 192.742C294.227 192.632 294.019 192.578 293.778 192.578C293.545 192.578 293.337 192.632 293.155 192.742C292.972 192.844 292.83 192.99 292.728 193.179C292.626 193.369 292.575 193.595 292.575 193.858V197.348H291.141ZM300.45 197.479C299.837 197.479 299.301 197.34 298.841 197.063C298.382 196.786 298.024 196.41 297.769 195.936C297.514 195.462 297.386 194.937 297.386 194.361C297.386 193.763 297.514 193.234 297.769 192.774C298.032 192.308 298.385 191.939 298.83 191.669C299.283 191.4 299.786 191.265 300.34 191.265C300.807 191.265 301.215 191.341 301.565 191.494C301.923 191.648 302.226 191.859 302.474 192.129C302.722 192.399 302.911 192.709 303.042 193.059C303.174 193.402 303.239 193.774 303.239 194.175C303.239 194.277 303.232 194.383 303.218 194.492C303.21 194.602 303.192 194.696 303.163 194.777H298.568V193.683H302.353L301.675 194.197C301.741 193.861 301.722 193.562 301.62 193.3C301.525 193.037 301.365 192.829 301.139 192.676C300.92 192.523 300.654 192.446 300.34 192.446C300.041 192.446 299.775 192.523 299.541 192.676C299.308 192.822 299.129 193.041 299.005 193.332C298.889 193.617 298.845 193.963 298.874 194.372C298.845 194.736 298.892 195.061 299.016 195.346C299.148 195.623 299.337 195.838 299.585 195.991C299.84 196.144 300.132 196.221 300.46 196.221C300.789 196.221 301.066 196.151 301.292 196.013C301.525 195.874 301.708 195.688 301.839 195.455L302.999 196.024C302.882 196.308 302.7 196.56 302.452 196.779C302.204 196.998 301.908 197.169 301.565 197.293C301.23 197.417 300.858 197.479 300.45 197.479ZM305.048 199.766C304.887 199.766 304.731 199.751 304.577 199.722C304.424 199.7 304.286 199.66 304.162 199.601V198.398C304.257 198.42 304.37 198.442 304.501 198.464C304.639 198.485 304.767 198.496 304.884 198.496C305.212 198.496 305.449 198.42 305.595 198.267C305.748 198.114 305.883 197.913 306 197.665L306.394 196.746L306.372 197.949L303.779 191.396H305.321L307.138 196.232H306.591L308.396 191.396H309.949L307.356 197.949C307.203 198.336 307.017 198.664 306.798 198.934C306.58 199.204 306.324 199.408 306.033 199.547C305.748 199.693 305.42 199.766 305.048 199.766ZM313.001 197.479C312.367 197.479 311.812 197.329 311.338 197.03C310.871 196.724 310.55 196.312 310.375 195.794L311.448 195.28C311.601 195.615 311.812 195.878 312.082 196.068C312.359 196.257 312.666 196.352 313.001 196.352C313.264 196.352 313.472 196.294 313.625 196.177C313.778 196.06 313.855 195.907 313.855 195.717C313.855 195.601 313.822 195.506 313.756 195.433C313.698 195.353 313.614 195.287 313.504 195.236C313.402 195.178 313.289 195.13 313.165 195.094L312.192 194.82C311.688 194.674 311.305 194.452 311.043 194.153C310.787 193.854 310.66 193.5 310.66 193.092C310.66 192.727 310.751 192.41 310.933 192.14C311.123 191.863 311.382 191.648 311.71 191.494C312.046 191.341 312.429 191.265 312.859 191.265C313.421 191.265 313.917 191.4 314.347 191.669C314.777 191.939 315.084 192.319 315.266 192.807L314.172 193.321C314.07 193.052 313.898 192.836 313.658 192.676C313.417 192.516 313.147 192.435 312.848 192.435C312.607 192.435 312.418 192.49 312.279 192.599C312.14 192.709 312.071 192.851 312.071 193.026C312.071 193.135 312.1 193.23 312.159 193.311C312.217 193.391 312.297 193.456 312.399 193.507C312.509 193.559 312.633 193.606 312.771 193.65L313.723 193.934C314.212 194.08 314.588 194.299 314.85 194.591C315.12 194.882 315.255 195.24 315.255 195.663C315.255 196.02 315.16 196.337 314.97 196.615C314.781 196.884 314.518 197.096 314.183 197.249C313.847 197.402 313.453 197.479 313.001 197.479Z" fill="#171717"/>
<rect x="332.897" y="178.826" width="55.5138" height="29.0435" rx="14.5217" stroke="#918EA4" stroke-opacity="0.25" stroke-width="1.36759"/>
<path d="M347.956 197.479C347.358 197.479 346.8 197.373 346.282 197.162C345.765 196.95 345.312 196.655 344.926 196.275C344.539 195.896 344.236 195.451 344.018 194.941C343.806 194.423 343.7 193.865 343.7 193.267C343.7 192.661 343.806 192.103 344.018 191.593C344.229 191.082 344.528 190.637 344.915 190.258C345.301 189.879 345.754 189.587 346.271 189.383C346.789 189.171 347.351 189.066 347.956 189.066C348.562 189.066 349.123 189.171 349.641 189.383C350.159 189.594 350.611 189.89 350.998 190.269C351.384 190.641 351.683 191.082 351.895 191.593C352.114 192.103 352.223 192.661 352.223 193.267C352.223 193.865 352.114 194.423 351.895 194.941C351.676 195.451 351.373 195.896 350.987 196.275C350.6 196.655 350.148 196.95 349.63 197.162C349.12 197.373 348.562 197.479 347.956 197.479ZM347.956 196.122C348.357 196.122 348.726 196.053 349.061 195.914C349.397 195.769 349.689 195.568 349.937 195.313C350.192 195.057 350.385 194.755 350.516 194.405C350.655 194.055 350.724 193.675 350.724 193.267C350.724 192.858 350.655 192.483 350.516 192.14C350.385 191.79 350.192 191.487 349.937 191.232C349.689 190.969 349.397 190.769 349.061 190.63C348.726 190.491 348.357 190.422 347.956 190.422C347.562 190.422 347.198 190.491 346.862 190.63C346.527 190.769 346.231 190.969 345.976 191.232C345.728 191.487 345.535 191.79 345.396 192.14C345.258 192.483 345.188 192.858 345.188 193.267C345.188 193.675 345.258 194.055 345.396 194.405C345.535 194.755 345.728 195.057 345.976 195.313C346.231 195.568 346.527 195.769 346.862 195.914C347.198 196.053 347.562 196.122 347.956 196.122ZM354.115 197.348V192.676H353.065V191.396H354.115V191.199C354.115 190.747 354.206 190.364 354.389 190.05C354.578 189.729 354.841 189.485 355.176 189.317C355.512 189.149 355.909 189.066 356.369 189.066C356.456 189.066 356.551 189.073 356.653 189.087C356.763 189.095 356.854 189.106 356.927 189.12V190.357C356.854 190.342 356.785 190.335 356.719 190.335C356.661 190.327 356.606 190.324 356.555 190.324C356.234 190.324 355.986 190.397 355.811 190.543C355.636 190.681 355.548 190.9 355.548 191.199V191.396H358.152V192.676H355.548V197.348H354.115ZM358.448 197.348V192.676H357.397V191.396H358.448V191.199C358.448 190.747 358.539 190.364 358.721 190.05C358.904 189.729 359.162 189.485 359.498 189.317C359.841 189.149 360.242 189.066 360.701 189.066C360.789 189.066 360.884 189.073 360.986 189.087C361.095 189.095 361.183 189.106 361.248 189.12V190.357C361.183 190.342 361.117 190.335 361.052 190.335C360.993 190.327 360.938 190.324 360.887 190.324C360.567 190.324 360.319 190.397 360.143 190.543C359.968 190.681 359.881 190.9 359.881 191.199V191.396H361.194V192.676H359.881V197.348H358.448ZM364.849 197.479C364.237 197.479 363.701 197.34 363.241 197.063C362.782 196.786 362.424 196.41 362.169 195.936C361.914 195.462 361.786 194.937 361.786 194.361C361.786 193.763 361.914 193.234 362.169 192.774C362.432 192.308 362.785 191.939 363.23 191.669C363.682 191.4 364.186 191.265 364.74 191.265C365.207 191.265 365.615 191.341 365.965 191.494C366.323 191.648 366.625 191.859 366.873 192.129C367.121 192.399 367.311 192.709 367.442 193.059C367.574 193.402 367.639 193.774 367.639 194.175C367.639 194.277 367.632 194.383 367.617 194.492C367.61 194.602 367.592 194.696 367.563 194.777H362.968V193.683H366.753L366.075 194.197C366.14 193.861 366.122 193.562 366.02 193.3C365.925 193.037 365.765 192.829 365.539 192.676C365.32 192.523 365.054 192.446 364.74 192.446C364.441 192.446 364.175 192.523 363.941 192.676C363.708 192.822 363.529 193.041 363.405 193.332C363.289 193.617 363.245 193.963 363.274 194.372C363.245 194.736 363.292 195.061 363.416 195.346C363.547 195.623 363.737 195.838 363.985 195.991C364.24 196.144 364.532 196.221 364.86 196.221C365.189 196.221 365.466 196.151 365.692 196.013C365.925 195.874 366.108 195.688 366.239 195.455L367.399 196.024C367.282 196.308 367.1 196.56 366.852 196.779C366.604 196.998 366.308 197.169 365.965 197.293C365.63 197.417 365.258 197.479 364.849 197.479ZM368.726 197.348V191.396H370.071V192.72L369.962 192.523C370.101 192.078 370.316 191.768 370.608 191.593C370.907 191.418 371.264 191.33 371.68 191.33H372.03V192.599H371.516C371.107 192.599 370.779 192.727 370.531 192.982C370.283 193.23 370.159 193.58 370.159 194.033V197.348H368.726ZM375.083 197.479C374.448 197.479 373.894 197.329 373.42 197.03C372.953 196.724 372.632 196.312 372.457 195.794L373.529 195.28C373.682 195.615 373.894 195.878 374.164 196.068C374.441 196.257 374.747 196.352 375.083 196.352C375.345 196.352 375.553 196.294 375.706 196.177C375.859 196.06 375.936 195.907 375.936 195.717C375.936 195.601 375.903 195.506 375.837 195.433C375.779 195.353 375.695 195.287 375.586 195.236C375.484 195.178 375.371 195.13 375.247 195.094L374.273 194.82C373.77 194.674 373.387 194.452 373.124 194.153C372.869 193.854 372.741 193.5 372.741 193.092C372.741 192.727 372.832 192.41 373.015 192.14C373.204 191.863 373.463 191.648 373.792 191.494C374.127 191.341 374.51 191.265 374.94 191.265C375.502 191.265 375.998 191.4 376.428 191.669C376.859 191.939 377.165 192.319 377.347 192.807L376.253 193.321C376.151 193.052 375.98 192.836 375.739 192.676C375.498 192.516 375.228 192.435 374.929 192.435C374.689 192.435 374.499 192.49 374.36 192.599C374.222 192.709 374.153 192.851 374.153 193.026C374.153 193.135 374.182 193.23 374.24 193.311C374.299 193.391 374.379 193.456 374.481 193.507C374.59 193.559 374.714 193.606 374.853 193.65L375.805 193.934C376.293 194.08 376.669 194.299 376.932 194.591C377.201 194.882 377.336 195.24 377.336 195.663C377.336 196.02 377.242 196.337 377.052 196.615C376.862 196.884 376.6 197.096 376.264 197.249C375.929 197.402 375.535 197.479 375.083 197.479Z" fill="#171717"/>
<path d="M182.601 334.047L385.004 334.047" stroke="#918EA4" stroke-opacity="0.25" stroke-width="1.36759"/>
<rect x="205.849" y="262.933" width="160.008" height="16.4111" rx="8.20553" fill="#F8F2FF"/>
<rect x="234.568" y="290.284" width="101.202" height="16.4111" rx="8.20553" fill="#F8F2FF"/>
<rect x="193.542" y="235.581" width="180.522" height="16.4111" rx="8.20553" fill="#F0E5FF"/>
</g>
<defs>
<filter id="filter0_d_932_1701" x="0.711475" y="0.35574" width="500.537" height="542.933" filterUnits="userSpaceOnUse" color-interpolation-filters="sRGB">
<feFlood flood-opacity="0" result="BackgroundImageFix"/>
<feColorMatrix in="SourceAlpha" type="matrix" values="0 0 0 0 0 0 0 0 0 0 0 0 0 0 0 0 0 0 127 0" result="hardAlpha"/>
<feOffset dx="-32.8221" dy="32.8221"/>
<feGaussianBlur stdDeviation="49.2332"/>
<feComposite in2="hardAlpha" operator="out"/>
<feColorMatrix type="matrix" values="0 0 0 0 0 0 0 0 0 0 0 0 0 0 0 0 0 0 0.08 0"/>
<feBlend mode="normal" in2="BackgroundImageFix" result="effect1_dropShadow_932_1701"/>
<feBlend mode="normal" in="SourceGraphic" in2="effect1_dropShadow_932_1701" result="shape"/>
</filter>
</defs>
</svg>
