<svg width="484" height="463" viewBox="0 0 484 463" fill="none" xmlns="http://www.w3.org/2000/svg">
<g opacity="0.6">
<line x1="176.762" y1="120.126" x2="180.447" y2="110.002" stroke="#A866FF" strokeWidth="1.73"/>
<line x1="199.793" y1="119.653" x2="205.18" y2="110.323" stroke="#A866FF" strokeWidth="1.73"/>
<line x1="222.967" y1="119.194" x2="229.893" y2="110.94" stroke="#A866FF" strokeWidth="1.73"/>
<line x1="246.318" y1="118.415" x2="254.571" y2="111.49" stroke="#A866FF" strokeWidth="1.73"/>
<line x1="16.278" y1="119.741" x2="8.02447" y2="112.815" stroke="#A866FF" strokeWidth="1.73"/>
<line x1="39.4184" y1="120.306" x2="32.4929" y2="112.053" stroke="#A866FF" strokeWidth="1.73"/>
<line x1="62.4198" y1="120.518" x2="57.0327" y2="111.188" stroke="#A866FF" strokeWidth="1.73"/>
<line x1="85.3224" y1="120.718" x2="81.6374" y2="110.593" stroke="#A866FF" strokeWidth="1.73"/>
<line x1="108.166" y1="120.912" x2="106.295" y2="110.301" stroke="#A866FF" strokeWidth="1.73"/>
<line x1="130.99" y1="120.762" x2="130.99" y2="109.988" stroke="#A866FF" strokeWidth="1.73"/>
<line x1="153.842" y1="120.612" x2="155.712" y2="110.001" stroke="#A866FF" strokeWidth="1.73"/>
<line x1="152.522" y1="138.981" x2="156.207" y2="128.857" stroke="#A866FF" strokeWidth="1.73"/>
<line x1="175.549" y1="138.509" x2="180.936" y2="129.178" stroke="#A866FF" strokeWidth="1.73"/>
<line x1="198.724" y1="138.049" x2="205.649" y2="129.796" stroke="#A866FF" strokeWidth="1.73"/>
<line x1="222.077" y1="137.271" x2="230.331" y2="130.345" stroke="#A866FF" strokeWidth="1.73"/>
<line x1="245.633" y1="136.173" x2="254.964" y2="130.786" stroke="#A866FF" strokeWidth="1.73"/>
<line x1="15.1782" y1="139.161" x2="8.25268" y2="130.908" stroke="#A866FF" strokeWidth="1.73"/>
<line x1="38.1796" y1="139.374" x2="32.7925" y2="130.043" stroke="#A866FF" strokeWidth="1.73"/>
<line x1="61.0788" y1="139.573" x2="57.3938" y2="129.449" stroke="#A866FF" strokeWidth="1.73"/>
<line x1="83.9221" y1="139.767" x2="82.0511" y2="129.157" stroke="#A866FF" strokeWidth="1.73"/>
<line x1="106.747" y1="139.617" x2="106.747" y2="128.843" stroke="#A866FF" strokeWidth="1.73"/>
<line x1="129.601" y1="139.467" x2="131.472" y2="128.856" stroke="#A866FF" strokeWidth="1.73"/>
<line x1="128.278" y1="157.837" x2="131.963" y2="147.713" stroke="#A866FF" strokeWidth="1.73"/>
<line x1="151.309" y1="157.364" x2="156.696" y2="148.034" stroke="#A866FF" strokeWidth="1.73"/>
<line x1="174.483" y1="156.905" x2="181.409" y2="148.651" stroke="#A866FF" strokeWidth="1.73"/>
<line x1="197.837" y1="156.126" x2="206.091" y2="149.201" stroke="#A866FF" strokeWidth="1.73"/>
<line x1="221.393" y1="155.028" x2="230.724" y2="149.641" stroke="#A866FF" strokeWidth="1.73"/>
<line x1="245.175" y1="154.293" x2="255.3" y2="150.608" stroke="#A866FF" strokeWidth="1.73"/>
<line x1="13.9359" y1="158.229" x2="8.54886" y2="148.899" stroke="#A866FF" strokeWidth="1.73"/>
<line x1="36.8385" y1="158.429" x2="33.1535" y2="148.304" stroke="#A866FF" strokeWidth="1.73"/>
<line x1="59.6818" y1="158.619" x2="57.8109" y2="148.008" stroke="#A866FF" strokeWidth="1.73"/>
<line x1="82.5066" y1="158.469" x2="82.5066" y2="147.695" stroke="#A866FF" strokeWidth="1.73"/>
<line x1="105.358" y1="158.319" x2="107.229" y2="147.708" stroke="#A866FF" strokeWidth="1.73"/>
<line x1="104.038" y1="176.692" x2="107.723" y2="166.568" stroke="#A866FF" strokeWidth="1.73"/>
<line x1="127.065" y1="176.22" x2="132.452" y2="166.889" stroke="#A866FF" strokeWidth="1.73"/>
<line x1="150.24" y1="175.756" x2="157.165" y2="167.503" stroke="#A866FF" strokeWidth="1.73"/>
<line x1="173.593" y1="174.978" x2="181.847" y2="168.052" stroke="#A866FF" strokeWidth="1.73"/>
<line x1="197.153" y1="173.884" x2="206.484" y2="168.497" stroke="#A866FF" strokeWidth="1.73"/>
<line x1="220.935" y1="173.144" x2="231.06" y2="169.459" stroke="#A866FF" strokeWidth="1.73"/>
<line x1="244.959" y1="172.097" x2="255.57" y2="170.226" stroke="#A866FF" strokeWidth="1.73"/>
<line x1="12.5949" y1="177.284" x2="8.90989" y2="167.16" stroke="#A866FF" strokeWidth="1.73"/>
<line x1="35.4382" y1="177.474" x2="33.5673" y2="166.864" stroke="#A866FF" strokeWidth="1.73"/>
<line x1="58.2629" y1="177.324" x2="58.2629" y2="166.55" stroke="#A866FF" strokeWidth="1.73"/>
<line x1="81.1174" y1="177.174" x2="82.9883" y2="166.564" stroke="#A866FF" strokeWidth="1.73"/>
<line x1="79.7946" y1="195.548" x2="83.4796" y2="185.423" stroke="#A866FF" strokeWidth="1.73"/>
<line x1="102.825" y1="195.075" x2="108.212" y2="185.745" stroke="#A866FF" strokeWidth="1.73"/>
<line x1="125.999" y1="194.616" x2="132.925" y2="186.362" stroke="#A866FF" strokeWidth="1.73"/>
<line x1="149.353" y1="193.833" x2="157.606" y2="186.908" stroke="#A866FF" strokeWidth="1.73"/>
<line x1="172.909" y1="192.735" x2="182.24" y2="187.348" stroke="#A866FF" strokeWidth="1.73"/>
<line x1="196.691" y1="192" x2="206.816" y2="188.315" stroke="#A866FF" strokeWidth="1.73"/>
<line x1="220.716" y1="190.953" x2="231.326" y2="189.082" stroke="#A866FF" strokeWidth="1.73"/>
<line x1="11.1975" y1="196.33" x2="9.32654" y2="185.719" stroke="#A866FF" strokeWidth="1.73"/>
<line x1="34.0227" y1="196.18" x2="34.0227" y2="185.406" stroke="#A866FF" strokeWidth="1.73"/>
<line x1="56.8737" y1="196.029" x2="58.7446" y2="185.419" stroke="#A866FF" strokeWidth="1.73"/>
<line x1="258.453" y1="191.658" x2="247.679" y2="191.658" stroke="#A866FF" strokeWidth="1.73"/>
<line x1="55.5544" y1="214.403" x2="59.2393" y2="204.279" stroke="#A866FF" strokeWidth="1.73"/>
<line x1="78.581" y1="213.927" x2="83.9681" y2="204.596" stroke="#A866FF" strokeWidth="1.73"/>
<line x1="101.756" y1="213.471" x2="108.681" y2="205.218" stroke="#A866FF" strokeWidth="1.73"/>
<line x1="125.109" y1="212.689" x2="133.363" y2="205.763" stroke="#A866FF" strokeWidth="1.73"/>
<line x1="148.669" y1="211.591" x2="158" y2="206.204" stroke="#A866FF" strokeWidth="1.73"/>
<line x1="172.451" y1="210.855" x2="182.576" y2="207.17" stroke="#A866FF" strokeWidth="1.73"/>
<line x1="196.475" y1="209.804" x2="207.086" y2="207.933" stroke="#A866FF" strokeWidth="1.73"/>
<line x1="9.77904" y1="215.031" x2="9.77904" y2="204.257" stroke="#A866FF" strokeWidth="1.73"/>
<line x1="32.6335" y1="214.881" x2="34.5044" y2="204.271" stroke="#A866FF" strokeWidth="1.73"/>
<line x1="234.209" y1="210.513" x2="223.435" y2="210.513" stroke="#A866FF" strokeWidth="1.73"/>
<line x1="258.181" y1="211.508" x2="247.57" y2="209.637" stroke="#A866FF" strokeWidth="1.73"/>
<line x1="31.3107" y1="233.255" x2="34.9957" y2="223.131" stroke="#A866FF" strokeWidth="1.73"/>
<line x1="54.3407" y1="232.782" x2="59.7278" y2="223.452" stroke="#A866FF" strokeWidth="1.73"/>
<line x1="77.5156" y1="232.323" x2="84.4411" y2="224.069" stroke="#A866FF" strokeWidth="1.73"/>
<line x1="100.869" y1="231.54" x2="109.122" y2="224.615" stroke="#A866FF" strokeWidth="1.73"/>
<line x1="124.425" y1="230.45" x2="133.756" y2="225.063" stroke="#A866FF" strokeWidth="1.73"/>
<line x1="148.208" y1="229.711" x2="158.332" y2="226.026" stroke="#A866FF" strokeWidth="1.73"/>
<line x1="172.232" y1="228.66" x2="182.842" y2="226.789" stroke="#A866FF" strokeWidth="1.73"/>
<line x1="8.38984" y1="233.74" x2="10.2608" y2="223.13" stroke="#A866FF" strokeWidth="1.73"/>
<line x1="209.969" y1="229.365" x2="199.195" y2="229.365" stroke="#A866FF" strokeWidth="1.73"/>
<line x1="233.937" y1="230.364" x2="223.327" y2="228.493" stroke="#A866FF" strokeWidth="1.73"/>
<line x1="257.67" y1="231.336" x2="247.546" y2="227.651" stroke="#A866FF" strokeWidth="1.73"/>
<line x1="7.07047" y1="252.11" x2="10.7555" y2="241.986" stroke="#A866FF" strokeWidth="1.73"/>
<line x1="30.0971" y1="251.642" x2="35.4842" y2="242.311" stroke="#A866FF" strokeWidth="1.73"/>
<line x1="53.2719" y1="251.178" x2="60.1974" y2="242.925" stroke="#A866FF" strokeWidth="1.73"/>
<line x1="76.6251" y1="250.396" x2="84.8786" y2="243.47" stroke="#A866FF" strokeWidth="1.73"/>
<line x1="100.185" y1="249.302" x2="109.515" y2="243.915" stroke="#A866FF" strokeWidth="1.73"/>
<line x1="123.967" y1="248.562" x2="134.092" y2="244.877" stroke="#A866FF" strokeWidth="1.73"/>
<line x1="147.991" y1="247.519" x2="158.602" y2="245.648" stroke="#A866FF" strokeWidth="1.73"/>
<line x1="256.939" y1="250.8" x2="247.608" y2="245.413" stroke="#A866FF" strokeWidth="1.73"/>
<line x1="185.729" y1="248.22" x2="174.954" y2="248.22" stroke="#A866FF" strokeWidth="1.73"/>
<line x1="209.697" y1="249.223" x2="199.086" y2="247.352" stroke="#A866FF" strokeWidth="1.73"/>
<line x1="233.427" y1="250.188" x2="223.302" y2="246.503" stroke="#A866FF" strokeWidth="1.73"/>
<line x1="5.85685" y1="270.493" x2="11.2439" y2="261.163" stroke="#A866FF" strokeWidth="1.73"/>
<line x1="29.0317" y1="270.034" x2="35.9572" y2="261.78" stroke="#A866FF" strokeWidth="1.73"/>
<line x1="52.3849" y1="269.255" x2="60.6384" y2="262.33" stroke="#A866FF" strokeWidth="1.73"/>
<line x1="75.941" y1="268.157" x2="85.2717" y2="262.77" stroke="#A866FF" strokeWidth="1.73"/>
<line x1="99.7237" y1="267.418" x2="109.848" y2="263.733" stroke="#A866FF" strokeWidth="1.73"/>
<line x1="123.748" y1="266.371" x2="134.358" y2="264.5" stroke="#A866FF" strokeWidth="1.73"/>
<line x1="232.695" y1="269.655" x2="223.365" y2="264.268" stroke="#A866FF" strokeWidth="1.73"/>
<line x1="256.008" y1="270.581" x2="247.754" y2="263.655" stroke="#A866FF" strokeWidth="1.73"/>
<line x1="161.485" y1="267.076" x2="150.711" y2="267.076" stroke="#A866FF" strokeWidth="1.73"/>
<line x1="185.453" y1="268.075" x2="174.843" y2="266.204" stroke="#A866FF" strokeWidth="1.73"/>
<line x1="209.187" y1="269.043" x2="199.062" y2="265.358" stroke="#A866FF" strokeWidth="1.73"/>
<line x1="4.78806" y1="288.885" x2="11.7136" y2="280.632" stroke="#A866FF" strokeWidth="1.73"/>
<line x1="28.1413" y1="288.107" x2="36.3948" y2="281.181" stroke="#A866FF" strokeWidth="1.73"/>
<line x1="51.7008" y1="287.013" x2="61.0315" y2="281.626" stroke="#A866FF" strokeWidth="1.73"/>
<line x1="75.4834" y1="286.277" x2="85.6079" y2="282.592" stroke="#A866FF" strokeWidth="1.73"/>
<line x1="99.5075" y1="285.226" x2="110.118" y2="283.355" stroke="#A866FF" strokeWidth="1.73"/>
<line x1="208.455" y1="288.511" x2="199.124" y2="283.124" stroke="#A866FF" strokeWidth="1.73"/>
<line x1="231.764" y1="289.432" x2="223.511" y2="282.507" stroke="#A866FF" strokeWidth="1.73"/>
<line x1="254.905" y1="289.997" x2="247.979" y2="281.744" stroke="#A866FF" strokeWidth="1.73"/>
<line x1="137.245" y1="285.931" x2="126.47" y2="285.931" stroke="#A866FF" strokeWidth="1.73"/>
<line x1="161.213" y1="286.93" x2="150.603" y2="285.059" stroke="#A866FF" strokeWidth="1.73"/>
<line x1="184.946" y1="287.903" x2="174.822" y2="284.218" stroke="#A866FF" strokeWidth="1.73"/>
<line x1="3.90102" y1="306.962" x2="12.1545" y2="300.037" stroke="#A866FF" strokeWidth="1.73"/>
<line x1="27.4571" y1="305.864" x2="36.7879" y2="300.477" stroke="#A866FF" strokeWidth="1.73"/>
<line x1="51.2398" y1="305.129" x2="61.3642" y2="301.444" stroke="#A866FF" strokeWidth="1.73"/>
<line x1="75.2639" y1="304.082" x2="85.8744" y2="302.211" stroke="#A866FF" strokeWidth="1.73"/>
<line x1="184.212" y1="307.362" x2="174.881" y2="301.975" stroke="#A866FF" strokeWidth="1.73"/>
<line x1="207.524" y1="308.288" x2="199.271" y2="301.362" stroke="#A866FF" strokeWidth="1.73"/>
<line x1="230.661" y1="308.853" x2="223.736" y2="300.599" stroke="#A866FF" strokeWidth="1.73"/>
<line x1="253.666" y1="309.069" x2="248.279" y2="299.738" stroke="#A866FF" strokeWidth="1.73"/>
<line x1="113.001" y1="304.787" x2="102.227" y2="304.787" stroke="#A866FF" strokeWidth="1.73"/>
<line x1="136.969" y1="305.785" x2="126.359" y2="303.915" stroke="#A866FF" strokeWidth="1.73"/>
<line x1="160.703" y1="306.754" x2="150.578" y2="303.069" stroke="#A866FF" strokeWidth="1.73"/>
<line x1="3.21691" y1="324.72" x2="12.5476" y2="319.333" stroke="#A866FF" strokeWidth="1.73"/>
<line x1="26.9991" y1="323.984" x2="37.1235" y2="320.299" stroke="#A866FF" strokeWidth="1.73"/>
<line x1="51.0236" y1="322.933" x2="61.6341" y2="321.062" stroke="#A866FF" strokeWidth="1.73"/>
<line x1="159.971" y1="326.218" x2="150.641" y2="320.831" stroke="#A866FF" strokeWidth="1.73"/>
<line x1="183.28" y1="327.143" x2="175.027" y2="320.218" stroke="#A866FF" strokeWidth="1.73"/>
<line x1="206.421" y1="327.708" x2="199.495" y2="319.455" stroke="#A866FF" strokeWidth="1.73"/>
<line x1="229.422" y1="327.921" x2="224.035" y2="318.59" stroke="#A866FF" strokeWidth="1.73"/>
<line x1="252.325" y1="328.124" x2="248.64" y2="318" stroke="#A866FF" strokeWidth="1.73"/>
<line x1="88.7607" y1="323.642" x2="77.9866" y2="323.642" stroke="#A866FF" strokeWidth="1.73"/>
<line x1="112.729" y1="324.637" x2="102.119" y2="322.766" stroke="#A866FF" strokeWidth="1.73"/>
<line x1="136.462" y1="325.61" x2="126.338" y2="321.925" stroke="#A866FF" strokeWidth="1.73"/>
<line x1="2.75542" y1="342.84" x2="12.8798" y2="339.155" stroke="#A866FF" strokeWidth="1.73"/>
<line x1="26.78" y1="341.789" x2="37.3905" y2="339.918" stroke="#A866FF" strokeWidth="1.73"/>
<line x1="135.728" y1="345.073" x2="126.397" y2="339.686" stroke="#A866FF" strokeWidth="1.73"/>
<line x1="159.04" y1="345.995" x2="150.787" y2="339.069" stroke="#A866FF" strokeWidth="1.73"/>
<line x1="182.181" y1="346.564" x2="175.255" y2="338.31" stroke="#A866FF" strokeWidth="1.73"/>
<line x1="205.182" y1="346.776" x2="199.795" y2="337.446" stroke="#A866FF" strokeWidth="1.73"/>
<line x1="228.081" y1="346.979" x2="224.396" y2="336.855" stroke="#A866FF" strokeWidth="1.73"/>
<line x1="250.925" y1="347.17" x2="249.054" y2="336.559" stroke="#A866FF" strokeWidth="1.73"/>
<line x1="64.5171" y1="342.494" x2="53.7429" y2="342.494" stroke="#A866FF" strokeWidth="1.73"/>
<line x1="88.4855" y1="343.492" x2="77.875" y2="341.622" stroke="#A866FF" strokeWidth="1.73"/>
<line x1="112.219" y1="344.465" x2="102.094" y2="340.78" stroke="#A866FF" strokeWidth="1.73"/>
<line x1="2.53974" y1="360.644" x2="13.1502" y2="358.773" stroke="#A866FF" strokeWidth="1.73"/>
<line x1="111.487" y1="363.925" x2="102.157" y2="358.538" stroke="#A866FF" strokeWidth="1.73"/>
<line x1="134.797" y1="364.854" x2="126.543" y2="357.929" stroke="#A866FF" strokeWidth="1.73"/>
<line x1="157.937" y1="365.419" x2="151.011" y2="357.166" stroke="#A866FF" strokeWidth="1.73"/>
<line x1="180.938" y1="365.632" x2="175.551" y2="356.301" stroke="#A866FF" strokeWidth="1.73"/>
<line x1="203.841" y1="365.831" x2="200.156" y2="355.707" stroke="#A866FF" strokeWidth="1.73"/>
<line x1="226.684" y1="366.025" x2="224.813" y2="355.415" stroke="#A866FF" strokeWidth="1.73"/>
<line x1="249.509" y1="365.875" x2="249.509" y2="355.101" stroke="#A866FF" strokeWidth="1.73"/>
<line x1="40.2769" y1="361.349" x2="29.5027" y2="361.349" stroke="#A866FF" strokeWidth="1.73"/>
<line x1="64.2453" y1="362.348" x2="53.6348" y2="360.477" stroke="#A866FF" strokeWidth="1.73"/>
<line x1="87.9786" y1="363.317" x2="77.8541" y2="359.632" stroke="#A866FF" strokeWidth="1.73"/>
<line x1="87.2438" y1="382.784" x2="77.9131" y2="377.397" stroke="#A866FF" strokeWidth="1.73"/>
<line x1="110.556" y1="383.71" x2="102.303" y2="376.784" stroke="#A866FF" strokeWidth="1.73"/>
<line x1="133.697" y1="384.275" x2="126.771" y2="376.021" stroke="#A866FF" strokeWidth="1.73"/>
<line x1="156.698" y1="384.483" x2="151.311" y2="375.153" stroke="#A866FF" strokeWidth="1.73"/>
<line x1="179.597" y1="384.686" x2="175.912" y2="374.562" stroke="#A866FF" strokeWidth="1.73"/>
<line x1="202.441" y1="384.877" x2="200.57" y2="374.266" stroke="#A866FF" strokeWidth="1.73"/>
<line x1="225.265" y1="384.727" x2="225.265" y2="373.952" stroke="#A866FF" strokeWidth="1.73"/>
<line x1="248.12" y1="384.576" x2="249.991" y2="373.966" stroke="#A866FF" strokeWidth="1.73"/>
<line x1="16.0332" y1="380.209" x2="5.25903" y2="380.209" stroke="#A866FF" strokeWidth="1.73"/>
<line x1="40.0016" y1="381.2" x2="29.3912" y2="379.329" stroke="#A866FF" strokeWidth="1.73"/>
<line x1="63.7349" y1="382.176" x2="53.6105" y2="378.491" stroke="#A866FF" strokeWidth="1.73"/>
<line x1="246.797" y1="402.95" x2="250.482" y2="392.826" stroke="#A866FF" strokeWidth="1.73"/>
<line x1="63.0035" y1="401.64" x2="53.6728" y2="396.253" stroke="#A866FF" strokeWidth="1.73"/>
<line x1="86.3126" y1="402.561" x2="78.0591" y2="395.636" stroke="#A866FF" strokeWidth="1.73"/>
<line x1="109.453" y1="403.13" x2="102.528" y2="394.877" stroke="#A866FF" strokeWidth="1.73"/>
<line x1="132.455" y1="403.343" x2="127.067" y2="394.012" stroke="#A866FF" strokeWidth="1.73"/>
<line x1="155.357" y1="403.542" x2="151.672" y2="393.418" stroke="#A866FF" strokeWidth="1.73"/>
<line x1="178.2" y1="403.732" x2="176.329" y2="393.122" stroke="#A866FF" strokeWidth="1.73"/>
<line x1="201.025" y1="403.582" x2="201.025" y2="392.808" stroke="#A866FF" strokeWidth="1.73"/>
<line x1="223.876" y1="403.432" x2="225.747" y2="392.821" stroke="#A866FF" strokeWidth="1.73"/>
<line x1="15.7614" y1="400.055" x2="5.15092" y2="398.184" stroke="#A866FF" strokeWidth="1.73"/>
<line x1="39.4947" y1="401.032" x2="29.3703" y2="397.347" stroke="#A866FF" strokeWidth="1.73"/>
<line x1="222.557" y1="421.802" x2="226.242" y2="411.677" stroke="#A866FF" strokeWidth="1.73"/>
<line x1="245.584" y1="421.333" x2="250.971" y2="412.002" stroke="#A866FF" strokeWidth="1.73"/>
<line x1="38.7599" y1="420.491" x2="29.4292" y2="415.104" stroke="#A866FF" strokeWidth="1.73"/>
<line x1="62.0724" y1="421.417" x2="53.8189" y2="414.491" stroke="#A866FF" strokeWidth="1.73"/>
<line x1="85.2129" y1="421.982" x2="78.2874" y2="413.728" stroke="#A866FF" strokeWidth="1.73"/>
<line x1="108.214" y1="422.198" x2="102.827" y2="412.867" stroke="#A866FF" strokeWidth="1.73"/>
<line x1="131.113" y1="422.394" x2="127.428" y2="412.269" stroke="#A866FF" strokeWidth="1.73"/>
<line x1="153.956" y1="422.588" x2="152.085" y2="411.977" stroke="#A866FF" strokeWidth="1.73"/>
<line x1="176.781" y1="422.438" x2="176.781" y2="411.663" stroke="#A866FF" strokeWidth="1.73"/>
<line x1="199.636" y1="422.287" x2="201.507" y2="411.677" stroke="#A866FF" strokeWidth="1.73"/>
<line x1="15.251" y1="419.883" x2="5.12661" y2="416.198" stroke="#A866FF" strokeWidth="1.73"/>
<line x1="198.313" y1="440.661" x2="201.998" y2="430.537" stroke="#A866FF" strokeWidth="1.73"/>
<line x1="221.343" y1="440.185" x2="226.73" y2="430.854" stroke="#A866FF" strokeWidth="1.73"/>
<line x1="244.518" y1="439.725" x2="251.444" y2="431.472" stroke="#A866FF" strokeWidth="1.73"/>
<line x1="14.5196" y1="439.347" x2="5.18894" y2="433.96" stroke="#A866FF" strokeWidth="1.73"/>
<line x1="37.8288" y1="440.272" x2="29.5753" y2="433.346" stroke="#A866FF" strokeWidth="1.73"/>
<line x1="60.9692" y1="440.837" x2="54.0437" y2="432.584" stroke="#A866FF" strokeWidth="1.73"/>
<line x1="83.9706" y1="441.05" x2="78.5835" y2="431.719" stroke="#A866FF" strokeWidth="1.73"/>
<line x1="106.873" y1="441.253" x2="103.188" y2="431.128" stroke="#A866FF" strokeWidth="1.73"/>
<line x1="129.716" y1="441.443" x2="127.845" y2="430.833" stroke="#A866FF" strokeWidth="1.73"/>
<line x1="152.541" y1="441.293" x2="152.541" y2="430.519" stroke="#A866FF" strokeWidth="1.73"/>
<line x1="175.392" y1="441.143" x2="177.263" y2="430.532" stroke="#A866FF" strokeWidth="1.73"/>
<line x1="174.073" y1="459.517" x2="177.758" y2="449.392" stroke="#A866FF" strokeWidth="1.73"/>
<line x1="197.1" y1="459.04" x2="202.487" y2="449.709" stroke="#A866FF" strokeWidth="1.73"/>
<line x1="220.274" y1="458.581" x2="227.2" y2="450.327" stroke="#A866FF" strokeWidth="1.73"/>
<line x1="243.628" y1="457.798" x2="251.881" y2="450.873" stroke="#A866FF" strokeWidth="1.73"/>
<line x1="13.5885" y1="459.124" x2="5.33502" y2="452.198" stroke="#A866FF" strokeWidth="1.73"/>
<line x1="36.7285" y1="459.693" x2="29.803" y2="451.439" stroke="#A866FF" strokeWidth="1.73"/>
<line x1="59.7304" y1="459.905" x2="54.3433" y2="450.574" stroke="#A866FF" strokeWidth="1.73"/>
<line x1="82.6295" y1="460.108" x2="78.9446" y2="449.984" stroke="#A866FF" strokeWidth="1.73"/>
<line x1="105.472" y1="460.295" x2="103.601" y2="449.684" stroke="#A866FF" strokeWidth="1.73"/>
<line x1="128.298" y1="460.145" x2="128.298" y2="449.37" stroke="#A866FF" strokeWidth="1.73"/>
<line x1="151.152" y1="459.994" x2="153.023" y2="449.384" stroke="#A866FF" strokeWidth="1.73"/>
</g>
<g filter="url(#filter0_d_4140_6673)">
<rect x="193.375" y="20" width="270" height="330" rx="21.8919" fill="white" shape-rendering="crispEdges"/>
<rect x="193.89" y="20.5153" width="268.969" height="328.969" rx="21.3766" stroke="#EDF0F3" strokeWidth="1.03053" shape-rendering="crispEdges"/>
<rect x="215.268" y="82.3242" width="93.9527" height="14.5946" rx="7.2973" fill="#F8F2FF"/>
<rect x="215.268" y="58" width="182.432" height="14.5946" rx="7.2973" fill="#F0E5FF"/>
<g filter="url(#filter1_d_4140_6673)">
<rect x="163.477" y="111.512" width="138" height="110" rx="14.5946" fill="white" shape-rendering="crispEdges"/>
<rect x="163.977" y="112.012" width="137" height="109" rx="14.0946" stroke="#6E00FF" shape-rendering="crispEdges"/>
<path d="M188.477 144.846C193.079 144.846 196.81 141.115 196.81 136.513C196.81 131.911 193.079 128.18 188.477 128.18C183.875 128.18 180.144 131.911 180.144 136.513C180.144 141.115 183.875 144.846 188.477 144.846Z" fill="white" stroke="#6E00FF" strokeWidth="1.5"/>
<path d="M185.561 136.93L187.227 138.596L191.394 134.43" fill="white"/>
<path d="M185.561 136.93L187.227 138.596L191.394 134.43" stroke="#6E00FF" strokeWidth="1.5" strokeLinecap="round" strokeLinejoin="round"/>
<rect x="208.477" y="130.512" width="78" height="12" rx="6" fill="#F0E5FF"/>
<path d="M188.477 174.846C193.079 174.846 196.81 171.115 196.81 166.513C196.81 161.911 193.079 158.18 188.477 158.18C183.875 158.18 180.144 161.911 180.144 166.513C180.144 171.115 183.875 174.846 188.477 174.846Z" fill="white" stroke="#6E00FF" strokeWidth="1.5"/>
<path d="M185.561 166.93L187.227 168.596L191.394 164.43" fill="white"/>
<path d="M185.561 166.93L187.227 168.596L191.394 164.43" stroke="#6E00FF" strokeWidth="1.5" strokeLinecap="round" strokeLinejoin="round"/>
<rect x="208.477" y="160.512" width="78" height="12" rx="6" fill="#F0E5FF"/>
<path d="M188.477 204.846C193.079 204.846 196.81 201.115 196.81 196.513C196.81 191.911 193.079 188.18 188.477 188.18C183.875 188.18 180.144 191.911 180.144 196.513C180.144 201.115 183.875 204.846 188.477 204.846Z" fill="white" stroke="#6E00FF" strokeWidth="1.5"/>
<path d="M185.561 196.93L187.227 198.596L191.394 194.43" fill="white"/>
<path d="M185.561 196.93L187.227 198.596L191.394 194.43" stroke="#6E00FF" strokeWidth="1.5" strokeLinecap="round" strokeLinejoin="round"/>
<rect x="208.477" y="190.512" width="78" height="12" rx="6" fill="#F0E5FF"/>
</g>
<rect x="312.89" y="112.027" width="136.969" height="198.969" rx="14.0793" fill="#6E00FF"/>
<rect x="312.89" y="112.027" width="136.969" height="198.969" rx="14.0793" stroke="#6E00FF" strokeWidth="1.03053"/>
<path d="M337.375 144.846C341.978 144.846 345.709 141.115 345.709 136.513C345.709 131.911 341.978 128.18 337.375 128.18C332.773 128.18 329.042 131.911 329.042 136.513C329.042 141.115 332.773 144.846 337.375 144.846Z" fill="#F8F2FF" stroke="#6E00FF" strokeWidth="1.5"/>
<path d="M334.459 136.93L336.126 138.596L340.292 134.43" fill="#F8F2FF"/>
<path d="M334.459 136.93L336.126 138.596L340.292 134.43" stroke="#6E00FF" strokeWidth="1.5" strokeLinecap="round" strokeLinejoin="round"/>
<rect x="357.375" y="130.512" width="78" height="12" rx="6" fill="#A866FF"/>
<path d="M337.375 174.846C341.978 174.846 345.709 171.115 345.709 166.513C345.709 161.911 341.978 158.18 337.375 158.18C332.773 158.18 329.042 161.911 329.042 166.513C329.042 171.115 332.773 174.846 337.375 174.846Z" fill="#F8F2FF" stroke="#6E00FF" strokeWidth="1.5"/>
<path d="M334.459 166.93L336.126 168.596L340.292 164.43" fill="#F8F2FF"/>
<path d="M334.459 166.93L336.126 168.596L340.292 164.43" stroke="#6E00FF" strokeWidth="1.5" strokeLinecap="round" strokeLinejoin="round"/>
<rect x="357.375" y="160.512" width="78" height="12" rx="6" fill="#A866FF"/>
<path d="M337.375 204.846C341.978 204.846 345.709 201.115 345.709 196.513C345.709 191.911 341.978 188.18 337.375 188.18C332.773 188.18 329.042 191.911 329.042 196.513C329.042 201.115 332.773 204.846 337.375 204.846Z" fill="#F8F2FF" stroke="#6E00FF" strokeWidth="1.5"/>
<path d="M334.459 196.93L336.126 198.596L340.292 194.43" fill="#F8F2FF"/>
<path d="M334.459 196.93L336.126 198.596L340.292 194.43" stroke="#6E00FF" strokeWidth="1.5" strokeLinecap="round" strokeLinejoin="round"/>
<rect x="357.375" y="190.512" width="78" height="12" rx="6" fill="#A866FF"/>
<path d="M337.375 234.846C341.978 234.846 345.709 231.115 345.709 226.513C345.709 221.911 341.978 218.18 337.375 218.18C332.773 218.18 329.042 221.911 329.042 226.513C329.042 231.115 332.773 234.846 337.375 234.846Z" fill="#F8F2FF" stroke="#6E00FF" strokeWidth="1.5"/>
<path d="M334.459 226.93L336.126 228.596L340.292 224.43" fill="#F8F2FF"/>
<path d="M334.459 226.93L336.126 228.596L340.292 224.43" stroke="#6E00FF" strokeWidth="1.5" strokeLinecap="round" strokeLinejoin="round"/>
<rect x="357.375" y="220.512" width="78" height="12" rx="6" fill="#A866FF"/>
<path d="M337.375 264.846C341.978 264.846 345.709 261.115 345.709 256.513C345.709 251.911 341.978 248.18 337.375 248.18C332.773 248.18 329.042 251.911 329.042 256.513C329.042 261.115 332.773 264.846 337.375 264.846Z" fill="#F8F2FF" stroke="#6E00FF" strokeWidth="1.5"/>
<path d="M334.459 256.93L336.126 258.596L340.292 254.43" fill="#F8F2FF"/>
<path d="M334.459 256.93L336.126 258.596L340.292 254.43" stroke="#6E00FF" strokeWidth="1.5" strokeLinecap="round" strokeLinejoin="round"/>
<rect x="357.375" y="250.512" width="78" height="12" rx="6" fill="#A866FF"/>
<path d="M337.375 294.846C341.978 294.846 345.709 291.115 345.709 286.513C345.709 281.911 341.978 278.18 337.375 278.18C332.773 278.18 329.042 281.911 329.042 286.513C329.042 291.115 332.773 294.846 337.375 294.846Z" fill="#F8F2FF" stroke="#6E00FF" strokeWidth="1.5"/>
<path d="M334.459 286.93L336.126 288.596L340.292 284.43" fill="#F8F2FF"/>
<path d="M334.459 286.93L336.126 288.596L340.292 284.43" stroke="#6E00FF" strokeWidth="1.5" strokeLinecap="round" strokeLinejoin="round"/>
<rect x="357.375" y="280.512" width="78" height="12" rx="6" fill="#A866FF"/>
<path fillRule="evenodd" clipRule="evenodd" d="M225.758 258.578C225.758 254.051 229.426 250.382 233.954 250.379H237.684C239.848 250.379 241.922 249.52 243.459 247.997L246.065 245.387C249.259 242.175 254.45 242.161 257.662 245.354L257.665 245.358L257.698 245.387L260.308 247.997C261.845 249.523 263.918 250.379 266.082 250.379H269.809C274.337 250.379 278.009 254.047 278.009 258.578V262.301C278.009 264.465 278.864 266.543 280.39 268.08L283 270.69C286.212 273.883 286.23 279.074 283.037 282.286L283.033 282.29L283 282.322L280.39 284.932C278.864 286.466 278.009 288.539 278.009 290.703V294.433C278.009 298.961 274.34 302.629 269.813 302.629H266.075C263.911 302.629 261.834 303.489 260.301 305.015L257.691 307.621C254.501 310.833 249.313 310.851 246.101 307.665C246.098 307.661 246.094 307.657 246.091 307.654L246.058 307.621L243.452 305.015C241.918 303.489 239.841 302.633 237.677 302.629H233.954C229.426 302.629 225.758 298.961 225.758 294.433V290.696C225.758 288.532 224.899 286.458 223.373 284.925L220.766 282.315C217.555 279.125 217.536 273.938 220.726 270.726C220.726 270.722 220.73 270.719 220.734 270.715L220.766 270.682L223.373 268.072C224.899 266.535 225.758 264.462 225.758 262.294V258.578Z" stroke="#F0E5FF" strokeWidth="5.4375" strokeLinecap="round" strokeLinejoin="round"/>
<path d="M242.566 285.824L261.199 267.191" stroke="#F0E5FF" strokeWidth="5.4375" strokeLinecap="round" strokeLinejoin="round"/>
<path d="M260.921 285.562H260.954" stroke="#F0E5FF" strokeWidth="7.25" strokeLinecap="round" strokeLinejoin="round"/>
<path d="M242.797 267.438H242.829" stroke="#F0E5FF" strokeWidth="7.25" strokeLinecap="round" strokeLinejoin="round"/>
<g clipPath="url(#clip0_4140_6673)">
<g filter="url(#filter2_d_4140_6673)">
<path d="M432.708 264.668C432.973 264.668 433.228 264.773 433.415 264.961C433.603 265.148 433.708 265.403 433.708 265.668V269.001C433.708 269.267 433.603 269.521 433.415 269.708C433.228 269.896 432.973 270.001 432.708 270.001C432.443 270.001 432.188 269.896 432.001 269.708C431.813 269.521 431.708 269.267 431.708 269.001V265.668C431.708 265.403 431.813 265.148 432.001 264.961C432.188 264.773 432.443 264.668 432.708 264.668ZM426.335 267.295C426.522 267.107 426.776 267.002 427.041 267.002C427.306 267.002 427.561 267.107 427.748 267.295L430.081 269.628C430.18 269.72 430.258 269.83 430.313 269.953C430.368 270.075 430.397 270.208 430.399 270.342C430.402 270.476 430.377 270.61 430.327 270.734C430.277 270.859 430.202 270.972 430.107 271.067C430.012 271.162 429.899 271.237 429.774 271.287C429.65 271.337 429.516 271.362 429.382 271.359C429.248 271.357 429.115 271.328 428.993 271.273C428.87 271.218 428.76 271.14 428.668 271.041L426.335 268.708C426.147 268.52 426.042 268.266 426.042 268.001C426.042 267.736 426.147 267.482 426.335 267.295ZM439.081 267.295C439.269 267.482 439.374 267.736 439.374 268.001C439.374 268.266 439.269 268.52 439.081 268.708L436.748 271.041C436.656 271.14 436.546 271.218 436.423 271.273C436.301 271.328 436.168 271.357 436.034 271.359C435.9 271.362 435.766 271.337 435.642 271.287C435.517 271.237 435.404 271.162 435.309 271.067C435.214 270.972 435.139 270.859 435.089 270.734C435.039 270.61 435.014 270.476 435.017 270.342C435.019 270.208 435.048 270.075 435.103 269.953C435.158 269.83 435.236 269.72 435.335 269.628L437.668 267.295C437.856 267.107 438.11 267.002 438.375 267.002C438.64 267.002 438.894 267.107 439.081 267.295ZM423.708 273.668C423.708 273.403 423.813 273.148 424.001 272.961C424.188 272.773 424.443 272.668 424.708 272.668H428.041C428.307 272.668 428.561 272.773 428.748 272.961C428.936 273.148 429.041 273.403 429.041 273.668C429.041 273.933 428.936 274.188 428.748 274.375C428.561 274.563 428.307 274.668 428.041 274.668H424.708C424.443 274.668 424.188 274.563 424.001 274.375C423.813 274.188 423.708 273.933 423.708 273.668ZM431.708 274.651C431.708 273.148 433.471 272.337 434.611 273.316L445.892 282.985C447.105 284.025 446.415 286.013 444.819 286.079L439.699 286.283C439.148 286.304 438.631 286.549 438.263 286.959L434.777 290.855C433.701 292.059 431.708 291.296 431.708 289.681V274.651Z" fill="white"/>
<path d="M429.893 269.817L429.893 269.817L427.56 267.483L429.893 269.817ZM429.893 269.817L429.9 269.823M429.893 269.817L429.9 269.823M429.9 269.823C429.972 269.89 430.029 269.971 430.069 270.061C430.11 270.151 430.131 270.248 430.133 270.347C430.135 270.445 430.116 270.543 430.08 270.634C430.043 270.726 429.988 270.808 429.918 270.878C429.849 270.948 429.766 271.003 429.674 271.04C429.583 271.076 429.485 271.095 429.387 271.093C429.288 271.091 429.191 271.07 429.101 271.029C429.011 270.989 428.93 270.932 428.863 270.86L428.863 270.859M429.9 269.823L428.863 270.859M428.863 270.859L428.857 270.853M428.863 270.859L428.857 270.853M428.857 270.853L426.523 268.52L428.857 270.853ZM436.559 270.853L436.559 270.853L438.893 268.52L436.559 270.853ZM436.559 270.853L436.553 270.86M436.559 270.853L436.553 270.86M436.553 270.86C436.486 270.932 436.405 270.989 436.315 271.029C436.225 271.07 436.128 271.091 436.029 271.093C435.931 271.095 435.833 271.076 435.742 271.04C435.65 271.003 435.567 270.948 435.498 270.878C435.428 270.808 435.373 270.726 435.336 270.634C435.3 270.543 435.281 270.445 435.283 270.347C435.285 270.248 435.306 270.151 435.347 270.061C435.387 269.971 435.444 269.89 435.516 269.823L435.517 269.823M436.553 270.86L435.517 269.823M435.517 269.823L435.523 269.817M435.517 269.823L435.523 269.817M435.523 269.817L437.856 267.483L435.523 269.817ZM427.041 267.269C426.847 267.269 426.661 267.346 426.523 267.483C426.386 267.621 426.309 267.807 426.309 268.001C426.309 268.196 426.386 268.382 426.523 268.519L427.041 267.269ZM427.041 267.269C427.236 267.269 427.422 267.346 427.559 267.483L427.041 267.269ZM434.437 273.518L434.437 273.518L445.718 283.188C446.748 284.07 446.162 285.757 444.808 285.812L439.688 286.016C439.688 286.016 439.688 286.016 439.688 286.016C439.065 286.04 438.48 286.318 438.064 286.78L438.064 286.781L434.579 290.677L434.579 290.677C433.666 291.698 431.975 291.052 431.975 289.681V274.651C431.975 273.376 433.47 272.688 434.437 273.518ZM432.708 264.935C432.903 264.935 433.089 265.012 433.227 265.149C433.364 265.287 433.441 265.473 433.441 265.668V269.001C433.441 269.196 433.364 269.382 433.227 269.52C433.089 269.657 432.903 269.735 432.708 269.735C432.514 269.735 432.327 269.657 432.189 269.52C432.052 269.382 431.975 269.196 431.975 269.001V265.668C431.975 265.473 432.052 265.287 432.189 265.149C432.327 265.012 432.514 264.935 432.708 264.935ZM423.975 273.668C423.975 273.473 424.052 273.287 424.189 273.149C424.327 273.012 424.514 272.935 424.708 272.935H428.041C428.236 272.935 428.422 273.012 428.56 273.149C428.697 273.287 428.775 273.473 428.775 273.668C428.775 273.862 428.697 274.049 428.56 274.187C428.422 274.324 428.236 274.401 428.041 274.401H424.708C424.514 274.401 424.327 274.324 424.189 274.187C424.052 274.049 423.975 273.862 423.975 273.668Z" stroke="#6E00FF" strokeWidth="0.533333"/>
</g>
</g>
</g>
<defs>
<filter id="filter0_d_4140_6673" x="123.477" y="0" width="359.898" height="390" filterUnits="userSpaceOnUse" color-interpolation-filters="sRGB">
<feFlood flood-opacity="0" result="BackgroundImageFix"/>
<feColorMatrix in="SourceAlpha" type="matrix" values="0 0 0 0 0 0 0 0 0 0 0 0 0 0 0 0 0 0 127 0" result="hardAlpha"/>
<feOffset dx="-10" dy="10"/>
<feGaussianBlur stdDeviation="15"/>
<feComposite in2="hardAlpha" operator="out"/>
<feColorMatrix type="matrix" values="0 0 0 0 0 0 0 0 0 0 0 0 0 0 0 0 0 0 0.08 0"/>
<feBlend mode="normal" in2="BackgroundImageFix" result="effect1_dropShadow_4140_6673"/>
<feBlend mode="normal" in="SourceGraphic" in2="effect1_dropShadow_4140_6673" result="shape"/>
</filter>
<filter id="filter1_d_4140_6673" x="97.8009" y="67.7279" width="269.351" height="241.351" filterUnits="userSpaceOnUse" color-interpolation-filters="sRGB">
<feFlood flood-opacity="0" result="BackgroundImageFix"/>
<feColorMatrix in="SourceAlpha" type="matrix" values="0 0 0 0 0 0 0 0 0 0 0 0 0 0 0 0 0 0 127 0" result="hardAlpha"/>
<feOffset dy="21.8919"/>
<feGaussianBlur stdDeviation="32.8378"/>
<feComposite in2="hardAlpha" operator="out"/>
<feColorMatrix type="matrix" values="0 0 0 0 0 0 0 0 0 0 0 0 0 0 0 0 0 0 0.12 0"/>
<feBlend mode="normal" in2="BackgroundImageFix" result="effect1_dropShadow_4140_6673"/>
<feBlend mode="normal" in="SourceGraphic" in2="effect1_dropShadow_4140_6673" result="shape"/>
</filter>
<filter id="filter2_d_4140_6673" x="417.041" y="259.335" width="33.4679" height="37.444" filterUnits="userSpaceOnUse" color-interpolation-filters="sRGB">
<feFlood flood-opacity="0" result="BackgroundImageFix"/>
<feColorMatrix in="SourceAlpha" type="matrix" values="0 0 0 0 0 0 0 0 0 0 0 0 0 0 0 0 0 0 127 0" result="hardAlpha"/>
<feOffset dx="-1.33333"/>
<feGaussianBlur stdDeviation="2.66667"/>
<feComposite in2="hardAlpha" operator="out"/>
<feColorMatrix type="matrix" values="0 0 0 0 0 0 0 0 0 0 0 0 0 0 0 0 0 0 0.23 0"/>
<feBlend mode="normal" in2="BackgroundImageFix" result="effect1_dropShadow_4140_6673"/>
<feBlend mode="normal" in="SourceGraphic" in2="effect1_dropShadow_4140_6673" result="shape"/>
</filter>
<clipPath id="clip0_4140_6673">
<rect width="32" height="32" fill="white" transform="translate(420.375 262)"/>
</clipPath>
</defs>
</svg>
