<svg width="510" height="429" viewBox="0 0 510 429" fill="none" xmlns="http://www.w3.org/2000/svg">
<path d="M426.375 83H123.625V429H426.375V83Z" fill="#F9FAFB"/>
<g opacity="0.6">
<path d="M427.448 10.9642L431.133 0.839844" stroke="#A866FF" stroke-width="1.73"/>
<path d="M450.479 10.4948L455.867 1.16406" stroke="#A866FF" stroke-width="1.73"/>
<path d="M473.653 10.0308L480.578 1.77734" stroke="#A866FF" stroke-width="1.73"/>
<path d="M497.003 9.25362L505.257 2.32812" stroke="#A866FF" stroke-width="1.73"/>
<path d="M266.964 10.5778L258.71 3.65234" stroke="#A866FF" stroke-width="1.73"/>
<path d="M290.104 11.1441L283.178 2.89062" stroke="#A866FF" stroke-width="1.73"/>
<path d="M313.105 11.358L307.718 2.02734" stroke="#A866FF" stroke-width="1.73"/>
<path d="M336.008 11.558L332.323 1.43359" stroke="#A866FF" stroke-width="1.73"/>
<path d="M358.851 11.7472L356.98 1.13672" stroke="#A866FF" stroke-width="1.73"/>
<path d="M381.676 11.5984V0.824219" stroke="#A866FF" stroke-width="1.73"/>
<path d="M404.527 11.4464L406.398 0.835938" stroke="#A866FF" stroke-width="1.73"/>
<path d="M403.208 29.8197L406.893 19.6953" stroke="#A866FF" stroke-width="1.73"/>
<path d="M426.235 29.3463L431.622 20.0156" stroke="#A866FF" stroke-width="1.73"/>
<path d="M449.409 28.8863L456.335 20.6328" stroke="#A866FF" stroke-width="1.73"/>
<path d="M472.763 28.1091L481.016 21.1836" stroke="#A866FF" stroke-width="1.73"/>
<path d="M496.319 27.0121L505.65 21.625" stroke="#A866FF" stroke-width="1.73"/>
<path d="M265.864 29.9996L258.938 21.7461" stroke="#A866FF" stroke-width="1.73"/>
<path d="M288.865 30.2136L283.478 20.8828" stroke="#A866FF" stroke-width="1.73"/>
<path d="M311.764 30.4135L308.079 20.2891" stroke="#A866FF" stroke-width="1.73"/>
<path d="M334.608 30.6027L332.737 19.9922" stroke="#A866FF" stroke-width="1.73"/>
<path d="M357.432 30.4539V19.6797" stroke="#A866FF" stroke-width="1.73"/>
<path d="M380.287 30.3019L382.158 19.6914" stroke="#A866FF" stroke-width="1.73"/>
<path d="M378.964 48.6753L382.649 38.5508" stroke="#A866FF" stroke-width="1.73"/>
<path d="M401.995 48.2018L407.382 38.8711" stroke="#A866FF" stroke-width="1.73"/>
<path d="M425.169 47.7418L432.094 39.4883" stroke="#A866FF" stroke-width="1.73"/>
<path d="M448.523 46.9607L456.776 40.0352" stroke="#A866FF" stroke-width="1.73"/>
<path d="M472.079 45.8637L481.409 40.4766" stroke="#A866FF" stroke-width="1.73"/>
<path d="M495.861 45.1264L505.985 41.4414" stroke="#A866FF" stroke-width="1.73"/>
<path d="M264.621 49.069L259.234 39.7383" stroke="#A866FF" stroke-width="1.73"/>
<path d="M287.524 49.2689L283.839 39.1445" stroke="#A866FF" stroke-width="1.73"/>
<path d="M310.367 49.4582L308.496 38.8477" stroke="#A866FF" stroke-width="1.73"/>
<path d="M333.192 49.3094V38.5352" stroke="#A866FF" stroke-width="1.73"/>
<path d="M356.043 49.1574L357.914 38.5469" stroke="#A866FF" stroke-width="1.73"/>
<path d="M354.724 67.5307L358.409 57.4062" stroke="#A866FF" stroke-width="1.73"/>
<path d="M377.751 67.0573L383.138 57.7266" stroke="#A866FF" stroke-width="1.73"/>
<path d="M400.925 66.5973L407.851 58.3438" stroke="#A866FF" stroke-width="1.73"/>
<path d="M424.279 65.8161L432.532 58.8906" stroke="#A866FF" stroke-width="1.73"/>
<path d="M447.838 64.719L457.169 59.332" stroke="#A866FF" stroke-width="1.73"/>
<path d="M471.621 63.9819L481.745 60.2969" stroke="#A866FF" stroke-width="1.73"/>
<path d="M495.646 62.9334L506.255 61.0625" stroke="#A866FF" stroke-width="1.73"/>
<path d="M263.28 68.1205L259.595 57.9961" stroke="#A866FF" stroke-width="1.73"/>
<path d="M286.124 68.3136L284.253 57.7031" stroke="#A866FF" stroke-width="1.73"/>
<path d="M308.948 68.1648V57.3906" stroke="#A866FF" stroke-width="1.73"/>
<path d="M331.803 68.0128L333.674 57.4023" stroke="#A866FF" stroke-width="1.73"/>
<path d="M330.48 86.3866L334.165 76.2617" stroke="#A866FF" stroke-width="1.73"/>
<path d="M353.51 85.913L358.897 76.582" stroke="#A866FF" stroke-width="1.73"/>
<path d="M376.686 85.4527L383.612 77.1992" stroke="#A866FF" stroke-width="1.73"/>
<path d="M400.038 84.6713L408.292 77.7461" stroke="#A866FF" stroke-width="1.73"/>
<path d="M423.595 83.5746L432.926 78.1875" stroke="#A866FF" stroke-width="1.73"/>
<path d="M447.377 82.8373L457.501 79.1523" stroke="#A866FF" stroke-width="1.73"/>
<path d="M471.401 81.7889L482.012 79.918" stroke="#A866FF" stroke-width="1.73"/>
<path d="M261.883 87.1693L260.012 76.5586" stroke="#A866FF" stroke-width="1.73"/>
<path d="M284.708 87.0168V76.2422" stroke="#A866FF" stroke-width="1.73"/>
<path d="M307.559 86.8679L309.43 76.2578" stroke="#A866FF" stroke-width="1.73"/>
<path d="M509.139 82.4961H498.365" stroke="#A866FF" stroke-width="1.73"/>
<path d="M306.24 105.238L309.925 95.1133" stroke="#A866FF" stroke-width="1.73"/>
<path d="M329.267 104.769L334.654 95.4375" stroke="#A866FF" stroke-width="1.73"/>
<path d="M352.441 104.309L359.367 96.0547" stroke="#A866FF" stroke-width="1.73"/>
<path d="M375.795 103.528L384.048 96.6016" stroke="#A866FF" stroke-width="1.73"/>
<path d="M399.355 102.43L408.685 97.043" stroke="#A866FF" stroke-width="1.73"/>
<path d="M423.137 101.693L433.261 98.0078" stroke="#A866FF" stroke-width="1.73"/>
<path d="M447.161 100.643L457.771 98.7734" stroke="#A866FF" stroke-width="1.73"/>
<path d="M260.465 105.872V95.0977" stroke="#A866FF" stroke-width="1.73"/>
<path d="M283.319 105.724L285.19 95.1133" stroke="#A866FF" stroke-width="1.73"/>
<path d="M484.895 101.352H474.121" stroke="#A866FF" stroke-width="1.73"/>
<path d="M508.866 102.348L498.256 100.477" stroke="#A866FF" stroke-width="1.73"/>
<path d="M281.996 124.097L285.681 113.973" stroke="#A866FF" stroke-width="1.73"/>
<path d="M305.026 123.62L310.413 114.289" stroke="#A866FF" stroke-width="1.73"/>
<path d="M328.201 123.159L335.127 114.906" stroke="#A866FF" stroke-width="1.73"/>
<path d="M351.554 122.383L359.808 115.457" stroke="#A866FF" stroke-width="1.73"/>
<path d="M375.111 121.285L384.442 115.898" stroke="#A866FF" stroke-width="1.73"/>
<path d="M398.894 120.548L409.019 116.863" stroke="#A866FF" stroke-width="1.73"/>
<path d="M422.917 119.5L433.528 117.629" stroke="#A866FF" stroke-width="1.73"/>
<path d="M259.075 124.58L260.946 113.969" stroke="#A866FF" stroke-width="1.73"/>
<path d="M460.654 120.203H449.88" stroke="#A866FF" stroke-width="1.73"/>
<path d="M484.623 121.202L474.012 119.332" stroke="#A866FF" stroke-width="1.73"/>
<path d="M508.356 122.173L498.232 118.488" stroke="#A866FF" stroke-width="1.73"/>
<path d="M257.756 142.948L261.441 132.824" stroke="#A866FF" stroke-width="1.73"/>
<path d="M280.783 142.475L286.17 133.145" stroke="#A866FF" stroke-width="1.73"/>
<path d="M303.957 142.016L310.883 133.762" stroke="#A866FF" stroke-width="1.73"/>
<path d="M327.311 141.238L335.564 134.312" stroke="#A866FF" stroke-width="1.73"/>
<path d="M350.87 140.137L360.201 134.75" stroke="#A866FF" stroke-width="1.73"/>
<path d="M374.653 139.404L384.777 135.719" stroke="#A866FF" stroke-width="1.73"/>
<path d="M398.677 138.355L409.287 136.484" stroke="#A866FF" stroke-width="1.73"/>
<path d="M507.625 141.638L498.294 136.25" stroke="#A866FF" stroke-width="1.73"/>
<path d="M436.414 139.059H425.64" stroke="#A866FF" stroke-width="1.73"/>
<path d="M460.383 140.059L449.772 138.188" stroke="#A866FF" stroke-width="1.73"/>
<path d="M484.112 141.029L473.988 137.344" stroke="#A866FF" stroke-width="1.73"/>
<path d="M256.542 161.331L261.929 152" stroke="#A866FF" stroke-width="1.73"/>
<path d="M279.717 160.871L286.643 152.617" stroke="#A866FF" stroke-width="1.73"/>
<path d="M303.07 160.089L311.324 153.164" stroke="#A866FF" stroke-width="1.73"/>
<path d="M326.627 158.992L335.957 153.605" stroke="#A866FF" stroke-width="1.73"/>
<path d="M350.409 158.255L360.534 154.57" stroke="#A866FF" stroke-width="1.73"/>
<path d="M374.434 157.207L385.045 155.336" stroke="#A866FF" stroke-width="1.73"/>
<path d="M483.381 160.492L474.05 155.105" stroke="#A866FF" stroke-width="1.73"/>
<path d="M506.694 161.417L498.44 154.492" stroke="#A866FF" stroke-width="1.73"/>
<path d="M412.17 157.914H401.396" stroke="#A866FF" stroke-width="1.73"/>
<path d="M436.139 158.91L425.528 157.039" stroke="#A866FF" stroke-width="1.73"/>
<path d="M459.872 159.884L449.748 156.199" stroke="#A866FF" stroke-width="1.73"/>
<path d="M255.474 179.726L262.399 171.473" stroke="#A866FF" stroke-width="1.73"/>
<path d="M278.827 178.946L287.08 172.02" stroke="#A866FF" stroke-width="1.73"/>
<path d="M302.386 177.848L311.717 172.461" stroke="#A866FF" stroke-width="1.73"/>
<path d="M326.169 177.111L336.293 173.426" stroke="#A866FF" stroke-width="1.73"/>
<path d="M350.193 176.062L360.804 174.191" stroke="#A866FF" stroke-width="1.73"/>
<path d="M459.142 179.348L449.811 173.961" stroke="#A866FF" stroke-width="1.73"/>
<path d="M482.45 180.27L474.196 173.344" stroke="#A866FF" stroke-width="1.73"/>
<path d="M505.59 180.839L498.665 172.586" stroke="#A866FF" stroke-width="1.73"/>
<path d="M387.93 176.77H377.156" stroke="#A866FF" stroke-width="1.73"/>
<path d="M411.899 177.766L401.288 175.895" stroke="#A866FF" stroke-width="1.73"/>
<path d="M435.632 178.74L425.507 175.055" stroke="#A866FF" stroke-width="1.73"/>
<path d="M254.587 197.8L262.84 190.875" stroke="#A866FF" stroke-width="1.73"/>
<path d="M278.143 196.703L287.473 191.316" stroke="#A866FF" stroke-width="1.73"/>
<path d="M301.925 195.966L312.05 192.281" stroke="#A866FF" stroke-width="1.73"/>
<path d="M325.949 194.918L336.56 193.047" stroke="#A866FF" stroke-width="1.73"/>
<path d="M434.897 198.203L425.566 192.816" stroke="#A866FF" stroke-width="1.73"/>
<path d="M458.21 199.125L449.956 192.199" stroke="#A866FF" stroke-width="1.73"/>
<path d="M481.347 199.69L474.421 191.438" stroke="#A866FF" stroke-width="1.73"/>
<path d="M504.351 199.905L498.964 190.574" stroke="#A866FF" stroke-width="1.73"/>
<path d="M363.687 195.625H352.912" stroke="#A866FF" stroke-width="1.73"/>
<path d="M387.655 196.621L377.044 194.75" stroke="#A866FF" stroke-width="1.73"/>
<path d="M411.388 197.591L401.264 193.906" stroke="#A866FF" stroke-width="1.73"/>
<path d="M253.902 215.559L263.233 210.172" stroke="#A866FF" stroke-width="1.73"/>
<path d="M277.685 214.822L287.809 211.137" stroke="#A866FF" stroke-width="1.73"/>
<path d="M301.709 213.773L312.32 211.902" stroke="#A866FF" stroke-width="1.73"/>
<path d="M410.657 217.055L401.326 211.668" stroke="#A866FF" stroke-width="1.73"/>
<path d="M433.966 217.981L425.712 211.055" stroke="#A866FF" stroke-width="1.73"/>
<path d="M457.106 218.547L450.181 210.293" stroke="#A866FF" stroke-width="1.73"/>
<path d="M480.108 218.76L474.721 209.43" stroke="#A866FF" stroke-width="1.73"/>
<path d="M503.01 218.961L499.325 208.836" stroke="#A866FF" stroke-width="1.73"/>
<path d="M339.446 214.48H328.672" stroke="#A866FF" stroke-width="1.73"/>
<path d="M363.415 215.476L352.804 213.605" stroke="#A866FF" stroke-width="1.73"/>
<path d="M387.148 216.447L377.024 212.762" stroke="#A866FF" stroke-width="1.73"/>
<path d="M253.441 233.677L263.565 229.992" stroke="#A866FF" stroke-width="1.73"/>
<path d="M277.466 232.629L288.076 230.758" stroke="#A866FF" stroke-width="1.73"/>
<path d="M386.413 235.91L377.082 230.523" stroke="#A866FF" stroke-width="1.73"/>
<path d="M409.726 236.835L401.472 229.91" stroke="#A866FF" stroke-width="1.73"/>
<path d="M432.866 237.402L425.941 229.148" stroke="#A866FF" stroke-width="1.73"/>
<path d="M455.868 237.615L450.48 228.285" stroke="#A866FF" stroke-width="1.73"/>
<path d="M478.767 237.816L475.082 227.691" stroke="#A866FF" stroke-width="1.73"/>
<path d="M501.61 238.005L499.739 227.395" stroke="#A866FF" stroke-width="1.73"/>
<path d="M315.203 233.332H304.428" stroke="#A866FF" stroke-width="1.73"/>
<path d="M339.171 234.332L328.561 232.461" stroke="#A866FF" stroke-width="1.73"/>
<path d="M362.904 235.302L352.78 231.617" stroke="#A866FF" stroke-width="1.73"/>
<path d="M253.225 251.48L263.836 249.609" stroke="#A866FF" stroke-width="1.73"/>
<path d="M362.173 254.766L352.842 249.379" stroke="#A866FF" stroke-width="1.73"/>
<path d="M385.482 255.691L377.229 248.766" stroke="#A866FF" stroke-width="1.73"/>
<path d="M408.623 256.257L401.697 248.004" stroke="#A866FF" stroke-width="1.73"/>
<path d="M431.624 256.472L426.237 247.141" stroke="#A866FF" stroke-width="1.73"/>
<path d="M454.527 256.671L450.842 246.547" stroke="#A866FF" stroke-width="1.73"/>
<path d="M477.37 256.861L475.499 246.25" stroke="#A866FF" stroke-width="1.73"/>
<path d="M500.195 256.712V245.938" stroke="#A866FF" stroke-width="1.73"/>
<path d="M290.962 252.188H280.188" stroke="#A866FF" stroke-width="1.73"/>
<path d="M314.931 253.187L304.32 251.316" stroke="#A866FF" stroke-width="1.73"/>
<path d="M338.664 254.158L328.54 250.473" stroke="#A866FF" stroke-width="1.73"/>
<path d="M337.929 273.621L328.599 268.234" stroke="#A866FF" stroke-width="1.73"/>
<path d="M361.242 274.543L352.988 267.617" stroke="#A866FF" stroke-width="1.73"/>
<path d="M384.382 275.112L377.457 266.859" stroke="#A866FF" stroke-width="1.73"/>
<path d="M407.384 275.323L401.997 265.992" stroke="#A866FF" stroke-width="1.73"/>
<path d="M430.283 275.526L426.598 265.402" stroke="#A866FF" stroke-width="1.73"/>
<path d="M453.126 275.716L451.255 265.105" stroke="#A866FF" stroke-width="1.73"/>
<path d="M475.951 275.564V264.789" stroke="#A866FF" stroke-width="1.73"/>
<path d="M498.805 275.415L500.676 264.805" stroke="#A866FF" stroke-width="1.73"/>
<path d="M266.719 271.043H255.945" stroke="#A866FF" stroke-width="1.73"/>
<path d="M290.687 272.039L280.077 270.168" stroke="#A866FF" stroke-width="1.73"/>
<path d="M314.42 273.013L304.296 269.328" stroke="#A866FF" stroke-width="1.73"/>
<path d="M497.483 293.789L501.168 283.664" stroke="#A866FF" stroke-width="1.73"/>
<path d="M313.689 292.477L304.358 287.09" stroke="#A866FF" stroke-width="1.73"/>
<path d="M336.998 293.399L328.745 286.473" stroke="#A866FF" stroke-width="1.73"/>
<path d="M360.139 293.964L353.213 285.711" stroke="#A866FF" stroke-width="1.73"/>
<path d="M383.14 294.179L377.753 284.848" stroke="#A866FF" stroke-width="1.73"/>
<path d="M406.043 294.379L402.358 284.254" stroke="#A866FF" stroke-width="1.73"/>
<path d="M428.885 294.571L427.015 283.961" stroke="#A866FF" stroke-width="1.73"/>
<path d="M451.711 294.422V283.648" stroke="#A866FF" stroke-width="1.73"/>
<path d="M474.562 294.271L476.433 283.66" stroke="#A866FF" stroke-width="1.73"/>
<path d="M266.447 290.894L255.836 289.023" stroke="#A866FF" stroke-width="1.73"/>
<path d="M290.18 291.869L280.056 288.184" stroke="#A866FF" stroke-width="1.73"/>
<path d="M473.242 312.644L476.927 302.52" stroke="#A866FF" stroke-width="1.73"/>
<path d="M496.27 312.17L501.658 302.84" stroke="#A866FF" stroke-width="1.73"/>
<path d="M289.445 311.332L280.115 305.945" stroke="#A866FF" stroke-width="1.73"/>
<path d="M312.758 312.254L304.504 305.328" stroke="#A866FF" stroke-width="1.73"/>
<path d="M335.898 312.82L328.973 304.566" stroke="#A866FF" stroke-width="1.73"/>
<path d="M358.9 313.033L353.513 303.703" stroke="#A866FF" stroke-width="1.73"/>
<path d="M381.799 313.234L378.114 303.109" stroke="#A866FF" stroke-width="1.73"/>
<path d="M404.643 313.426L402.771 302.816" stroke="#A866FF" stroke-width="1.73"/>
<path d="M427.467 313.274V302.5" stroke="#A866FF" stroke-width="1.73"/>
<path d="M450.321 313.127L452.192 302.516" stroke="#A866FF" stroke-width="1.73"/>
<path d="M265.937 310.72L255.812 307.035" stroke="#A866FF" stroke-width="1.73"/>
<path d="M448.999 331.499L452.684 321.375" stroke="#A866FF" stroke-width="1.73"/>
<path d="M472.029 331.026L477.416 321.695" stroke="#A866FF" stroke-width="1.73"/>
<path d="M495.204 330.563L502.129 322.309" stroke="#A866FF" stroke-width="1.73"/>
<path d="M265.205 330.184L255.874 324.797" stroke="#A866FF" stroke-width="1.73"/>
<path d="M288.514 331.109L280.261 324.184" stroke="#A866FF" stroke-width="1.73"/>
<path d="M311.655 331.676L304.729 323.422" stroke="#A866FF" stroke-width="1.73"/>
<path d="M334.656 331.89L329.269 322.559" stroke="#A866FF" stroke-width="1.73"/>
<path d="M357.559 332.09L353.874 321.965" stroke="#A866FF" stroke-width="1.73"/>
<path d="M380.402 332.278L378.531 321.668" stroke="#A866FF" stroke-width="1.73"/>
<path d="M403.228 332.129V321.355" stroke="#A866FF" stroke-width="1.73"/>
<path d="M426.078 331.978L427.949 321.367" stroke="#A866FF" stroke-width="1.73"/>
<path d="M424.758 350.352L428.443 340.227" stroke="#A866FF" stroke-width="1.73"/>
<path d="M447.785 349.877L453.172 340.547" stroke="#A866FF" stroke-width="1.73"/>
<path d="M470.96 349.417L477.885 341.164" stroke="#A866FF" stroke-width="1.73"/>
<path d="M494.313 348.64L502.568 341.715" stroke="#A866FF" stroke-width="1.73"/>
<path d="M264.274 349.964L256.021 343.039" stroke="#A866FF" stroke-width="1.73"/>
<path d="M287.414 350.53L280.489 342.277" stroke="#A866FF" stroke-width="1.73"/>
<path d="M310.416 350.744L305.029 341.414" stroke="#A866FF" stroke-width="1.73"/>
<path d="M333.315 350.944L329.63 340.82" stroke="#A866FF" stroke-width="1.73"/>
<path d="M356.158 351.134L354.287 340.523" stroke="#A866FF" stroke-width="1.73"/>
<path d="M378.983 350.985V340.211" stroke="#A866FF" stroke-width="1.73"/>
<path d="M401.838 350.837L403.708 340.227" stroke="#A866FF" stroke-width="1.73"/>
</g>
<path d="M287.59 50H16.8071C7.7435 50 0.395996 57.3475 0.395996 66.4111V379.589C0.395996 388.652 7.7435 396 16.8071 396H287.59C296.654 396 304.001 388.652 304.001 379.589V66.4111C304.001 57.3475 296.654 50 287.59 50Z" fill="white"/>
<path d="M287.59 50.5H16.8071C8.01964 50.5 0.895996 57.6236 0.895996 66.4111V379.589C0.895996 388.376 8.01964 395.5 16.8071 395.5H287.59C296.377 395.5 303.501 388.376 303.501 379.589V66.4111C303.501 57.6236 296.377 50.5 287.59 50.5Z" stroke="#EDF0F3"/>
<path d="M41.7231 99.8807L48.7531 79.504H53.5671L60.5961 99.8807H56.5481L55.0981 95.5047H47.2211L45.7441 99.8807H41.7231ZM48.2881 92.2227H54.0321L50.6401 82.075H51.6791L48.2881 92.2227ZM67.9711 100.045C66.2941 100.045 64.9901 99.5897 64.0601 98.6777C63.1481 97.7477 62.6921 96.4437 62.6921 94.7667V88.2017H60.1211V85.0017H60.3951C61.1241 85.0017 61.6891 84.8107 62.0901 84.4277C62.4921 84.0447 62.6921 83.4882 62.6921 82.7588V81.6101H66.2751V85.0017H69.6941V88.2017H66.2751V94.5747C66.2751 95.0667 66.3571 95.4867 66.5211 95.8327C66.7041 96.1797 66.9771 96.4437 67.3421 96.6257C67.7251 96.8087 68.2081 96.8997 68.7921 96.8997C68.9191 96.8997 69.0651 96.8907 69.2291 96.8727C69.4121 96.8537 69.5851 96.8357 69.7491 96.8177V99.8807C69.4941 99.9177 69.2021 99.9537 68.8741 99.9907C68.5451 100.027 68.2451 100.045 67.9711 100.045ZM78.7231 100.045C77.0451 100.045 75.7411 99.5897 74.8111 98.6777C73.9001 97.7477 73.4441 96.4437 73.4441 94.7667V88.2017H70.8731V85.0017H71.1461C71.8761 85.0017 72.4411 84.8107 72.8421 84.4277C73.2431 84.0447 73.4441 83.4882 73.4441 82.7588V81.6101H77.0271V85.0017H80.4461V88.2017H77.0271V94.5747C77.0271 95.0667 77.1091 95.4867 77.2731 95.8327C77.4551 96.1797 77.7291 96.4437 78.0941 96.6257C78.4771 96.8087 78.9601 96.8997 79.5431 96.8997C79.6711 96.8997 79.8171 96.8907 79.9811 96.8727C80.1631 96.8537 80.3361 96.8357 80.5011 96.8177V99.8807C80.2451 99.9177 79.9541 99.9537 79.6251 99.9907C79.2971 100.027 78.9961 100.045 78.7231 100.045ZM89.8331 100.21C88.3741 100.21 87.0431 99.8717 85.8401 99.1977C84.6541 98.5227 83.7061 97.6017 82.9951 96.4347C82.3021 95.2677 81.9561 93.9367 81.9561 92.4417C81.9561 90.9457 82.3021 89.6147 82.9951 88.4477C83.7061 87.2807 84.6541 86.3597 85.8401 85.6857C87.0251 85.0107 88.3561 84.6737 89.8331 84.6737C91.2921 84.6737 92.6141 85.0107 93.7991 85.6857C94.9841 86.3597 95.9231 87.2807 96.6161 88.4477C97.3271 89.5967 97.6831 90.9277 97.6831 92.4417C97.6831 93.9367 97.3271 95.2677 96.6161 96.4347C95.9051 97.6017 94.9571 98.5227 93.7721 99.1977C92.5861 99.8717 91.2741 100.21 89.8331 100.21ZM89.8331 96.9267C90.6351 96.9267 91.3371 96.7357 91.9391 96.3527C92.5591 95.9697 93.0421 95.4407 93.3891 94.7667C93.7541 94.0737 93.9361 93.2987 93.9361 92.4417C93.9361 91.5657 93.7541 90.8007 93.3891 90.1437C93.0421 89.4687 92.5591 88.9407 91.9391 88.5577C91.3371 88.1567 90.6351 87.9557 89.8331 87.9557C89.0131 87.9557 88.2921 88.1567 87.6721 88.5577C87.0521 88.9407 86.5601 89.4687 86.1951 90.1437C85.8491 90.8007 85.6761 91.5657 85.6761 92.4417C85.6761 93.2987 85.8491 94.0737 86.1951 94.7667C86.5601 95.4407 87.0521 95.9697 87.6721 96.3527C88.2921 96.7357 89.0131 96.9267 89.8331 96.9267ZM99.8531 99.8807V85.0017H103.218V88.3117L102.944 87.8187C103.29 86.7067 103.828 85.9317 104.558 85.4937C105.305 85.0567 106.199 84.8377 107.238 84.8377H108.113V88.0107H106.828C105.807 88.0107 104.986 88.3297 104.366 88.9677C103.746 89.5877 103.436 90.4627 103.436 91.5937V99.8807H99.8531ZM109.536 99.8807V85.0017H112.901V87.9287L112.627 87.4087C112.974 86.5147 113.539 85.8407 114.323 85.3847C115.125 84.9107 116.055 84.6737 117.113 84.6737C118.207 84.6737 119.173 84.9107 120.012 85.3847C120.869 85.8587 121.535 86.5247 122.009 87.3817C122.483 88.2197 122.72 89.1957 122.72 90.3077V99.8807H119.137V91.1557C119.137 90.4997 119.009 89.9337 118.754 89.4597C118.499 88.9857 118.143 88.6217 117.687 88.3657C117.25 88.0927 116.73 87.9557 116.128 87.9557C115.545 87.9557 115.025 88.0927 114.569 88.3657C114.113 88.6217 113.758 88.9857 113.502 89.4597C113.247 89.9337 113.119 90.4997 113.119 91.1557V99.8807H109.536ZM132.26 100.21C130.728 100.21 129.388 99.8627 128.239 99.1697C127.09 98.4767 126.197 97.5377 125.558 96.3527C124.92 95.1677 124.601 93.8547 124.601 92.4137C124.601 90.9187 124.92 89.5967 125.558 88.4477C126.215 87.2807 127.099 86.3597 128.211 85.6857C129.342 85.0107 130.6 84.6737 131.986 84.6737C133.153 84.6737 134.174 84.8647 135.049 85.2477C135.943 85.6307 136.7 86.1597 137.32 86.8347C137.94 87.5087 138.414 88.2837 138.742 89.1587C139.07 90.0157 139.234 90.9457 139.234 91.9487C139.234 92.2047 139.216 92.4687 139.18 92.7427C139.161 93.0157 139.116 93.2527 139.043 93.4537H127.555V90.7187H137.019L135.323 92.0037C135.487 91.1647 135.441 90.4177 135.186 89.7607C134.949 89.1047 134.548 88.5847 133.983 88.2017C133.436 87.8187 132.77 87.6277 131.986 87.6277C131.238 87.6277 130.573 87.8187 129.989 88.2017C129.406 88.5667 128.959 89.1137 128.649 89.8427C128.357 90.5537 128.248 91.4207 128.321 92.4417C128.248 93.3527 128.366 94.1647 128.676 94.8757C129.005 95.5687 129.479 96.1067 130.099 96.4897C130.737 96.8727 131.466 97.0637 132.287 97.0637C133.107 97.0637 133.8 96.8907 134.366 96.5437C134.949 96.1977 135.405 95.7327 135.733 95.1487L138.632 96.5717C138.341 97.2827 137.885 97.9117 137.265 98.4587C136.645 99.0057 135.906 99.4347 135.049 99.7447C134.211 100.055 133.281 100.21 132.26 100.21ZM143.209 105.926C142.807 105.926 142.415 105.89 142.032 105.817C141.65 105.762 141.303 105.662 140.993 105.516V102.507C141.23 102.562 141.513 102.617 141.841 102.671C142.187 102.726 142.507 102.753 142.798 102.753C143.619 102.753 144.211 102.562 144.576 102.179C144.959 101.796 145.296 101.295 145.588 100.675L146.573 98.3767L146.518 101.386L140.036 85.0017H143.892L148.433 97.0907H147.065L151.578 85.0017H155.462L148.98 101.386C148.597 102.352 148.132 103.173 147.585 103.847C147.038 104.522 146.4 105.033 145.67 105.379C144.959 105.744 144.139 105.926 143.209 105.926ZM168.774 100.21C167.479 100.21 166.275 99.9727 165.163 99.4977C164.069 99.0237 163.121 98.3677 162.318 97.5287C161.534 96.6717 160.96 95.6777 160.595 94.5477L163.686 93.2077C164.178 94.3747 164.89 95.2947 165.82 95.9697C166.749 96.6257 167.798 96.9547 168.965 96.9547C169.621 96.9547 170.187 96.8537 170.661 96.6537C171.153 96.4347 171.527 96.1427 171.782 95.7787C172.056 95.4137 172.192 94.9757 172.192 94.4657C172.192 93.8637 172.01 93.3717 171.645 92.9887C171.299 92.5877 170.77 92.2777 170.059 92.0587L166.148 90.8007C164.561 90.3077 163.367 89.5697 162.565 88.5847C161.762 87.5997 161.361 86.4427 161.361 85.1107C161.361 83.9441 161.644 82.9138 162.209 82.0203C162.793 81.1268 163.595 80.4339 164.616 79.9416C165.655 79.431 166.841 79.1758 168.172 79.1758C169.393 79.1758 170.515 79.3946 171.536 79.8322C172.557 80.2516 173.432 80.8442 174.162 81.6101C174.909 82.3577 175.466 83.242 175.83 84.2627L172.767 85.6307C172.366 84.6097 171.764 83.8256 170.962 83.2785C170.159 82.7132 169.229 82.4306 168.172 82.4306C167.552 82.4306 167.005 82.54 166.531 82.7588C166.057 82.9594 165.683 83.2512 165.409 83.6341C165.154 83.9988 165.026 84.4367 165.026 84.9467C165.026 85.5127 165.209 86.0137 165.573 86.4517C165.938 86.8707 166.494 87.1987 167.242 87.4357L170.989 88.6117C172.612 89.1407 173.824 89.8707 174.627 90.8007C175.447 91.7307 175.858 92.8787 175.858 94.2467C175.858 95.4137 175.557 96.4437 174.955 97.3377C174.353 98.2307 173.524 98.9327 172.466 99.4437C171.408 99.9537 170.178 100.21 168.774 100.21ZM178.359 99.8807V79.1758H181.942V87.9287L181.45 87.4087C181.796 86.5147 182.362 85.8407 183.146 85.3847C183.948 84.9107 184.878 84.6737 185.936 84.6737C187.03 84.6737 187.996 84.9107 188.835 85.3847C189.692 85.8587 190.358 86.5247 190.832 87.3817C191.306 88.2197 191.543 89.1957 191.543 90.3077V99.8807H187.96V91.1557C187.96 90.4997 187.832 89.9337 187.577 89.4597C187.322 88.9857 186.966 88.6217 186.51 88.3657C186.072 88.0927 185.553 87.9557 184.951 87.9557C184.368 87.9557 183.848 88.0927 183.392 88.3657C182.936 88.6217 182.581 88.9857 182.325 89.4597C182.07 89.9337 181.942 90.4997 181.942 91.1557V99.8807H178.359ZM201.301 100.21C199.842 100.21 198.511 99.8717 197.308 99.1977C196.123 98.5227 195.174 97.6017 194.463 96.4347C193.77 95.2677 193.424 93.9367 193.424 92.4417C193.424 90.9457 193.77 89.6147 194.463 88.4477C195.174 87.2807 196.123 86.3597 197.308 85.6857C198.493 85.0107 199.824 84.6737 201.301 84.6737C202.76 84.6737 204.082 85.0107 205.267 85.6857C206.452 86.3597 207.392 87.2807 208.084 88.4477C208.796 89.5967 209.151 90.9277 209.151 92.4417C209.151 93.9367 208.796 95.2677 208.084 96.4347C207.373 97.6017 206.425 98.5227 205.24 99.1977C204.055 99.8717 202.742 100.21 201.301 100.21ZM201.301 96.9267C202.104 96.9267 202.806 96.7357 203.407 96.3527C204.027 95.9697 204.51 95.4407 204.857 94.7667C205.222 94.0737 205.404 93.2987 205.404 92.4417C205.404 91.5657 205.222 90.8007 204.857 90.1437C204.51 89.4687 204.027 88.9407 203.407 88.5577C202.806 88.1567 202.104 87.9557 201.301 87.9557C200.481 87.9557 199.76 88.1567 199.14 88.5577C198.52 88.9407 198.028 89.4687 197.663 90.1437C197.317 90.8007 197.144 91.5657 197.144 92.4417C197.144 93.2987 197.317 94.0737 197.663 94.7667C198.028 95.4407 198.52 95.9697 199.14 96.3527C199.76 96.7357 200.481 96.9267 201.301 96.9267ZM211.321 105.352V85.0017H214.686V87.9557L214.357 87.2167C214.868 86.4147 215.561 85.7947 216.436 85.3577C217.311 84.9017 218.323 84.6737 219.472 84.6737C220.876 84.6737 222.144 85.0197 223.274 85.7127C224.405 86.4057 225.298 87.3357 225.955 88.5027C226.629 89.6697 226.967 90.9827 226.967 92.4417C226.967 93.8817 226.638 95.1947 225.982 96.3797C225.325 97.5657 224.432 98.5047 223.301 99.1977C222.171 99.8717 220.885 100.21 219.445 100.21C218.369 100.21 217.375 99.9997 216.463 99.5797C215.57 99.1427 214.859 98.5227 214.33 97.7207L214.904 97.0087V105.352H211.321ZM219.035 96.9267C219.855 96.9267 220.584 96.7357 221.223 96.3527C221.861 95.9697 222.353 95.4407 222.7 94.7667C223.064 94.0917 223.247 93.3167 223.247 92.4417C223.247 91.5657 223.064 90.8007 222.7 90.1437C222.353 89.4687 221.861 88.9407 221.223 88.5577C220.584 88.1567 219.855 87.9557 219.035 87.9557C218.25 87.9557 217.539 88.1467 216.901 88.5297C216.281 88.9127 215.789 89.4507 215.424 90.1437C215.078 90.8187 214.904 91.5847 214.904 92.4417C214.904 93.3167 215.078 94.0917 215.424 94.7667C215.789 95.4407 216.281 95.9697 216.901 96.3527C217.539 96.7357 218.25 96.9267 219.035 96.9267ZM229.151 105.352V85.0017H232.516V87.9557L232.187 87.2167C232.698 86.4147 233.391 85.7947 234.266 85.3577C235.141 84.9017 236.153 84.6737 237.302 84.6737C238.706 84.6737 239.973 85.0197 241.104 85.7127C242.235 86.4057 243.128 87.3357 243.784 88.5027C244.459 89.6697 244.796 90.9827 244.796 92.4417C244.796 93.8817 244.468 95.1947 243.812 96.3797C243.155 97.5657 242.262 98.5047 241.131 99.1977C240.001 99.8717 238.715 100.21 237.275 100.21C236.199 100.21 235.205 99.9997 234.293 99.5797C233.4 99.1427 232.689 98.5227 232.16 97.7207L232.734 97.0087V105.352H229.151ZM236.864 96.9267C237.685 96.9267 238.414 96.7357 239.053 96.3527C239.691 95.9697 240.183 95.4407 240.53 94.7667C240.894 94.0917 241.077 93.3167 241.077 92.4417C241.077 91.5657 240.894 90.8007 240.53 90.1437C240.183 89.4687 239.691 88.9407 239.053 88.5577C238.414 88.1567 237.685 87.9557 236.864 87.9557C236.08 87.9557 235.369 88.1467 234.731 88.5297C234.111 88.9127 233.619 89.4507 233.254 90.1437C232.908 90.8187 232.734 91.5847 232.734 92.4417C232.734 93.3167 232.908 94.0917 233.254 94.7667C233.619 95.4407 234.111 95.9697 234.731 96.3527C235.369 96.7357 236.08 96.9267 236.864 96.9267ZM254.038 100.21C252.506 100.21 251.166 99.8627 250.017 99.1697C248.868 98.4767 247.975 97.5377 247.337 96.3527C246.699 95.1677 246.379 93.8547 246.379 92.4137C246.379 90.9187 246.699 89.5967 247.337 88.4477C247.993 87.2807 248.878 86.3597 249.99 85.6857C251.12 85.0107 252.379 84.6737 253.764 84.6737C254.931 84.6737 255.953 84.8647 256.828 85.2477C257.721 85.6307 258.478 86.1597 259.098 86.8347C259.718 87.5087 260.192 88.2837 260.52 89.1587C260.849 90.0157 261.013 90.9457 261.013 91.9487C261.013 92.2047 260.994 92.4687 260.958 92.7427C260.94 93.0157 260.894 93.2527 260.821 93.4537H249.333V90.7187H258.797L257.101 92.0037C257.265 91.1647 257.22 90.4177 256.965 89.7607C256.728 89.1047 256.326 88.5847 255.761 88.2017C255.214 87.8187 254.549 87.6277 253.764 87.6277C253.017 87.6277 252.351 87.8187 251.768 88.2017C251.184 88.5667 250.738 89.1137 250.428 89.8427C250.136 90.5537 250.026 91.4207 250.099 92.4417C250.026 93.3527 250.145 94.1647 250.455 94.8757C250.783 95.5687 251.257 96.1067 251.877 96.4897C252.515 96.8727 253.245 97.0637 254.065 97.0637C254.886 97.0637 255.579 96.8907 256.144 96.5437C256.728 96.1977 257.183 95.7327 257.512 95.1487L260.411 96.5717C260.119 97.2827 259.663 97.9117 259.043 98.4587C258.423 99.0057 257.685 99.4347 256.828 99.7447C255.989 100.055 255.059 100.21 254.038 100.21Z" fill="#171717"/>
<path d="M107.144 132.644V120.418H108.457V125.916H115.021V120.418H116.334V132.644H115.021V127.147H108.457V132.644H107.144ZM118.391 132.644V123.848H119.622V132.644H118.391ZM118.391 122.223V120.418H119.622V122.223H118.391ZM121.485 132.644V123.848H122.715V125.292L122.551 125.079C122.759 124.663 123.071 124.335 123.487 124.094C123.913 123.853 124.428 123.733 125.029 123.733H125.587V124.964H124.816C124.181 124.964 123.673 125.161 123.29 125.555C122.907 125.949 122.715 126.507 122.715 127.229V132.644H121.485ZM130.378 132.841C129.557 132.841 128.813 132.644 128.146 132.25C127.489 131.846 126.97 131.293 126.587 130.593C126.204 129.893 126.012 129.099 126.012 128.213C126.012 127.327 126.198 126.545 126.57 125.867C126.942 125.177 127.445 124.636 128.08 124.242C128.726 123.848 129.448 123.651 130.246 123.651C130.881 123.651 131.444 123.771 131.937 124.012C132.44 124.242 132.867 124.559 133.217 124.964C133.567 125.358 133.835 125.806 134.021 126.31C134.207 126.802 134.3 127.311 134.3 127.836C134.3 127.945 134.294 128.071 134.283 128.213C134.272 128.345 134.256 128.481 134.234 128.624H126.8V127.475H133.529L132.938 127.967C133.036 127.365 132.965 126.829 132.724 126.359C132.495 125.877 132.161 125.5 131.723 125.226C131.286 124.942 130.793 124.8 130.246 124.8C129.699 124.8 129.191 124.942 128.72 125.226C128.261 125.511 127.9 125.91 127.637 126.424C127.374 126.928 127.27 127.53 127.325 128.23C127.27 128.93 127.38 129.543 127.653 130.068C127.938 130.582 128.321 130.981 128.802 131.266C129.294 131.55 129.82 131.692 130.378 131.692C131.023 131.692 131.565 131.539 132.002 131.233C132.44 130.927 132.795 130.544 133.069 130.084L134.119 130.642C133.944 131.036 133.676 131.403 133.315 131.742C132.954 132.07 132.522 132.338 132.019 132.546C131.526 132.743 130.979 132.841 130.378 132.841ZM140.489 132.841C139.931 132.841 139.434 132.737 138.996 132.529C138.558 132.311 138.214 132.015 137.962 131.643C137.71 131.271 137.585 130.845 137.585 130.363C137.585 129.904 137.683 129.488 137.88 129.116C138.077 128.733 138.383 128.41 138.799 128.148C139.215 127.885 139.745 127.699 140.391 127.59L143.837 127.015V128.131L140.686 128.656C140.052 128.766 139.592 128.968 139.308 129.264C139.034 129.559 138.897 129.909 138.897 130.314C138.897 130.708 139.051 131.041 139.357 131.315C139.674 131.589 140.079 131.725 140.571 131.725C141.173 131.725 141.698 131.599 142.147 131.348C142.595 131.085 142.946 130.735 143.197 130.298C143.449 129.86 143.575 129.373 143.575 128.837V126.605C143.575 126.08 143.383 125.653 143 125.325C142.617 124.997 142.12 124.833 141.507 124.833C140.971 124.833 140.5 124.969 140.096 125.243C139.691 125.505 139.39 125.85 139.193 126.277L138.077 125.67C138.241 125.298 138.498 124.958 138.848 124.652C139.209 124.346 139.62 124.105 140.079 123.93C140.539 123.744 141.015 123.651 141.507 123.651C142.152 123.651 142.721 123.777 143.214 124.028C143.717 124.28 144.105 124.63 144.379 125.079C144.663 125.516 144.805 126.025 144.805 126.605V132.644H143.575V130.888L143.755 131.069C143.602 131.397 143.361 131.698 143.033 131.971C142.716 132.234 142.338 132.447 141.901 132.611C141.474 132.765 141.004 132.841 140.489 132.841ZM149.885 132.743C149.097 132.743 148.49 132.513 148.063 132.053C147.636 131.594 147.423 130.938 147.423 130.084V125.079H145.798V123.848H146.209C146.581 123.848 146.876 123.728 147.095 123.487C147.314 123.235 147.423 122.923 147.423 122.551V121.813H148.654V123.848H150.59V125.079H148.654V130.084C148.654 130.38 148.698 130.642 148.785 130.872C148.873 131.091 149.02 131.266 149.228 131.397C149.447 131.528 149.737 131.594 150.098 131.594C150.186 131.594 150.29 131.589 150.41 131.578C150.53 131.567 150.634 131.556 150.722 131.545V132.644C150.59 132.677 150.443 132.699 150.279 132.71C150.114 132.732 149.983 132.743 149.885 132.743ZM155.591 132.743C154.803 132.743 154.196 132.513 153.769 132.053C153.342 131.594 153.129 130.938 153.129 130.084V125.079H151.504V123.848H151.915C152.287 123.848 152.582 123.728 152.801 123.487C153.02 123.235 153.129 122.923 153.129 122.551V121.813H154.36V123.848H156.296V125.079H154.36V130.084C154.36 130.38 154.404 130.642 154.491 130.872C154.579 131.091 154.726 131.266 154.934 131.397C155.153 131.528 155.443 131.594 155.804 131.594C155.892 131.594 155.996 131.589 156.116 131.578C156.236 131.567 156.34 131.556 156.428 131.545V132.644C156.296 132.677 156.149 132.699 155.985 132.71C155.821 132.732 155.689 132.743 155.591 132.743ZM161.731 132.841C160.9 132.841 160.145 132.644 159.466 132.25C158.788 131.846 158.247 131.299 157.842 130.609C157.448 129.909 157.251 129.116 157.251 128.23C157.251 127.354 157.448 126.572 157.842 125.883C158.236 125.194 158.766 124.652 159.434 124.258C160.112 123.853 160.878 123.651 161.731 123.651C162.585 123.651 163.345 123.848 164.012 124.242C164.691 124.636 165.221 125.177 165.604 125.867C165.998 126.556 166.195 127.344 166.195 128.23C166.195 129.127 165.993 129.926 165.588 130.626C165.183 131.315 164.641 131.857 163.963 132.25C163.296 132.644 162.552 132.841 161.731 132.841ZM161.731 131.61C162.322 131.61 162.853 131.463 163.323 131.167C163.804 130.872 164.182 130.467 164.455 129.953C164.74 129.439 164.882 128.864 164.882 128.23C164.882 127.595 164.74 127.026 164.455 126.523C164.182 126.02 163.804 125.62 163.323 125.325C162.853 125.03 162.322 124.882 161.731 124.882C161.14 124.882 160.604 125.03 160.123 125.325C159.652 125.62 159.275 126.02 158.991 126.523C158.706 127.026 158.564 127.595 158.564 128.23C158.564 128.864 158.706 129.439 158.991 129.953C159.275 130.467 159.652 130.872 160.123 131.167C160.604 131.463 161.14 131.61 161.731 131.61ZM167.709 132.644V123.848H168.94V125.292L168.776 125.079C168.984 124.663 169.296 124.335 169.711 124.094C170.138 123.853 170.652 123.733 171.254 123.733H171.812V124.964H171.041C170.406 124.964 169.897 125.161 169.515 125.555C169.132 125.949 168.94 126.507 168.94 127.229V132.644H167.709ZM172.598 132.644V123.848H173.829V125.555L173.55 125.489C173.769 124.92 174.124 124.472 174.617 124.143C175.12 123.815 175.7 123.651 176.356 123.651C176.98 123.651 177.538 123.793 178.03 124.078C178.533 124.362 178.927 124.756 179.212 125.259C179.507 125.752 179.655 126.31 179.655 126.933V132.644H178.424V127.409C178.424 126.873 178.325 126.419 178.129 126.047C177.943 125.675 177.675 125.391 177.324 125.194C176.985 124.986 176.591 124.882 176.143 124.882C175.694 124.882 175.295 124.986 174.945 125.194C174.595 125.391 174.321 125.681 174.124 126.063C173.927 126.435 173.829 126.884 173.829 127.409V132.644H172.598ZM185.353 132.841C184.533 132.841 183.789 132.644 183.121 132.25C182.465 131.846 181.945 131.293 181.562 130.593C181.179 129.893 180.988 129.099 180.988 128.213C180.988 127.327 181.174 126.545 181.546 125.867C181.918 125.177 182.421 124.636 183.056 124.242C183.701 123.848 184.423 123.651 185.222 123.651C185.857 123.651 186.42 123.771 186.912 124.012C187.416 124.242 187.842 124.559 188.192 124.964C188.543 125.358 188.811 125.806 188.997 126.31C189.183 126.802 189.276 127.311 189.276 127.836C189.276 127.945 189.27 128.071 189.259 128.213C189.248 128.345 189.232 128.481 189.21 128.624H181.776V127.475H188.504L187.914 127.967C188.012 127.365 187.941 126.829 187.7 126.359C187.47 125.877 187.137 125.5 186.699 125.226C186.261 124.942 185.769 124.8 185.222 124.8C184.675 124.8 184.166 124.942 183.696 125.226C183.236 125.511 182.875 125.91 182.613 126.424C182.35 126.928 182.246 127.53 182.301 128.23C182.246 128.93 182.356 129.543 182.629 130.068C182.914 130.582 183.297 130.981 183.778 131.266C184.27 131.55 184.795 131.692 185.353 131.692C185.999 131.692 186.54 131.539 186.978 131.233C187.416 130.927 187.771 130.544 188.045 130.084L189.095 130.642C188.92 131.036 188.652 131.403 188.291 131.742C187.93 132.07 187.498 132.338 186.994 132.546C186.502 132.743 185.955 132.841 185.353 132.841ZM190.97 136.255C190.795 136.255 190.614 136.238 190.428 136.205C190.253 136.184 190.078 136.14 189.903 136.074V134.925C190.012 134.936 190.149 134.953 190.313 134.975C190.488 135.007 190.663 135.024 190.839 135.024C191.375 135.024 191.785 134.909 192.069 134.679C192.354 134.46 192.633 134.034 192.906 133.399L193.464 132.086L193.431 133.169L189.706 123.848H191.035L194.088 131.545H193.743L196.779 123.848H198.141L194.121 133.76C193.946 134.187 193.721 134.592 193.448 134.975C193.185 135.358 192.852 135.664 192.447 135.894C192.042 136.134 191.55 136.255 190.97 136.255Z" fill="#918EA4"/>
<path d="M99.581 162.824H62.1106C54.0905 162.824 47.5889 169.326 47.5889 177.346V177.346C47.5889 185.366 54.0905 191.868 62.1106 191.868H99.581C107.601 191.868 114.103 185.366 114.103 177.346V177.346C114.103 169.326 107.601 162.824 99.581 162.824Z" stroke="#918EA4" stroke-opacity="0.25" stroke-width="1.36759"/>
<path d="M61.544 181.48C61.026 181.48 60.544 181.385 60.099 181.195C59.662 181.006 59.283 180.743 58.962 180.408C58.648 180.065 58.418 179.667 58.272 179.215L59.509 178.679C59.706 179.146 59.99 179.514 60.362 179.784C60.734 180.046 61.153 180.178 61.62 180.178C61.883 180.178 62.109 180.138 62.299 180.057C62.496 179.97 62.645 179.853 62.747 179.707C62.857 179.561 62.911 179.386 62.911 179.182C62.911 178.941 62.838 178.745 62.692 178.591C62.554 178.431 62.342 178.307 62.058 178.219L60.493 177.716C59.859 177.519 59.381 177.224 59.06 176.83C58.739 176.436 58.579 175.973 58.579 175.44C58.579 174.974 58.692 174.562 58.918 174.204C59.151 173.847 59.472 173.57 59.881 173.373C60.296 173.168 60.771 173.066 61.303 173.066C61.792 173.066 62.24 173.154 62.649 173.329C63.057 173.497 63.407 173.734 63.699 174.04C63.998 174.339 64.22 174.693 64.366 175.101L63.141 175.648C62.981 175.24 62.74 174.926 62.419 174.707C62.098 174.481 61.726 174.368 61.303 174.368C61.055 174.368 60.836 174.412 60.647 174.5C60.457 174.58 60.307 174.696 60.198 174.85C60.096 174.996 60.045 175.171 60.045 175.375C60.045 175.601 60.118 175.801 60.264 175.977C60.409 176.144 60.632 176.276 60.931 176.37L62.43 176.841C63.079 177.052 63.564 177.344 63.885 177.716C64.213 178.088 64.377 178.548 64.377 179.095C64.377 179.561 64.257 179.974 64.016 180.331C63.776 180.688 63.444 180.969 63.021 181.173C62.598 181.378 62.105 181.48 61.544 181.48ZM68.419 181.48C67.807 181.48 67.271 181.341 66.811 181.064C66.352 180.787 65.994 180.411 65.739 179.937C65.484 179.463 65.356 178.938 65.356 178.362C65.356 177.764 65.484 177.235 65.739 176.775C66.002 176.308 66.355 175.94 66.8 175.67C67.252 175.4 67.756 175.265 68.31 175.265C68.777 175.265 69.185 175.342 69.535 175.495C69.893 175.648 70.196 175.86 70.444 176.13C70.691 176.4 70.881 176.71 71.012 177.06C71.144 177.402 71.209 177.774 71.209 178.176C71.209 178.278 71.202 178.383 71.187 178.493C71.18 178.602 71.162 178.697 71.133 178.777H66.538V177.683H70.323L69.645 178.197C69.71 177.862 69.692 177.563 69.59 177.3C69.495 177.038 69.335 176.83 69.109 176.677C68.89 176.524 68.624 176.447 68.31 176.447C68.011 176.447 67.745 176.524 67.511 176.677C67.278 176.823 67.099 177.041 66.975 177.333C66.859 177.618 66.815 177.964 66.844 178.373C66.815 178.737 66.862 179.062 66.986 179.346C67.118 179.623 67.307 179.839 67.555 179.992C67.81 180.145 68.102 180.222 68.43 180.222C68.759 180.222 69.036 180.152 69.262 180.014C69.495 179.875 69.678 179.689 69.809 179.456L70.969 180.025C70.852 180.309 70.67 180.561 70.422 180.779C70.174 180.998 69.878 181.17 69.535 181.294C69.2 181.418 68.828 181.48 68.419 181.48ZM72.296 181.348V175.397H73.642V176.72L73.532 176.524C73.671 176.079 73.886 175.769 74.178 175.594C74.477 175.419 74.834 175.331 75.25 175.331H75.6V176.6H75.086C74.677 176.6 74.349 176.728 74.101 176.983C73.853 177.231 73.729 177.581 73.729 178.033V181.348H72.296ZM78.182 181.348L75.841 175.397H77.405L79.101 180.079H78.521L80.228 175.397H81.793L79.451 181.348H78.182ZM82.585 181.348V175.397H84.018V181.348H82.585ZM82.585 174.729V173.198H84.018V174.729H82.585ZM88.208 181.48C87.617 181.48 87.085 181.345 86.61 181.075C86.144 180.798 85.775 180.426 85.505 179.959C85.236 179.485 85.101 178.952 85.101 178.362C85.101 177.771 85.236 177.242 85.505 176.775C85.775 176.308 86.144 175.94 86.61 175.67C87.085 175.4 87.617 175.265 88.208 175.265C88.631 175.265 89.025 175.342 89.389 175.495C89.754 175.641 90.068 175.845 90.33 176.108C90.6 176.363 90.793 176.669 90.91 177.027L89.652 177.574C89.543 177.275 89.357 177.034 89.094 176.852C88.839 176.669 88.543 176.578 88.208 176.578C87.894 176.578 87.613 176.655 87.365 176.808C87.125 176.961 86.935 177.173 86.796 177.443C86.658 177.712 86.589 178.022 86.589 178.373C86.589 178.723 86.658 179.033 86.796 179.302C86.935 179.572 87.125 179.784 87.365 179.937C87.613 180.09 87.894 180.167 88.208 180.167C88.551 180.167 88.85 180.076 89.105 179.893C89.36 179.711 89.543 179.467 89.652 179.16L90.91 179.729C90.793 180.065 90.604 180.367 90.341 180.637C90.079 180.9 89.765 181.108 89.4 181.261C89.036 181.407 88.638 181.48 88.208 181.48ZM94.82 181.48C94.208 181.48 93.672 181.341 93.212 181.064C92.753 180.787 92.395 180.411 92.14 179.937C91.885 179.463 91.757 178.938 91.757 178.362C91.757 177.764 91.885 177.235 92.14 176.775C92.402 176.308 92.756 175.94 93.201 175.67C93.653 175.4 94.157 175.265 94.711 175.265C95.178 175.265 95.586 175.342 95.936 175.495C96.294 175.648 96.596 175.86 96.844 176.13C97.092 176.4 97.282 176.71 97.413 177.06C97.545 177.402 97.61 177.774 97.61 178.176C97.61 178.278 97.603 178.383 97.588 178.493C97.581 178.602 97.563 178.697 97.534 178.777H92.939V177.683H96.724L96.046 178.197C96.111 177.862 96.093 177.563 95.991 177.3C95.896 177.038 95.736 176.83 95.51 176.677C95.291 176.524 95.025 176.447 94.711 176.447C94.412 176.447 94.146 176.524 93.912 176.677C93.679 176.823 93.5 177.041 93.376 177.333C93.259 177.618 93.216 177.964 93.245 178.373C93.216 178.737 93.263 179.062 93.387 179.346C93.518 179.623 93.708 179.839 93.956 179.992C94.211 180.145 94.503 180.222 94.831 180.222C95.16 180.222 95.437 180.152 95.663 180.014C95.896 179.875 96.079 179.689 96.21 179.456L97.37 180.025C97.253 180.309 97.07 180.561 96.822 180.779C96.575 180.998 96.279 181.17 95.936 181.294C95.601 181.418 95.229 181.48 94.82 181.48ZM100.961 181.48C100.327 181.48 99.773 181.33 99.298 181.031C98.832 180.725 98.511 180.313 98.336 179.795L99.408 179.281C99.561 179.616 99.773 179.879 100.042 180.068C100.32 180.258 100.626 180.353 100.961 180.353C101.224 180.353 101.432 180.294 101.585 180.178C101.738 180.061 101.815 179.908 101.815 179.718C101.815 179.602 101.782 179.507 101.716 179.434C101.658 179.354 101.574 179.288 101.465 179.237C101.363 179.179 101.25 179.131 101.126 179.095L100.152 178.821C99.649 178.675 99.266 178.453 99.003 178.154C98.748 177.855 98.62 177.501 98.62 177.092C98.62 176.728 98.711 176.411 98.894 176.141C99.083 175.863 99.342 175.648 99.67 175.495C100.006 175.342 100.389 175.265 100.819 175.265C101.381 175.265 101.877 175.4 102.307 175.67C102.737 175.94 103.044 176.319 103.226 176.808L102.132 177.322C102.03 177.052 101.859 176.837 101.618 176.677C101.377 176.516 101.107 176.436 100.808 176.436C100.568 176.436 100.378 176.491 100.239 176.6C100.101 176.71 100.031 176.852 100.031 177.027C100.031 177.136 100.061 177.231 100.119 177.311C100.177 177.392 100.258 177.457 100.36 177.508C100.469 177.559 100.593 177.607 100.732 177.65L101.684 177.935C102.172 178.081 102.548 178.3 102.81 178.591C103.08 178.883 103.215 179.241 103.215 179.664C103.215 180.021 103.12 180.338 102.931 180.615C102.741 180.885 102.479 181.097 102.143 181.25C101.808 181.403 101.414 181.48 100.961 181.48Z" fill="#171717"/>
<path d="M179.932 162.824H135.462C127.442 162.824 120.94 169.326 120.94 177.346V177.346C120.94 185.366 127.442 191.868 135.462 191.868H179.932C187.952 191.868 194.454 185.366 194.454 177.346V177.346C194.454 169.326 187.952 162.824 179.932 162.824Z" stroke="#6E00FF" stroke-width="1.36759"/>
<path d="M131.318 181.345L134.129 173.195H136.055L138.867 181.345H137.247L136.668 179.595H133.517L132.926 181.345H131.318ZM133.943 178.282H136.241L134.884 174.223H135.3L133.943 178.282ZM142.036 181.411C141.365 181.411 140.843 181.229 140.471 180.864C140.106 180.492 139.924 179.971 139.924 179.299V176.674H138.896V175.394H139.005C139.297 175.394 139.523 175.317 139.683 175.164C139.844 175.011 139.924 174.788 139.924 174.497V174.037H141.357V175.394H142.725V176.674H141.357V179.223C141.357 179.42 141.39 179.588 141.456 179.726C141.529 179.865 141.638 179.971 141.784 180.043C141.937 180.116 142.13 180.153 142.364 180.153C142.415 180.153 142.473 180.149 142.539 180.142C142.612 180.135 142.681 180.127 142.747 180.12V181.345C142.645 181.36 142.528 181.375 142.397 181.389C142.265 181.404 142.145 181.411 142.036 181.411ZM146.555 181.411C145.884 181.411 145.362 181.229 144.991 180.864C144.626 180.492 144.443 179.971 144.443 179.299V176.674H143.415V175.394H143.524C143.816 175.394 144.042 175.317 144.203 175.164C144.363 175.011 144.443 174.788 144.443 174.497V174.037H145.877V175.394H147.244V176.674H145.877V179.223C145.877 179.42 145.91 179.588 145.975 179.726C146.048 179.865 146.158 179.971 146.303 180.043C146.457 180.116 146.65 180.153 146.883 180.153C146.934 180.153 146.993 180.149 147.058 180.142C147.131 180.135 147.201 180.127 147.266 180.12V181.345C147.164 181.36 147.047 181.375 146.916 181.389C146.785 181.404 146.664 181.411 146.555 181.411ZM151.218 181.477C150.634 181.477 150.102 181.342 149.621 181.072C149.147 180.802 148.767 180.434 148.483 179.967C148.206 179.5 148.067 178.968 148.067 178.37C148.067 177.771 148.206 177.239 148.483 176.772C148.767 176.305 149.147 175.937 149.621 175.667C150.095 175.397 150.627 175.262 151.218 175.262C151.802 175.262 152.33 175.397 152.804 175.667C153.278 175.937 153.654 176.305 153.931 176.772C154.216 177.232 154.358 177.764 154.358 178.37C154.358 178.968 154.216 179.5 153.931 179.967C153.647 180.434 153.268 180.802 152.793 181.072C152.319 181.342 151.794 181.477 151.218 181.477ZM151.218 180.164C151.539 180.164 151.82 180.087 152.06 179.934C152.308 179.781 152.502 179.569 152.64 179.299C152.786 179.022 152.859 178.712 152.859 178.37C152.859 178.019 152.786 177.713 152.64 177.451C152.502 177.181 152.308 176.969 152.06 176.816C151.82 176.655 151.539 176.575 151.218 176.575C150.89 176.575 150.602 176.655 150.354 176.816C150.106 176.969 149.909 177.181 149.763 177.451C149.624 177.713 149.555 178.019 149.555 178.37C149.555 178.712 149.624 179.022 149.763 179.299C149.909 179.569 150.106 179.781 150.354 179.934C150.602 180.087 150.89 180.164 151.218 180.164ZM155.445 181.345V175.394H156.791V176.717L156.681 176.521C156.82 176.076 157.035 175.766 157.327 175.591C157.626 175.416 157.983 175.328 158.399 175.328H158.749V176.597H158.235C157.826 176.597 157.498 176.725 157.25 176.98C157.002 177.228 156.878 177.578 156.878 178.03V181.345H155.445ZM159.537 181.345V175.394H160.883V176.564L160.773 176.356C160.912 175.999 161.138 175.729 161.452 175.547C161.773 175.357 162.144 175.262 162.568 175.262C163.005 175.262 163.392 175.357 163.727 175.547C164.07 175.736 164.336 176.003 164.526 176.346C164.716 176.681 164.81 177.071 164.81 177.516V181.345H163.377V177.855C163.377 177.593 163.326 177.367 163.224 177.177C163.122 176.987 162.98 176.841 162.797 176.739C162.622 176.63 162.414 176.575 162.174 176.575C161.94 176.575 161.732 176.63 161.55 176.739C161.368 176.841 161.225 176.987 161.123 177.177C161.021 177.367 160.97 177.593 160.97 177.855V181.345H159.537ZM168.845 181.477C168.232 181.477 167.696 181.338 167.237 181.061C166.777 180.784 166.42 180.408 166.165 179.934C165.909 179.46 165.782 178.935 165.782 178.359C165.782 177.761 165.909 177.232 166.165 176.772C166.427 176.305 166.781 175.937 167.226 175.667C167.678 175.397 168.181 175.262 168.736 175.262C169.202 175.262 169.611 175.339 169.961 175.492C170.318 175.645 170.621 175.857 170.869 176.127C171.117 176.397 171.307 176.707 171.438 177.057C171.569 177.399 171.635 177.771 171.635 178.173C171.635 178.275 171.628 178.38 171.613 178.49C171.606 178.599 171.587 178.694 171.558 178.774H166.963V177.68H170.749L170.07 178.194C170.136 177.859 170.118 177.56 170.016 177.297C169.921 177.035 169.76 176.827 169.534 176.674C169.315 176.521 169.049 176.444 168.736 176.444C168.437 176.444 168.17 176.521 167.937 176.674C167.704 176.82 167.525 177.038 167.401 177.33C167.284 177.615 167.24 177.961 167.27 178.37C167.24 178.734 167.288 179.059 167.412 179.343C167.543 179.62 167.733 179.836 167.981 179.989C168.236 180.142 168.528 180.219 168.856 180.219C169.184 180.219 169.461 180.149 169.687 180.011C169.921 179.872 170.103 179.686 170.234 179.453L171.394 180.022C171.278 180.306 171.095 180.558 170.847 180.776C170.599 180.995 170.304 181.167 169.961 181.291C169.625 181.415 169.253 181.477 168.845 181.477ZM173.443 183.763C173.283 183.763 173.126 183.749 172.973 183.72C172.82 183.698 172.681 183.658 172.557 183.599V182.396C172.652 182.418 172.765 182.439 172.896 182.461C173.035 182.483 173.163 182.494 173.279 182.494C173.608 182.494 173.845 182.418 173.99 182.264C174.144 182.111 174.279 181.911 174.395 181.663L174.789 180.744L174.767 181.947L172.174 175.394H173.717L175.533 180.229H174.986L176.791 175.394H178.345L175.752 181.947C175.599 182.334 175.413 182.662 175.194 182.932C174.975 183.202 174.72 183.406 174.428 183.544C174.144 183.69 173.815 183.763 173.443 183.763ZM181.397 181.477C180.762 181.477 180.208 181.327 179.734 181.028C179.267 180.722 178.946 180.31 178.771 179.792L179.843 179.278C179.996 179.613 180.208 179.876 180.478 180.065C180.755 180.255 181.061 180.35 181.397 180.35C181.659 180.35 181.867 180.291 182.02 180.175C182.173 180.058 182.25 179.905 182.25 179.715C182.25 179.599 182.217 179.504 182.152 179.431C182.093 179.351 182.009 179.285 181.9 179.234C181.798 179.176 181.685 179.128 181.561 179.092L180.587 178.818C180.084 178.672 179.701 178.45 179.438 178.151C179.183 177.852 179.055 177.498 179.055 177.089C179.055 176.725 179.147 176.408 179.329 176.138C179.519 175.86 179.777 175.645 180.106 175.492C180.441 175.339 180.824 175.262 181.254 175.262C181.816 175.262 182.312 175.397 182.742 175.667C183.173 175.937 183.479 176.316 183.661 176.805L182.567 177.319C182.465 177.049 182.294 176.834 182.053 176.674C181.812 176.513 181.543 176.433 181.243 176.433C181.003 176.433 180.813 176.488 180.675 176.597C180.536 176.707 180.467 176.849 180.467 177.024C180.467 177.133 180.496 177.228 180.554 177.308C180.613 177.389 180.693 177.454 180.795 177.505C180.904 177.556 181.028 177.604 181.167 177.647L182.119 177.932C182.607 178.078 182.983 178.297 183.246 178.588C183.516 178.88 183.65 179.238 183.65 179.661C183.65 180.018 183.556 180.335 183.366 180.612C183.176 180.882 182.914 181.094 182.578 181.247C182.243 181.4 181.849 181.477 181.397 181.477Z" fill="#171717"/>
<path d="M242.284 162.824H215.814C207.794 162.824 201.292 169.326 201.292 177.346V177.346C201.292 185.366 207.794 191.868 215.814 191.868H242.284C250.304 191.868 256.806 185.366 256.806 177.346V177.346C256.806 169.326 250.304 162.824 242.284 162.824Z" stroke="#918EA4" stroke-opacity="0.25" stroke-width="1.36759"/>
<path d="M216.352 181.48C215.754 181.48 215.196 181.374 214.678 181.162C214.16 180.951 213.708 180.656 213.322 180.276C212.935 179.897 212.632 179.452 212.414 178.941C212.202 178.424 212.096 177.866 212.096 177.268C212.096 176.662 212.202 176.104 212.414 175.594C212.625 175.083 212.924 174.638 213.311 174.259C213.697 173.88 214.15 173.588 214.667 173.384C215.185 173.172 215.747 173.066 216.352 173.066C216.958 173.066 217.519 173.172 218.037 173.384C218.555 173.595 219.007 173.89 219.394 174.27C219.78 174.642 220.079 175.083 220.291 175.594C220.51 176.104 220.619 176.662 220.619 177.268C220.619 177.866 220.51 178.424 220.291 178.941C220.072 179.452 219.769 179.897 219.383 180.276C218.996 180.656 218.544 180.951 218.026 181.162C217.516 181.374 216.958 181.48 216.352 181.48ZM216.352 180.123C216.753 180.123 217.122 180.054 217.457 179.915C217.793 179.769 218.085 179.569 218.333 179.313C218.588 179.058 218.781 178.755 218.912 178.405C219.051 178.055 219.12 177.676 219.12 177.268C219.12 176.859 219.051 176.483 218.912 176.141C218.781 175.791 218.588 175.488 218.333 175.233C218.085 174.97 217.793 174.769 217.457 174.631C217.122 174.492 216.753 174.423 216.352 174.423C215.958 174.423 215.594 174.492 215.258 174.631C214.923 174.769 214.627 174.97 214.372 175.233C214.124 175.488 213.931 175.791 213.792 176.141C213.654 176.483 213.584 176.859 213.584 177.268C213.584 177.676 213.654 178.055 213.792 178.405C213.931 178.755 214.124 179.058 214.372 179.313C214.627 179.569 214.923 179.769 215.258 179.915C215.594 180.054 215.958 180.123 216.352 180.123ZM222.511 181.348V176.677H221.461V175.397H222.511V175.2C222.511 174.748 222.602 174.365 222.785 174.051C222.974 173.73 223.237 173.486 223.572 173.318C223.908 173.15 224.305 173.066 224.765 173.066C224.852 173.066 224.947 173.074 225.049 173.088C225.159 173.095 225.25 173.106 225.323 173.121V174.357C225.25 174.343 225.181 174.335 225.115 174.335C225.057 174.328 225.002 174.324 224.951 174.324C224.63 174.324 224.382 174.397 224.207 174.543C224.032 174.682 223.944 174.901 223.944 175.2V175.397H226.548V176.677H223.944V181.348H222.511ZM226.844 181.348V176.677H225.793V175.397H226.844V175.2C226.844 174.748 226.935 174.365 227.117 174.051C227.3 173.73 227.558 173.486 227.894 173.318C228.237 173.15 228.638 173.066 229.097 173.066C229.185 173.066 229.28 173.074 229.382 173.088C229.491 173.095 229.579 173.106 229.644 173.121V174.357C229.579 174.343 229.513 174.335 229.448 174.335C229.389 174.328 229.334 174.324 229.283 174.324C228.963 174.324 228.715 174.397 228.539 174.543C228.364 174.682 228.277 174.901 228.277 175.2V175.397H229.59V176.677H228.277V181.348H226.844ZM233.245 181.48C232.633 181.48 232.097 181.341 231.637 181.064C231.178 180.787 230.82 180.411 230.565 179.937C230.31 179.463 230.182 178.938 230.182 178.362C230.182 177.764 230.31 177.235 230.565 176.775C230.828 176.308 231.181 175.94 231.626 175.67C232.078 175.4 232.582 175.265 233.136 175.265C233.603 175.265 234.011 175.342 234.361 175.495C234.719 175.648 235.021 175.86 235.269 176.13C235.517 176.4 235.707 176.71 235.838 177.06C235.97 177.402 236.035 177.774 236.035 178.176C236.035 178.278 236.028 178.383 236.013 178.493C236.006 178.602 235.988 178.697 235.959 178.777H231.364V177.683H235.149L234.471 178.197C234.536 177.862 234.518 177.563 234.416 177.3C234.321 177.038 234.161 176.83 233.935 176.677C233.716 176.524 233.45 176.447 233.136 176.447C232.837 176.447 232.571 176.524 232.337 176.677C232.104 176.823 231.925 177.041 231.801 177.333C231.685 177.618 231.641 177.964 231.67 178.373C231.641 178.737 231.688 179.062 231.812 179.346C231.943 179.623 232.133 179.839 232.381 179.992C232.636 180.145 232.928 180.222 233.256 180.222C233.585 180.222 233.862 180.152 234.088 180.014C234.321 179.875 234.504 179.689 234.635 179.456L235.795 180.025C235.678 180.309 235.496 180.561 235.248 180.779C235 180.998 234.704 181.17 234.361 181.294C234.026 181.418 233.654 181.48 233.245 181.48ZM237.122 181.348V175.397H238.467V176.72L238.358 176.524C238.497 176.079 238.712 175.769 239.004 175.594C239.303 175.419 239.66 175.331 240.076 175.331H240.426V176.6H239.912C239.503 176.6 239.175 176.728 238.927 176.983C238.679 177.231 238.555 177.581 238.555 178.033V181.348H237.122ZM243.479 181.48C242.844 181.48 242.29 181.33 241.816 181.031C241.349 180.725 241.028 180.313 240.853 179.795L241.925 179.281C242.078 179.616 242.29 179.879 242.56 180.068C242.837 180.258 243.143 180.353 243.479 180.353C243.741 180.353 243.949 180.294 244.102 180.178C244.255 180.061 244.332 179.908 244.332 179.718C244.332 179.602 244.299 179.507 244.233 179.434C244.175 179.354 244.091 179.288 243.982 179.237C243.88 179.179 243.767 179.131 243.643 179.095L242.669 178.821C242.166 178.675 241.783 178.453 241.52 178.154C241.265 177.855 241.137 177.501 241.137 177.092C241.137 176.728 241.228 176.411 241.411 176.141C241.6 175.863 241.859 175.648 242.188 175.495C242.523 175.342 242.906 175.265 243.336 175.265C243.898 175.265 244.394 175.4 244.824 175.67C245.255 175.94 245.561 176.319 245.743 176.808L244.649 177.322C244.547 177.052 244.376 176.837 244.135 176.677C243.894 176.516 243.624 176.436 243.325 176.436C243.085 176.436 242.895 176.491 242.756 176.6C242.618 176.71 242.549 176.852 242.549 177.027C242.549 177.136 242.578 177.231 242.636 177.311C242.694 177.392 242.775 177.457 242.877 177.508C242.986 177.559 243.11 177.607 243.249 177.65L244.201 177.935C244.689 178.081 245.065 178.3 245.328 178.591C245.597 178.883 245.732 179.241 245.732 179.664C245.732 180.021 245.638 180.338 245.448 180.615C245.258 180.885 244.996 181.097 244.66 181.25C244.325 181.403 243.931 181.48 243.479 181.48Z" fill="#171717"/>
<path d="M50.9971 318.047H253.4" stroke="#918EA4" stroke-opacity="0.25" stroke-width="1.36759"/>
<path d="M226.047 246.934H82.4497C77.9179 246.934 74.2441 250.607 74.2441 255.139V255.139C74.2441 259.671 77.9179 263.345 82.4497 263.345H226.047C230.578 263.345 234.252 259.671 234.252 255.139C234.252 250.607 230.578 246.934 226.047 246.934Z" fill="#F8F2FF"/>
<path d="M195.96 274.285H111.169C106.638 274.285 102.964 277.959 102.964 282.491V282.491C102.964 287.023 106.638 290.696 111.169 290.696H195.96C200.492 290.696 204.166 287.023 204.166 282.491C204.166 277.959 200.492 274.285 195.96 274.285Z" fill="#F8F2FF"/>
<path d="M234.253 219.582H70.1425C65.6108 219.582 61.937 223.256 61.937 227.788V227.788C61.937 232.319 65.6108 235.993 70.1425 235.993H234.253C238.785 235.993 242.459 232.319 242.459 227.788C242.459 223.256 238.785 219.582 234.253 219.582Z" fill="#F0E5FF"/>
</svg>
