<svg width="578" height="463" viewBox="0 0 578 463" fill="none" xmlns="http://www.w3.org/2000/svg">
<rect width="302.75" height="346" transform="translate(83.625 31)" fill="#F9FAFB"/>
<g opacity="0.6">
<line x1="176.387" y1="118.127" x2="180.072" y2="108.002" stroke="#A866FF" stroke-width="1.73"/>
<line x1="199.418" y1="117.654" x2="204.805" y2="108.323" stroke="#A866FF" stroke-width="1.73"/>
<line x1="222.592" y1="117.194" x2="229.518" y2="108.94" stroke="#A866FF" stroke-width="1.73"/>
<line x1="245.942" y1="116.414" x2="254.196" y2="109.488" stroke="#A866FF" stroke-width="1.73"/>
<line x1="15.903" y1="117.739" x2="7.64947" y2="110.813" stroke="#A866FF" stroke-width="1.73"/>
<line x1="39.0434" y1="118.306" x2="32.1179" y2="110.052" stroke="#A866FF" stroke-width="1.73"/>
<line x1="62.0448" y1="118.519" x2="56.6577" y2="109.188" stroke="#A866FF" stroke-width="1.73"/>
<line x1="84.9479" y1="118.718" x2="81.2629" y2="108.594" stroke="#A866FF" stroke-width="1.73"/>
<line x1="107.791" y1="118.91" x2="105.92" y2="108.299" stroke="#A866FF" stroke-width="1.73"/>
<line x1="130.615" y1="118.76" x2="130.615" y2="107.986" stroke="#A866FF" stroke-width="1.73"/>
<line x1="153.467" y1="118.61" x2="155.337" y2="107.999" stroke="#A866FF" stroke-width="1.73"/>
<line x1="152.147" y1="136.982" x2="155.832" y2="126.858" stroke="#A866FF" stroke-width="1.73"/>
<line x1="175.174" y1="136.508" x2="180.561" y2="127.177" stroke="#A866FF" stroke-width="1.73"/>
<line x1="198.349" y1="136.048" x2="205.275" y2="127.795" stroke="#A866FF" stroke-width="1.73"/>
<line x1="221.702" y1="135.269" x2="229.955" y2="128.343" stroke="#A866FF" stroke-width="1.73"/>
<line x1="245.258" y1="134.172" x2="254.589" y2="128.785" stroke="#A866FF" stroke-width="1.73"/>
<line x1="14.8032" y1="137.161" x2="7.87768" y2="128.907" stroke="#A866FF" stroke-width="1.73"/>
<line x1="37.8046" y1="137.373" x2="32.4175" y2="128.042" stroke="#A866FF" stroke-width="1.73"/>
<line x1="60.7038" y1="137.574" x2="57.0188" y2="127.449" stroke="#A866FF" stroke-width="1.73"/>
<line x1="83.5466" y1="137.764" x2="81.6757" y2="127.153" stroke="#A866FF" stroke-width="1.73"/>
<line x1="106.371" y1="137.614" x2="106.371" y2="126.84" stroke="#A866FF" stroke-width="1.73"/>
<line x1="129.226" y1="137.464" x2="131.097" y2="126.853" stroke="#A866FF" stroke-width="1.73"/>
<line x1="127.904" y1="155.837" x2="131.589" y2="145.713" stroke="#A866FF" stroke-width="1.73"/>
<line x1="150.934" y1="155.363" x2="156.321" y2="146.033" stroke="#A866FF" stroke-width="1.73"/>
<line x1="174.108" y1="154.903" x2="181.033" y2="146.649" stroke="#A866FF" stroke-width="1.73"/>
<line x1="197.462" y1="154.123" x2="205.715" y2="147.198" stroke="#A866FF" stroke-width="1.73"/>
<line x1="221.018" y1="153.026" x2="230.348" y2="147.639" stroke="#A866FF" stroke-width="1.73"/>
<line x1="244.8" y1="152.289" x2="254.924" y2="148.604" stroke="#A866FF" stroke-width="1.73"/>
<line x1="13.5614" y1="156.228" x2="8.17435" y2="146.898" stroke="#A866FF" stroke-width="1.73"/>
<line x1="36.4635" y1="156.429" x2="32.7785" y2="146.304" stroke="#A866FF" stroke-width="1.73"/>
<line x1="59.3063" y1="156.619" x2="57.4354" y2="146.009" stroke="#A866FF" stroke-width="1.73"/>
<line x1="82.1311" y1="156.469" x2="82.1311" y2="145.695" stroke="#A866FF" stroke-width="1.73"/>
<line x1="104.983" y1="156.319" x2="106.854" y2="145.709" stroke="#A866FF" stroke-width="1.73"/>
<line x1="103.664" y1="174.691" x2="107.349" y2="164.567" stroke="#A866FF" stroke-width="1.73"/>
<line x1="126.69" y1="174.218" x2="132.077" y2="164.888" stroke="#A866FF" stroke-width="1.73"/>
<line x1="149.865" y1="173.758" x2="156.79" y2="165.504" stroke="#A866FF" stroke-width="1.73"/>
<line x1="173.218" y1="172.978" x2="181.472" y2="166.052" stroke="#A866FF" stroke-width="1.73"/>
<line x1="196.777" y1="171.881" x2="206.108" y2="166.494" stroke="#A866FF" stroke-width="1.73"/>
<line x1="220.56" y1="171.144" x2="230.684" y2="167.459" stroke="#A866FF" stroke-width="1.73"/>
<line x1="244.584" y1="170.095" x2="255.195" y2="168.224" stroke="#A866FF" stroke-width="1.73"/>
<line x1="12.2204" y1="175.283" x2="8.53538" y2="165.159" stroke="#A866FF" stroke-width="1.73"/>
<line x1="35.0632" y1="175.474" x2="33.1923" y2="164.864" stroke="#A866FF" stroke-width="1.73"/>
<line x1="57.8879" y1="175.324" x2="57.8879" y2="164.55" stroke="#A866FF" stroke-width="1.73"/>
<line x1="80.7419" y1="175.174" x2="82.6128" y2="164.564" stroke="#A866FF" stroke-width="1.73"/>
<line x1="79.4196" y1="193.546" x2="83.1046" y2="183.422" stroke="#A866FF" stroke-width="1.73"/>
<line x1="102.45" y1="193.073" x2="107.837" y2="183.742" stroke="#A866FF" stroke-width="1.73"/>
<line x1="125.624" y1="192.613" x2="132.55" y2="184.359" stroke="#A866FF" stroke-width="1.73"/>
<line x1="148.978" y1="191.832" x2="157.232" y2="184.907" stroke="#A866FF" stroke-width="1.73"/>
<line x1="172.534" y1="190.736" x2="181.865" y2="185.349" stroke="#A866FF" stroke-width="1.73"/>
<line x1="196.316" y1="189.999" x2="206.441" y2="186.314" stroke="#A866FF" stroke-width="1.73"/>
<line x1="220.341" y1="188.95" x2="230.951" y2="187.079" stroke="#A866FF" stroke-width="1.73"/>
<line x1="10.8229" y1="194.329" x2="8.95203" y2="183.718" stroke="#A866FF" stroke-width="1.73"/>
<line x1="33.6477" y1="194.179" x2="33.6477" y2="183.405" stroke="#A866FF" stroke-width="1.73"/>
<line x1="56.4987" y1="194.029" x2="58.3696" y2="183.418" stroke="#A866FF" stroke-width="1.73"/>
<line x1="258.078" y1="189.657" x2="247.304" y2="189.657" stroke="#A866FF" stroke-width="1.73"/>
<line x1="55.1794" y1="212.401" x2="58.8643" y2="202.277" stroke="#A866FF" stroke-width="1.73"/>
<line x1="78.206" y1="211.928" x2="83.5931" y2="202.597" stroke="#A866FF" stroke-width="1.73"/>
<line x1="101.38" y1="211.467" x2="108.306" y2="203.214" stroke="#A866FF" stroke-width="1.73"/>
<line x1="124.734" y1="210.687" x2="132.988" y2="203.762" stroke="#A866FF" stroke-width="1.73"/>
<line x1="148.294" y1="209.591" x2="157.625" y2="204.204" stroke="#A866FF" stroke-width="1.73"/>
<line x1="172.076" y1="208.854" x2="182.201" y2="205.169" stroke="#A866FF" stroke-width="1.73"/>
<line x1="196.101" y1="207.804" x2="206.711" y2="205.933" stroke="#A866FF" stroke-width="1.73"/>
<line x1="9.40355" y1="213.034" x2="9.40355" y2="202.26" stroke="#A866FF" stroke-width="1.73"/>
<line x1="32.2585" y1="212.883" x2="34.1294" y2="202.273" stroke="#A866FF" stroke-width="1.73"/>
<line x1="233.834" y1="208.512" x2="223.06" y2="208.512" stroke="#A866FF" stroke-width="1.73"/>
<line x1="257.806" y1="209.508" x2="247.195" y2="207.637" stroke="#A866FF" stroke-width="1.73"/>
<line x1="30.9362" y1="231.256" x2="34.6212" y2="221.132" stroke="#A866FF" stroke-width="1.73"/>
<line x1="53.9657" y1="230.782" x2="59.3528" y2="221.452" stroke="#A866FF" stroke-width="1.73"/>
<line x1="77.1401" y1="230.322" x2="84.0656" y2="222.069" stroke="#A866FF" stroke-width="1.73"/>
<line x1="100.494" y1="229.542" x2="108.747" y2="222.617" stroke="#A866FF" stroke-width="1.73"/>
<line x1="124.05" y1="228.446" x2="133.381" y2="223.059" stroke="#A866FF" stroke-width="1.73"/>
<line x1="147.832" y1="227.709" x2="157.956" y2="224.024" stroke="#A866FF" stroke-width="1.73"/>
<line x1="171.857" y1="226.659" x2="182.467" y2="224.788" stroke="#A866FF" stroke-width="1.73"/>
<line x1="8.01435" y1="231.738" x2="9.88527" y2="221.128" stroke="#A866FF" stroke-width="1.73"/>
<line x1="209.594" y1="227.366" x2="198.82" y2="227.366" stroke="#A866FF" stroke-width="1.73"/>
<line x1="233.563" y1="228.363" x2="222.952" y2="226.492" stroke="#A866FF" stroke-width="1.73"/>
<line x1="257.296" y1="229.334" x2="247.172" y2="225.649" stroke="#A866FF" stroke-width="1.73"/>
<line x1="6.69595" y1="250.111" x2="10.3809" y2="239.986" stroke="#A866FF" stroke-width="1.73"/>
<line x1="29.7226" y1="249.637" x2="35.1097" y2="240.307" stroke="#A866FF" stroke-width="1.73"/>
<line x1="52.8969" y1="249.177" x2="59.8224" y2="240.923" stroke="#A866FF" stroke-width="1.73"/>
<line x1="76.2506" y1="248.397" x2="84.5041" y2="241.471" stroke="#A866FF" stroke-width="1.73"/>
<line x1="99.8097" y1="247.3" x2="109.14" y2="241.913" stroke="#A866FF" stroke-width="1.73"/>
<line x1="123.592" y1="246.563" x2="133.716" y2="242.878" stroke="#A866FF" stroke-width="1.73"/>
<line x1="147.616" y1="245.515" x2="158.227" y2="243.644" stroke="#A866FF" stroke-width="1.73"/>
<line x1="256.565" y1="248.798" x2="247.234" y2="243.411" stroke="#A866FF" stroke-width="1.73"/>
<line x1="185.354" y1="246.221" x2="174.579" y2="246.221" stroke="#A866FF" stroke-width="1.73"/>
<line x1="209.322" y1="247.219" x2="198.712" y2="245.348" stroke="#A866FF" stroke-width="1.73"/>
<line x1="233.052" y1="248.189" x2="222.927" y2="244.504" stroke="#A866FF" stroke-width="1.73"/>
<line x1="5.48233" y1="268.492" x2="10.8694" y2="259.162" stroke="#A866FF" stroke-width="1.73"/>
<line x1="28.6567" y1="268.032" x2="35.5822" y2="259.778" stroke="#A866FF" stroke-width="1.73"/>
<line x1="52.0104" y1="267.252" x2="60.2639" y2="260.326" stroke="#A866FF" stroke-width="1.73"/>
<line x1="75.5665" y1="266.155" x2="84.8972" y2="260.768" stroke="#A866FF" stroke-width="1.73"/>
<line x1="99.3487" y1="265.418" x2="109.473" y2="261.733" stroke="#A866FF" stroke-width="1.73"/>
<line x1="123.373" y1="264.369" x2="133.984" y2="262.498" stroke="#A866FF" stroke-width="1.73"/>
<line x1="232.32" y1="267.653" x2="222.99" y2="262.266" stroke="#A866FF" stroke-width="1.73"/>
<line x1="255.633" y1="268.577" x2="247.38" y2="261.652" stroke="#A866FF" stroke-width="1.73"/>
<line x1="161.11" y1="265.075" x2="150.336" y2="265.075" stroke="#A866FF" stroke-width="1.73"/>
<line x1="185.078" y1="266.073" x2="174.468" y2="264.202" stroke="#A866FF" stroke-width="1.73"/>
<line x1="208.812" y1="267.044" x2="198.687" y2="263.359" stroke="#A866FF" stroke-width="1.73"/>
<line x1="4.41257" y1="286.887" x2="11.3381" y2="278.633" stroke="#A866FF" stroke-width="1.73"/>
<line x1="27.7663" y1="286.106" x2="36.0198" y2="279.181" stroke="#A866FF" stroke-width="1.73"/>
<line x1="51.3263" y1="285.01" x2="60.657" y2="279.623" stroke="#A866FF" stroke-width="1.73"/>
<line x1="75.1084" y1="284.274" x2="85.2329" y2="280.589" stroke="#A866FF" stroke-width="1.73"/>
<line x1="99.133" y1="283.224" x2="109.743" y2="281.353" stroke="#A866FF" stroke-width="1.73"/>
<line x1="208.08" y1="286.508" x2="198.749" y2="281.121" stroke="#A866FF" stroke-width="1.73"/>
<line x1="231.389" y1="287.432" x2="223.136" y2="280.506" stroke="#A866FF" stroke-width="1.73"/>
<line x1="254.53" y1="287.999" x2="247.604" y2="279.745" stroke="#A866FF" stroke-width="1.73"/>
<line x1="136.87" y1="283.93" x2="126.096" y2="283.93" stroke="#A866FF" stroke-width="1.73"/>
<line x1="160.838" y1="284.928" x2="150.228" y2="283.057" stroke="#A866FF" stroke-width="1.73"/>
<line x1="184.571" y1="285.899" x2="174.447" y2="282.214" stroke="#A866FF" stroke-width="1.73"/>
<line x1="3.52602" y1="304.961" x2="11.7795" y2="298.036" stroke="#A866FF" stroke-width="1.73"/>
<line x1="27.0821" y1="303.865" x2="36.4129" y2="298.478" stroke="#A866FF" stroke-width="1.73"/>
<line x1="50.8643" y1="303.128" x2="60.9887" y2="299.443" stroke="#A866FF" stroke-width="1.73"/>
<line x1="74.8889" y1="302.078" x2="85.4994" y2="300.207" stroke="#A866FF" stroke-width="1.73"/>
<line x1="183.837" y1="305.363" x2="174.506" y2="299.976" stroke="#A866FF" stroke-width="1.73"/>
<line x1="207.149" y1="306.287" x2="198.896" y2="299.361" stroke="#A866FF" stroke-width="1.73"/>
<line x1="230.286" y1="306.853" x2="223.36" y2="298.6" stroke="#A866FF" stroke-width="1.73"/>
<line x1="253.291" y1="307.067" x2="247.904" y2="297.736" stroke="#A866FF" stroke-width="1.73"/>
<line x1="112.626" y1="302.786" x2="101.852" y2="302.786" stroke="#A866FF" stroke-width="1.73"/>
<line x1="136.595" y1="303.782" x2="125.984" y2="301.911" stroke="#A866FF" stroke-width="1.73"/>
<line x1="160.327" y1="304.753" x2="150.203" y2="301.068" stroke="#A866FF" stroke-width="1.73"/>
<line x1="2.84191" y1="322.72" x2="12.1726" y2="317.333" stroke="#A866FF" stroke-width="1.73"/>
<line x1="26.6241" y1="321.983" x2="36.7485" y2="318.298" stroke="#A866FF" stroke-width="1.73"/>
<line x1="50.6486" y1="320.934" x2="61.2591" y2="319.063" stroke="#A866FF" stroke-width="1.73"/>
<line x1="159.596" y1="324.218" x2="150.265" y2="318.831" stroke="#A866FF" stroke-width="1.73"/>
<line x1="182.906" y1="325.142" x2="174.652" y2="318.217" stroke="#A866FF" stroke-width="1.73"/>
<line x1="206.045" y1="325.708" x2="199.12" y2="317.455" stroke="#A866FF" stroke-width="1.73"/>
<line x1="229.048" y1="325.921" x2="223.661" y2="316.591" stroke="#A866FF" stroke-width="1.73"/>
<line x1="251.95" y1="326.122" x2="248.265" y2="315.997" stroke="#A866FF" stroke-width="1.73"/>
<line x1="88.3857" y1="321.64" x2="77.6116" y2="321.64" stroke="#A866FF" stroke-width="1.73"/>
<line x1="112.355" y1="322.638" x2="101.744" y2="320.767" stroke="#A866FF" stroke-width="1.73"/>
<line x1="136.087" y1="323.609" x2="125.963" y2="319.924" stroke="#A866FF" stroke-width="1.73"/>
<line x1="2.38091" y1="340.837" x2="12.5053" y2="337.152" stroke="#A866FF" stroke-width="1.73"/>
<line x1="26.4055" y1="339.789" x2="37.016" y2="337.918" stroke="#A866FF" stroke-width="1.73"/>
<line x1="135.353" y1="343.073" x2="126.022" y2="337.686" stroke="#A866FF" stroke-width="1.73"/>
<line x1="158.666" y1="343.996" x2="150.412" y2="337.071" stroke="#A866FF" stroke-width="1.73"/>
<line x1="181.805" y1="344.563" x2="174.88" y2="336.309" stroke="#A866FF" stroke-width="1.73"/>
<line x1="204.808" y1="344.776" x2="199.42" y2="335.446" stroke="#A866FF" stroke-width="1.73"/>
<line x1="227.707" y1="344.977" x2="224.022" y2="334.852" stroke="#A866FF" stroke-width="1.73"/>
<line x1="250.55" y1="345.167" x2="248.679" y2="334.557" stroke="#A866FF" stroke-width="1.73"/>
<line x1="64.1426" y1="340.495" x2="53.3684" y2="340.495" stroke="#A866FF" stroke-width="1.73"/>
<line x1="88.1105" y1="341.492" x2="77.5" y2="339.622" stroke="#A866FF" stroke-width="1.73"/>
<line x1="111.844" y1="342.463" x2="101.719" y2="338.778" stroke="#A866FF" stroke-width="1.73"/>
<line x1="2.16522" y1="358.643" x2="12.7757" y2="356.772" stroke="#A866FF" stroke-width="1.73"/>
<line x1="111.112" y1="361.927" x2="101.782" y2="356.54" stroke="#A866FF" stroke-width="1.73"/>
<line x1="134.422" y1="362.851" x2="126.168" y2="355.926" stroke="#A866FF" stroke-width="1.73"/>
<line x1="157.562" y1="363.418" x2="150.636" y2="355.164" stroke="#A866FF" stroke-width="1.73"/>
<line x1="180.563" y1="363.632" x2="175.176" y2="354.301" stroke="#A866FF" stroke-width="1.73"/>
<line x1="203.466" y1="363.831" x2="199.781" y2="353.707" stroke="#A866FF" stroke-width="1.73"/>
<line x1="226.309" y1="364.022" x2="224.438" y2="353.412" stroke="#A866FF" stroke-width="1.73"/>
<line x1="249.134" y1="363.872" x2="249.134" y2="353.098" stroke="#A866FF" stroke-width="1.73"/>
<line x1="39.9023" y1="359.349" x2="29.1282" y2="359.349" stroke="#A866FF" stroke-width="1.73"/>
<line x1="63.8703" y1="360.346" x2="53.2598" y2="358.476" stroke="#A866FF" stroke-width="1.73"/>
<line x1="87.6036" y1="361.318" x2="77.4791" y2="357.633" stroke="#A866FF" stroke-width="1.73"/>
<line x1="86.8683" y1="380.783" x2="77.5376" y2="375.396" stroke="#A866FF" stroke-width="1.73"/>
<line x1="110.181" y1="381.706" x2="101.928" y2="374.78" stroke="#A866FF" stroke-width="1.73"/>
<line x1="133.322" y1="382.273" x2="126.396" y2="374.02" stroke="#A866FF" stroke-width="1.73"/>
<line x1="156.323" y1="382.486" x2="150.936" y2="373.155" stroke="#A866FF" stroke-width="1.73"/>
<line x1="179.222" y1="382.686" x2="175.537" y2="372.562" stroke="#A866FF" stroke-width="1.73"/>
<line x1="202.065" y1="382.877" x2="200.194" y2="372.266" stroke="#A866FF" stroke-width="1.73"/>
<line x1="224.89" y1="382.727" x2="224.89" y2="371.952" stroke="#A866FF" stroke-width="1.73"/>
<line x1="247.745" y1="382.576" x2="249.616" y2="371.966" stroke="#A866FF" stroke-width="1.73"/>
<line x1="15.6582" y1="378.205" x2="4.88403" y2="378.205" stroke="#A866FF" stroke-width="1.73"/>
<line x1="39.6271" y1="379.202" x2="29.0166" y2="377.331" stroke="#A866FF" stroke-width="1.73"/>
<line x1="63.3594" y1="380.173" x2="53.235" y2="376.488" stroke="#A866FF" stroke-width="1.73"/>
<line x1="246.423" y1="400.949" x2="250.107" y2="390.824" stroke="#A866FF" stroke-width="1.73"/>
<line x1="62.628" y1="399.637" x2="53.2973" y2="394.25" stroke="#A866FF" stroke-width="1.73"/>
<line x1="85.9381" y1="400.561" x2="77.6846" y2="393.635" stroke="#A866FF" stroke-width="1.73"/>
<line x1="109.078" y1="401.127" x2="102.152" y2="392.874" stroke="#A866FF" stroke-width="1.73"/>
<line x1="132.079" y1="401.341" x2="126.692" y2="392.01" stroke="#A866FF" stroke-width="1.73"/>
<line x1="154.982" y1="401.54" x2="151.297" y2="391.416" stroke="#A866FF" stroke-width="1.73"/>
<line x1="177.825" y1="401.732" x2="175.954" y2="391.121" stroke="#A866FF" stroke-width="1.73"/>
<line x1="200.65" y1="401.582" x2="200.65" y2="390.807" stroke="#A866FF" stroke-width="1.73"/>
<line x1="223.502" y1="401.431" x2="225.373" y2="390.821" stroke="#A866FF" stroke-width="1.73"/>
<line x1="15.3869" y1="398.056" x2="4.77641" y2="396.185" stroke="#A866FF" stroke-width="1.73"/>
<line x1="39.1192" y1="399.027" x2="28.9948" y2="395.342" stroke="#A866FF" stroke-width="1.73"/>
<line x1="222.182" y1="419.804" x2="225.867" y2="409.679" stroke="#A866FF" stroke-width="1.73"/>
<line x1="245.209" y1="419.33" x2="250.596" y2="409.999" stroke="#A866FF" stroke-width="1.73"/>
<line x1="38.3849" y1="418.492" x2="29.0542" y2="413.105" stroke="#A866FF" stroke-width="1.73"/>
<line x1="61.6969" y1="419.416" x2="53.4434" y2="412.491" stroke="#A866FF" stroke-width="1.73"/>
<line x1="84.8374" y1="419.983" x2="77.9119" y2="411.729" stroke="#A866FF" stroke-width="1.73"/>
<line x1="107.839" y1="420.195" x2="102.452" y2="410.864" stroke="#A866FF" stroke-width="1.73"/>
<line x1="130.739" y1="420.395" x2="127.054" y2="410.271" stroke="#A866FF" stroke-width="1.73"/>
<line x1="153.582" y1="420.587" x2="151.711" y2="409.977" stroke="#A866FF" stroke-width="1.73"/>
<line x1="176.406" y1="420.437" x2="176.406" y2="409.663" stroke="#A866FF" stroke-width="1.73"/>
<line x1="199.26" y1="420.287" x2="201.131" y2="409.676" stroke="#A866FF" stroke-width="1.73"/>
<line x1="14.876" y1="417.883" x2="4.75161" y2="414.198" stroke="#A866FF" stroke-width="1.73"/>
<line x1="197.938" y1="438.659" x2="201.623" y2="428.535" stroke="#A866FF" stroke-width="1.73"/>
<line x1="220.969" y1="438.185" x2="226.356" y2="428.854" stroke="#A866FF" stroke-width="1.73"/>
<line x1="244.143" y1="437.725" x2="251.069" y2="429.471" stroke="#A866FF" stroke-width="1.73"/>
<line x1="14.1446" y1="437.347" x2="4.81394" y2="431.96" stroke="#A866FF" stroke-width="1.73"/>
<line x1="37.4538" y1="438.27" x2="29.2003" y2="431.345" stroke="#A866FF" stroke-width="1.73"/>
<line x1="60.5942" y1="438.837" x2="53.6687" y2="430.583" stroke="#A866FF" stroke-width="1.73"/>
<line x1="83.5956" y1="439.05" x2="78.2085" y2="429.719" stroke="#A866FF" stroke-width="1.73"/>
<line x1="106.499" y1="439.251" x2="102.814" y2="429.126" stroke="#A866FF" stroke-width="1.73"/>
<line x1="129.342" y1="439.441" x2="127.471" y2="428.831" stroke="#A866FF" stroke-width="1.73"/>
<line x1="152.166" y1="439.291" x2="152.166" y2="428.517" stroke="#A866FF" stroke-width="1.73"/>
<line x1="175.017" y1="439.141" x2="176.888" y2="428.53" stroke="#A866FF" stroke-width="1.73"/>
<line x1="173.698" y1="457.513" x2="177.383" y2="447.389" stroke="#A866FF" stroke-width="1.73"/>
<line x1="196.725" y1="457.041" x2="202.112" y2="447.71" stroke="#A866FF" stroke-width="1.73"/>
<line x1="219.899" y1="456.58" x2="226.824" y2="448.326" stroke="#A866FF" stroke-width="1.73"/>
<line x1="243.253" y1="455.8" x2="251.506" y2="448.875" stroke="#A866FF" stroke-width="1.73"/>
<line x1="13.2135" y1="457.126" x2="4.96002" y2="450.2" stroke="#A866FF" stroke-width="1.73"/>
<line x1="36.354" y1="457.692" x2="29.4285" y2="449.438" stroke="#A866FF" stroke-width="1.73"/>
<line x1="59.3554" y1="457.906" x2="53.9683" y2="448.575" stroke="#A866FF" stroke-width="1.73"/>
<line x1="82.2545" y1="458.105" x2="78.5696" y2="447.98" stroke="#A866FF" stroke-width="1.73"/>
<line x1="105.097" y1="458.297" x2="103.226" y2="447.686" stroke="#A866FF" stroke-width="1.73"/>
<line x1="127.922" y1="458.146" x2="127.922" y2="447.372" stroke="#A866FF" stroke-width="1.73"/>
<line x1="150.777" y1="457.996" x2="152.648" y2="447.386" stroke="#A866FF" stroke-width="1.73"/>
</g>
<g filter="url(#filter0_d_932_1463)">
<rect x="193" y="18" width="270" height="330" rx="21.8919" fill="white" shape-rendering="crispEdges"/>
<rect x="193.515" y="18.5153" width="268.969" height="328.969" rx="21.3766" stroke="#EDF0F3" stroke-width="1.03053" shape-rendering="crispEdges"/>
<rect x="214.893" y="80.3237" width="93.9527" height="14.5946" rx="7.2973" fill="#F8F2FF"/>
<rect x="214.893" y="55.9995" width="182.432" height="14.5946" rx="7.2973" fill="#F0E5FF"/>
<g filter="url(#filter1_d_932_1463)">
<rect x="163.102" y="109.514" width="138" height="110" rx="14.5946" fill="white" shape-rendering="crispEdges"/>
<rect x="164.102" y="110.514" width="136" height="108" rx="13.5946" stroke="#6E00FF" stroke-width="2" shape-rendering="crispEdges"/>
<path d="M188.102 142.847C192.704 142.847 196.435 139.116 196.435 134.514C196.435 129.912 192.704 126.181 188.102 126.181C183.5 126.181 179.769 129.912 179.769 134.514C179.769 139.116 183.5 142.847 188.102 142.847Z" fill="white" stroke="#6E00FF" stroke-width="1.5"/>
<path d="M185.186 134.931L186.852 136.597L191.019 132.431" fill="white"/>
<path d="M185.186 134.931L186.852 136.597L191.019 132.431" stroke="#6E00FF" stroke-width="1.5" stroke-linecap="round" stroke-linejoin="round"/>
<rect x="208.102" y="128.514" width="78" height="12" rx="6" fill="#F0E5FF"/>
<path d="M188.102 172.847C192.704 172.847 196.435 169.116 196.435 164.514C196.435 159.912 192.704 156.181 188.102 156.181C183.5 156.181 179.769 159.912 179.769 164.514C179.769 169.116 183.5 172.847 188.102 172.847Z" fill="white" stroke="#6E00FF" stroke-width="1.5"/>
<path d="M185.186 164.931L186.852 166.597L191.019 162.431" fill="white"/>
<path d="M185.186 164.931L186.852 166.597L191.019 162.431" stroke="#6E00FF" stroke-width="1.5" stroke-linecap="round" stroke-linejoin="round"/>
<rect x="208.102" y="158.514" width="78" height="12" rx="6" fill="#F0E5FF"/>
<path d="M188.102 202.847C192.704 202.847 196.435 199.116 196.435 194.514C196.435 189.912 192.704 186.181 188.102 186.181C183.5 186.181 179.769 189.912 179.769 194.514C179.769 199.116 183.5 202.847 188.102 202.847Z" fill="white" stroke="#6E00FF" stroke-width="1.5"/>
<path d="M185.186 194.931L186.852 196.597L191.019 192.431" fill="white"/>
<path d="M185.186 194.931L186.852 196.597L191.019 192.431" stroke="#6E00FF" stroke-width="1.5" stroke-linecap="round" stroke-linejoin="round"/>
<rect x="208.102" y="188.514" width="78" height="12" rx="6" fill="#F0E5FF"/>
</g>
<rect x="312.515" y="110.029" width="136.969" height="198.969" rx="14.0793" fill="#6E00FF"/>
<rect x="312.515" y="110.029" width="136.969" height="198.969" rx="14.0793" stroke="#6E00FF" stroke-width="1.03053"/>
<path d="M337 142.847C341.603 142.847 345.334 139.116 345.334 134.514C345.334 129.912 341.603 126.181 337 126.181C332.398 126.181 328.667 129.912 328.667 134.514C328.667 139.116 332.398 142.847 337 142.847Z" fill="#F8F2FF" stroke="#6E00FF" stroke-width="1.5"/>
<path d="M334.084 134.931L335.751 136.597L339.917 132.431" fill="#F8F2FF"/>
<path d="M334.084 134.931L335.751 136.597L339.917 132.431" stroke="#6E00FF" stroke-width="1.5" stroke-linecap="round" stroke-linejoin="round"/>
<rect x="357" y="128.514" width="78" height="12" rx="6" fill="#A866FF"/>
<path d="M337 172.847C341.603 172.847 345.334 169.116 345.334 164.514C345.334 159.912 341.603 156.181 337 156.181C332.398 156.181 328.667 159.912 328.667 164.514C328.667 169.116 332.398 172.847 337 172.847Z" fill="#F8F2FF" stroke="#6E00FF" stroke-width="1.5"/>
<path d="M334.084 164.931L335.751 166.597L339.917 162.431" fill="#F8F2FF"/>
<path d="M334.084 164.931L335.751 166.597L339.917 162.431" stroke="#6E00FF" stroke-width="1.5" stroke-linecap="round" stroke-linejoin="round"/>
<rect x="357" y="158.514" width="78" height="12" rx="6" fill="#A866FF"/>
<path d="M337 202.847C341.603 202.847 345.334 199.116 345.334 194.514C345.334 189.912 341.603 186.181 337 186.181C332.398 186.181 328.667 189.912 328.667 194.514C328.667 199.116 332.398 202.847 337 202.847Z" fill="#F8F2FF" stroke="#6E00FF" stroke-width="1.5"/>
<path d="M334.084 194.931L335.751 196.597L339.917 192.431" fill="#F8F2FF"/>
<path d="M334.084 194.931L335.751 196.597L339.917 192.431" stroke="#6E00FF" stroke-width="1.5" stroke-linecap="round" stroke-linejoin="round"/>
<rect x="357" y="188.514" width="78" height="12" rx="6" fill="#A866FF"/>
<path d="M337 232.847C341.603 232.847 345.334 229.116 345.334 224.514C345.334 219.912 341.603 216.181 337 216.181C332.398 216.181 328.667 219.912 328.667 224.514C328.667 229.116 332.398 232.847 337 232.847Z" fill="#F8F2FF" stroke="#6E00FF" stroke-width="1.5"/>
<path d="M334.084 224.931L335.751 226.597L339.917 222.431" fill="#F8F2FF"/>
<path d="M334.084 224.931L335.751 226.597L339.917 222.431" stroke="#6E00FF" stroke-width="1.5" stroke-linecap="round" stroke-linejoin="round"/>
<rect x="357" y="218.514" width="78" height="12" rx="6" fill="#A866FF"/>
<path d="M337 262.847C341.603 262.847 345.334 259.116 345.334 254.514C345.334 249.912 341.603 246.181 337 246.181C332.398 246.181 328.667 249.912 328.667 254.514C328.667 259.116 332.398 262.847 337 262.847Z" fill="#F8F2FF" stroke="#6E00FF" stroke-width="1.5"/>
<path d="M334.084 254.931L335.751 256.597L339.917 252.431" fill="#F8F2FF"/>
<path d="M334.084 254.931L335.751 256.597L339.917 252.431" stroke="#6E00FF" stroke-width="1.5" stroke-linecap="round" stroke-linejoin="round"/>
<rect x="357" y="248.514" width="78" height="12" rx="6" fill="#A866FF"/>
<path d="M337 292.847C341.603 292.847 345.334 289.116 345.334 284.514C345.334 279.912 341.603 276.181 337 276.181C332.398 276.181 328.667 279.912 328.667 284.514C328.667 289.116 332.398 292.847 337 292.847Z" fill="#F8F2FF" stroke="#6E00FF" stroke-width="1.5"/>
<path d="M334.084 284.931L335.751 286.597L339.917 282.431" fill="#F8F2FF"/>
<path d="M334.084 284.931L335.751 286.597L339.917 282.431" stroke="#6E00FF" stroke-width="1.5" stroke-linecap="round" stroke-linejoin="round"/>
<rect x="357" y="278.514" width="78" height="12" rx="6" fill="#A866FF"/>
<path fill-rule="evenodd" clip-rule="evenodd" d="M225.383 256.578C225.383 252.05 229.051 248.382 233.579 248.378H237.309C239.473 248.378 241.547 247.519 243.084 245.997L245.69 243.387C248.884 240.175 254.075 240.16 257.287 243.354L257.29 243.358L257.323 243.387L259.933 245.997C261.47 247.523 263.543 248.378 265.707 248.378H269.434C273.962 248.378 277.634 252.047 277.634 256.578V260.301C277.634 262.465 278.489 264.542 280.015 266.079L282.625 268.689C285.837 271.883 285.855 277.074 282.662 280.285L282.658 280.289L282.625 280.322L280.015 282.932C278.489 284.465 277.634 286.539 277.634 288.703V292.433C277.634 296.96 273.965 300.629 269.438 300.629H265.7C263.536 300.629 261.459 301.488 259.926 303.014L257.316 305.621C254.126 308.832 248.938 308.85 245.726 305.664C245.723 305.66 245.719 305.657 245.716 305.653L245.683 305.621L243.077 303.014C241.543 301.488 239.466 300.633 237.302 300.629H233.579C229.051 300.629 225.383 296.96 225.383 292.433V288.695C225.383 286.531 224.524 284.458 222.998 282.924L220.391 280.314C217.18 277.124 217.161 271.937 220.351 268.725C220.351 268.722 220.355 268.718 220.359 268.714L220.391 268.682L222.998 266.072C224.524 264.535 225.383 262.461 225.383 260.294V256.578Z" stroke="#F0E5FF" stroke-width="5.4375" stroke-linecap="round" stroke-linejoin="round"/>
<path d="M242.191 283.823L260.824 265.19" stroke="#F0E5FF" stroke-width="5.4375" stroke-linecap="round" stroke-linejoin="round"/>
<path d="M260.546 283.563H260.579" stroke="#F0E5FF" stroke-width="7.25" stroke-linecap="round" stroke-linejoin="round"/>
<path d="M242.422 265.438H242.454" stroke="#F0E5FF" stroke-width="7.25" stroke-linecap="round" stroke-linejoin="round"/>
<g clip-path="url(#clip0_932_1463)">
<g filter="url(#filter2_d_932_1463)">
<path d="M432.333 262.667C432.598 262.667 432.853 262.772 433.04 262.96C433.228 263.147 433.333 263.402 433.333 263.667V267C433.333 267.266 433.228 267.52 433.04 267.707C432.853 267.895 432.598 268 432.333 268C432.068 268 431.813 267.895 431.626 267.707C431.438 267.52 431.333 267.266 431.333 267V263.667C431.333 263.402 431.438 263.147 431.626 262.96C431.813 262.772 432.068 262.667 432.333 262.667ZM425.96 265.294C426.147 265.106 426.401 265.001 426.666 265.001C426.931 265.001 427.186 265.106 427.373 265.294L429.706 267.627C429.805 267.719 429.883 267.829 429.938 267.952C429.993 268.074 430.022 268.207 430.024 268.341C430.027 268.475 430.002 268.609 429.952 268.733C429.902 268.858 429.827 268.971 429.732 269.066C429.637 269.161 429.524 269.236 429.399 269.286C429.275 269.336 429.141 269.361 429.007 269.358C428.873 269.356 428.74 269.327 428.618 269.272C428.495 269.217 428.385 269.139 428.293 269.04L425.96 266.707C425.772 266.519 425.667 266.265 425.667 266C425.667 265.735 425.772 265.481 425.96 265.294ZM438.706 265.294C438.894 265.481 438.999 265.735 438.999 266C438.999 266.265 438.894 266.519 438.706 266.707L436.373 269.04C436.281 269.139 436.171 269.217 436.048 269.272C435.926 269.327 435.793 269.356 435.659 269.358C435.525 269.361 435.391 269.336 435.267 269.286C435.142 269.236 435.029 269.161 434.934 269.066C434.839 268.971 434.764 268.858 434.714 268.733C434.664 268.609 434.639 268.475 434.642 268.341C434.644 268.207 434.673 268.074 434.728 267.952C434.783 267.829 434.861 267.719 434.96 267.627L437.293 265.294C437.481 265.106 437.735 265.001 438 265.001C438.265 265.001 438.519 265.106 438.706 265.294ZM423.333 271.667C423.333 271.402 423.438 271.147 423.626 270.96C423.813 270.772 424.068 270.667 424.333 270.667H427.666C427.932 270.667 428.186 270.772 428.373 270.96C428.561 271.147 428.666 271.402 428.666 271.667C428.666 271.932 428.561 272.187 428.373 272.374C428.186 272.562 427.932 272.667 427.666 272.667H424.333C424.068 272.667 423.813 272.562 423.626 272.374C423.438 272.187 423.333 271.932 423.333 271.667ZM431.333 272.65C431.333 271.147 433.096 270.336 434.236 271.315L445.517 280.984C446.73 282.024 446.04 284.012 444.444 284.078L439.324 284.282C438.773 284.303 438.256 284.548 437.888 284.958L434.402 288.854C433.326 290.058 431.333 289.295 431.333 287.68V272.65Z" fill="white"/>
<path d="M429.518 267.816L429.518 267.816L427.185 265.482L429.518 267.816ZM429.518 267.816L429.525 267.822M429.518 267.816L429.525 267.822M429.525 267.822C429.597 267.889 429.654 267.97 429.694 268.06C429.735 268.15 429.756 268.247 429.758 268.346C429.76 268.444 429.741 268.542 429.705 268.633C429.668 268.725 429.613 268.808 429.543 268.877C429.474 268.947 429.391 269.002 429.299 269.039C429.208 269.075 429.11 269.094 429.012 269.092C428.913 269.09 428.816 269.069 428.726 269.028C428.636 268.988 428.555 268.931 428.488 268.859L428.488 268.858M429.525 267.822L428.488 268.858M428.488 268.858L428.482 268.852M428.488 268.858L428.482 268.852M428.482 268.852L426.148 266.519L428.482 268.852ZM436.184 268.852L436.184 268.852L438.518 266.519L436.184 268.852ZM436.184 268.852L436.178 268.859M436.184 268.852L436.178 268.859M436.178 268.859C436.111 268.931 436.03 268.988 435.94 269.028C435.85 269.069 435.753 269.09 435.654 269.092C435.556 269.094 435.458 269.075 435.367 269.039C435.275 269.002 435.192 268.947 435.123 268.877C435.053 268.808 434.998 268.725 434.961 268.633C434.925 268.542 434.906 268.444 434.908 268.346C434.91 268.247 434.931 268.15 434.972 268.06C435.012 267.97 435.069 267.889 435.141 267.822L435.142 267.822M436.178 268.859L435.142 267.822M435.142 267.822L435.148 267.816M435.142 267.822L435.148 267.816M435.148 267.816L437.481 265.482L435.148 267.816ZM426.666 265.268C426.472 265.268 426.286 265.345 426.148 265.482C426.011 265.62 425.934 265.806 425.934 266C425.934 266.195 426.011 266.381 426.148 266.518L426.666 265.268ZM426.666 265.268C426.861 265.268 427.047 265.345 427.184 265.482L426.666 265.268ZM434.062 271.517L434.062 271.517L445.343 281.187C446.373 282.069 445.787 283.756 444.433 283.811L439.313 284.015C439.313 284.015 439.313 284.015 439.313 284.015C438.69 284.039 438.105 284.317 437.689 284.779L437.689 284.78L434.204 288.676L434.204 288.676C433.291 289.697 431.6 289.051 431.6 287.68V272.65C431.6 271.375 433.095 270.687 434.062 271.517ZM432.333 262.934C432.528 262.934 432.714 263.011 432.852 263.148C432.989 263.286 433.066 263.473 433.066 263.667V267C433.066 267.195 432.989 267.381 432.852 267.519C432.714 267.656 432.528 267.734 432.333 267.734C432.139 267.734 431.952 267.656 431.814 267.519C431.677 267.381 431.6 267.195 431.6 267V263.667C431.6 263.473 431.677 263.286 431.814 263.148C431.952 263.011 432.139 262.934 432.333 262.934ZM423.6 271.667C423.6 271.473 423.677 271.286 423.814 271.148C423.952 271.011 424.139 270.934 424.333 270.934H427.666C427.861 270.934 428.047 271.011 428.185 271.148C428.322 271.286 428.4 271.473 428.4 271.667C428.4 271.861 428.322 272.048 428.185 272.186C428.047 272.323 427.861 272.4 427.666 272.4H424.333C424.139 272.4 423.952 272.323 423.814 272.186C423.677 272.048 423.6 271.861 423.6 271.667Z" stroke="#6E00FF" stroke-width="0.533333"/>
</g>
</g>
</g>
<defs>
<filter id="filter0_d_932_1463" x="146.077" y="0.974327" width="431.25" height="461.351" filterUnits="userSpaceOnUse" color-interpolation-filters="sRGB">
<feFlood flood-opacity="0" result="BackgroundImageFix"/>
<feColorMatrix in="SourceAlpha" type="matrix" values="0 0 0 0 0 0 0 0 0 0 0 0 0 0 0 0 0 0 127 0" result="hardAlpha"/>
<feOffset dx="48.6515" dy="48.65"/>
<feGaussianBlur stdDeviation="32.8378"/>
<feComposite in2="hardAlpha" operator="out"/>
<feColorMatrix type="matrix" values="0 0 0 0 0 0 0 0 0 0 0 0 0 0 0 0 0 0 0.08 0"/>
<feBlend mode="normal" in2="BackgroundImageFix" result="effect1_dropShadow_932_1463"/>
<feBlend mode="normal" in="SourceGraphic" in2="effect1_dropShadow_932_1463" result="shape"/>
</filter>
<filter id="filter1_d_932_1463" x="97.4259" y="65.7299" width="269.351" height="241.351" filterUnits="userSpaceOnUse" color-interpolation-filters="sRGB">
<feFlood flood-opacity="0" result="BackgroundImageFix"/>
<feColorMatrix in="SourceAlpha" type="matrix" values="0 0 0 0 0 0 0 0 0 0 0 0 0 0 0 0 0 0 127 0" result="hardAlpha"/>
<feOffset dy="21.8919"/>
<feGaussianBlur stdDeviation="32.8378"/>
<feComposite in2="hardAlpha" operator="out"/>
<feColorMatrix type="matrix" values="0 0 0 0 0 0 0 0 0 0 0 0 0 0 0 0 0 0 0.12 0"/>
<feBlend mode="normal" in2="BackgroundImageFix" result="effect1_dropShadow_932_1463"/>
<feBlend mode="normal" in="SourceGraphic" in2="effect1_dropShadow_932_1463" result="shape"/>
</filter>
<filter id="filter2_d_932_1463" x="416.666" y="257.334" width="33.4674" height="37.443" filterUnits="userSpaceOnUse" color-interpolation-filters="sRGB">
<feFlood flood-opacity="0" result="BackgroundImageFix"/>
<feColorMatrix in="SourceAlpha" type="matrix" values="0 0 0 0 0 0 0 0 0 0 0 0 0 0 0 0 0 0 127 0" result="hardAlpha"/>
<feOffset dx="-1.33333"/>
<feGaussianBlur stdDeviation="2.66667"/>
<feComposite in2="hardAlpha" operator="out"/>
<feColorMatrix type="matrix" values="0 0 0 0 0 0 0 0 0 0 0 0 0 0 0 0 0 0 0.23 0"/>
<feBlend mode="normal" in2="BackgroundImageFix" result="effect1_dropShadow_932_1463"/>
<feBlend mode="normal" in="SourceGraphic" in2="effect1_dropShadow_932_1463" result="shape"/>
</filter>
<clipPath id="clip0_932_1463">
<rect width="32" height="32" fill="white" transform="translate(420 260)"/>
</clipPath>
</defs>
</svg>
