<svg width="502" height="544" viewBox="0 0 502 544" fill="none" xmlns="http://www.w3.org/2000/svg">
<g opacity="0.6">
<line x1="401.052" y1="27.0069" x2="404.737" y2="16.8825" stroke="#A866FF" stroke-width="1.73"/>
<line x1="424.083" y1="26.5333" x2="429.47" y2="17.2026" stroke="#A866FF" stroke-width="1.73"/>
<line x1="447.257" y1="26.0729" x2="454.183" y2="17.8194" stroke="#A866FF" stroke-width="1.73"/>
<line x1="470.607" y1="25.2934" x2="478.861" y2="18.3679" stroke="#A866FF" stroke-width="1.73"/>
<line x1="240.568" y1="26.6187" x2="232.314" y2="19.6932" stroke="#A866FF" stroke-width="1.73"/>
<line x1="263.708" y1="27.1849" x2="256.783" y2="18.9314" stroke="#A866FF" stroke-width="1.73"/>
<line x1="286.71" y1="27.3983" x2="281.323" y2="18.0676" stroke="#A866FF" stroke-width="1.73"/>
<line x1="309.613" y1="27.5986" x2="305.928" y2="17.4742" stroke="#A866FF" stroke-width="1.73"/>
<line x1="332.455" y1="27.7899" x2="330.585" y2="17.1794" stroke="#A866FF" stroke-width="1.73"/>
<line x1="355.28" y1="27.6396" x2="355.28" y2="16.8655" stroke="#A866FF" stroke-width="1.73"/>
<line x1="378.131" y1="27.4894" x2="380.002" y2="16.879" stroke="#A866FF" stroke-width="1.73"/>
<line x1="376.812" y1="45.8614" x2="380.497" y2="35.737" stroke="#A866FF" stroke-width="1.73"/>
<line x1="399.839" y1="45.3878" x2="405.226" y2="36.0571" stroke="#A866FF" stroke-width="1.73"/>
<line x1="423.014" y1="44.9284" x2="429.939" y2="36.6749" stroke="#A866FF" stroke-width="1.73"/>
<line x1="446.367" y1="44.1489" x2="454.621" y2="37.2234" stroke="#A866FF" stroke-width="1.73"/>
<line x1="469.923" y1="43.0517" x2="479.254" y2="37.6646" stroke="#A866FF" stroke-width="1.73"/>
<line x1="239.468" y1="46.0404" x2="232.542" y2="37.7869" stroke="#A866FF" stroke-width="1.73"/>
<line x1="262.47" y1="46.2528" x2="257.082" y2="36.9221" stroke="#A866FF" stroke-width="1.73"/>
<line x1="285.369" y1="46.4531" x2="281.684" y2="36.3287" stroke="#A866FF" stroke-width="1.73"/>
<line x1="308.212" y1="46.6443" x2="306.341" y2="36.0339" stroke="#A866FF" stroke-width="1.73"/>
<line x1="331.037" y1="46.4941" x2="331.037" y2="35.72" stroke="#A866FF" stroke-width="1.73"/>
<line x1="353.891" y1="46.3439" x2="355.762" y2="35.7334" stroke="#A866FF" stroke-width="1.73"/>
<line x1="352.569" y1="64.7168" x2="356.254" y2="54.5924" stroke="#A866FF" stroke-width="1.73"/>
<line x1="375.599" y1="64.2433" x2="380.986" y2="54.9126" stroke="#A866FF" stroke-width="1.73"/>
<line x1="398.773" y1="63.7829" x2="405.699" y2="55.5294" stroke="#A866FF" stroke-width="1.73"/>
<line x1="422.127" y1="63.0024" x2="430.38" y2="56.0769" stroke="#A866FF" stroke-width="1.73"/>
<line x1="445.683" y1="61.9062" x2="455.014" y2="56.5191" stroke="#A866FF" stroke-width="1.73"/>
<line x1="469.465" y1="61.1686" x2="479.59" y2="57.4836" stroke="#A866FF" stroke-width="1.73"/>
<line x1="238.226" y1="65.1083" x2="232.839" y2="55.7776" stroke="#A866FF" stroke-width="1.73"/>
<line x1="261.129" y1="65.3085" x2="257.444" y2="55.1841" stroke="#A866FF" stroke-width="1.73"/>
<line x1="283.972" y1="65.4988" x2="282.101" y2="54.8883" stroke="#A866FF" stroke-width="1.73"/>
<line x1="306.796" y1="65.3486" x2="306.796" y2="54.5745" stroke="#A866FF" stroke-width="1.73"/>
<line x1="329.648" y1="65.1984" x2="331.518" y2="54.5879" stroke="#A866FF" stroke-width="1.73"/>
<line x1="328.328" y1="83.5713" x2="332.013" y2="73.4469" stroke="#A866FF" stroke-width="1.73"/>
<line x1="351.355" y1="83.0987" x2="356.742" y2="73.768" stroke="#A866FF" stroke-width="1.73"/>
<line x1="374.53" y1="82.6373" x2="381.455" y2="74.3839" stroke="#A866FF" stroke-width="1.73"/>
<line x1="397.883" y1="81.8579" x2="406.137" y2="74.9324" stroke="#A866FF" stroke-width="1.73"/>
<line x1="421.443" y1="80.7607" x2="430.773" y2="75.3736" stroke="#A866FF" stroke-width="1.73"/>
<line x1="445.225" y1="80.0241" x2="455.349" y2="76.3391" stroke="#A866FF" stroke-width="1.73"/>
<line x1="469.249" y1="78.9753" x2="479.86" y2="77.1044" stroke="#A866FF" stroke-width="1.73"/>
<line x1="236.885" y1="84.163" x2="233.2" y2="74.0386" stroke="#A866FF" stroke-width="1.73"/>
<line x1="259.728" y1="84.3543" x2="257.857" y2="73.7438" stroke="#A866FF" stroke-width="1.73"/>
<line x1="282.553" y1="84.2041" x2="282.553" y2="73.4299" stroke="#A866FF" stroke-width="1.73"/>
<line x1="305.407" y1="84.0539" x2="307.278" y2="73.4434" stroke="#A866FF" stroke-width="1.73"/>
<line x1="304.085" y1="102.426" x2="307.77" y2="92.3014" stroke="#A866FF" stroke-width="1.73"/>
<line x1="327.115" y1="101.952" x2="332.502" y2="92.6216" stroke="#A866FF" stroke-width="1.73"/>
<line x1="350.289" y1="101.493" x2="357.215" y2="93.2393" stroke="#A866FF" stroke-width="1.73"/>
<line x1="373.643" y1="100.712" x2="381.896" y2="93.7869" stroke="#A866FF" stroke-width="1.73"/>
<line x1="397.199" y1="99.6161" x2="406.53" y2="94.229" stroke="#A866FF" stroke-width="1.73"/>
<line x1="420.981" y1="98.8786" x2="431.106" y2="95.1936" stroke="#A866FF" stroke-width="1.73"/>
<line x1="445.006" y1="97.8298" x2="455.616" y2="95.9589" stroke="#A866FF" stroke-width="1.73"/>
<line x1="235.488" y1="103.209" x2="233.617" y2="92.5983" stroke="#A866FF" stroke-width="1.73"/>
<line x1="258.312" y1="103.059" x2="258.312" y2="92.2844" stroke="#A866FF" stroke-width="1.73"/>
<line x1="281.164" y1="102.908" x2="283.035" y2="92.2979" stroke="#A866FF" stroke-width="1.73"/>
<line x1="482.743" y1="98.5369" x2="471.969" y2="98.5369" stroke="#A866FF" stroke-width="1.73"/>
<line x1="279.844" y1="121.28" x2="283.529" y2="111.156" stroke="#A866FF" stroke-width="1.73"/>
<line x1="302.871" y1="120.808" x2="308.258" y2="111.477" stroke="#A866FF" stroke-width="1.73"/>
<line x1="326.046" y1="120.347" x2="332.971" y2="112.094" stroke="#A866FF" stroke-width="1.73"/>
<line x1="349.399" y1="119.567" x2="357.653" y2="112.641" stroke="#A866FF" stroke-width="1.73"/>
<line x1="372.959" y1="118.471" x2="382.289" y2="113.084" stroke="#A866FF" stroke-width="1.73"/>
<line x1="396.741" y1="117.734" x2="406.865" y2="114.049" stroke="#A866FF" stroke-width="1.73"/>
<line x1="420.765" y1="116.684" x2="431.376" y2="114.813" stroke="#A866FF" stroke-width="1.73"/>
<line x1="234.069" y1="121.913" x2="234.069" y2="111.139" stroke="#A866FF" stroke-width="1.73"/>
<line x1="256.923" y1="121.763" x2="258.794" y2="111.152" stroke="#A866FF" stroke-width="1.73"/>
<line x1="458.499" y1="117.391" x2="447.725" y2="117.391" stroke="#A866FF" stroke-width="1.73"/>
<line x1="482.471" y1="118.388" x2="471.86" y2="116.517" stroke="#A866FF" stroke-width="1.73"/>
<line x1="255.601" y1="140.136" x2="259.286" y2="130.011" stroke="#A866FF" stroke-width="1.73"/>
<line x1="278.631" y1="139.662" x2="284.018" y2="130.332" stroke="#A866FF" stroke-width="1.73"/>
<line x1="301.805" y1="139.203" x2="308.731" y2="130.949" stroke="#A866FF" stroke-width="1.73"/>
<line x1="325.159" y1="138.422" x2="333.412" y2="131.497" stroke="#A866FF" stroke-width="1.73"/>
<line x1="348.715" y1="137.326" x2="358.046" y2="131.939" stroke="#A866FF" stroke-width="1.73"/>
<line x1="372.497" y1="136.589" x2="382.622" y2="132.904" stroke="#A866FF" stroke-width="1.73"/>
<line x1="396.522" y1="135.54" x2="407.132" y2="133.669" stroke="#A866FF" stroke-width="1.73"/>
<line x1="232.68" y1="140.618" x2="234.551" y2="130.008" stroke="#A866FF" stroke-width="1.73"/>
<line x1="434.259" y1="136.246" x2="423.485" y2="136.246" stroke="#A866FF" stroke-width="1.73"/>
<line x1="458.227" y1="137.243" x2="447.617" y2="135.373" stroke="#A866FF" stroke-width="1.73"/>
<line x1="481.96" y1="138.214" x2="471.836" y2="134.529" stroke="#A866FF" stroke-width="1.73"/>
<line x1="231.36" y1="158.991" x2="235.045" y2="148.867" stroke="#A866FF" stroke-width="1.73"/>
<line x1="254.387" y1="158.517" x2="259.774" y2="149.186" stroke="#A866FF" stroke-width="1.73"/>
<line x1="277.562" y1="158.056" x2="284.487" y2="149.803" stroke="#A866FF" stroke-width="1.73"/>
<line x1="300.915" y1="157.277" x2="309.169" y2="150.351" stroke="#A866FF" stroke-width="1.73"/>
<line x1="324.475" y1="156.18" x2="333.806" y2="150.793" stroke="#A866FF" stroke-width="1.73"/>
<line x1="348.257" y1="155.443" x2="358.382" y2="151.758" stroke="#A866FF" stroke-width="1.73"/>
<line x1="372.281" y1="154.394" x2="382.892" y2="152.523" stroke="#A866FF" stroke-width="1.73"/>
<line x1="481.229" y1="157.678" x2="471.898" y2="152.291" stroke="#A866FF" stroke-width="1.73"/>
<line x1="410.019" y1="155.101" x2="399.244" y2="155.101" stroke="#A866FF" stroke-width="1.73"/>
<line x1="433.987" y1="156.098" x2="423.376" y2="154.227" stroke="#A866FF" stroke-width="1.73"/>
<line x1="457.717" y1="157.069" x2="447.592" y2="153.384" stroke="#A866FF" stroke-width="1.73"/>
<line x1="230.147" y1="177.372" x2="235.534" y2="168.041" stroke="#A866FF" stroke-width="1.73"/>
<line x1="253.321" y1="176.912" x2="260.247" y2="168.658" stroke="#A866FF" stroke-width="1.73"/>
<line x1="276.675" y1="176.132" x2="284.928" y2="169.207" stroke="#A866FF" stroke-width="1.73"/>
<line x1="300.231" y1="175.035" x2="309.562" y2="169.648" stroke="#A866FF" stroke-width="1.73"/>
<line x1="324.013" y1="174.298" x2="334.138" y2="170.614" stroke="#A866FF" stroke-width="1.73"/>
<line x1="348.038" y1="173.249" x2="358.648" y2="171.378" stroke="#A866FF" stroke-width="1.73"/>
<line x1="456.985" y1="176.533" x2="447.655" y2="171.146" stroke="#A866FF" stroke-width="1.73"/>
<line x1="480.298" y1="177.458" x2="472.044" y2="170.532" stroke="#A866FF" stroke-width="1.73"/>
<line x1="385.775" y1="173.956" x2="375.001" y2="173.956" stroke="#A866FF" stroke-width="1.73"/>
<line x1="409.743" y1="174.952" x2="399.133" y2="173.082" stroke="#A866FF" stroke-width="1.73"/>
<line x1="433.476" y1="175.924" x2="423.352" y2="172.239" stroke="#A866FF" stroke-width="1.73"/>
<line x1="229.078" y1="195.767" x2="236.003" y2="187.514" stroke="#A866FF" stroke-width="1.73"/>
<line x1="252.431" y1="194.986" x2="260.685" y2="188.06" stroke="#A866FF" stroke-width="1.73"/>
<line x1="275.991" y1="193.891" x2="285.322" y2="188.503" stroke="#A866FF" stroke-width="1.73"/>
<line x1="299.773" y1="193.153" x2="309.898" y2="189.468" stroke="#A866FF" stroke-width="1.73"/>
<line x1="323.798" y1="192.104" x2="334.408" y2="190.233" stroke="#A866FF" stroke-width="1.73"/>
<line x1="432.745" y1="195.389" x2="423.414" y2="190.002" stroke="#A866FF" stroke-width="1.73"/>
<line x1="456.054" y1="196.311" x2="447.801" y2="189.386" stroke="#A866FF" stroke-width="1.73"/>
<line x1="479.195" y1="196.879" x2="472.269" y2="188.626" stroke="#A866FF" stroke-width="1.73"/>
<line x1="361.535" y1="192.81" x2="350.76" y2="192.81" stroke="#A866FF" stroke-width="1.73"/>
<line x1="385.503" y1="193.808" x2="374.893" y2="191.937" stroke="#A866FF" stroke-width="1.73"/>
<line x1="409.236" y1="194.779" x2="399.112" y2="191.094" stroke="#A866FF" stroke-width="1.73"/>
<line x1="228.191" y1="213.841" x2="236.445" y2="206.916" stroke="#A866FF" stroke-width="1.73"/>
<line x1="251.747" y1="212.745" x2="261.078" y2="207.358" stroke="#A866FF" stroke-width="1.73"/>
<line x1="275.529" y1="212.007" x2="285.654" y2="208.322" stroke="#A866FF" stroke-width="1.73"/>
<line x1="299.554" y1="210.959" x2="310.164" y2="209.088" stroke="#A866FF" stroke-width="1.73"/>
<line x1="408.501" y1="214.243" x2="399.171" y2="208.856" stroke="#A866FF" stroke-width="1.73"/>
<line x1="431.814" y1="215.167" x2="423.561" y2="208.241" stroke="#A866FF" stroke-width="1.73"/>
<line x1="454.951" y1="215.733" x2="448.025" y2="207.479" stroke="#A866FF" stroke-width="1.73"/>
<line x1="477.956" y1="215.947" x2="472.569" y2="206.616" stroke="#A866FF" stroke-width="1.73"/>
<line x1="337.291" y1="211.666" x2="326.517" y2="211.666" stroke="#A866FF" stroke-width="1.73"/>
<line x1="361.259" y1="212.662" x2="350.649" y2="210.791" stroke="#A866FF" stroke-width="1.73"/>
<line x1="384.993" y1="213.633" x2="374.868" y2="209.948" stroke="#A866FF" stroke-width="1.73"/>
<line x1="227.507" y1="231.6" x2="236.838" y2="226.212" stroke="#A866FF" stroke-width="1.73"/>
<line x1="251.289" y1="230.863" x2="261.414" y2="227.178" stroke="#A866FF" stroke-width="1.73"/>
<line x1="275.314" y1="229.813" x2="285.924" y2="227.942" stroke="#A866FF" stroke-width="1.73"/>
<line x1="384.261" y1="233.098" x2="374.931" y2="227.711" stroke="#A866FF" stroke-width="1.73"/>
<line x1="407.57" y1="234.022" x2="399.317" y2="227.096" stroke="#A866FF" stroke-width="1.73"/>
<line x1="430.711" y1="234.588" x2="423.785" y2="226.335" stroke="#A866FF" stroke-width="1.73"/>
<line x1="453.712" y1="234.801" x2="448.325" y2="225.47" stroke="#A866FF" stroke-width="1.73"/>
<line x1="476.615" y1="235.002" x2="472.93" y2="224.877" stroke="#A866FF" stroke-width="1.73"/>
<line x1="313.051" y1="230.52" x2="302.277" y2="230.52" stroke="#A866FF" stroke-width="1.73"/>
<line x1="337.019" y1="231.517" x2="326.409" y2="229.646" stroke="#A866FF" stroke-width="1.73"/>
<line x1="360.752" y1="232.489" x2="350.628" y2="228.804" stroke="#A866FF" stroke-width="1.73"/>
<line x1="227.046" y1="249.717" x2="237.17" y2="246.032" stroke="#A866FF" stroke-width="1.73"/>
<line x1="251.07" y1="248.669" x2="261.68" y2="246.798" stroke="#A866FF" stroke-width="1.73"/>
<line x1="360.018" y1="251.953" x2="350.687" y2="246.566" stroke="#A866FF" stroke-width="1.73"/>
<line x1="383.33" y1="252.876" x2="375.077" y2="245.951" stroke="#A866FF" stroke-width="1.73"/>
<line x1="406.47" y1="253.443" x2="399.545" y2="245.189" stroke="#A866FF" stroke-width="1.73"/>
<line x1="429.472" y1="253.656" x2="424.085" y2="244.325" stroke="#A866FF" stroke-width="1.73"/>
<line x1="452.371" y1="253.856" x2="448.686" y2="243.732" stroke="#A866FF" stroke-width="1.73"/>
<line x1="475.214" y1="254.047" x2="473.343" y2="243.436" stroke="#A866FF" stroke-width="1.73"/>
<line x1="288.807" y1="249.375" x2="278.033" y2="249.375" stroke="#A866FF" stroke-width="1.73"/>
<line x1="312.776" y1="250.372" x2="302.165" y2="248.501" stroke="#A866FF" stroke-width="1.73"/>
<line x1="336.509" y1="251.343" x2="326.384" y2="247.658" stroke="#A866FF" stroke-width="1.73"/>
<line x1="226.83" y1="267.523" x2="237.44" y2="265.652" stroke="#A866FF" stroke-width="1.73"/>
<line x1="335.777" y1="270.808" x2="326.447" y2="265.421" stroke="#A866FF" stroke-width="1.73"/>
<line x1="359.087" y1="271.731" x2="350.833" y2="264.805" stroke="#A866FF" stroke-width="1.73"/>
<line x1="382.227" y1="272.298" x2="375.301" y2="264.045" stroke="#A866FF" stroke-width="1.73"/>
<line x1="405.228" y1="272.512" x2="399.841" y2="263.181" stroke="#A866FF" stroke-width="1.73"/>
<line x1="428.131" y1="272.711" x2="424.446" y2="262.586" stroke="#A866FF" stroke-width="1.73"/>
<line x1="450.974" y1="272.902" x2="449.103" y2="262.292" stroke="#A866FF" stroke-width="1.73"/>
<line x1="473.799" y1="272.752" x2="473.799" y2="261.978" stroke="#A866FF" stroke-width="1.73"/>
<line x1="264.567" y1="268.229" x2="253.793" y2="268.229" stroke="#A866FF" stroke-width="1.73"/>
<line x1="288.535" y1="269.227" x2="277.925" y2="267.356" stroke="#A866FF" stroke-width="1.73"/>
<line x1="312.268" y1="270.198" x2="302.144" y2="266.513" stroke="#A866FF" stroke-width="1.73"/>
<line x1="311.534" y1="289.662" x2="302.203" y2="284.275" stroke="#A866FF" stroke-width="1.73"/>
<line x1="334.846" y1="290.585" x2="326.593" y2="283.66" stroke="#A866FF" stroke-width="1.73"/>
<line x1="357.986" y1="291.153" x2="351.061" y2="282.899" stroke="#A866FF" stroke-width="1.73"/>
<line x1="380.988" y1="291.366" x2="375.601" y2="282.035" stroke="#A866FF" stroke-width="1.73"/>
<line x1="403.887" y1="291.566" x2="400.202" y2="281.442" stroke="#A866FF" stroke-width="1.73"/>
<line x1="426.73" y1="291.757" x2="424.859" y2="281.146" stroke="#A866FF" stroke-width="1.73"/>
<line x1="449.555" y1="291.606" x2="449.555" y2="280.832" stroke="#A866FF" stroke-width="1.73"/>
<line x1="472.41" y1="291.456" x2="474.281" y2="280.846" stroke="#A866FF" stroke-width="1.73"/>
<line x1="240.323" y1="287.085" x2="229.549" y2="287.085" stroke="#A866FF" stroke-width="1.73"/>
<line x1="264.292" y1="288.081" x2="253.681" y2="286.21" stroke="#A866FF" stroke-width="1.73"/>
<line x1="288.025" y1="289.053" x2="277.9" y2="285.368" stroke="#A866FF" stroke-width="1.73"/>
<line x1="471.087" y1="309.829" x2="474.772" y2="299.705" stroke="#A866FF" stroke-width="1.73"/>
<line x1="287.293" y1="308.517" x2="277.963" y2="303.13" stroke="#A866FF" stroke-width="1.73"/>
<line x1="310.603" y1="309.441" x2="302.349" y2="302.515" stroke="#A866FF" stroke-width="1.73"/>
<line x1="333.743" y1="310.007" x2="326.817" y2="301.754" stroke="#A866FF" stroke-width="1.73"/>
<line x1="356.744" y1="310.221" x2="351.357" y2="300.89" stroke="#A866FF" stroke-width="1.73"/>
<line x1="379.647" y1="310.421" x2="375.962" y2="300.296" stroke="#A866FF" stroke-width="1.73"/>
<line x1="402.49" y1="310.612" x2="400.619" y2="300.002" stroke="#A866FF" stroke-width="1.73"/>
<line x1="425.315" y1="310.462" x2="425.315" y2="299.688" stroke="#A866FF" stroke-width="1.73"/>
<line x1="448.166" y1="310.312" x2="450.037" y2="299.701" stroke="#A866FF" stroke-width="1.73"/>
<line x1="240.051" y1="306.936" x2="229.441" y2="305.065" stroke="#A866FF" stroke-width="1.73"/>
<line x1="263.784" y1="307.908" x2="253.66" y2="304.223" stroke="#A866FF" stroke-width="1.73"/>
<line x1="446.847" y1="328.684" x2="450.532" y2="318.559" stroke="#A866FF" stroke-width="1.73"/>
<line x1="469.874" y1="328.21" x2="475.261" y2="318.879" stroke="#A866FF" stroke-width="1.73"/>
<line x1="263.05" y1="327.372" x2="253.719" y2="321.985" stroke="#A866FF" stroke-width="1.73"/>
<line x1="286.362" y1="328.295" x2="278.109" y2="321.37" stroke="#A866FF" stroke-width="1.73"/>
<line x1="309.503" y1="328.863" x2="302.577" y2="320.609" stroke="#A866FF" stroke-width="1.73"/>
<line x1="332.504" y1="329.075" x2="327.117" y2="319.744" stroke="#A866FF" stroke-width="1.73"/>
<line x1="355.403" y1="329.275" x2="351.718" y2="319.151" stroke="#A866FF" stroke-width="1.73"/>
<line x1="378.246" y1="329.467" x2="376.375" y2="318.856" stroke="#A866FF" stroke-width="1.73"/>
<line x1="401.071" y1="329.316" x2="401.071" y2="318.542" stroke="#A866FF" stroke-width="1.73"/>
<line x1="423.926" y1="329.166" x2="425.797" y2="318.556" stroke="#A866FF" stroke-width="1.73"/>
<line x1="239.541" y1="326.762" x2="229.416" y2="323.077" stroke="#A866FF" stroke-width="1.73"/>
<line x1="422.603" y1="347.539" x2="426.288" y2="337.415" stroke="#A866FF" stroke-width="1.73"/>
<line x1="445.633" y1="347.066" x2="451.02" y2="337.735" stroke="#A866FF" stroke-width="1.73"/>
<line x1="468.808" y1="346.605" x2="475.733" y2="338.352" stroke="#A866FF" stroke-width="1.73"/>
<line x1="238.809" y1="346.227" x2="229.479" y2="340.84" stroke="#A866FF" stroke-width="1.73"/>
<line x1="262.119" y1="347.15" x2="253.865" y2="340.224" stroke="#A866FF" stroke-width="1.73"/>
<line x1="285.259" y1="347.717" x2="278.333" y2="339.464" stroke="#A866FF" stroke-width="1.73"/>
<line x1="308.26" y1="347.931" x2="302.873" y2="338.6" stroke="#A866FF" stroke-width="1.73"/>
<line x1="331.163" y1="348.131" x2="327.478" y2="338.006" stroke="#A866FF" stroke-width="1.73"/>
<line x1="354.006" y1="348.321" x2="352.135" y2="337.711" stroke="#A866FF" stroke-width="1.73"/>
<line x1="376.831" y1="348.171" x2="376.831" y2="337.397" stroke="#A866FF" stroke-width="1.73"/>
<line x1="399.682" y1="348.021" x2="401.553" y2="337.41" stroke="#A866FF" stroke-width="1.73"/>
<line x1="398.363" y1="366.394" x2="402.048" y2="356.269" stroke="#A866FF" stroke-width="1.73"/>
<line x1="421.39" y1="365.92" x2="426.777" y2="356.589" stroke="#A866FF" stroke-width="1.73"/>
<line x1="444.564" y1="365.46" x2="451.49" y2="357.206" stroke="#A866FF" stroke-width="1.73"/>
<line x1="467.918" y1="364.68" x2="476.171" y2="357.755" stroke="#A866FF" stroke-width="1.73"/>
<line x1="237.878" y1="366.005" x2="229.625" y2="359.08" stroke="#A866FF" stroke-width="1.73"/>
<line x1="261.019" y1="366.572" x2="254.093" y2="358.318" stroke="#A866FF" stroke-width="1.73"/>
<line x1="284.02" y1="366.785" x2="278.633" y2="357.454" stroke="#A866FF" stroke-width="1.73"/>
<line x1="306.92" y1="366.985" x2="303.235" y2="356.861" stroke="#A866FF" stroke-width="1.73"/>
<line x1="329.762" y1="367.177" x2="327.892" y2="356.566" stroke="#A866FF" stroke-width="1.73"/>
<line x1="352.587" y1="367.026" x2="352.587" y2="356.252" stroke="#A866FF" stroke-width="1.73"/>
<line x1="375.442" y1="366.876" x2="377.313" y2="356.266" stroke="#A866FF" stroke-width="1.73"/>
</g>
<g filter="url(#filter0_d_705_58142)">
<g clip-path="url(#clip0_705_58142)">
<rect x="132" y="66.04" width="303.605" height="346" rx="16.4111" fill="white"/>
<path d="M183.732 115.209C182.452 115.209 181.268 114.977 180.18 114.513C179.108 114.049 178.164 113.401 177.348 112.569C176.548 111.737 175.924 110.761 175.476 109.641C175.028 108.521 174.804 107.297 174.804 105.969C174.804 104.641 175.02 103.417 175.452 102.297C175.9 101.161 176.524 100.185 177.324 99.3689C178.14 98.5369 179.092 97.8969 180.18 97.4489C181.268 96.9849 182.452 96.7529 183.732 96.7529C185.012 96.7529 186.156 96.9689 187.164 97.4009C188.188 97.8329 189.052 98.4089 189.756 99.1289C190.46 99.8329 190.964 100.609 191.268 101.457L188.34 102.825C188.004 101.929 187.436 101.193 186.636 100.617C185.836 100.025 184.868 99.7289 183.732 99.7289C182.612 99.7289 181.62 99.9929 180.756 100.521C179.908 101.049 179.244 101.777 178.764 102.705C178.3 103.633 178.068 104.721 178.068 105.969C178.068 107.217 178.3 108.313 178.764 109.257C179.244 110.185 179.908 110.913 180.756 111.441C181.62 111.969 182.612 112.233 183.732 112.233C184.868 112.233 185.836 111.945 186.636 111.369C187.436 110.777 188.004 110.033 188.34 109.137L191.268 110.505C190.964 111.353 190.46 112.137 189.756 112.857C189.052 113.561 188.188 114.129 187.164 114.561C186.156 114.993 185.012 115.209 183.732 115.209ZM199.324 115.209C198.044 115.209 196.876 114.913 195.82 114.321C194.78 113.729 193.948 112.921 193.324 111.897C192.716 110.873 192.412 109.705 192.412 108.393C192.412 107.081 192.716 105.913 193.324 104.889C193.948 103.865 194.78 103.057 195.82 102.465C196.86 101.873 198.028 101.577 199.324 101.577C200.604 101.577 201.764 101.873 202.804 102.465C203.844 103.057 204.668 103.865 205.276 104.889C205.9 105.897 206.212 107.065 206.212 108.393C206.212 109.705 205.9 110.873 205.276 111.897C204.652 112.921 203.82 113.729 202.78 114.321C201.74 114.913 200.588 115.209 199.324 115.209ZM199.324 112.329C200.028 112.329 200.644 112.161 201.172 111.825C201.716 111.489 202.14 111.025 202.444 110.433C202.764 109.825 202.924 109.145 202.924 108.393C202.924 107.625 202.764 106.953 202.444 106.377C202.14 105.785 201.716 105.321 201.172 104.985C200.644 104.633 200.028 104.457 199.324 104.457C198.604 104.457 197.972 104.633 197.428 104.985C196.884 105.321 196.452 105.785 196.132 106.377C195.828 106.953 195.676 107.625 195.676 108.393C195.676 109.145 195.828 109.825 196.132 110.433C196.452 111.025 196.884 111.489 197.428 111.825C197.972 112.161 198.604 112.329 199.324 112.329ZM208.116 114.921V101.865H211.068V104.889L210.732 104.385C210.972 103.441 211.452 102.737 212.172 102.273C212.892 101.809 213.74 101.577 214.716 101.577C215.788 101.577 216.732 101.857 217.548 102.417C218.364 102.977 218.892 103.713 219.132 104.625L218.244 104.697C218.644 103.657 219.244 102.881 220.044 102.369C220.844 101.841 221.764 101.577 222.804 101.577C223.732 101.577 224.556 101.785 225.276 102.201C226.012 102.617 226.588 103.201 227.004 103.953C227.42 104.689 227.628 105.545 227.628 106.521V114.921H224.484V107.265C224.484 106.689 224.38 106.193 224.172 105.777C223.964 105.361 223.676 105.041 223.308 104.817C222.94 104.577 222.492 104.457 221.964 104.457C221.468 104.457 221.028 104.577 220.644 104.817C220.26 105.041 219.964 105.361 219.756 105.777C219.548 106.193 219.444 106.689 219.444 107.265V114.921H216.3V107.265C216.3 106.689 216.196 106.193 215.988 105.777C215.78 105.361 215.484 105.041 215.1 104.817C214.732 104.577 214.292 104.457 213.78 104.457C213.284 104.457 212.844 104.577 212.46 104.817C212.076 105.041 211.78 105.361 211.572 105.777C211.364 106.193 211.26 106.689 211.26 107.265V114.921H208.116ZM229.808 119.721V101.865H232.76V104.457L232.472 103.809C232.92 103.105 233.528 102.561 234.296 102.177C235.064 101.777 235.952 101.577 236.96 101.577C238.192 101.577 239.304 101.881 240.296 102.489C241.288 103.097 242.072 103.913 242.648 104.937C243.24 105.961 243.536 107.113 243.536 108.393C243.536 109.657 243.248 110.809 242.672 111.849C242.096 112.889 241.312 113.713 240.32 114.321C239.328 114.913 238.2 115.209 236.936 115.209C235.992 115.209 235.12 115.025 234.32 114.657C233.536 114.273 232.912 113.729 232.448 113.025L232.952 112.401V119.721H229.808ZM236.576 112.329C237.296 112.329 237.936 112.161 238.496 111.825C239.056 111.489 239.488 111.025 239.792 110.433C240.112 109.841 240.272 109.161 240.272 108.393C240.272 107.625 240.112 106.953 239.792 106.377C239.488 105.785 239.056 105.321 238.496 104.985C237.936 104.633 237.296 104.457 236.576 104.457C235.888 104.457 235.264 104.625 234.704 104.961C234.16 105.297 233.728 105.769 233.408 106.377C233.104 106.969 232.952 107.641 232.952 108.393C232.952 109.161 233.104 109.841 233.408 110.433C233.728 111.025 234.16 111.489 234.704 111.825C235.264 112.161 235.888 112.329 236.576 112.329ZM251.645 115.209C250.301 115.209 249.125 114.905 248.117 114.297C247.109 113.689 246.325 112.865 245.765 111.825C245.205 110.785 244.925 109.633 244.925 108.369C244.925 107.057 245.205 105.897 245.765 104.889C246.341 103.865 247.117 103.057 248.093 102.465C249.085 101.873 250.189 101.577 251.405 101.577C252.429 101.577 253.325 101.745 254.093 102.081C254.877 102.417 255.541 102.881 256.085 103.473C256.629 104.065 257.045 104.745 257.333 105.513C257.621 106.265 257.765 107.081 257.765 107.961C257.765 108.185 257.749 108.417 257.717 108.657C257.701 108.897 257.661 109.105 257.597 109.281H247.517V106.881H255.821L254.333 108.009C254.477 107.273 254.437 106.617 254.213 106.041C254.005 105.465 253.653 105.009 253.157 104.673C252.677 104.337 252.093 104.169 251.405 104.169C250.749 104.169 250.165 104.337 249.653 104.673C249.141 104.993 248.749 105.473 248.477 106.113C248.221 106.737 248.125 107.497 248.189 108.393C248.125 109.193 248.229 109.905 248.501 110.529C248.789 111.137 249.205 111.609 249.749 111.945C250.309 112.281 250.949 112.449 251.669 112.449C252.389 112.449 252.997 112.297 253.493 111.993C254.005 111.689 254.405 111.281 254.693 110.769L257.237 112.017C256.981 112.641 256.581 113.193 256.037 113.673C255.493 114.153 254.845 114.529 254.093 114.801C253.357 115.073 252.541 115.209 251.645 115.209ZM265.62 115.065C264.148 115.065 263.004 114.665 262.188 113.865C261.388 113.049 260.988 111.905 260.988 110.433V104.673H258.732V101.865H258.972C259.612 101.865 260.108 101.697 260.46 101.361C260.812 101.025 260.988 100.537 260.988 99.8969V98.8889H264.132V101.865H267.132V104.673H264.132V110.265C264.132 110.697 264.204 111.065 264.348 111.369C264.508 111.673 264.748 111.905 265.068 112.065C265.404 112.225 265.828 112.305 266.34 112.305C266.452 112.305 266.58 112.297 266.724 112.281C266.884 112.265 267.036 112.249 267.18 112.233V114.921C266.956 114.953 266.7 114.985 266.412 115.017C266.124 115.049 265.86 115.065 265.62 115.065ZM269.103 114.921V101.865H272.247V114.921H269.103ZM269.103 100.401V97.0409H272.247V100.401H269.103ZM280.621 115.065C279.149 115.065 278.005 114.665 277.189 113.865C276.389 113.049 275.989 111.905 275.989 110.433V104.673H273.733V101.865H273.973C274.613 101.865 275.109 101.697 275.461 101.361C275.813 101.025 275.989 100.537 275.989 99.8969V98.8889H279.133V101.865H282.133V104.673H279.133V110.265C279.133 110.697 279.205 111.065 279.349 111.369C279.509 111.673 279.749 111.905 280.069 112.065C280.405 112.225 280.829 112.305 281.341 112.305C281.453 112.305 281.581 112.297 281.725 112.281C281.885 112.265 282.037 112.249 282.181 112.233V114.921C281.957 114.953 281.701 114.985 281.413 115.017C281.125 115.049 280.861 115.065 280.621 115.065ZM284.103 114.921V101.865H287.247V114.921H284.103ZM284.103 100.401V97.0409H287.247V100.401H284.103ZM293.606 114.921L288.47 101.865H291.902L295.622 112.137H294.35L298.094 101.865H301.526L296.39 114.921H293.606ZM308.742 115.209C307.398 115.209 306.222 114.905 305.214 114.297C304.206 113.689 303.422 112.865 302.862 111.825C302.302 110.785 302.022 109.633 302.022 108.369C302.022 107.057 302.302 105.897 302.862 104.889C303.438 103.865 304.214 103.057 305.19 102.465C306.182 101.873 307.286 101.577 308.502 101.577C309.526 101.577 310.422 101.745 311.19 102.081C311.974 102.417 312.638 102.881 313.182 103.473C313.726 104.065 314.142 104.745 314.43 105.513C314.718 106.265 314.862 107.081 314.862 107.961C314.862 108.185 314.846 108.417 314.814 108.657C314.798 108.897 314.758 109.105 314.694 109.281H304.614V106.881H312.918L311.43 108.009C311.574 107.273 311.534 106.617 311.31 106.041C311.102 105.465 310.75 105.009 310.254 104.673C309.774 104.337 309.19 104.169 308.502 104.169C307.846 104.169 307.262 104.337 306.75 104.673C306.238 104.993 305.846 105.473 305.574 106.113C305.318 106.737 305.222 107.497 305.286 108.393C305.222 109.193 305.326 109.905 305.598 110.529C305.886 111.137 306.302 111.609 306.846 111.945C307.406 112.281 308.046 112.449 308.766 112.449C309.486 112.449 310.094 112.297 310.59 111.993C311.102 111.689 311.502 111.281 311.79 110.769L314.334 112.017C314.078 112.641 313.678 113.193 313.134 113.673C312.59 114.153 311.942 114.529 311.19 114.801C310.454 115.073 309.638 115.209 308.742 115.209ZM329.623 115.209C328.311 115.209 327.087 114.977 325.951 114.513C324.815 114.049 323.823 113.401 322.975 112.569C322.127 111.737 321.463 110.761 320.983 109.641C320.519 108.505 320.287 107.281 320.287 105.969C320.287 104.641 320.519 103.417 320.983 102.297C321.447 101.177 322.103 100.201 322.951 99.3689C323.799 98.5369 324.791 97.8969 325.927 97.4489C327.063 96.9849 328.295 96.7529 329.623 96.7529C330.951 96.7529 332.183 96.9849 333.319 97.4489C334.455 97.9129 335.447 98.5609 336.295 99.3929C337.143 100.209 337.799 101.177 338.263 102.297C338.743 103.417 338.983 104.641 338.983 105.969C338.983 107.281 338.743 108.505 338.263 109.641C337.783 110.761 337.119 111.737 336.271 112.569C335.423 113.401 334.431 114.049 333.295 114.513C332.175 114.977 330.951 115.209 329.623 115.209ZM329.623 112.233C330.503 112.233 331.311 112.081 332.047 111.777C332.783 111.457 333.423 111.017 333.967 110.457C334.527 109.897 334.951 109.233 335.239 108.465C335.543 107.697 335.695 106.865 335.695 105.969C335.695 105.073 335.543 104.249 335.239 103.497C334.951 102.729 334.527 102.065 333.967 101.505C333.423 100.929 332.783 100.489 332.047 100.185C331.311 99.8809 330.503 99.7289 329.623 99.7289C328.759 99.7289 327.959 99.8809 327.223 100.185C326.487 100.489 325.839 100.929 325.279 101.505C324.735 102.065 324.311 102.729 324.007 103.497C323.703 104.249 323.551 105.073 323.551 105.969C323.551 106.865 323.703 107.697 324.007 108.465C324.311 109.233 324.735 109.897 325.279 110.457C325.839 111.017 326.487 111.457 327.223 111.777C327.959 112.081 328.759 112.233 329.623 112.233ZM342.653 114.921V104.673H340.349V101.865H342.653V101.433C342.653 100.441 342.853 99.6009 343.253 98.9129C343.669 98.2089 344.245 97.6729 344.981 97.3049C345.717 96.9369 346.589 96.7529 347.597 96.7529C347.789 96.7529 347.997 96.7689 348.221 96.8009C348.461 96.8169 348.661 96.8409 348.821 96.8729V99.5849C348.661 99.5529 348.509 99.5369 348.365 99.5369C348.237 99.5209 348.117 99.5129 348.005 99.5129C347.301 99.5129 346.757 99.6729 346.373 99.9929C345.989 100.297 345.797 100.777 345.797 101.433V101.865H351.509V104.673H345.797V114.921H342.653ZM352.157 114.921V104.673H349.853V101.865H352.157V101.433C352.157 100.441 352.357 99.6009 352.757 98.9129C353.157 98.2089 353.725 97.6729 354.461 97.3049C355.213 96.9369 356.093 96.7529 357.101 96.7529C357.293 96.7529 357.501 96.7689 357.725 96.8009C357.965 96.8169 358.157 96.8409 358.301 96.8729V99.5849C358.157 99.5529 358.013 99.5369 357.869 99.5369C357.741 99.5209 357.621 99.5129 357.509 99.5129C356.805 99.5129 356.261 99.6729 355.877 99.9929C355.493 100.297 355.301 100.777 355.301 101.433V101.865H358.181V104.673H355.301V114.921H352.157ZM365.72 115.209C364.376 115.209 363.2 114.905 362.192 114.297C361.184 113.689 360.4 112.865 359.84 111.825C359.28 110.785 359 109.633 359 108.369C359 107.057 359.28 105.897 359.84 104.889C360.416 103.865 361.192 103.057 362.168 102.465C363.16 101.873 364.264 101.577 365.48 101.577C366.504 101.577 367.4 101.745 368.168 102.081C368.952 102.417 369.616 102.881 370.16 103.473C370.704 104.065 371.12 104.745 371.408 105.513C371.696 106.265 371.84 107.081 371.84 107.961C371.84 108.185 371.824 108.417 371.792 108.657C371.776 108.897 371.736 109.105 371.672 109.281H361.592V106.881H369.896L368.408 108.009C368.552 107.273 368.512 106.617 368.288 106.041C368.08 105.465 367.728 105.009 367.232 104.673C366.752 104.337 366.168 104.169 365.48 104.169C364.824 104.169 364.24 104.337 363.728 104.673C363.216 104.993 362.824 105.473 362.552 106.113C362.296 106.737 362.2 107.497 362.264 108.393C362.2 109.193 362.304 109.905 362.576 110.529C362.864 111.137 363.28 111.609 363.824 111.945C364.384 112.281 365.024 112.449 365.744 112.449C366.464 112.449 367.072 112.297 367.568 111.993C368.08 111.689 368.48 111.281 368.768 110.769L371.312 112.017C371.056 112.641 370.656 113.193 370.112 113.673C369.568 114.153 368.92 114.529 368.168 114.801C367.432 115.073 366.616 115.209 365.72 115.209ZM373.743 114.921V101.865H376.695V104.769L376.455 104.337C376.759 103.361 377.231 102.681 377.871 102.297C378.527 101.913 379.311 101.721 380.223 101.721H380.991V104.505H379.863C378.967 104.505 378.247 104.785 377.703 105.345C377.159 105.889 376.887 106.657 376.887 107.649V114.921H373.743ZM387.208 115.209C385.816 115.209 384.6 114.881 383.56 114.225C382.536 113.553 381.832 112.649 381.448 111.513L383.8 110.385C384.136 111.121 384.6 111.697 385.192 112.113C385.8 112.529 386.472 112.737 387.208 112.737C387.784 112.737 388.24 112.609 388.576 112.353C388.912 112.097 389.08 111.761 389.08 111.345C389.08 111.089 389.008 110.881 388.864 110.721C388.736 110.545 388.552 110.401 388.312 110.289C388.088 110.161 387.84 110.057 387.568 109.977L385.432 109.377C384.328 109.057 383.488 108.569 382.912 107.913C382.352 107.257 382.072 106.481 382.072 105.585C382.072 104.785 382.272 104.089 382.672 103.497C383.088 102.889 383.656 102.417 384.376 102.081C385.112 101.745 385.952 101.577 386.896 101.577C388.128 101.577 389.216 101.873 390.16 102.465C391.104 103.057 391.776 103.889 392.176 104.961L389.776 106.089C389.552 105.497 389.176 105.025 388.648 104.673C388.12 104.321 387.528 104.145 386.872 104.145C386.344 104.145 385.928 104.265 385.624 104.505C385.32 104.745 385.168 105.057 385.168 105.441C385.168 105.681 385.232 105.889 385.36 106.065C385.488 106.241 385.664 106.385 385.888 106.497C386.128 106.609 386.4 106.713 386.704 106.809L388.792 107.433C389.864 107.753 390.688 108.233 391.264 108.873C391.856 109.513 392.152 110.297 392.152 111.225C392.152 112.009 391.944 112.705 391.528 113.313C391.112 113.905 390.536 114.369 389.8 114.705C389.064 115.041 388.2 115.209 387.208 115.209Z" fill="#171717"/>
<path d="M238.736 149.04V136.814H240.049V142.312H246.614V136.814H247.927V149.04H246.614V143.542H240.049V149.04H238.736ZM249.983 149.04V140.244H251.214V149.04H249.983ZM249.983 138.619V136.814H251.214V138.619H249.983ZM253.077 149.04V140.244H254.308V141.688L254.144 141.475C254.352 141.059 254.664 140.731 255.079 140.49C255.506 140.249 256.02 140.129 256.622 140.129H257.18V141.36H256.409C255.774 141.36 255.265 141.557 254.882 141.95C254.499 142.344 254.308 142.902 254.308 143.624V149.04H253.077ZM261.97 149.237C261.15 149.237 260.406 149.04 259.738 148.646C259.082 148.241 258.562 147.689 258.179 146.989C257.796 146.288 257.605 145.495 257.605 144.609C257.605 143.723 257.791 142.941 258.163 142.262C258.535 141.573 259.038 141.031 259.673 140.638C260.318 140.244 261.04 140.047 261.839 140.047C262.473 140.047 263.037 140.167 263.529 140.408C264.032 140.638 264.459 140.955 264.809 141.36C265.159 141.754 265.427 142.202 265.613 142.705C265.799 143.198 265.892 143.706 265.892 144.232C265.892 144.341 265.887 144.467 265.876 144.609C265.865 144.74 265.849 144.877 265.827 145.019H258.393V143.871H265.121L264.53 144.363C264.629 143.761 264.558 143.225 264.317 142.755C264.087 142.273 263.753 141.896 263.316 141.622C262.878 141.338 262.386 141.196 261.839 141.196C261.292 141.196 260.783 141.338 260.313 141.622C259.853 141.907 259.492 142.306 259.229 142.82C258.967 143.324 258.863 143.925 258.918 144.625C258.863 145.326 258.972 145.938 259.246 146.464C259.53 146.978 259.913 147.377 260.395 147.662C260.887 147.946 261.412 148.088 261.97 148.088C262.616 148.088 263.157 147.935 263.595 147.629C264.032 147.322 264.388 146.939 264.662 146.48L265.712 147.038C265.537 147.432 265.269 147.798 264.908 148.137C264.547 148.466 264.115 148.734 263.611 148.942C263.119 149.139 262.572 149.237 261.97 149.237ZM272.082 149.237C271.524 149.237 271.026 149.133 270.589 148.925C270.151 148.706 269.806 148.411 269.555 148.039C269.303 147.667 269.177 147.24 269.177 146.759C269.177 146.299 269.276 145.884 269.473 145.512C269.67 145.129 269.976 144.806 270.392 144.543C270.807 144.281 271.338 144.095 271.983 143.985L275.43 143.411V144.527L272.279 145.052C271.644 145.162 271.185 145.364 270.9 145.659C270.627 145.955 270.49 146.305 270.49 146.71C270.49 147.104 270.643 147.437 270.95 147.711C271.267 147.984 271.672 148.121 272.164 148.121C272.766 148.121 273.291 147.995 273.739 147.744C274.188 147.481 274.538 147.131 274.79 146.693C275.041 146.256 275.167 145.769 275.167 145.233V143.001C275.167 142.476 274.976 142.049 274.593 141.721C274.21 141.392 273.712 141.228 273.099 141.228C272.563 141.228 272.093 141.365 271.688 141.639C271.283 141.901 270.982 142.246 270.785 142.673L269.67 142.065C269.834 141.693 270.091 141.354 270.441 141.048C270.802 140.742 271.212 140.501 271.672 140.326C272.131 140.14 272.607 140.047 273.099 140.047C273.745 140.047 274.314 140.173 274.806 140.424C275.309 140.676 275.698 141.026 275.971 141.475C276.256 141.912 276.398 142.421 276.398 143.001V149.04H275.167V147.284L275.348 147.465C275.195 147.793 274.954 148.094 274.626 148.367C274.308 148.63 273.931 148.843 273.493 149.007C273.067 149.16 272.596 149.237 272.082 149.237ZM281.477 149.139C280.69 149.139 280.082 148.909 279.656 148.449C279.229 147.99 279.016 147.333 279.016 146.48V141.475H277.391V140.244H277.801C278.173 140.244 278.469 140.123 278.687 139.883C278.906 139.631 279.016 139.319 279.016 138.947V138.209H280.246V140.244H282.183V141.475H280.246V146.48C280.246 146.775 280.29 147.038 280.378 147.268C280.465 147.486 280.613 147.662 280.821 147.793C281.04 147.924 281.33 147.99 281.691 147.99C281.778 147.99 281.882 147.984 282.002 147.973C282.123 147.962 282.227 147.951 282.314 147.94V149.04C282.183 149.073 282.035 149.095 281.871 149.106C281.707 149.128 281.576 149.139 281.477 149.139ZM287.183 149.139C286.396 149.139 285.788 148.909 285.362 148.449C284.935 147.99 284.722 147.333 284.722 146.48V141.475H283.097V140.244H283.507C283.879 140.244 284.175 140.123 284.393 139.883C284.612 139.631 284.722 139.319 284.722 138.947V138.209H285.952V140.244H287.889V141.475H285.952V146.48C285.952 146.775 285.996 147.038 286.084 147.268C286.171 147.486 286.319 147.662 286.527 147.793C286.746 147.924 287.036 147.99 287.397 147.99C287.484 147.99 287.588 147.984 287.708 147.973C287.829 147.962 287.933 147.951 288.02 147.94V149.04C287.889 149.073 287.741 149.095 287.577 149.106C287.413 149.128 287.282 149.139 287.183 149.139ZM293.324 149.237C292.492 149.237 291.737 149.04 291.059 148.646C290.381 148.241 289.839 147.694 289.434 147.005C289.04 146.305 288.844 145.512 288.844 144.625C288.844 143.75 289.04 142.968 289.434 142.279C289.828 141.589 290.359 141.048 291.026 140.654C291.705 140.249 292.47 140.047 293.324 140.047C294.177 140.047 294.938 140.244 295.605 140.638C296.283 141.031 296.814 141.573 297.197 142.262C297.591 142.952 297.788 143.739 297.788 144.625C297.788 145.523 297.585 146.321 297.18 147.021C296.776 147.711 296.234 148.252 295.556 148.646C294.888 149.04 294.144 149.237 293.324 149.237ZM293.324 148.006C293.915 148.006 294.445 147.858 294.916 147.563C295.397 147.268 295.774 146.863 296.048 146.349C296.332 145.834 296.475 145.26 296.475 144.625C296.475 143.991 296.332 143.422 296.048 142.919C295.774 142.415 295.397 142.016 294.916 141.721C294.445 141.425 293.915 141.278 293.324 141.278C292.733 141.278 292.197 141.425 291.715 141.721C291.245 142.016 290.868 142.415 290.583 142.919C290.299 143.422 290.156 143.991 290.156 144.625C290.156 145.26 290.299 145.834 290.583 146.349C290.868 146.863 291.245 147.268 291.715 147.563C292.197 147.858 292.733 148.006 293.324 148.006ZM299.302 149.04V140.244H300.533V141.688L300.369 141.475C300.576 141.059 300.888 140.731 301.304 140.49C301.731 140.249 302.245 140.129 302.847 140.129H303.405V141.36H302.633C301.999 141.36 301.49 141.557 301.107 141.95C300.724 142.344 300.533 142.902 300.533 143.624V149.04H299.302ZM304.191 149.04V140.244H305.421V141.95L305.142 141.885C305.361 141.316 305.717 140.867 306.209 140.539C306.712 140.211 307.292 140.047 307.949 140.047C308.572 140.047 309.13 140.189 309.623 140.473C310.126 140.758 310.52 141.152 310.804 141.655C311.1 142.147 311.247 142.705 311.247 143.329V149.04H310.016V143.805C310.016 143.269 309.918 142.815 309.721 142.443C309.535 142.071 309.267 141.786 308.917 141.589C308.578 141.382 308.184 141.278 307.735 141.278C307.287 141.278 306.887 141.382 306.537 141.589C306.187 141.786 305.914 142.076 305.717 142.459C305.52 142.831 305.421 143.28 305.421 143.805V149.04H304.191ZM316.946 149.237C316.125 149.237 315.381 149.04 314.714 148.646C314.058 148.241 313.538 147.689 313.155 146.989C312.772 146.288 312.581 145.495 312.581 144.609C312.581 143.723 312.767 142.941 313.139 142.262C313.511 141.573 314.014 141.031 314.648 140.638C315.294 140.244 316.016 140.047 316.815 140.047C317.449 140.047 318.013 140.167 318.505 140.408C319.008 140.638 319.435 140.955 319.785 141.36C320.135 141.754 320.403 142.202 320.589 142.705C320.775 143.198 320.868 143.706 320.868 144.232C320.868 144.341 320.863 144.467 320.852 144.609C320.841 144.74 320.824 144.877 320.803 145.019H313.368V143.871H320.097L319.506 144.363C319.605 143.761 319.533 143.225 319.293 142.755C319.063 142.273 318.729 141.896 318.292 141.622C317.854 141.338 317.362 141.196 316.815 141.196C316.268 141.196 315.759 141.338 315.288 141.622C314.829 141.907 314.468 142.306 314.205 142.82C313.943 143.324 313.839 143.925 313.893 144.625C313.839 145.326 313.948 145.938 314.222 146.464C314.506 146.978 314.889 147.377 315.37 147.662C315.863 147.946 316.388 148.088 316.946 148.088C317.591 148.088 318.133 147.935 318.571 147.629C319.008 147.322 319.364 146.939 319.637 146.48L320.688 147.038C320.513 147.432 320.245 147.798 319.884 148.137C319.522 148.466 319.09 148.734 318.587 148.942C318.095 149.139 317.548 149.237 316.946 149.237ZM322.562 152.65C322.387 152.65 322.207 152.634 322.021 152.601C321.846 152.579 321.671 152.536 321.496 152.47V151.321C321.605 151.332 321.742 151.349 321.906 151.37C322.081 151.403 322.256 151.42 322.431 151.42C322.967 151.42 323.377 151.305 323.662 151.075C323.946 150.856 324.225 150.43 324.499 149.795L325.057 148.482L325.024 149.565L321.299 140.244H322.628L325.68 147.94H325.336L328.372 140.244H329.734L325.713 150.156C325.538 150.583 325.314 150.987 325.04 151.37C324.778 151.753 324.444 152.06 324.039 152.289C323.635 152.53 323.142 152.65 322.562 152.65Z" fill="#918EA4"/>
<rect x="179.193" y="178.865" width="66.5138" height="29.0435" rx="14.5217" stroke="#918EA4" stroke-opacity="0.25" stroke-width="1.36759"/>
<path d="M193.148 197.518C192.63 197.518 192.149 197.423 191.704 197.234C191.266 197.044 190.887 196.781 190.566 196.446C190.252 196.103 190.023 195.705 189.877 195.253L191.113 194.717C191.31 195.184 191.594 195.552 191.966 195.822C192.338 196.085 192.758 196.216 193.225 196.216C193.487 196.216 193.713 196.176 193.903 196.096C194.1 196.008 194.249 195.891 194.352 195.746C194.461 195.6 194.516 195.425 194.516 195.22C194.516 194.98 194.443 194.783 194.297 194.63C194.158 194.469 193.947 194.345 193.662 194.258L192.098 193.754C191.463 193.557 190.985 193.262 190.664 192.868C190.344 192.474 190.183 192.011 190.183 191.479C190.183 191.012 190.296 190.6 190.522 190.242C190.756 189.885 191.077 189.608 191.485 189.411C191.901 189.207 192.375 189.105 192.907 189.105C193.396 189.105 193.845 189.192 194.253 189.367C194.661 189.535 195.012 189.772 195.303 190.078C195.602 190.377 195.825 190.731 195.971 191.14L194.745 191.687C194.585 191.278 194.344 190.965 194.023 190.746C193.702 190.52 193.33 190.407 192.907 190.407C192.659 190.407 192.441 190.45 192.251 190.538C192.061 190.618 191.912 190.735 191.802 190.888C191.7 191.034 191.649 191.209 191.649 191.413C191.649 191.639 191.722 191.84 191.868 192.015C192.014 192.183 192.236 192.314 192.535 192.409L194.034 192.879C194.683 193.091 195.168 193.382 195.489 193.754C195.818 194.126 195.982 194.586 195.982 195.133C195.982 195.6 195.861 196.012 195.621 196.369C195.38 196.727 195.048 197.007 194.625 197.212C194.202 197.416 193.71 197.518 193.148 197.518ZM200.024 197.518C199.411 197.518 198.875 197.379 198.416 197.102C197.956 196.825 197.599 196.449 197.343 195.975C197.088 195.501 196.96 194.976 196.96 194.4C196.96 193.802 197.088 193.273 197.343 192.814C197.606 192.347 197.96 191.978 198.405 191.708C198.857 191.439 199.36 191.304 199.914 191.304C200.381 191.304 200.79 191.38 201.14 191.533C201.497 191.687 201.8 191.898 202.048 192.168C202.296 192.438 202.486 192.748 202.617 193.098C202.748 193.441 202.814 193.813 202.814 194.214C202.814 194.316 202.806 194.422 202.792 194.531C202.785 194.641 202.766 194.735 202.737 194.816H198.142V193.722H201.928L201.249 194.236C201.315 193.9 201.297 193.601 201.194 193.339C201.1 193.076 200.939 192.868 200.713 192.715C200.494 192.562 200.228 192.485 199.914 192.485C199.615 192.485 199.349 192.562 199.116 192.715C198.882 192.861 198.704 193.08 198.58 193.371C198.463 193.656 198.419 194.002 198.448 194.411C198.419 194.776 198.467 195.1 198.591 195.385C198.722 195.662 198.912 195.877 199.16 196.03C199.415 196.183 199.707 196.26 200.035 196.26C200.363 196.26 200.64 196.191 200.866 196.052C201.1 195.913 201.282 195.727 201.413 195.494L202.573 196.063C202.456 196.347 202.274 196.599 202.026 196.818C201.778 197.037 201.483 197.208 201.14 197.332C200.804 197.456 200.432 197.518 200.024 197.518ZM203.9 197.387V191.435H205.246V192.759L205.136 192.562C205.275 192.117 205.49 191.807 205.782 191.632C206.081 191.457 206.438 191.369 206.854 191.369H207.204V192.638H206.69C206.282 192.638 205.953 192.766 205.705 193.021C205.457 193.269 205.333 193.619 205.333 194.072V197.387H203.9ZM209.787 197.387L207.445 191.435H209.01L210.706 196.118H210.126L211.832 191.435H213.397L211.056 197.387H209.787ZM214.189 197.387V191.435H215.622V197.387H214.189ZM214.189 190.768V189.236H215.622V190.768H214.189ZM219.812 197.518C219.221 197.518 218.689 197.383 218.215 197.113C217.748 196.836 217.38 196.464 217.11 195.997C216.84 195.523 216.705 194.991 216.705 194.4C216.705 193.809 216.84 193.28 217.11 192.814C217.38 192.347 217.748 191.978 218.215 191.708C218.689 191.439 219.221 191.304 219.812 191.304C220.235 191.304 220.629 191.38 220.994 191.533C221.358 191.679 221.672 191.884 221.935 192.146C222.205 192.401 222.398 192.708 222.515 193.065L221.256 193.612C221.147 193.313 220.961 193.072 220.698 192.89C220.443 192.708 220.148 192.617 219.812 192.617C219.499 192.617 219.218 192.693 218.97 192.846C218.729 192.999 218.539 193.211 218.401 193.481C218.262 193.751 218.193 194.061 218.193 194.411C218.193 194.761 218.262 195.071 218.401 195.341C218.539 195.611 218.729 195.822 218.97 195.975C219.218 196.129 219.499 196.205 219.812 196.205C220.155 196.205 220.454 196.114 220.709 195.932C220.965 195.749 221.147 195.505 221.256 195.199L222.515 195.767C222.398 196.103 222.208 196.406 221.946 196.676C221.683 196.938 221.369 197.146 221.005 197.299C220.64 197.445 220.243 197.518 219.812 197.518ZM226.425 197.518C225.812 197.518 225.276 197.379 224.816 197.102C224.357 196.825 224 196.449 223.744 195.975C223.489 195.501 223.361 194.976 223.361 194.4C223.361 193.802 223.489 193.273 223.744 192.814C224.007 192.347 224.361 191.978 224.805 191.708C225.258 191.439 225.761 191.304 226.315 191.304C226.782 191.304 227.191 191.38 227.541 191.533C227.898 191.687 228.201 191.898 228.449 192.168C228.697 192.438 228.886 192.748 229.018 193.098C229.149 193.441 229.215 193.813 229.215 194.214C229.215 194.316 229.207 194.422 229.193 194.531C229.185 194.641 229.167 194.735 229.138 194.816H224.543V193.722H228.328L227.65 194.236C227.716 193.9 227.697 193.601 227.595 193.339C227.501 193.076 227.34 192.868 227.114 192.715C226.895 192.562 226.629 192.485 226.315 192.485C226.016 192.485 225.75 192.562 225.517 192.715C225.283 192.861 225.105 193.08 224.981 193.371C224.864 193.656 224.82 194.002 224.849 194.411C224.82 194.776 224.867 195.1 224.991 195.385C225.123 195.662 225.312 195.877 225.56 196.03C225.816 196.183 226.107 196.26 226.436 196.26C226.764 196.26 227.041 196.191 227.267 196.052C227.501 195.913 227.683 195.727 227.814 195.494L228.974 196.063C228.857 196.347 228.675 196.599 228.427 196.818C228.179 197.037 227.883 197.208 227.541 197.332C227.205 197.456 226.833 197.518 226.425 197.518ZM232.566 197.518C231.931 197.518 231.377 197.368 230.903 197.069C230.436 196.763 230.115 196.351 229.94 195.833L231.012 195.319C231.165 195.654 231.377 195.917 231.647 196.107C231.924 196.296 232.23 196.391 232.566 196.391C232.828 196.391 233.036 196.333 233.189 196.216C233.343 196.099 233.419 195.946 233.419 195.757C233.419 195.64 233.386 195.545 233.321 195.472C233.262 195.392 233.178 195.326 233.069 195.275C232.967 195.217 232.854 195.169 232.73 195.133L231.756 194.859C231.253 194.714 230.87 194.491 230.607 194.192C230.352 193.893 230.224 193.539 230.224 193.131C230.224 192.766 230.316 192.449 230.498 192.179C230.688 191.902 230.947 191.687 231.275 191.533C231.61 191.38 231.993 191.304 232.424 191.304C232.985 191.304 233.481 191.439 233.911 191.708C234.342 191.978 234.648 192.358 234.831 192.846L233.736 193.361C233.634 193.091 233.463 192.875 233.222 192.715C232.982 192.555 232.712 192.474 232.413 192.474C232.172 192.474 231.982 192.529 231.844 192.638C231.705 192.748 231.636 192.89 231.636 193.065C231.636 193.175 231.665 193.269 231.723 193.35C231.782 193.43 231.862 193.495 231.964 193.547C232.073 193.598 232.197 193.645 232.336 193.689L233.288 193.973C233.777 194.119 234.152 194.338 234.415 194.63C234.685 194.921 234.82 195.279 234.82 195.702C234.82 196.059 234.725 196.377 234.535 196.654C234.345 196.924 234.083 197.135 233.747 197.288C233.412 197.441 233.018 197.518 232.566 197.518Z" fill="#171717"/>
<rect x="252.545" y="178.865" width="73.5138" height="29.0435" rx="14.5217" stroke="#6E00FF" stroke-width="1.36759"/>
<path d="M262.922 197.387L265.734 189.236H267.66L270.471 197.387H268.852L268.272 195.636H265.121L264.531 197.387H262.922ZM265.548 194.323H267.846L266.489 190.264H266.905L265.548 194.323ZM273.64 197.452C272.969 197.452 272.448 197.27 272.076 196.905C271.711 196.533 271.529 196.012 271.529 195.341V192.715H270.5V191.435H270.61C270.901 191.435 271.128 191.358 271.288 191.205C271.448 191.052 271.529 190.83 271.529 190.538V190.078H272.962V191.435H274.33V192.715H272.962V195.264C272.962 195.461 272.995 195.629 273.06 195.767C273.133 195.906 273.243 196.012 273.389 196.085C273.542 196.158 273.735 196.194 273.968 196.194C274.02 196.194 274.078 196.191 274.144 196.183C274.216 196.176 274.286 196.169 274.351 196.161V197.387C274.249 197.401 274.133 197.416 274.001 197.43C273.87 197.445 273.75 197.452 273.64 197.452ZM278.16 197.452C277.489 197.452 276.967 197.27 276.595 196.905C276.23 196.533 276.048 196.012 276.048 195.341V192.715H275.02V191.435H275.129C275.421 191.435 275.647 191.358 275.807 191.205C275.968 191.052 276.048 190.83 276.048 190.538V190.078H277.481V191.435H278.849V192.715H277.481V195.264C277.481 195.461 277.514 195.629 277.58 195.767C277.653 195.906 277.762 196.012 277.908 196.085C278.061 196.158 278.255 196.194 278.488 196.194C278.539 196.194 278.597 196.191 278.663 196.183C278.736 196.176 278.805 196.169 278.871 196.161V197.387C278.769 197.401 278.652 197.416 278.521 197.43C278.389 197.445 278.269 197.452 278.16 197.452ZM282.823 197.518C282.239 197.518 281.707 197.383 281.225 197.113C280.751 196.843 280.372 196.475 280.087 196.008C279.81 195.541 279.672 195.009 279.672 194.411C279.672 193.813 279.81 193.28 280.087 192.814C280.372 192.347 280.751 191.978 281.225 191.708C281.699 191.439 282.232 191.304 282.823 191.304C283.406 191.304 283.935 191.439 284.409 191.708C284.883 191.978 285.259 192.347 285.536 192.814C285.82 193.273 285.963 193.805 285.963 194.411C285.963 195.009 285.82 195.541 285.536 196.008C285.252 196.475 284.872 196.843 284.398 197.113C283.924 197.383 283.399 197.518 282.823 197.518ZM282.823 196.205C283.144 196.205 283.424 196.129 283.665 195.975C283.913 195.822 284.106 195.611 284.245 195.341C284.391 195.064 284.464 194.754 284.464 194.411C284.464 194.061 284.391 193.754 284.245 193.492C284.106 193.222 283.913 193.01 283.665 192.857C283.424 192.697 283.144 192.617 282.823 192.617C282.494 192.617 282.206 192.697 281.958 192.857C281.71 193.01 281.513 193.222 281.368 193.492C281.229 193.754 281.16 194.061 281.16 194.411C281.16 194.754 281.229 195.064 281.368 195.341C281.513 195.611 281.71 195.822 281.958 195.975C282.206 196.129 282.494 196.205 282.823 196.205ZM287.05 197.387V191.435H288.395V192.759L288.286 192.562C288.424 192.117 288.64 191.807 288.931 191.632C289.23 191.457 289.588 191.369 290.004 191.369H290.354V192.638H289.839C289.431 192.638 289.103 192.766 288.855 193.021C288.607 193.269 288.483 193.619 288.483 194.072V197.387H287.05ZM291.142 197.387V191.435H292.487V192.606L292.378 192.398C292.517 192.04 292.743 191.77 293.056 191.588C293.377 191.399 293.749 191.304 294.172 191.304C294.61 191.304 294.996 191.399 295.332 191.588C295.675 191.778 295.941 192.044 296.131 192.387C296.32 192.722 296.415 193.113 296.415 193.557V197.387H294.982V193.897C294.982 193.634 294.931 193.408 294.829 193.218C294.727 193.029 294.584 192.883 294.402 192.781C294.227 192.671 294.019 192.617 293.778 192.617C293.545 192.617 293.337 192.671 293.155 192.781C292.972 192.883 292.83 193.029 292.728 193.218C292.626 193.408 292.575 193.634 292.575 193.897V197.387H291.142ZM300.45 197.518C299.837 197.518 299.301 197.379 298.841 197.102C298.382 196.825 298.025 196.449 297.769 195.975C297.514 195.501 297.386 194.976 297.386 194.4C297.386 193.802 297.514 193.273 297.769 192.814C298.032 192.347 298.386 191.978 298.83 191.708C299.283 191.439 299.786 191.304 300.34 191.304C300.807 191.304 301.216 191.38 301.566 191.533C301.923 191.687 302.226 191.898 302.474 192.168C302.722 192.438 302.911 192.748 303.043 193.098C303.174 193.441 303.24 193.813 303.24 194.214C303.24 194.316 303.232 194.422 303.218 194.531C303.21 194.641 303.192 194.735 303.163 194.816H298.568V193.722H302.353L301.675 194.236C301.741 193.9 301.722 193.601 301.62 193.339C301.526 193.076 301.365 192.868 301.139 192.715C300.92 192.562 300.654 192.485 300.34 192.485C300.041 192.485 299.775 192.562 299.542 192.715C299.308 192.861 299.13 193.08 299.006 193.371C298.889 193.656 298.845 194.002 298.874 194.411C298.845 194.776 298.892 195.1 299.016 195.385C299.148 195.662 299.337 195.877 299.585 196.03C299.841 196.183 300.132 196.26 300.461 196.26C300.789 196.26 301.066 196.191 301.292 196.052C301.526 195.913 301.708 195.727 301.839 195.494L302.999 196.063C302.882 196.347 302.7 196.599 302.452 196.818C302.204 197.037 301.908 197.208 301.566 197.332C301.23 197.456 300.858 197.518 300.45 197.518ZM305.048 199.805C304.888 199.805 304.731 199.79 304.578 199.761C304.425 199.739 304.286 199.699 304.162 199.641V198.437C304.257 198.459 304.37 198.481 304.501 198.503C304.64 198.525 304.767 198.535 304.884 198.535C305.212 198.535 305.449 198.459 305.595 198.306C305.748 198.153 305.883 197.952 306 197.704L306.394 196.785L306.372 197.988L303.779 191.435H305.322L307.138 196.271H306.591L308.396 191.435H309.95L307.357 197.988C307.203 198.375 307.017 198.703 306.799 198.973C306.58 199.243 306.325 199.447 306.033 199.586C305.748 199.732 305.42 199.805 305.048 199.805ZM313.001 197.518C312.367 197.518 311.812 197.368 311.338 197.069C310.872 196.763 310.551 196.351 310.376 195.833L311.448 195.319C311.601 195.654 311.812 195.917 312.082 196.107C312.359 196.296 312.666 196.391 313.001 196.391C313.264 196.391 313.472 196.333 313.625 196.216C313.778 196.099 313.855 195.946 313.855 195.757C313.855 195.64 313.822 195.545 313.756 195.472C313.698 195.392 313.614 195.326 313.505 195.275C313.402 195.217 313.289 195.169 313.165 195.133L312.192 194.859C311.688 194.714 311.306 194.491 311.043 194.192C310.788 193.893 310.66 193.539 310.66 193.131C310.66 192.766 310.751 192.449 310.934 192.179C311.123 191.902 311.382 191.687 311.71 191.533C312.046 191.38 312.429 191.304 312.859 191.304C313.421 191.304 313.917 191.439 314.347 191.708C314.777 191.978 315.084 192.358 315.266 192.846L314.172 193.361C314.07 193.091 313.898 192.875 313.658 192.715C313.417 192.555 313.147 192.474 312.848 192.474C312.607 192.474 312.418 192.529 312.279 192.638C312.141 192.748 312.071 192.89 312.071 193.065C312.071 193.175 312.101 193.269 312.159 193.35C312.217 193.43 312.297 193.495 312.4 193.547C312.509 193.598 312.633 193.645 312.772 193.689L313.723 193.973C314.212 194.119 314.588 194.338 314.85 194.63C315.12 194.921 315.255 195.279 315.255 195.702C315.255 196.059 315.16 196.377 314.971 196.654C314.781 196.924 314.518 197.135 314.183 197.288C313.847 197.441 313.454 197.518 313.001 197.518Z" fill="#171717"/>
<rect x="332.897" y="178.865" width="55.5138" height="29.0435" rx="14.5217" stroke="#918EA4" stroke-opacity="0.25" stroke-width="1.36759"/>
<path d="M347.957 197.518C347.359 197.518 346.801 197.412 346.283 197.201C345.765 196.989 345.313 196.694 344.926 196.315C344.54 195.935 344.237 195.49 344.018 194.98C343.807 194.462 343.701 193.904 343.701 193.306C343.701 192.7 343.807 192.142 344.018 191.632C344.23 191.121 344.529 190.676 344.915 190.297C345.302 189.918 345.754 189.626 346.272 189.422C346.79 189.21 347.351 189.105 347.957 189.105C348.562 189.105 349.124 189.21 349.642 189.422C350.16 189.633 350.612 189.929 350.998 190.308C351.385 190.68 351.684 191.121 351.895 191.632C352.114 192.142 352.224 192.7 352.224 193.306C352.224 193.904 352.114 194.462 351.895 194.98C351.677 195.49 351.374 195.935 350.987 196.315C350.601 196.694 350.149 196.989 349.631 197.201C349.12 197.412 348.562 197.518 347.957 197.518ZM347.957 196.161C348.358 196.161 348.726 196.092 349.062 195.953C349.397 195.808 349.689 195.607 349.937 195.352C350.192 195.096 350.386 194.794 350.517 194.444C350.655 194.094 350.725 193.714 350.725 193.306C350.725 192.897 350.655 192.522 350.517 192.179C350.386 191.829 350.192 191.526 349.937 191.271C349.689 191.008 349.397 190.808 349.062 190.669C348.726 190.531 348.358 190.461 347.957 190.461C347.563 190.461 347.198 190.531 346.863 190.669C346.527 190.808 346.232 191.008 345.977 191.271C345.729 191.526 345.535 191.829 345.397 192.179C345.258 192.522 345.189 192.897 345.189 193.306C345.189 193.714 345.258 194.094 345.397 194.444C345.535 194.794 345.729 195.096 345.977 195.352C346.232 195.607 346.527 195.808 346.863 195.953C347.198 196.092 347.563 196.161 347.957 196.161ZM354.116 197.387V192.715H353.065V191.435H354.116V191.238C354.116 190.786 354.207 190.403 354.389 190.089C354.579 189.768 354.841 189.524 355.177 189.356C355.512 189.188 355.91 189.105 356.369 189.105C356.457 189.105 356.552 189.112 356.654 189.126C356.763 189.134 356.854 189.145 356.927 189.159V190.396C356.854 190.381 356.785 190.374 356.72 190.374C356.661 190.366 356.606 190.363 356.555 190.363C356.234 190.363 355.986 190.436 355.811 190.582C355.636 190.72 355.549 190.939 355.549 191.238V191.435H358.153V192.715H355.549V197.387H354.116ZM358.448 197.387V192.715H357.398V191.435H358.448V191.238C358.448 190.786 358.539 190.403 358.722 190.089C358.904 189.768 359.163 189.524 359.498 189.356C359.841 189.188 360.242 189.105 360.702 189.105C360.789 189.105 360.884 189.112 360.986 189.126C361.096 189.134 361.183 189.145 361.249 189.159V190.396C361.183 190.381 361.118 190.374 361.052 190.374C360.994 190.366 360.939 190.363 360.888 190.363C360.567 190.363 360.319 190.436 360.144 190.582C359.969 190.72 359.881 190.939 359.881 191.238V191.435H361.194V192.715H359.881V197.387H358.448ZM364.85 197.518C364.237 197.518 363.701 197.379 363.242 197.102C362.782 196.825 362.425 196.449 362.169 195.975C361.914 195.501 361.787 194.976 361.787 194.4C361.787 193.802 361.914 193.273 362.169 192.814C362.432 192.347 362.786 191.978 363.231 191.708C363.683 191.439 364.186 191.304 364.741 191.304C365.207 191.304 365.616 191.38 365.966 191.533C366.323 191.687 366.626 191.898 366.874 192.168C367.122 192.438 367.312 192.748 367.443 193.098C367.574 193.441 367.64 193.813 367.64 194.214C367.64 194.316 367.633 194.422 367.618 194.531C367.611 194.641 367.592 194.735 367.563 194.816H362.968V193.722H366.754L366.075 194.236C366.141 193.9 366.123 193.601 366.021 193.339C365.926 193.076 365.765 192.868 365.539 192.715C365.32 192.562 365.054 192.485 364.741 192.485C364.441 192.485 364.175 192.562 363.942 192.715C363.708 192.861 363.53 193.08 363.406 193.371C363.289 193.656 363.245 194.002 363.274 194.411C363.245 194.776 363.293 195.1 363.417 195.385C363.548 195.662 363.738 195.877 363.986 196.03C364.241 196.183 364.533 196.26 364.861 196.26C365.189 196.26 365.466 196.191 365.692 196.052C365.926 195.913 366.108 195.727 366.239 195.494L367.399 196.063C367.282 196.347 367.1 196.599 366.852 196.818C366.604 197.037 366.309 197.208 365.966 197.332C365.63 197.456 365.258 197.518 364.85 197.518ZM368.726 197.387V191.435H370.072V192.759L369.963 192.562C370.101 192.117 370.316 191.807 370.608 191.632C370.907 191.457 371.265 191.369 371.68 191.369H372.03V192.638H371.516C371.108 192.638 370.779 192.766 370.531 193.021C370.283 193.269 370.159 193.619 370.159 194.072V197.387H368.726ZM375.083 197.518C374.449 197.518 373.894 197.368 373.42 197.069C372.953 196.763 372.632 196.351 372.457 195.833L373.529 195.319C373.683 195.654 373.894 195.917 374.164 196.107C374.441 196.296 374.748 196.391 375.083 196.391C375.346 196.391 375.554 196.333 375.707 196.216C375.86 196.099 375.936 195.946 375.936 195.757C375.936 195.64 375.904 195.545 375.838 195.472C375.78 195.392 375.696 195.326 375.586 195.275C375.484 195.217 375.371 195.169 375.247 195.133L374.273 194.859C373.77 194.714 373.387 194.491 373.125 194.192C372.869 193.893 372.742 193.539 372.742 193.131C372.742 192.766 372.833 192.449 373.015 192.179C373.205 191.902 373.464 191.687 373.792 191.533C374.128 191.38 374.511 191.304 374.941 191.304C375.502 191.304 375.998 191.439 376.429 191.708C376.859 191.978 377.165 192.358 377.348 192.846L376.254 193.361C376.152 193.091 375.98 192.875 375.74 192.715C375.499 192.555 375.229 192.474 374.93 192.474C374.689 192.474 374.5 192.529 374.361 192.638C374.222 192.748 374.153 192.89 374.153 193.065C374.153 193.175 374.182 193.269 374.241 193.35C374.299 193.43 374.379 193.495 374.481 193.547C374.591 193.598 374.715 193.645 374.853 193.689L375.805 193.973C376.294 194.119 376.669 194.338 376.932 194.63C377.202 194.921 377.337 195.279 377.337 195.702C377.337 196.059 377.242 196.377 377.052 196.654C376.863 196.924 376.6 197.135 376.265 197.288C375.929 197.441 375.535 197.518 375.083 197.518Z" fill="#171717"/>
<path d="M182.601 334.088L385.004 334.088" stroke="#918EA4" stroke-opacity="0.25" stroke-width="1.36759"/>
<rect x="205.849" y="262.973" width="160.008" height="16.4111" rx="8.20553" fill="#F8F2FF"/>
<rect x="234.569" y="290.324" width="101.202" height="16.4111" rx="8.20553" fill="#F8F2FF"/>
<rect x="193.542" y="235.62" width="180.522" height="16.4111" rx="8.20553" fill="#F0E5FF"/>
</g>
<rect x="132.5" y="66.54" width="302.605" height="345" rx="15.9111" stroke="#EDF0F3"/>
</g>
<defs>
<filter id="filter0_d_705_58142" x="0.711475" y="0.395779" width="500.538" height="542.933" filterUnits="userSpaceOnUse" color-interpolation-filters="sRGB">
<feFlood flood-opacity="0" result="BackgroundImageFix"/>
<feColorMatrix in="SourceAlpha" type="matrix" values="0 0 0 0 0 0 0 0 0 0 0 0 0 0 0 0 0 0 127 0" result="hardAlpha"/>
<feOffset dx="-32.8221" dy="32.8221"/>
<feGaussianBlur stdDeviation="49.2332"/>
<feComposite in2="hardAlpha" operator="out"/>
<feColorMatrix type="matrix" values="0 0 0 0 0 0 0 0 0 0 0 0 0 0 0 0 0 0 0.08 0"/>
<feBlend mode="normal" in2="BackgroundImageFix" result="effect1_dropShadow_705_58142"/>
<feBlend mode="normal" in="SourceGraphic" in2="effect1_dropShadow_705_58142" result="shape"/>
</filter>
<clipPath id="clip0_705_58142">
<rect x="132" y="66.04" width="303.605" height="346" rx="16.4111" fill="white"/>
</clipPath>
</defs>
</svg>
