<svg width="481" height="463" viewBox="0 0 481 463" fill="none" xmlns="http://www.w3.org/2000/svg">
<g opacity="0.6">
<line x1="224.803" y1="118.127" x2="228.488" y2="108.003" stroke="#A866FF" stroke-width="1.73"/>
<line x1="247.833" y1="117.653" x2="253.22" y2="108.323" stroke="#A866FF" stroke-width="1.73"/>
<line x1="271.007" y1="117.193" x2="277.933" y2="108.94" stroke="#A866FF" stroke-width="1.73"/>
<line x1="294.357" y1="116.414" x2="302.611" y2="109.488" stroke="#A866FF" stroke-width="1.73"/>
<line x1="64.3181" y1="117.739" x2="56.0646" y2="110.813" stroke="#A866FF" stroke-width="1.73"/>
<line x1="87.4583" y1="118.305" x2="80.5328" y2="110.052" stroke="#A866FF" stroke-width="1.73"/>
<line x1="110.46" y1="118.518" x2="105.073" y2="109.188" stroke="#A866FF" stroke-width="1.73"/>
<line x1="133.363" y1="118.719" x2="129.678" y2="108.594" stroke="#A866FF" stroke-width="1.73"/>
<line x1="156.206" y1="118.91" x2="154.335" y2="108.299" stroke="#A866FF" stroke-width="1.73"/>
<line x1="179.031" y1="118.76" x2="179.031" y2="107.986" stroke="#A866FF" stroke-width="1.73"/>
<line x1="201.882" y1="118.61" x2="203.753" y2="107.999" stroke="#A866FF" stroke-width="1.73"/>
<line x1="200.562" y1="136.981" x2="204.247" y2="126.857" stroke="#A866FF" stroke-width="1.73"/>
<line x1="223.589" y1="136.508" x2="228.976" y2="127.177" stroke="#A866FF" stroke-width="1.73"/>
<line x1="246.764" y1="136.048" x2="253.689" y2="127.795" stroke="#A866FF" stroke-width="1.73"/>
<line x1="270.117" y1="135.269" x2="278.371" y2="128.344" stroke="#A866FF" stroke-width="1.73"/>
<line x1="293.673" y1="134.172" x2="303.004" y2="128.785" stroke="#A866FF" stroke-width="1.73"/>
<line x1="63.2181" y1="137.161" x2="56.2926" y2="128.907" stroke="#A866FF" stroke-width="1.73"/>
<line x1="86.2196" y1="137.373" x2="80.8326" y2="128.042" stroke="#A866FF" stroke-width="1.73"/>
<line x1="109.119" y1="137.573" x2="105.434" y2="127.449" stroke="#A866FF" stroke-width="1.73"/>
<line x1="131.962" y1="137.764" x2="130.091" y2="127.154" stroke="#A866FF" stroke-width="1.73"/>
<line x1="154.787" y1="137.614" x2="154.787" y2="126.84" stroke="#A866FF" stroke-width="1.73"/>
<line x1="177.641" y1="137.464" x2="179.512" y2="126.854" stroke="#A866FF" stroke-width="1.73"/>
<line x1="176.319" y1="155.837" x2="180.004" y2="145.713" stroke="#A866FF" stroke-width="1.73"/>
<line x1="199.349" y1="155.363" x2="204.736" y2="146.033" stroke="#A866FF" stroke-width="1.73"/>
<line x1="222.523" y1="154.903" x2="229.449" y2="146.649" stroke="#A866FF" stroke-width="1.73"/>
<line x1="245.877" y1="154.123" x2="254.13" y2="147.197" stroke="#A866FF" stroke-width="1.73"/>
<line x1="269.433" y1="153.026" x2="278.764" y2="147.639" stroke="#A866FF" stroke-width="1.73"/>
<line x1="293.215" y1="152.289" x2="303.34" y2="148.604" stroke="#A866FF" stroke-width="1.73"/>
<line x1="61.976" y1="156.228" x2="56.5889" y2="146.898" stroke="#A866FF" stroke-width="1.73"/>
<line x1="84.8787" y1="156.429" x2="81.1937" y2="146.304" stroke="#A866FF" stroke-width="1.73"/>
<line x1="107.722" y1="156.619" x2="105.851" y2="146.008" stroke="#A866FF" stroke-width="1.73"/>
<line x1="130.546" y1="156.469" x2="130.546" y2="145.695" stroke="#A866FF" stroke-width="1.73"/>
<line x1="153.398" y1="156.319" x2="155.269" y2="145.708" stroke="#A866FF" stroke-width="1.73"/>
<line x1="152.078" y1="174.691" x2="155.763" y2="164.567" stroke="#A866FF" stroke-width="1.73"/>
<line x1="175.105" y1="174.219" x2="180.492" y2="164.888" stroke="#A866FF" stroke-width="1.73"/>
<line x1="198.28" y1="173.757" x2="205.205" y2="165.504" stroke="#A866FF" stroke-width="1.73"/>
<line x1="221.633" y1="172.978" x2="229.887" y2="166.052" stroke="#A866FF" stroke-width="1.73"/>
<line x1="245.193" y1="171.881" x2="254.524" y2="166.494" stroke="#A866FF" stroke-width="1.73"/>
<line x1="268.975" y1="171.144" x2="279.099" y2="167.459" stroke="#A866FF" stroke-width="1.73"/>
<line x1="292.999" y1="170.095" x2="303.61" y2="168.224" stroke="#A866FF" stroke-width="1.73"/>
<line x1="60.635" y1="175.283" x2="56.9501" y2="165.159" stroke="#A866FF" stroke-width="1.73"/>
<line x1="83.478" y1="175.474" x2="81.6071" y2="164.864" stroke="#A866FF" stroke-width="1.73"/>
<line x1="106.303" y1="175.324" x2="106.303" y2="164.55" stroke="#A866FF" stroke-width="1.73"/>
<line x1="129.157" y1="175.174" x2="131.028" y2="164.564" stroke="#A866FF" stroke-width="1.73"/>
<line x1="127.835" y1="193.546" x2="131.52" y2="183.422" stroke="#A866FF" stroke-width="1.73"/>
<line x1="150.865" y1="193.072" x2="156.252" y2="183.742" stroke="#A866FF" stroke-width="1.73"/>
<line x1="174.039" y1="192.613" x2="180.965" y2="184.359" stroke="#A866FF" stroke-width="1.73"/>
<line x1="197.393" y1="191.832" x2="205.646" y2="184.907" stroke="#A866FF" stroke-width="1.73"/>
<line x1="220.949" y1="190.736" x2="230.28" y2="185.349" stroke="#A866FF" stroke-width="1.73"/>
<line x1="244.731" y1="189.999" x2="254.856" y2="186.314" stroke="#A866FF" stroke-width="1.73"/>
<line x1="268.756" y1="188.95" x2="279.366" y2="187.079" stroke="#A866FF" stroke-width="1.73"/>
<line x1="59.2377" y1="194.329" x2="57.3668" y2="183.718" stroke="#A866FF" stroke-width="1.73"/>
<line x1="82.0626" y1="194.179" x2="82.0626" y2="183.405" stroke="#A866FF" stroke-width="1.73"/>
<line x1="104.914" y1="194.029" x2="106.785" y2="183.418" stroke="#A866FF" stroke-width="1.73"/>
<line x1="306.493" y1="189.657" x2="295.719" y2="189.657" stroke="#A866FF" stroke-width="1.73"/>
<line x1="103.595" y1="212.4" x2="107.28" y2="202.276" stroke="#A866FF" stroke-width="1.73"/>
<line x1="126.621" y1="211.928" x2="132.008" y2="202.597" stroke="#A866FF" stroke-width="1.73"/>
<line x1="149.796" y1="211.467" x2="156.721" y2="203.214" stroke="#A866FF" stroke-width="1.73"/>
<line x1="173.149" y1="210.687" x2="181.403" y2="203.761" stroke="#A866FF" stroke-width="1.73"/>
<line x1="196.709" y1="209.591" x2="206.04" y2="204.204" stroke="#A866FF" stroke-width="1.73"/>
<line x1="220.491" y1="208.854" x2="230.616" y2="205.169" stroke="#A866FF" stroke-width="1.73"/>
<line x1="244.516" y1="207.804" x2="255.126" y2="205.933" stroke="#A866FF" stroke-width="1.73"/>
<line x1="57.819" y1="213.033" x2="57.819" y2="202.259" stroke="#A866FF" stroke-width="1.73"/>
<line x1="80.6735" y1="212.883" x2="82.5444" y2="202.273" stroke="#A866FF" stroke-width="1.73"/>
<line x1="282.249" y1="208.511" x2="271.475" y2="208.511" stroke="#A866FF" stroke-width="1.73"/>
<line x1="306.221" y1="209.508" x2="295.611" y2="207.637" stroke="#A866FF" stroke-width="1.73"/>
<line x1="79.3509" y1="231.256" x2="83.0359" y2="221.132" stroke="#A866FF" stroke-width="1.73"/>
<line x1="102.381" y1="230.782" x2="107.768" y2="221.452" stroke="#A866FF" stroke-width="1.73"/>
<line x1="125.556" y1="230.323" x2="132.481" y2="222.069" stroke="#A866FF" stroke-width="1.73"/>
<line x1="148.909" y1="229.542" x2="157.162" y2="222.617" stroke="#A866FF" stroke-width="1.73"/>
<line x1="172.465" y1="228.446" x2="181.796" y2="223.059" stroke="#A866FF" stroke-width="1.73"/>
<line x1="196.247" y1="227.709" x2="206.372" y2="224.024" stroke="#A866FF" stroke-width="1.73"/>
<line x1="220.272" y1="226.66" x2="230.882" y2="224.789" stroke="#A866FF" stroke-width="1.73"/>
<line x1="56.4299" y1="231.738" x2="58.3008" y2="221.128" stroke="#A866FF" stroke-width="1.73"/>
<line x1="258.009" y1="227.366" x2="247.235" y2="227.366" stroke="#A866FF" stroke-width="1.73"/>
<line x1="281.977" y1="228.364" x2="271.367" y2="226.493" stroke="#A866FF" stroke-width="1.73"/>
<line x1="305.711" y1="229.334" x2="295.586" y2="225.649" stroke="#A866FF" stroke-width="1.73"/>
<line x1="55.1105" y1="250.111" x2="58.7955" y2="239.987" stroke="#A866FF" stroke-width="1.73"/>
<line x1="78.1374" y1="249.637" x2="83.5245" y2="240.306" stroke="#A866FF" stroke-width="1.73"/>
<line x1="101.312" y1="249.176" x2="108.237" y2="240.923" stroke="#A866FF" stroke-width="1.73"/>
<line x1="124.665" y1="248.397" x2="132.919" y2="241.471" stroke="#A866FF" stroke-width="1.73"/>
<line x1="148.225" y1="247.3" x2="157.556" y2="241.913" stroke="#A866FF" stroke-width="1.73"/>
<line x1="172.007" y1="246.563" x2="182.132" y2="242.878" stroke="#A866FF" stroke-width="1.73"/>
<line x1="196.032" y1="245.514" x2="206.642" y2="243.643" stroke="#A866FF" stroke-width="1.73"/>
<line x1="304.979" y1="248.798" x2="295.648" y2="243.411" stroke="#A866FF" stroke-width="1.73"/>
<line x1="233.769" y1="246.221" x2="222.995" y2="246.221" stroke="#A866FF" stroke-width="1.73"/>
<line x1="257.737" y1="247.218" x2="247.127" y2="245.347" stroke="#A866FF" stroke-width="1.73"/>
<line x1="281.467" y1="248.189" x2="271.342" y2="244.504" stroke="#A866FF" stroke-width="1.73"/>
<line x1="53.897" y1="268.492" x2="59.2841" y2="259.162" stroke="#A866FF" stroke-width="1.73"/>
<line x1="77.0716" y1="268.032" x2="83.9971" y2="259.778" stroke="#A866FF" stroke-width="1.73"/>
<line x1="100.425" y1="267.252" x2="108.679" y2="260.327" stroke="#A866FF" stroke-width="1.73"/>
<line x1="123.981" y1="266.155" x2="133.312" y2="260.768" stroke="#A866FF" stroke-width="1.73"/>
<line x1="147.764" y1="265.419" x2="157.888" y2="261.734" stroke="#A866FF" stroke-width="1.73"/>
<line x1="171.788" y1="264.369" x2="182.398" y2="262.498" stroke="#A866FF" stroke-width="1.73"/>
<line x1="280.735" y1="267.653" x2="271.405" y2="262.266" stroke="#A866FF" stroke-width="1.73"/>
<line x1="304.048" y1="268.578" x2="295.795" y2="261.652" stroke="#A866FF" stroke-width="1.73"/>
<line x1="209.525" y1="265.076" x2="198.751" y2="265.076" stroke="#A866FF" stroke-width="1.73"/>
<line x1="233.493" y1="266.073" x2="222.883" y2="264.202" stroke="#A866FF" stroke-width="1.73"/>
<line x1="257.227" y1="267.044" x2="247.102" y2="263.359" stroke="#A866FF" stroke-width="1.73"/>
<line x1="52.828" y1="286.887" x2="59.7535" y2="278.634" stroke="#A866FF" stroke-width="1.73"/>
<line x1="76.1814" y1="286.106" x2="84.4349" y2="279.18" stroke="#A866FF" stroke-width="1.73"/>
<line x1="99.7411" y1="285.011" x2="109.072" y2="279.624" stroke="#A866FF" stroke-width="1.73"/>
<line x1="123.523" y1="284.273" x2="133.648" y2="280.588" stroke="#A866FF" stroke-width="1.73"/>
<line x1="147.548" y1="283.224" x2="158.158" y2="281.353" stroke="#A866FF" stroke-width="1.73"/>
<line x1="256.495" y1="286.509" x2="247.165" y2="281.122" stroke="#A866FF" stroke-width="1.73"/>
<line x1="279.804" y1="287.431" x2="271.551" y2="280.506" stroke="#A866FF" stroke-width="1.73"/>
<line x1="302.945" y1="287.999" x2="296.019" y2="279.746" stroke="#A866FF" stroke-width="1.73"/>
<line x1="185.285" y1="283.93" x2="174.511" y2="283.93" stroke="#A866FF" stroke-width="1.73"/>
<line x1="209.253" y1="284.928" x2="198.643" y2="283.057" stroke="#A866FF" stroke-width="1.73"/>
<line x1="232.986" y1="285.899" x2="222.862" y2="282.214" stroke="#A866FF" stroke-width="1.73"/>
<line x1="51.9412" y1="304.961" x2="60.1947" y2="298.036" stroke="#A866FF" stroke-width="1.73"/>
<line x1="75.4974" y1="303.865" x2="84.8281" y2="298.478" stroke="#A866FF" stroke-width="1.73"/>
<line x1="99.2796" y1="303.128" x2="109.404" y2="299.443" stroke="#A866FF" stroke-width="1.73"/>
<line x1="123.304" y1="302.079" x2="133.915" y2="300.208" stroke="#A866FF" stroke-width="1.73"/>
<line x1="232.252" y1="305.363" x2="222.921" y2="299.976" stroke="#A866FF" stroke-width="1.73"/>
<line x1="255.564" y1="306.287" x2="247.311" y2="299.361" stroke="#A866FF" stroke-width="1.73"/>
<line x1="278.701" y1="306.853" x2="271.776" y2="298.599" stroke="#A866FF" stroke-width="1.73"/>
<line x1="301.706" y1="307.067" x2="296.319" y2="297.737" stroke="#A866FF" stroke-width="1.73"/>
<line x1="161.041" y1="302.786" x2="150.267" y2="302.786" stroke="#A866FF" stroke-width="1.73"/>
<line x1="185.01" y1="303.783" x2="174.399" y2="301.912" stroke="#A866FF" stroke-width="1.73"/>
<line x1="208.743" y1="304.753" x2="198.618" y2="301.068" stroke="#A866FF" stroke-width="1.73"/>
<line x1="51.2571" y1="322.72" x2="60.5878" y2="317.333" stroke="#A866FF" stroke-width="1.73"/>
<line x1="75.0394" y1="321.983" x2="85.1638" y2="318.298" stroke="#A866FF" stroke-width="1.73"/>
<line x1="99.0637" y1="320.933" x2="109.674" y2="319.062" stroke="#A866FF" stroke-width="1.73"/>
<line x1="208.011" y1="324.218" x2="198.681" y2="318.831" stroke="#A866FF" stroke-width="1.73"/>
<line x1="231.321" y1="325.142" x2="223.067" y2="318.217" stroke="#A866FF" stroke-width="1.73"/>
<line x1="254.461" y1="325.708" x2="247.535" y2="317.455" stroke="#A866FF" stroke-width="1.73"/>
<line x1="277.462" y1="325.921" x2="272.075" y2="316.59" stroke="#A866FF" stroke-width="1.73"/>
<line x1="300.365" y1="326.122" x2="296.68" y2="315.998" stroke="#A866FF" stroke-width="1.73"/>
<line x1="136.801" y1="321.64" x2="126.027" y2="321.64" stroke="#A866FF" stroke-width="1.73"/>
<line x1="160.769" y1="322.637" x2="150.159" y2="320.766" stroke="#A866FF" stroke-width="1.73"/>
<line x1="184.502" y1="323.609" x2="174.378" y2="319.924" stroke="#A866FF" stroke-width="1.73"/>
<line x1="50.7957" y1="340.838" x2="60.9201" y2="337.153" stroke="#A866FF" stroke-width="1.73"/>
<line x1="74.82" y1="339.789" x2="85.4305" y2="337.918" stroke="#A866FF" stroke-width="1.73"/>
<line x1="183.768" y1="343.073" x2="174.437" y2="337.686" stroke="#A866FF" stroke-width="1.73"/>
<line x1="207.08" y1="343.997" x2="198.827" y2="337.071" stroke="#A866FF" stroke-width="1.73"/>
<line x1="230.221" y1="344.563" x2="223.295" y2="336.309" stroke="#A866FF" stroke-width="1.73"/>
<line x1="253.222" y1="344.776" x2="247.835" y2="335.446" stroke="#A866FF" stroke-width="1.73"/>
<line x1="276.121" y1="344.977" x2="272.436" y2="334.852" stroke="#A866FF" stroke-width="1.73"/>
<line x1="298.964" y1="345.168" x2="297.093" y2="334.557" stroke="#A866FF" stroke-width="1.73"/>
<line x1="112.557" y1="340.495" x2="101.783" y2="340.495" stroke="#A866FF" stroke-width="1.73"/>
<line x1="136.526" y1="341.492" x2="125.915" y2="339.622" stroke="#A866FF" stroke-width="1.73"/>
<line x1="160.259" y1="342.463" x2="150.134" y2="338.778" stroke="#A866FF" stroke-width="1.73"/>
<line x1="50.5798" y1="358.643" x2="61.1903" y2="356.772" stroke="#A866FF" stroke-width="1.73"/>
<line x1="159.527" y1="361.928" x2="150.197" y2="356.541" stroke="#A866FF" stroke-width="1.73"/>
<line x1="182.837" y1="362.851" x2="174.583" y2="355.926" stroke="#A866FF" stroke-width="1.73"/>
<line x1="205.977" y1="363.418" x2="199.051" y2="355.165" stroke="#A866FF" stroke-width="1.73"/>
<line x1="228.978" y1="363.632" x2="223.591" y2="354.301" stroke="#A866FF" stroke-width="1.73"/>
<line x1="251.881" y1="363.831" x2="248.196" y2="353.707" stroke="#A866FF" stroke-width="1.73"/>
<line x1="274.724" y1="364.022" x2="272.853" y2="353.412" stroke="#A866FF" stroke-width="1.73"/>
<line x1="297.549" y1="363.872" x2="297.549" y2="353.098" stroke="#A866FF" stroke-width="1.73"/>
<line x1="88.3169" y1="359.349" x2="77.5427" y2="359.349" stroke="#A866FF" stroke-width="1.73"/>
<line x1="112.285" y1="360.347" x2="101.675" y2="358.476" stroke="#A866FF" stroke-width="1.73"/>
<line x1="136.018" y1="361.318" x2="125.894" y2="357.633" stroke="#A866FF" stroke-width="1.73"/>
<line x1="135.284" y1="380.782" x2="125.953" y2="375.395" stroke="#A866FF" stroke-width="1.73"/>
<line x1="158.596" y1="381.706" x2="150.343" y2="374.78" stroke="#A866FF" stroke-width="1.73"/>
<line x1="181.737" y1="382.273" x2="174.811" y2="374.019" stroke="#A866FF" stroke-width="1.73"/>
<line x1="204.738" y1="382.486" x2="199.351" y2="373.155" stroke="#A866FF" stroke-width="1.73"/>
<line x1="227.637" y1="382.686" x2="223.952" y2="372.562" stroke="#A866FF" stroke-width="1.73"/>
<line x1="250.48" y1="382.877" x2="248.609" y2="372.266" stroke="#A866FF" stroke-width="1.73"/>
<line x1="273.305" y1="382.727" x2="273.305" y2="371.952" stroke="#A866FF" stroke-width="1.73"/>
<line x1="296.16" y1="382.576" x2="298.031" y2="371.966" stroke="#A866FF" stroke-width="1.73"/>
<line x1="64.0732" y1="378.205" x2="53.2991" y2="378.205" stroke="#A866FF" stroke-width="1.73"/>
<line x1="88.0417" y1="379.201" x2="77.4312" y2="377.331" stroke="#A866FF" stroke-width="1.73"/>
<line x1="111.775" y1="380.173" x2="101.65" y2="376.488" stroke="#A866FF" stroke-width="1.73"/>
<line x1="294.837" y1="400.948" x2="298.522" y2="390.824" stroke="#A866FF" stroke-width="1.73"/>
<line x1="111.043" y1="399.637" x2="101.713" y2="394.25" stroke="#A866FF" stroke-width="1.73"/>
<line x1="134.353" y1="400.561" x2="126.099" y2="393.636" stroke="#A866FF" stroke-width="1.73"/>
<line x1="157.493" y1="401.127" x2="150.567" y2="392.874" stroke="#A866FF" stroke-width="1.73"/>
<line x1="180.495" y1="401.341" x2="175.107" y2="392.01" stroke="#A866FF" stroke-width="1.73"/>
<line x1="203.397" y1="401.54" x2="199.712" y2="391.416" stroke="#A866FF" stroke-width="1.73"/>
<line x1="226.24" y1="401.732" x2="224.369" y2="391.122" stroke="#A866FF" stroke-width="1.73"/>
<line x1="249.065" y1="401.582" x2="249.065" y2="390.808" stroke="#A866FF" stroke-width="1.73"/>
<line x1="271.916" y1="401.432" x2="273.787" y2="390.821" stroke="#A866FF" stroke-width="1.73"/>
<line x1="63.8015" y1="398.056" x2="53.191" y2="396.185" stroke="#A866FF" stroke-width="1.73"/>
<line x1="87.5346" y1="399.028" x2="77.4102" y2="395.343" stroke="#A866FF" stroke-width="1.73"/>
<line x1="270.597" y1="419.804" x2="274.282" y2="409.679" stroke="#A866FF" stroke-width="1.73"/>
<line x1="293.624" y1="419.33" x2="299.011" y2="409.999" stroke="#A866FF" stroke-width="1.73"/>
<line x1="86.7998" y1="418.492" x2="77.4691" y2="413.105" stroke="#A866FF" stroke-width="1.73"/>
<line x1="110.112" y1="419.416" x2="101.859" y2="412.49" stroke="#A866FF" stroke-width="1.73"/>
<line x1="133.253" y1="419.983" x2="126.327" y2="411.729" stroke="#A866FF" stroke-width="1.73"/>
<line x1="156.254" y1="420.195" x2="150.867" y2="410.864" stroke="#A866FF" stroke-width="1.73"/>
<line x1="179.154" y1="420.395" x2="175.469" y2="410.271" stroke="#A866FF" stroke-width="1.73"/>
<line x1="201.997" y1="420.587" x2="200.126" y2="409.976" stroke="#A866FF" stroke-width="1.73"/>
<line x1="224.821" y1="420.437" x2="224.821" y2="409.662" stroke="#A866FF" stroke-width="1.73"/>
<line x1="247.676" y1="420.286" x2="249.547" y2="409.676" stroke="#A866FF" stroke-width="1.73"/>
<line x1="63.2909" y1="417.882" x2="53.1665" y2="414.197" stroke="#A866FF" stroke-width="1.73"/>
<line x1="246.353" y1="438.659" x2="250.038" y2="428.535" stroke="#A866FF" stroke-width="1.73"/>
<line x1="269.383" y1="438.186" x2="274.771" y2="428.855" stroke="#A866FF" stroke-width="1.73"/>
<line x1="292.558" y1="437.725" x2="299.483" y2="429.472" stroke="#A866FF" stroke-width="1.73"/>
<line x1="62.5596" y1="437.347" x2="53.2289" y2="431.96" stroke="#A866FF" stroke-width="1.73"/>
<line x1="85.8688" y1="438.27" x2="77.6153" y2="431.345" stroke="#A866FF" stroke-width="1.73"/>
<line x1="109.009" y1="438.837" x2="102.083" y2="430.584" stroke="#A866FF" stroke-width="1.73"/>
<line x1="132.011" y1="439.051" x2="126.624" y2="429.72" stroke="#A866FF" stroke-width="1.73"/>
<line x1="154.913" y1="439.251" x2="151.228" y2="429.126" stroke="#A866FF" stroke-width="1.73"/>
<line x1="177.756" y1="439.441" x2="175.885" y2="428.831" stroke="#A866FF" stroke-width="1.73"/>
<line x1="200.581" y1="439.291" x2="200.581" y2="428.517" stroke="#A866FF" stroke-width="1.73"/>
<line x1="223.432" y1="439.141" x2="225.303" y2="428.53" stroke="#A866FF" stroke-width="1.73"/>
<line x1="222.113" y1="457.514" x2="225.798" y2="447.389" stroke="#A866FF" stroke-width="1.73"/>
<line x1="245.14" y1="457.04" x2="250.527" y2="447.709" stroke="#A866FF" stroke-width="1.73"/>
<line x1="268.314" y1="456.58" x2="275.24" y2="448.326" stroke="#A866FF" stroke-width="1.73"/>
<line x1="291.668" y1="455.8" x2="299.921" y2="448.875" stroke="#A866FF" stroke-width="1.73"/>
<line x1="61.6284" y1="457.126" x2="53.3749" y2="450.2" stroke="#A866FF" stroke-width="1.73"/>
<line x1="84.7688" y1="457.692" x2="77.8433" y2="449.438" stroke="#A866FF" stroke-width="1.73"/>
<line x1="107.77" y1="457.905" x2="102.383" y2="448.574" stroke="#A866FF" stroke-width="1.73"/>
<line x1="130.67" y1="458.105" x2="126.985" y2="447.981" stroke="#A866FF" stroke-width="1.73"/>
<line x1="153.513" y1="458.297" x2="151.642" y2="447.686" stroke="#A866FF" stroke-width="1.73"/>
<line x1="176.338" y1="458.146" x2="176.338" y2="447.372" stroke="#A866FF" stroke-width="1.73"/>
<line x1="199.192" y1="457.996" x2="201.063" y2="447.386" stroke="#A866FF" stroke-width="1.73"/>
</g>
<g filter="url(#filter0_d_705_57917)">
<rect x="96.415" y="18" width="270" height="330" rx="21.8919" fill="white" shape-rendering="crispEdges"/>
<rect x="96.9303" y="18.5153" width="268.969" height="328.969" rx="21.3766" stroke="#EDF0F3" stroke-width="1.03053" shape-rendering="crispEdges"/>
<rect x="118.308" y="80.3242" width="93.9527" height="14.5946" rx="7.2973" fill="#F8F2FF"/>
<rect x="118.308" y="56" width="182.432" height="14.5946" rx="7.2973" fill="#F0E5FF"/>
<g filter="url(#filter1_d_705_57917)">
<rect x="66.5166" y="109.514" width="138" height="110" rx="14.5946" fill="white" shape-rendering="crispEdges"/>
<rect x="67.0319" y="110.029" width="136.969" height="108.969" rx="14.0793" stroke="#6E00FF" stroke-width="1.03053" shape-rendering="crispEdges"/>
<path d="M91.5169 142.847C96.1193 142.847 99.8503 139.116 99.8503 134.514C99.8503 129.912 96.1193 126.181 91.5169 126.181C86.9146 126.181 83.1836 129.912 83.1836 134.514C83.1836 139.116 86.9146 142.847 91.5169 142.847Z" fill="white" stroke="#6E00FF" stroke-width="1.5"/>
<path d="M88.6006 134.931L90.2673 136.597L94.4339 132.431" fill="white"/>
<path d="M88.6006 134.931L90.2673 136.597L94.4339 132.431" stroke="#6E00FF" stroke-width="1.5" stroke-linecap="round" stroke-linejoin="round"/>
<rect x="111.517" y="128.514" width="78" height="12" rx="6" fill="#F0E5FF"/>
<path d="M91.5169 172.847C96.1193 172.847 99.8503 169.116 99.8503 164.514C99.8503 159.912 96.1193 156.181 91.5169 156.181C86.9146 156.181 83.1836 159.912 83.1836 164.514C83.1836 169.116 86.9146 172.847 91.5169 172.847Z" fill="white" stroke="#6E00FF" stroke-width="1.5"/>
<path d="M88.6006 164.931L90.2673 166.597L94.4339 162.431" fill="white"/>
<path d="M88.6006 164.931L90.2673 166.597L94.4339 162.431" stroke="#6E00FF" stroke-width="1.5" stroke-linecap="round" stroke-linejoin="round"/>
<rect x="111.517" y="158.514" width="78" height="12" rx="6" fill="#F0E5FF"/>
<path d="M91.5169 202.847C96.1193 202.847 99.8503 199.116 99.8503 194.514C99.8503 189.912 96.1193 186.181 91.5169 186.181C86.9146 186.181 83.1836 189.912 83.1836 194.514C83.1836 199.116 86.9146 202.847 91.5169 202.847Z" fill="white" stroke="#6E00FF" stroke-width="1.5"/>
<path d="M88.6006 194.931L90.2673 196.597L94.4339 192.431" fill="white"/>
<path d="M88.6006 194.931L90.2673 196.597L94.4339 192.431" stroke="#6E00FF" stroke-width="1.5" stroke-linecap="round" stroke-linejoin="round"/>
<rect x="111.517" y="188.514" width="78" height="12" rx="6" fill="#F0E5FF"/>
</g>
<rect x="215.93" y="110.029" width="136.969" height="198.969" rx="14.0793" fill="#6E00FF"/>
<rect x="215.93" y="110.029" width="136.969" height="198.969" rx="14.0793" stroke="#6E00FF" stroke-width="1.03053"/>
<path d="M240.415 142.847C245.018 142.847 248.749 139.116 248.749 134.514C248.749 129.912 245.018 126.181 240.415 126.181C235.813 126.181 232.082 129.912 232.082 134.514C232.082 139.116 235.813 142.847 240.415 142.847Z" fill="#F8F2FF" stroke="#6E00FF" stroke-width="1.5"/>
<path d="M237.499 134.931L239.166 136.597L243.332 132.431" fill="#F8F2FF"/>
<path d="M237.499 134.931L239.166 136.597L243.332 132.431" stroke="#6E00FF" stroke-width="1.5" stroke-linecap="round" stroke-linejoin="round"/>
<rect x="260.415" y="128.514" width="78" height="12" rx="6" fill="#A866FF"/>
<path d="M240.415 172.847C245.018 172.847 248.749 169.116 248.749 164.514C248.749 159.912 245.018 156.181 240.415 156.181C235.813 156.181 232.082 159.912 232.082 164.514C232.082 169.116 235.813 172.847 240.415 172.847Z" fill="#F8F2FF" stroke="#6E00FF" stroke-width="1.5"/>
<path d="M237.499 164.931L239.166 166.597L243.332 162.431" fill="#F8F2FF"/>
<path d="M237.499 164.931L239.166 166.597L243.332 162.431" stroke="#6E00FF" stroke-width="1.5" stroke-linecap="round" stroke-linejoin="round"/>
<rect x="260.415" y="158.514" width="78" height="12" rx="6" fill="#A866FF"/>
<path d="M240.415 202.847C245.018 202.847 248.749 199.116 248.749 194.514C248.749 189.912 245.018 186.181 240.415 186.181C235.813 186.181 232.082 189.912 232.082 194.514C232.082 199.116 235.813 202.847 240.415 202.847Z" fill="#F8F2FF" stroke="#6E00FF" stroke-width="1.5"/>
<path d="M237.499 194.931L239.166 196.597L243.332 192.431" fill="#F8F2FF"/>
<path d="M237.499 194.931L239.166 196.597L243.332 192.431" stroke="#6E00FF" stroke-width="1.5" stroke-linecap="round" stroke-linejoin="round"/>
<rect x="260.415" y="188.514" width="78" height="12" rx="6" fill="#A866FF"/>
<path d="M240.415 232.847C245.018 232.847 248.749 229.116 248.749 224.514C248.749 219.912 245.018 216.181 240.415 216.181C235.813 216.181 232.082 219.912 232.082 224.514C232.082 229.116 235.813 232.847 240.415 232.847Z" fill="#F8F2FF" stroke="#6E00FF" stroke-width="1.5"/>
<path d="M237.499 224.931L239.166 226.597L243.332 222.431" fill="#F8F2FF"/>
<path d="M237.499 224.931L239.166 226.597L243.332 222.431" stroke="#6E00FF" stroke-width="1.5" stroke-linecap="round" stroke-linejoin="round"/>
<rect x="260.415" y="218.514" width="78" height="12" rx="6" fill="#A866FF"/>
<path d="M240.415 262.847C245.018 262.847 248.749 259.116 248.749 254.514C248.749 249.912 245.018 246.181 240.415 246.181C235.813 246.181 232.082 249.912 232.082 254.514C232.082 259.116 235.813 262.847 240.415 262.847Z" fill="#F8F2FF" stroke="#6E00FF" stroke-width="1.5"/>
<path d="M237.499 254.931L239.166 256.597L243.332 252.431" fill="#F8F2FF"/>
<path d="M237.499 254.931L239.166 256.597L243.332 252.431" stroke="#6E00FF" stroke-width="1.5" stroke-linecap="round" stroke-linejoin="round"/>
<rect x="260.415" y="248.514" width="78" height="12" rx="6" fill="#A866FF"/>
<path d="M240.415 292.847C245.018 292.847 248.749 289.116 248.749 284.514C248.749 279.912 245.018 276.181 240.415 276.181C235.813 276.181 232.082 279.912 232.082 284.514C232.082 289.116 235.813 292.847 240.415 292.847Z" fill="#F8F2FF" stroke="#6E00FF" stroke-width="1.5"/>
<path d="M237.499 284.931L239.166 286.597L243.332 282.431" fill="#F8F2FF"/>
<path d="M237.499 284.931L239.166 286.597L243.332 282.431" stroke="#6E00FF" stroke-width="1.5" stroke-linecap="round" stroke-linejoin="round"/>
<rect x="260.415" y="278.514" width="78" height="12" rx="6" fill="#A866FF"/>
<path fill-rule="evenodd" clip-rule="evenodd" d="M128.798 256.578C128.798 252.05 132.466 248.381 136.994 248.378H140.724C142.888 248.378 144.962 247.519 146.499 245.996L149.105 243.386C152.299 240.174 157.49 240.16 160.702 243.354L160.705 243.357L160.738 243.386L163.348 245.996C164.885 247.522 166.958 248.378 169.122 248.378H172.849C177.377 248.378 181.049 252.046 181.049 256.578V260.3C181.049 262.465 181.904 264.542 183.43 266.079L186.04 268.689C189.252 271.882 189.27 277.073 186.077 280.285L186.073 280.289L186.04 280.321L183.43 282.931C181.904 284.465 181.049 286.538 181.049 288.702V292.432C181.049 296.96 177.38 300.629 172.853 300.629H169.115C166.951 300.629 164.874 301.488 163.341 303.014L160.731 305.62C157.541 308.832 152.353 308.85 149.141 305.664C149.138 305.66 149.134 305.656 149.131 305.653L149.098 305.62L146.492 303.014C144.958 301.488 142.881 300.632 140.717 300.629H136.994C132.466 300.629 128.798 296.96 128.798 292.432V288.695C128.798 286.531 127.939 284.457 126.413 282.924L123.806 280.314C120.595 277.124 120.576 271.937 123.766 268.725C123.766 268.721 123.77 268.718 123.774 268.714L123.806 268.681L126.413 266.071C127.939 264.534 128.798 262.461 128.798 260.293V256.578Z" stroke="#F0E5FF" stroke-width="5.4375" stroke-linecap="round" stroke-linejoin="round"/>
<path d="M145.606 283.822L164.239 265.189" stroke="#F0E5FF" stroke-width="5.4375" stroke-linecap="round" stroke-linejoin="round"/>
<path d="M163.961 283.562H163.993" stroke="#F0E5FF" stroke-width="7.25" stroke-linecap="round" stroke-linejoin="round"/>
<path d="M145.837 265.438H145.869" stroke="#F0E5FF" stroke-width="7.25" stroke-linecap="round" stroke-linejoin="round"/>
<g clip-path="url(#clip0_705_57917)">
<g filter="url(#filter2_d_705_57917)">
<path d="M335.748 262.667C336.013 262.667 336.268 262.772 336.455 262.96C336.643 263.147 336.748 263.402 336.748 263.667V267C336.748 267.266 336.643 267.52 336.455 267.707C336.268 267.895 336.013 268 335.748 268C335.483 268 335.228 267.895 335.041 267.707C334.853 267.52 334.748 267.266 334.748 267V263.667C334.748 263.402 334.853 263.147 335.041 262.96C335.228 262.772 335.483 262.667 335.748 262.667ZM329.375 265.294C329.562 265.106 329.816 265.001 330.081 265.001C330.346 265.001 330.601 265.106 330.788 265.294L333.121 267.627C333.22 267.719 333.298 267.829 333.353 267.952C333.408 268.074 333.437 268.207 333.44 268.341C333.442 268.475 333.417 268.609 333.367 268.733C333.317 268.858 333.242 268.971 333.147 269.066C333.052 269.161 332.939 269.236 332.814 269.286C332.69 269.336 332.556 269.361 332.422 269.358C332.288 269.356 332.155 269.327 332.033 269.272C331.91 269.217 331.8 269.139 331.708 269.04L329.375 266.707C329.187 266.519 329.082 266.265 329.082 266C329.082 265.735 329.187 265.481 329.375 265.294ZM342.121 265.294C342.309 265.481 342.414 265.735 342.414 266C342.414 266.265 342.309 266.519 342.121 266.707L339.788 269.04C339.696 269.139 339.586 269.217 339.463 269.272C339.341 269.327 339.208 269.356 339.074 269.358C338.94 269.361 338.806 269.336 338.682 269.286C338.557 269.236 338.444 269.161 338.349 269.066C338.254 268.971 338.18 268.858 338.129 268.733C338.079 268.609 338.054 268.475 338.057 268.341C338.059 268.207 338.088 268.074 338.143 267.952C338.198 267.829 338.276 267.719 338.375 267.627L340.708 265.294C340.896 265.106 341.15 265.001 341.415 265.001C341.68 265.001 341.934 265.106 342.121 265.294ZM326.748 271.667C326.748 271.402 326.853 271.147 327.041 270.96C327.228 270.772 327.483 270.667 327.748 270.667H331.081C331.347 270.667 331.601 270.772 331.788 270.96C331.976 271.147 332.081 271.402 332.081 271.667C332.081 271.932 331.976 272.187 331.788 272.374C331.601 272.562 331.347 272.667 331.081 272.667H327.748C327.483 272.667 327.228 272.562 327.041 272.374C326.853 272.187 326.748 271.932 326.748 271.667ZM334.748 272.65C334.748 271.147 336.511 270.336 337.651 271.315L348.932 280.984C350.145 282.024 349.455 284.012 347.859 284.078L342.739 284.282C342.188 284.303 341.671 284.548 341.303 284.958L337.817 288.854C336.741 290.058 334.748 289.295 334.748 287.68V272.65Z" fill="white"/>
<path d="M332.933 267.816L332.933 267.816L330.6 265.482L332.933 267.816ZM332.933 267.816L332.94 267.822M332.933 267.816L332.94 267.822M332.94 267.822C333.012 267.889 333.069 267.97 333.11 268.06C333.15 268.15 333.171 268.247 333.173 268.346C333.175 268.444 333.157 268.542 333.12 268.633C333.083 268.725 333.028 268.808 332.958 268.877C332.889 268.947 332.806 269.002 332.714 269.039C332.623 269.075 332.525 269.094 332.427 269.092C332.328 269.09 332.231 269.069 332.141 269.028C332.051 268.988 331.97 268.931 331.903 268.859L331.903 268.858M332.94 267.822L331.903 268.858M331.903 268.858L331.897 268.852M331.903 268.858L331.897 268.852M331.897 268.852L329.563 266.519L331.897 268.852ZM339.599 268.852L339.599 268.852L341.933 266.519L339.599 268.852ZM339.599 268.852L339.593 268.859M339.599 268.852L339.593 268.859M339.593 268.859C339.526 268.931 339.445 268.988 339.355 269.028C339.265 269.069 339.168 269.09 339.069 269.092C338.971 269.094 338.873 269.075 338.782 269.039C338.69 269.002 338.608 268.947 338.538 268.877C338.468 268.808 338.413 268.725 338.376 268.633C338.34 268.542 338.321 268.444 338.323 268.346C338.325 268.247 338.347 268.15 338.387 268.06C338.427 267.97 338.484 267.889 338.557 267.822L338.557 267.822M339.593 268.859L338.557 267.822M338.557 267.822L338.563 267.816M338.557 267.822L338.563 267.816M338.563 267.816L340.896 265.482L338.563 267.816ZM330.081 265.268C329.887 265.268 329.701 265.345 329.563 265.482C329.426 265.62 329.349 265.806 329.349 266C329.349 266.195 329.426 266.381 329.563 266.518L330.081 265.268ZM330.081 265.268C330.276 265.268 330.462 265.345 330.599 265.482L330.081 265.268ZM337.477 271.517L337.477 271.517L348.759 281.187C349.788 282.069 349.202 283.756 347.848 283.811L342.728 284.015C342.728 284.015 342.728 284.015 342.728 284.015C342.105 284.039 341.52 284.317 341.104 284.779L341.104 284.78L337.619 288.676L337.619 288.676C336.706 289.697 335.015 289.051 335.015 287.68V272.65C335.015 271.375 336.51 270.687 337.477 271.517ZM335.748 262.934C335.943 262.934 336.129 263.011 336.267 263.148C336.404 263.286 336.481 263.473 336.481 263.667V267C336.481 267.195 336.404 267.381 336.267 267.519C336.129 267.656 335.943 267.734 335.748 267.734C335.554 267.734 335.367 267.656 335.23 267.519C335.092 267.381 335.015 267.195 335.015 267V263.667C335.015 263.473 335.092 263.286 335.23 263.148C335.367 263.011 335.554 262.934 335.748 262.934ZM327.015 271.667C327.015 271.473 327.092 271.286 327.23 271.148C327.367 271.011 327.554 270.934 327.748 270.934H331.081C331.276 270.934 331.462 271.011 331.6 271.148C331.737 271.286 331.815 271.473 331.815 271.667C331.815 271.861 331.737 272.048 331.6 272.186C331.462 272.323 331.276 272.4 331.081 272.4H327.748C327.554 272.4 327.367 272.323 327.23 272.186C327.092 272.048 327.015 271.861 327.015 271.667Z" stroke="#6E00FF" stroke-width="0.533333"/>
</g>
</g>
</g>
<defs>
<filter id="filter0_d_705_57917" x="49.4925" y="0.974327" width="431.25" height="461.351" filterUnits="userSpaceOnUse" color-interpolation-filters="sRGB">
<feFlood flood-opacity="0" result="BackgroundImageFix"/>
<feColorMatrix in="SourceAlpha" type="matrix" values="0 0 0 0 0 0 0 0 0 0 0 0 0 0 0 0 0 0 127 0" result="hardAlpha"/>
<feOffset dx="48.6515" dy="48.65"/>
<feGaussianBlur stdDeviation="32.8378"/>
<feComposite in2="hardAlpha" operator="out"/>
<feColorMatrix type="matrix" values="0 0 0 0 0 0 0 0 0 0 0 0 0 0 0 0 0 0 0.08 0"/>
<feBlend mode="normal" in2="BackgroundImageFix" result="effect1_dropShadow_705_57917"/>
<feBlend mode="normal" in="SourceGraphic" in2="effect1_dropShadow_705_57917" result="shape"/>
</filter>
<filter id="filter1_d_705_57917" x="0.840927" y="65.7299" width="269.351" height="241.351" filterUnits="userSpaceOnUse" color-interpolation-filters="sRGB">
<feFlood flood-opacity="0" result="BackgroundImageFix"/>
<feColorMatrix in="SourceAlpha" type="matrix" values="0 0 0 0 0 0 0 0 0 0 0 0 0 0 0 0 0 0 127 0" result="hardAlpha"/>
<feOffset dy="21.8919"/>
<feGaussianBlur stdDeviation="32.8378"/>
<feComposite in2="hardAlpha" operator="out"/>
<feColorMatrix type="matrix" values="0 0 0 0 0 0 0 0 0 0 0 0 0 0 0 0 0 0 0.12 0"/>
<feBlend mode="normal" in2="BackgroundImageFix" result="effect1_dropShadow_705_57917"/>
<feBlend mode="normal" in="SourceGraphic" in2="effect1_dropShadow_705_57917" result="shape"/>
</filter>
<filter id="filter2_d_705_57917" x="320.081" y="257.334" width="33.4678" height="37.443" filterUnits="userSpaceOnUse" color-interpolation-filters="sRGB">
<feFlood flood-opacity="0" result="BackgroundImageFix"/>
<feColorMatrix in="SourceAlpha" type="matrix" values="0 0 0 0 0 0 0 0 0 0 0 0 0 0 0 0 0 0 127 0" result="hardAlpha"/>
<feOffset dx="-1.33333"/>
<feGaussianBlur stdDeviation="2.66667"/>
<feComposite in2="hardAlpha" operator="out"/>
<feColorMatrix type="matrix" values="0 0 0 0 0 0 0 0 0 0 0 0 0 0 0 0 0 0 0.23 0"/>
<feBlend mode="normal" in2="BackgroundImageFix" result="effect1_dropShadow_705_57917"/>
<feBlend mode="normal" in="SourceGraphic" in2="effect1_dropShadow_705_57917" result="shape"/>
</filter>
<clipPath id="clip0_705_57917">
<rect width="32" height="32" fill="white" transform="translate(323.415 260)"/>
</clipPath>
</defs>
</svg>
