<svg width="481" height="463" viewBox="0 0 481 463" fill="none" xmlns="http://www.w3.org/2000/svg">
<g opacity="0.6">
<line x1="196.803" y1="65.1268" x2="200.488" y2="55.0023" stroke="#A866FF" stroke-width="1.73"/>
<line x1="219.833" y1="64.6539" x2="225.22" y2="55.3232" stroke="#A866FF" stroke-width="1.73"/>
<line x1="243.007" y1="64.1933" x2="249.933" y2="55.9398" stroke="#A866FF" stroke-width="1.73"/>
<line x1="266.357" y1="63.4135" x2="274.611" y2="56.488" stroke="#A866FF" stroke-width="1.73"/>
<line x1="36.3181" y1="64.7388" x2="28.0646" y2="57.8133" stroke="#A866FF" stroke-width="1.73"/>
<line x1="59.4583" y1="65.3053" x2="52.5328" y2="57.0518" stroke="#A866FF" stroke-width="1.73"/>
<line x1="82.4599" y1="65.5189" x2="77.0728" y2="56.1882" stroke="#A866FF" stroke-width="1.73"/>
<line x1="105.363" y1="65.7185" x2="101.678" y2="55.594" stroke="#A866FF" stroke-width="1.73"/>
<line x1="128.206" y1="65.9097" x2="126.335" y2="55.2992" stroke="#A866FF" stroke-width="1.73"/>
<line x1="151.03" y1="65.7595" x2="151.03" y2="54.9853" stroke="#A866FF" stroke-width="1.73"/>
<line x1="173.882" y1="65.6093" x2="175.753" y2="54.9988" stroke="#A866FF" stroke-width="1.73"/>
<line x1="172.562" y1="83.9817" x2="176.247" y2="73.8573" stroke="#A866FF" stroke-width="1.73"/>
<line x1="195.589" y1="83.5082" x2="200.976" y2="74.1775" stroke="#A866FF" stroke-width="1.73"/>
<line x1="218.764" y1="83.0485" x2="225.689" y2="74.795" stroke="#A866FF" stroke-width="1.73"/>
<line x1="242.117" y1="82.2685" x2="250.371" y2="75.343" stroke="#A866FF" stroke-width="1.73"/>
<line x1="265.673" y1="81.1718" x2="275.004" y2="75.7847" stroke="#A866FF" stroke-width="1.73"/>
<line x1="35.2181" y1="84.1605" x2="28.2926" y2="75.907" stroke="#A866FF" stroke-width="1.73"/>
<line x1="58.2196" y1="84.3732" x2="52.8326" y2="75.0425" stroke="#A866FF" stroke-width="1.73"/>
<line x1="81.1189" y1="84.5734" x2="77.4339" y2="74.449" stroke="#A866FF" stroke-width="1.73"/>
<line x1="103.962" y1="84.7642" x2="102.091" y2="74.1537" stroke="#A866FF" stroke-width="1.73"/>
<line x1="126.787" y1="84.614" x2="126.787" y2="73.8398" stroke="#A866FF" stroke-width="1.73"/>
<line x1="149.641" y1="84.4638" x2="151.512" y2="73.8533" stroke="#A866FF" stroke-width="1.73"/>
<line x1="148.319" y1="102.837" x2="152.004" y2="92.7125" stroke="#A866FF" stroke-width="1.73"/>
<line x1="171.349" y1="102.363" x2="176.736" y2="93.0327" stroke="#A866FF" stroke-width="1.73"/>
<line x1="194.523" y1="101.903" x2="201.449" y2="93.6492" stroke="#A866FF" stroke-width="1.73"/>
<line x1="217.877" y1="101.123" x2="226.13" y2="94.1973" stroke="#A866FF" stroke-width="1.73"/>
<line x1="241.433" y1="100.026" x2="250.764" y2="94.6389" stroke="#A866FF" stroke-width="1.73"/>
<line x1="265.215" y1="99.2892" x2="275.34" y2="95.6042" stroke="#A866FF" stroke-width="1.73"/>
<line x1="33.976" y1="103.228" x2="28.5889" y2="93.8977" stroke="#A866FF" stroke-width="1.73"/>
<line x1="56.8787" y1="103.429" x2="53.1937" y2="93.3042" stroke="#A866FF" stroke-width="1.73"/>
<line x1="79.7216" y1="103.619" x2="77.8507" y2="93.0087" stroke="#A866FF" stroke-width="1.73"/>
<line x1="102.546" y1="103.469" x2="102.547" y2="92.6948" stroke="#A866FF" stroke-width="1.73"/>
<line x1="125.398" y1="103.319" x2="127.269" y2="92.7083" stroke="#A866FF" stroke-width="1.73"/>
<line x1="124.078" y1="121.691" x2="127.763" y2="111.567" stroke="#A866FF" stroke-width="1.73"/>
<line x1="147.105" y1="121.218" x2="152.492" y2="111.888" stroke="#A866FF" stroke-width="1.73"/>
<line x1="170.28" y1="120.758" x2="177.205" y2="112.504" stroke="#A866FF" stroke-width="1.73"/>
<line x1="193.633" y1="119.978" x2="201.887" y2="113.052" stroke="#A866FF" stroke-width="1.73"/>
<line x1="217.193" y1="118.881" x2="226.524" y2="113.494" stroke="#A866FF" stroke-width="1.73"/>
<line x1="240.975" y1="118.144" x2="251.099" y2="114.459" stroke="#A866FF" stroke-width="1.73"/>
<line x1="264.999" y1="117.095" x2="275.61" y2="115.224" stroke="#A866FF" stroke-width="1.73"/>
<line x1="32.635" y1="122.283" x2="28.9501" y2="112.158" stroke="#A866FF" stroke-width="1.73"/>
<line x1="55.478" y1="122.474" x2="53.6071" y2="111.864" stroke="#A866FF" stroke-width="1.73"/>
<line x1="78.3028" y1="122.324" x2="78.3028" y2="111.55" stroke="#A866FF" stroke-width="1.73"/>
<line x1="101.157" y1="122.174" x2="103.028" y2="111.564" stroke="#A866FF" stroke-width="1.73"/>
<line x1="99.8347" y1="140.546" x2="103.52" y2="130.422" stroke="#A866FF" stroke-width="1.73"/>
<line x1="122.865" y1="140.073" x2="128.252" y2="130.742" stroke="#A866FF" stroke-width="1.73"/>
<line x1="146.039" y1="139.613" x2="152.965" y2="131.359" stroke="#A866FF" stroke-width="1.73"/>
<line x1="169.393" y1="138.832" x2="177.646" y2="131.907" stroke="#A866FF" stroke-width="1.73"/>
<line x1="192.949" y1="137.736" x2="202.28" y2="132.349" stroke="#A866FF" stroke-width="1.73"/>
<line x1="216.731" y1="136.999" x2="226.856" y2="133.314" stroke="#A866FF" stroke-width="1.73"/>
<line x1="240.756" y1="135.95" x2="251.366" y2="134.079" stroke="#A866FF" stroke-width="1.73"/>
<line x1="31.2377" y1="141.329" x2="29.3668" y2="130.718" stroke="#A866FF" stroke-width="1.73"/>
<line x1="54.0626" y1="141.178" x2="54.0626" y2="130.404" stroke="#A866FF" stroke-width="1.73"/>
<line x1="76.9138" y1="141.028" x2="78.7847" y2="130.418" stroke="#A866FF" stroke-width="1.73"/>
<line x1="278.493" y1="136.657" x2="267.719" y2="136.657" stroke="#A866FF" stroke-width="1.73"/>
<line x1="75.5945" y1="159.401" x2="79.2795" y2="149.276" stroke="#A866FF" stroke-width="1.73"/>
<line x1="98.6212" y1="158.928" x2="104.008" y2="149.597" stroke="#A866FF" stroke-width="1.73"/>
<line x1="121.796" y1="158.467" x2="128.721" y2="150.214" stroke="#A866FF" stroke-width="1.73"/>
<line x1="145.149" y1="157.687" x2="153.403" y2="150.762" stroke="#A866FF" stroke-width="1.73"/>
<line x1="168.709" y1="156.591" x2="178.04" y2="151.204" stroke="#A866FF" stroke-width="1.73"/>
<line x1="192.491" y1="155.854" x2="202.616" y2="152.169" stroke="#A866FF" stroke-width="1.73"/>
<line x1="216.516" y1="154.804" x2="227.126" y2="152.933" stroke="#A866FF" stroke-width="1.73"/>
<line x1="29.819" y1="160.034" x2="29.819" y2="149.26" stroke="#A866FF" stroke-width="1.73"/>
<line x1="52.6735" y1="159.883" x2="54.5444" y2="149.273" stroke="#A866FF" stroke-width="1.73"/>
<line x1="254.249" y1="155.512" x2="243.475" y2="155.512" stroke="#A866FF" stroke-width="1.73"/>
<line x1="278.221" y1="156.508" x2="267.611" y2="154.637" stroke="#A866FF" stroke-width="1.73"/>
<line x1="51.3509" y1="178.256" x2="55.0358" y2="168.132" stroke="#A866FF" stroke-width="1.73"/>
<line x1="74.381" y1="177.782" x2="79.7681" y2="168.451" stroke="#A866FF" stroke-width="1.73"/>
<line x1="97.5555" y1="177.322" x2="104.481" y2="169.069" stroke="#A866FF" stroke-width="1.73"/>
<line x1="120.909" y1="176.543" x2="129.163" y2="169.617" stroke="#A866FF" stroke-width="1.73"/>
<line x1="144.465" y1="175.446" x2="153.796" y2="170.059" stroke="#A866FF" stroke-width="1.73"/>
<line x1="168.247" y1="174.709" x2="178.372" y2="171.024" stroke="#A866FF" stroke-width="1.73"/>
<line x1="192.272" y1="173.66" x2="202.882" y2="171.789" stroke="#A866FF" stroke-width="1.73"/>
<line x1="28.4299" y1="178.738" x2="30.3008" y2="168.128" stroke="#A866FF" stroke-width="1.73"/>
<line x1="230.009" y1="174.366" x2="219.235" y2="174.366" stroke="#A866FF" stroke-width="1.73"/>
<line x1="253.977" y1="175.363" x2="243.367" y2="173.492" stroke="#A866FF" stroke-width="1.73"/>
<line x1="277.711" y1="176.335" x2="267.586" y2="172.65" stroke="#A866FF" stroke-width="1.73"/>
<line x1="27.1105" y1="197.111" x2="30.7955" y2="186.986" stroke="#A866FF" stroke-width="1.73"/>
<line x1="50.1374" y1="196.637" x2="55.5245" y2="187.307" stroke="#A866FF" stroke-width="1.73"/>
<line x1="73.3119" y1="196.177" x2="80.2374" y2="187.923" stroke="#A866FF" stroke-width="1.73"/>
<line x1="96.6653" y1="195.397" x2="104.919" y2="188.471" stroke="#A866FF" stroke-width="1.73"/>
<line x1="120.225" y1="194.3" x2="129.556" y2="188.913" stroke="#A866FF" stroke-width="1.73"/>
<line x1="144.007" y1="193.563" x2="154.132" y2="189.878" stroke="#A866FF" stroke-width="1.73"/>
<line x1="168.032" y1="192.515" x2="178.642" y2="190.644" stroke="#A866FF" stroke-width="1.73"/>
<line x1="276.979" y1="195.798" x2="267.648" y2="190.411" stroke="#A866FF" stroke-width="1.73"/>
<line x1="205.769" y1="193.221" x2="194.995" y2="193.221" stroke="#A866FF" stroke-width="1.73"/>
<line x1="229.737" y1="194.218" x2="219.127" y2="192.347" stroke="#A866FF" stroke-width="1.73"/>
<line x1="253.467" y1="195.189" x2="243.342" y2="191.504" stroke="#A866FF" stroke-width="1.73"/>
<line x1="25.897" y1="215.493" x2="31.2841" y2="206.162" stroke="#A866FF" stroke-width="1.73"/>
<line x1="49.0716" y1="215.032" x2="55.9971" y2="206.778" stroke="#A866FF" stroke-width="1.73"/>
<line x1="72.4251" y1="214.252" x2="80.6786" y2="207.326" stroke="#A866FF" stroke-width="1.73"/>
<line x1="95.9813" y1="213.155" x2="105.312" y2="207.768" stroke="#A866FF" stroke-width="1.73"/>
<line x1="119.764" y1="212.418" x2="129.888" y2="208.733" stroke="#A866FF" stroke-width="1.73"/>
<line x1="143.788" y1="211.369" x2="154.398" y2="209.498" stroke="#A866FF" stroke-width="1.73"/>
<line x1="252.736" y1="214.653" x2="243.405" y2="209.266" stroke="#A866FF" stroke-width="1.73"/>
<line x1="276.048" y1="215.577" x2="267.795" y2="208.652" stroke="#A866FF" stroke-width="1.73"/>
<line x1="181.525" y1="212.075" x2="170.751" y2="212.075" stroke="#A866FF" stroke-width="1.73"/>
<line x1="205.493" y1="213.073" x2="194.883" y2="211.202" stroke="#A866FF" stroke-width="1.73"/>
<line x1="229.227" y1="214.044" x2="219.102" y2="210.359" stroke="#A866FF" stroke-width="1.73"/>
<line x1="24.828" y1="233.887" x2="31.7535" y2="225.634" stroke="#A866FF" stroke-width="1.73"/>
<line x1="48.1814" y1="233.106" x2="56.4349" y2="226.181" stroke="#A866FF" stroke-width="1.73"/>
<line x1="71.7411" y1="232.01" x2="81.0718" y2="226.623" stroke="#A866FF" stroke-width="1.73"/>
<line x1="95.5232" y1="231.273" x2="105.648" y2="227.588" stroke="#A866FF" stroke-width="1.73"/>
<line x1="119.548" y1="230.224" x2="130.158" y2="228.353" stroke="#A866FF" stroke-width="1.73"/>
<line x1="228.495" y1="233.509" x2="219.165" y2="228.122" stroke="#A866FF" stroke-width="1.73"/>
<line x1="251.804" y1="234.432" x2="243.551" y2="227.506" stroke="#A866FF" stroke-width="1.73"/>
<line x1="274.945" y1="234.999" x2="268.019" y2="226.746" stroke="#A866FF" stroke-width="1.73"/>
<line x1="157.285" y1="230.931" x2="146.511" y2="230.931" stroke="#A866FF" stroke-width="1.73"/>
<line x1="181.253" y1="231.928" x2="170.643" y2="230.057" stroke="#A866FF" stroke-width="1.73"/>
<line x1="204.986" y1="232.899" x2="194.862" y2="229.214" stroke="#A866FF" stroke-width="1.73"/>
<line x1="23.9412" y1="251.961" x2="32.1947" y2="245.036" stroke="#A866FF" stroke-width="1.73"/>
<line x1="47.4974" y1="250.865" x2="56.8281" y2="245.478" stroke="#A866FF" stroke-width="1.73"/>
<line x1="71.2796" y1="250.128" x2="81.404" y2="246.443" stroke="#A866FF" stroke-width="1.73"/>
<line x1="95.304" y1="249.078" x2="105.915" y2="247.207" stroke="#A866FF" stroke-width="1.73"/>
<line x1="204.252" y1="252.363" x2="194.921" y2="246.976" stroke="#A866FF" stroke-width="1.73"/>
<line x1="227.564" y1="253.287" x2="219.311" y2="246.361" stroke="#A866FF" stroke-width="1.73"/>
<line x1="250.701" y1="253.853" x2="243.776" y2="245.6" stroke="#A866FF" stroke-width="1.73"/>
<line x1="273.706" y1="254.067" x2="268.319" y2="244.736" stroke="#A866FF" stroke-width="1.73"/>
<line x1="133.041" y1="249.786" x2="122.267" y2="249.786" stroke="#A866FF" stroke-width="1.73"/>
<line x1="157.01" y1="250.782" x2="146.399" y2="248.911" stroke="#A866FF" stroke-width="1.73"/>
<line x1="180.743" y1="251.754" x2="170.618" y2="248.069" stroke="#A866FF" stroke-width="1.73"/>
<line x1="23.2571" y1="269.72" x2="32.5878" y2="264.333" stroke="#A866FF" stroke-width="1.73"/>
<line x1="47.0394" y1="268.983" x2="57.1638" y2="265.298" stroke="#A866FF" stroke-width="1.73"/>
<line x1="71.0637" y1="267.934" x2="81.6742" y2="266.063" stroke="#A866FF" stroke-width="1.73"/>
<line x1="180.011" y1="271.218" x2="170.681" y2="265.831" stroke="#A866FF" stroke-width="1.73"/>
<line x1="203.321" y1="272.142" x2="195.067" y2="265.216" stroke="#A866FF" stroke-width="1.73"/>
<line x1="226.461" y1="272.709" x2="219.535" y2="264.455" stroke="#A866FF" stroke-width="1.73"/>
<line x1="249.462" y1="272.921" x2="244.075" y2="263.591" stroke="#A866FF" stroke-width="1.73"/>
<line x1="272.365" y1="273.122" x2="268.68" y2="262.997" stroke="#A866FF" stroke-width="1.73"/>
<line x1="108.801" y1="268.64" x2="98.0267" y2="268.64" stroke="#A866FF" stroke-width="1.73"/>
<line x1="132.769" y1="269.637" x2="122.159" y2="267.766" stroke="#A866FF" stroke-width="1.73"/>
<line x1="156.502" y1="270.608" x2="146.378" y2="266.923" stroke="#A866FF" stroke-width="1.73"/>
<line x1="22.7957" y1="287.837" x2="32.9201" y2="284.152" stroke="#A866FF" stroke-width="1.73"/>
<line x1="46.82" y1="286.789" x2="57.4305" y2="284.918" stroke="#A866FF" stroke-width="1.73"/>
<line x1="155.768" y1="290.073" x2="146.437" y2="284.686" stroke="#A866FF" stroke-width="1.73"/>
<line x1="179.08" y1="290.996" x2="170.827" y2="284.071" stroke="#A866FF" stroke-width="1.73"/>
<line x1="202.221" y1="291.563" x2="195.295" y2="283.309" stroke="#A866FF" stroke-width="1.73"/>
<line x1="225.222" y1="291.776" x2="219.835" y2="282.446" stroke="#A866FF" stroke-width="1.73"/>
<line x1="248.121" y1="291.977" x2="244.436" y2="281.852" stroke="#A866FF" stroke-width="1.73"/>
<line x1="270.964" y1="292.167" x2="269.093" y2="281.557" stroke="#A866FF" stroke-width="1.73"/>
<line x1="84.5573" y1="287.495" x2="73.7831" y2="287.495" stroke="#A866FF" stroke-width="1.73"/>
<line x1="108.526" y1="288.492" x2="97.9152" y2="286.622" stroke="#A866FF" stroke-width="1.73"/>
<line x1="132.259" y1="289.463" x2="122.134" y2="285.778" stroke="#A866FF" stroke-width="1.73"/>
<line x1="22.5798" y1="305.643" x2="33.1903" y2="303.772" stroke="#A866FF" stroke-width="1.73"/>
<line x1="131.527" y1="308.928" x2="122.197" y2="303.54" stroke="#A866FF" stroke-width="1.73"/>
<line x1="154.837" y1="309.851" x2="146.583" y2="302.926" stroke="#A866FF" stroke-width="1.73"/>
<line x1="177.977" y1="310.418" x2="171.051" y2="302.164" stroke="#A866FF" stroke-width="1.73"/>
<line x1="200.978" y1="310.631" x2="195.591" y2="301.301" stroke="#A866FF" stroke-width="1.73"/>
<line x1="223.881" y1="310.831" x2="220.196" y2="300.707" stroke="#A866FF" stroke-width="1.73"/>
<line x1="246.724" y1="311.023" x2="244.853" y2="300.412" stroke="#A866FF" stroke-width="1.73"/>
<line x1="269.549" y1="310.872" x2="269.549" y2="300.098" stroke="#A866FF" stroke-width="1.73"/>
<line x1="60.3169" y1="306.35" x2="49.5427" y2="306.35" stroke="#A866FF" stroke-width="1.73"/>
<line x1="84.2853" y1="307.347" x2="73.6749" y2="305.476" stroke="#A866FF" stroke-width="1.73"/>
<line x1="108.018" y1="308.318" x2="97.8941" y2="304.633" stroke="#A866FF" stroke-width="1.73"/>
<line x1="107.284" y1="327.783" x2="97.9531" y2="322.395" stroke="#A866FF" stroke-width="1.73"/>
<line x1="130.596" y1="328.706" x2="122.343" y2="321.78" stroke="#A866FF" stroke-width="1.73"/>
<line x1="153.737" y1="329.273" x2="146.811" y2="321.02" stroke="#A866FF" stroke-width="1.73"/>
<line x1="176.738" y1="329.486" x2="171.351" y2="320.155" stroke="#A866FF" stroke-width="1.73"/>
<line x1="199.637" y1="329.686" x2="195.952" y2="319.562" stroke="#A866FF" stroke-width="1.73"/>
<line x1="222.48" y1="329.877" x2="220.609" y2="319.266" stroke="#A866FF" stroke-width="1.73"/>
<line x1="245.305" y1="329.727" x2="245.305" y2="318.952" stroke="#A866FF" stroke-width="1.73"/>
<line x1="268.16" y1="329.576" x2="270.031" y2="318.966" stroke="#A866FF" stroke-width="1.73"/>
<line x1="36.0732" y1="325.205" x2="25.2991" y2="325.205" stroke="#A866FF" stroke-width="1.73"/>
<line x1="60.0417" y1="326.202" x2="49.4312" y2="324.331" stroke="#A866FF" stroke-width="1.73"/>
<line x1="83.7748" y1="327.173" x2="73.6504" y2="323.488" stroke="#A866FF" stroke-width="1.73"/>
<line x1="266.837" y1="347.949" x2="270.522" y2="337.824" stroke="#A866FF" stroke-width="1.73"/>
<line x1="83.0435" y1="346.637" x2="73.7127" y2="341.25" stroke="#A866FF" stroke-width="1.73"/>
<line x1="106.353" y1="347.561" x2="98.0992" y2="340.635" stroke="#A866FF" stroke-width="1.73"/>
<line x1="129.493" y1="348.127" x2="122.567" y2="339.874" stroke="#A866FF" stroke-width="1.73"/>
<line x1="152.495" y1="348.341" x2="147.107" y2="339.01" stroke="#A866FF" stroke-width="1.73"/>
<line x1="175.397" y1="348.54" x2="171.712" y2="338.416" stroke="#A866FF" stroke-width="1.73"/>
<line x1="198.24" y1="348.732" x2="196.369" y2="338.121" stroke="#A866FF" stroke-width="1.73"/>
<line x1="221.065" y1="348.582" x2="221.065" y2="337.807" stroke="#A866FF" stroke-width="1.73"/>
<line x1="243.916" y1="348.431" x2="245.787" y2="337.821" stroke="#A866FF" stroke-width="1.73"/>
<line x1="35.8015" y1="345.056" x2="25.191" y2="343.185" stroke="#A866FF" stroke-width="1.73"/>
<line x1="59.5346" y1="346.027" x2="49.4102" y2="342.342" stroke="#A866FF" stroke-width="1.73"/>
<line x1="242.597" y1="366.804" x2="246.282" y2="356.68" stroke="#A866FF" stroke-width="1.73"/>
<line x1="265.624" y1="366.33" x2="271.011" y2="356.999" stroke="#A866FF" stroke-width="1.73"/>
<line x1="58.7998" y1="365.492" x2="49.4691" y2="360.105" stroke="#A866FF" stroke-width="1.73"/>
<line x1="82.1124" y1="366.416" x2="73.8589" y2="359.49" stroke="#A866FF" stroke-width="1.73"/>
<line x1="105.253" y1="366.983" x2="98.3271" y2="358.729" stroke="#A866FF" stroke-width="1.73"/>
<line x1="128.254" y1="367.195" x2="122.867" y2="357.864" stroke="#A866FF" stroke-width="1.73"/>
<line x1="151.154" y1="367.396" x2="147.469" y2="357.271" stroke="#A866FF" stroke-width="1.73"/>
<line x1="173.997" y1="367.587" x2="172.126" y2="356.976" stroke="#A866FF" stroke-width="1.73"/>
<line x1="196.821" y1="367.437" x2="196.821" y2="356.663" stroke="#A866FF" stroke-width="1.73"/>
<line x1="219.676" y1="367.287" x2="221.547" y2="356.676" stroke="#A866FF" stroke-width="1.73"/>
<line x1="35.2909" y1="364.883" x2="25.1665" y2="361.198" stroke="#A866FF" stroke-width="1.73"/>
<line x1="218.353" y1="385.659" x2="222.038" y2="375.535" stroke="#A866FF" stroke-width="1.73"/>
<line x1="241.383" y1="385.185" x2="246.77" y2="375.855" stroke="#A866FF" stroke-width="1.73"/>
<line x1="264.558" y1="384.725" x2="271.483" y2="376.471" stroke="#A866FF" stroke-width="1.73"/>
<line x1="34.5596" y1="384.347" x2="25.2289" y2="378.96" stroke="#A866FF" stroke-width="1.73"/>
<line x1="57.8688" y1="385.27" x2="49.6153" y2="378.345" stroke="#A866FF" stroke-width="1.73"/>
<line x1="81.009" y1="385.837" x2="74.0835" y2="377.583" stroke="#A866FF" stroke-width="1.73"/>
<line x1="104.011" y1="386.05" x2="98.6236" y2="376.72" stroke="#A866FF" stroke-width="1.73"/>
<line x1="126.913" y1="386.251" x2="123.228" y2="376.126" stroke="#A866FF" stroke-width="1.73"/>
<line x1="149.756" y1="386.441" x2="147.885" y2="375.831" stroke="#A866FF" stroke-width="1.73"/>
<line x1="172.581" y1="386.291" x2="172.581" y2="375.517" stroke="#A866FF" stroke-width="1.73"/>
<line x1="195.432" y1="386.141" x2="197.303" y2="375.53" stroke="#A866FF" stroke-width="1.73"/>
<line x1="194.113" y1="404.513" x2="197.798" y2="394.389" stroke="#A866FF" stroke-width="1.73"/>
<line x1="217.14" y1="404.041" x2="222.527" y2="394.71" stroke="#A866FF" stroke-width="1.73"/>
<line x1="240.314" y1="403.58" x2="247.24" y2="395.326" stroke="#A866FF" stroke-width="1.73"/>
<line x1="263.668" y1="402.8" x2="271.921" y2="395.875" stroke="#A866FF" stroke-width="1.73"/>
<line x1="33.6284" y1="404.125" x2="25.3749" y2="397.2" stroke="#A866FF" stroke-width="1.73"/>
<line x1="56.7688" y1="404.692" x2="49.8433" y2="396.439" stroke="#A866FF" stroke-width="1.73"/>
<line x1="79.7703" y1="404.906" x2="74.3832" y2="395.575" stroke="#A866FF" stroke-width="1.73"/>
<line x1="102.67" y1="405.105" x2="98.9846" y2="394.981" stroke="#A866FF" stroke-width="1.73"/>
<line x1="125.513" y1="405.296" x2="123.642" y2="394.686" stroke="#A866FF" stroke-width="1.73"/>
<line x1="148.337" y1="405.146" x2="148.337" y2="394.372" stroke="#A866FF" stroke-width="1.73"/>
<line x1="171.192" y1="404.996" x2="173.063" y2="394.386" stroke="#A866FF" stroke-width="1.73"/>
</g>
<g filter="url(#filter0_d_469_37344)">
<rect x="96" y="18" width="270" height="330" rx="21.8919" fill="white" shape-rendering="crispEdges"/>
<rect x="96.5153" y="18.5153" width="268.969" height="328.969" rx="21.3766" stroke="#EDF0F3" stroke-width="1.03053" shape-rendering="crispEdges"/>
<rect x="117.893" y="80.3242" width="93.9527" height="14.5946" rx="7.2973" fill="#F8F2FF"/>
<rect x="117.893" y="56" width="182.432" height="14.5946" rx="7.2973" fill="#F0E5FF"/>
<g filter="url(#filter1_d_469_37344)">
<rect x="66.1016" y="109.514" width="138" height="110" rx="14.5946" fill="white" shape-rendering="crispEdges"/>
<rect x="66.6168" y="110.029" width="136.969" height="108.969" rx="14.0793" stroke="#6E00FF" stroke-width="1.03053" shape-rendering="crispEdges"/>
<path d="M91.1019 142.847C95.7043 142.847 99.4352 139.116 99.4352 134.514C99.4352 129.912 95.7043 126.181 91.1019 126.181C86.4995 126.181 82.7686 129.912 82.7686 134.514C82.7686 139.116 86.4995 142.847 91.1019 142.847Z" fill="white" stroke="#6E00FF" stroke-width="1.5"/>
<path d="M88.1855 134.931L89.8522 136.597L94.0189 132.431" fill="white"/>
<path d="M88.1855 134.931L89.8522 136.597L94.0189 132.431" stroke="#6E00FF" stroke-width="1.5" stroke-linecap="round" stroke-linejoin="round"/>
<rect x="111.102" y="128.514" width="78" height="12" rx="6" fill="#F0E5FF"/>
<path d="M91.1019 172.847C95.7043 172.847 99.4352 169.116 99.4352 164.514C99.4352 159.912 95.7043 156.181 91.1019 156.181C86.4995 156.181 82.7686 159.912 82.7686 164.514C82.7686 169.116 86.4995 172.847 91.1019 172.847Z" fill="white" stroke="#6E00FF" stroke-width="1.5"/>
<path d="M88.1855 164.931L89.8522 166.597L94.0189 162.431" fill="white"/>
<path d="M88.1855 164.931L89.8522 166.597L94.0189 162.431" stroke="#6E00FF" stroke-width="1.5" stroke-linecap="round" stroke-linejoin="round"/>
<rect x="111.102" y="158.514" width="78" height="12" rx="6" fill="#F0E5FF"/>
<path d="M91.1019 202.847C95.7043 202.847 99.4352 199.116 99.4352 194.514C99.4352 189.912 95.7043 186.181 91.1019 186.181C86.4995 186.181 82.7686 189.912 82.7686 194.514C82.7686 199.116 86.4995 202.847 91.1019 202.847Z" fill="white" stroke="#6E00FF" stroke-width="1.5"/>
<path d="M88.1855 194.931L89.8522 196.597L94.0189 192.431" fill="white"/>
<path d="M88.1855 194.931L89.8522 196.597L94.0189 192.431" stroke="#6E00FF" stroke-width="1.5" stroke-linecap="round" stroke-linejoin="round"/>
<rect x="111.102" y="188.514" width="78" height="12" rx="6" fill="#F0E5FF"/>
</g>
<rect x="215.515" y="110.029" width="136.969" height="198.969" rx="14.0793" fill="#6E00FF"/>
<rect x="215.515" y="110.029" width="136.969" height="198.969" rx="14.0793" stroke="#6E00FF" stroke-width="1.03053"/>
<path d="M240 142.847C244.603 142.847 248.334 139.116 248.334 134.514C248.334 129.912 244.603 126.181 240 126.181C235.398 126.181 231.667 129.912 231.667 134.514C231.667 139.116 235.398 142.847 240 142.847Z" fill="#F8F2FF" stroke="#6E00FF" stroke-width="1.5"/>
<path d="M237.084 134.931L238.751 136.597L242.917 132.431" fill="#F8F2FF"/>
<path d="M237.084 134.931L238.751 136.597L242.917 132.431" stroke="#6E00FF" stroke-width="1.5" stroke-linecap="round" stroke-linejoin="round"/>
<rect x="260" y="128.514" width="78" height="12" rx="6" fill="#A866FF"/>
<path d="M240 172.847C244.603 172.847 248.334 169.116 248.334 164.514C248.334 159.912 244.603 156.181 240 156.181C235.398 156.181 231.667 159.912 231.667 164.514C231.667 169.116 235.398 172.847 240 172.847Z" fill="#F8F2FF" stroke="#6E00FF" stroke-width="1.5"/>
<path d="M237.084 164.931L238.751 166.597L242.917 162.431" fill="#F8F2FF"/>
<path d="M237.084 164.931L238.751 166.597L242.917 162.431" stroke="#6E00FF" stroke-width="1.5" stroke-linecap="round" stroke-linejoin="round"/>
<rect x="260" y="158.514" width="78" height="12" rx="6" fill="#A866FF"/>
<path d="M240 202.847C244.603 202.847 248.334 199.116 248.334 194.514C248.334 189.912 244.603 186.181 240 186.181C235.398 186.181 231.667 189.912 231.667 194.514C231.667 199.116 235.398 202.847 240 202.847Z" fill="#F8F2FF" stroke="#6E00FF" stroke-width="1.5"/>
<path d="M237.084 194.931L238.751 196.597L242.917 192.431" fill="#F8F2FF"/>
<path d="M237.084 194.931L238.751 196.597L242.917 192.431" stroke="#6E00FF" stroke-width="1.5" stroke-linecap="round" stroke-linejoin="round"/>
<rect x="260" y="188.514" width="78" height="12" rx="6" fill="#A866FF"/>
<path d="M240 232.847C244.603 232.847 248.334 229.116 248.334 224.514C248.334 219.912 244.603 216.181 240 216.181C235.398 216.181 231.667 219.912 231.667 224.514C231.667 229.116 235.398 232.847 240 232.847Z" fill="#F8F2FF" stroke="#6E00FF" stroke-width="1.5"/>
<path d="M237.084 224.931L238.751 226.597L242.917 222.431" fill="#F8F2FF"/>
<path d="M237.084 224.931L238.751 226.597L242.917 222.431" stroke="#6E00FF" stroke-width="1.5" stroke-linecap="round" stroke-linejoin="round"/>
<rect x="260" y="218.514" width="78" height="12" rx="6" fill="#A866FF"/>
<path d="M240 262.847C244.603 262.847 248.334 259.116 248.334 254.514C248.334 249.912 244.603 246.181 240 246.181C235.398 246.181 231.667 249.912 231.667 254.514C231.667 259.116 235.398 262.847 240 262.847Z" fill="#F8F2FF" stroke="#6E00FF" stroke-width="1.5"/>
<path d="M237.084 254.931L238.751 256.597L242.917 252.431" fill="#F8F2FF"/>
<path d="M237.084 254.931L238.751 256.597L242.917 252.431" stroke="#6E00FF" stroke-width="1.5" stroke-linecap="round" stroke-linejoin="round"/>
<rect x="260" y="248.514" width="78" height="12" rx="6" fill="#A866FF"/>
<path d="M240 292.847C244.603 292.847 248.334 289.116 248.334 284.514C248.334 279.912 244.603 276.181 240 276.181C235.398 276.181 231.667 279.912 231.667 284.514C231.667 289.116 235.398 292.847 240 292.847Z" fill="#F8F2FF" stroke="#6E00FF" stroke-width="1.5"/>
<path d="M237.084 284.931L238.751 286.597L242.917 282.431" fill="#F8F2FF"/>
<path d="M237.084 284.931L238.751 286.597L242.917 282.431" stroke="#6E00FF" stroke-width="1.5" stroke-linecap="round" stroke-linejoin="round"/>
<rect x="260" y="278.514" width="78" height="12" rx="6" fill="#A866FF"/>
<path fill-rule="evenodd" clip-rule="evenodd" d="M128.383 256.578C128.383 252.05 132.051 248.381 136.579 248.378H140.309C142.473 248.378 144.547 247.519 146.084 245.996L148.69 243.386C151.884 240.174 157.075 240.16 160.286 243.354L160.29 243.357L160.323 243.386L162.933 245.996C164.47 247.522 166.543 248.378 168.707 248.378H172.434C176.961 248.378 180.634 252.046 180.634 256.578V260.3C180.634 262.465 181.489 264.542 183.015 266.079L185.625 268.689C188.837 271.882 188.855 277.073 185.661 280.285L185.658 280.289L185.625 280.321L183.015 282.931C181.489 284.465 180.634 286.538 180.634 288.702V292.432C180.634 296.96 176.965 300.629 172.437 300.629H168.7C166.536 300.629 164.459 301.488 162.925 303.014L160.315 305.62C157.125 308.832 151.938 308.85 148.726 305.664C148.723 305.66 148.719 305.656 148.715 305.653L148.683 305.62L146.076 303.014C144.543 301.488 142.466 300.632 140.302 300.629H136.579C132.051 300.629 128.383 296.96 128.383 292.432V288.695C128.383 286.531 127.524 284.457 125.998 282.924L123.391 280.314C120.179 277.124 120.161 271.937 123.351 268.725C123.351 268.721 123.355 268.718 123.359 268.714L123.391 268.681L125.998 266.071C127.524 264.534 128.383 262.461 128.383 260.293V256.578Z" stroke="#F0E5FF" stroke-width="5.4375" stroke-linecap="round" stroke-linejoin="round"/>
<path d="M145.191 283.822L163.824 265.189" stroke="#F0E5FF" stroke-width="5.4375" stroke-linecap="round" stroke-linejoin="round"/>
<path d="M163.546 283.562H163.578" stroke="#F0E5FF" stroke-width="7.25" stroke-linecap="round" stroke-linejoin="round"/>
<path d="M145.422 265.438H145.454" stroke="#F0E5FF" stroke-width="7.25" stroke-linecap="round" stroke-linejoin="round"/>
<g clip-path="url(#clip0_469_37344)">
<g filter="url(#filter2_d_469_37344)">
<path d="M335.333 262.667C335.598 262.667 335.853 262.772 336.04 262.96C336.228 263.147 336.333 263.402 336.333 263.667V267C336.333 267.266 336.228 267.52 336.04 267.707C335.853 267.895 335.598 268 335.333 268C335.068 268 334.813 267.895 334.626 267.707C334.438 267.52 334.333 267.266 334.333 267V263.667C334.333 263.402 334.438 263.147 334.626 262.96C334.813 262.772 335.068 262.667 335.333 262.667ZM328.96 265.294C329.147 265.106 329.401 265.001 329.666 265.001C329.931 265.001 330.186 265.106 330.373 265.294L332.706 267.627C332.805 267.719 332.883 267.829 332.938 267.952C332.993 268.074 333.022 268.207 333.024 268.341C333.027 268.475 333.002 268.609 332.952 268.733C332.902 268.858 332.827 268.971 332.732 269.066C332.637 269.161 332.524 269.236 332.399 269.286C332.275 269.336 332.141 269.361 332.007 269.358C331.873 269.356 331.74 269.327 331.618 269.272C331.495 269.217 331.385 269.139 331.293 269.04L328.96 266.707C328.772 266.519 328.667 266.265 328.667 266C328.667 265.735 328.772 265.481 328.96 265.294ZM341.706 265.294C341.894 265.481 341.999 265.735 341.999 266C341.999 266.265 341.894 266.519 341.706 266.707L339.373 269.04C339.281 269.139 339.171 269.217 339.048 269.272C338.926 269.327 338.793 269.356 338.659 269.358C338.525 269.361 338.391 269.336 338.267 269.286C338.142 269.236 338.029 269.161 337.934 269.066C337.839 268.971 337.764 268.858 337.714 268.733C337.664 268.609 337.639 268.475 337.642 268.341C337.644 268.207 337.673 268.074 337.728 267.952C337.783 267.829 337.861 267.719 337.96 267.627L340.293 265.294C340.481 265.106 340.735 265.001 341 265.001C341.265 265.001 341.519 265.106 341.706 265.294ZM326.333 271.667C326.333 271.402 326.438 271.147 326.626 270.96C326.813 270.772 327.068 270.667 327.333 270.667H330.666C330.932 270.667 331.186 270.772 331.373 270.96C331.561 271.147 331.666 271.402 331.666 271.667C331.666 271.932 331.561 272.187 331.373 272.374C331.186 272.562 330.932 272.667 330.666 272.667H327.333C327.068 272.667 326.813 272.562 326.626 272.374C326.438 272.187 326.333 271.932 326.333 271.667ZM334.333 272.65C334.333 271.147 336.096 270.336 337.236 271.315L348.517 280.984C349.73 282.024 349.04 284.012 347.444 284.078L342.324 284.282C341.773 284.303 341.256 284.548 340.888 284.958L337.402 288.854C336.326 290.058 334.333 289.295 334.333 287.68V272.65Z" fill="white"/>
<path d="M332.518 267.816L332.518 267.816L330.185 265.482L332.518 267.816ZM332.518 267.816L332.525 267.822M332.518 267.816L332.525 267.822M332.525 267.822C332.597 267.889 332.654 267.97 332.694 268.06C332.735 268.15 332.756 268.247 332.758 268.346C332.76 268.444 332.741 268.542 332.705 268.633C332.668 268.725 332.613 268.808 332.543 268.877C332.474 268.947 332.391 269.002 332.299 269.039C332.208 269.075 332.11 269.094 332.012 269.092C331.913 269.09 331.816 269.069 331.726 269.028C331.636 268.988 331.555 268.931 331.488 268.859L331.488 268.858M332.525 267.822L331.488 268.858M331.488 268.858L331.482 268.852M331.488 268.858L331.482 268.852M331.482 268.852L329.148 266.519L331.482 268.852ZM339.184 268.852L339.184 268.852L341.518 266.519L339.184 268.852ZM339.184 268.852L339.178 268.859M339.184 268.852L339.178 268.859M339.178 268.859C339.111 268.931 339.03 268.988 338.94 269.028C338.85 269.069 338.753 269.09 338.654 269.092C338.556 269.094 338.458 269.075 338.367 269.039C338.275 269.002 338.192 268.947 338.123 268.877C338.053 268.808 337.998 268.725 337.961 268.633C337.925 268.542 337.906 268.444 337.908 268.346C337.91 268.247 337.931 268.15 337.972 268.06C338.012 267.97 338.069 267.889 338.141 267.822L338.142 267.822M339.178 268.859L338.142 267.822M338.142 267.822L338.148 267.816M338.142 267.822L338.148 267.816M338.148 267.816L340.481 265.482L338.148 267.816ZM329.666 265.268C329.472 265.268 329.286 265.345 329.148 265.482C329.011 265.62 328.934 265.806 328.934 266C328.934 266.195 329.011 266.381 329.148 266.518L329.666 265.268ZM329.666 265.268C329.861 265.268 330.047 265.345 330.184 265.482L329.666 265.268ZM337.062 271.517L337.062 271.517L348.343 281.187C349.373 282.069 348.787 283.756 347.433 283.811L342.313 284.015C342.313 284.015 342.313 284.015 342.313 284.015C341.69 284.039 341.105 284.317 340.689 284.779L340.689 284.78L337.204 288.676L337.204 288.676C336.291 289.697 334.6 289.051 334.6 287.68V272.65C334.6 271.375 336.095 270.687 337.062 271.517ZM335.333 262.934C335.528 262.934 335.714 263.011 335.852 263.148C335.989 263.286 336.066 263.473 336.066 263.667V267C336.066 267.195 335.989 267.381 335.852 267.519C335.714 267.656 335.528 267.734 335.333 267.734C335.139 267.734 334.952 267.656 334.814 267.519C334.677 267.381 334.6 267.195 334.6 267V263.667C334.6 263.473 334.677 263.286 334.814 263.148C334.952 263.011 335.139 262.934 335.333 262.934ZM326.6 271.667C326.6 271.473 326.677 271.286 326.814 271.148C326.952 271.011 327.139 270.934 327.333 270.934H330.666C330.861 270.934 331.047 271.011 331.185 271.148C331.322 271.286 331.4 271.473 331.4 271.667C331.4 271.861 331.322 272.048 331.185 272.186C331.047 272.323 330.861 272.4 330.666 272.4H327.333C327.139 272.4 326.952 272.323 326.814 272.186C326.677 272.048 326.6 271.861 326.6 271.667Z" stroke="#6E00FF" stroke-width="0.533333"/>
</g>
</g>
</g>
<defs>
<filter id="filter0_d_469_37344" x="49.0774" y="0.974327" width="431.25" height="461.351" filterUnits="userSpaceOnUse" color-interpolation-filters="sRGB">
<feFlood flood-opacity="0" result="BackgroundImageFix"/>
<feColorMatrix in="SourceAlpha" type="matrix" values="0 0 0 0 0 0 0 0 0 0 0 0 0 0 0 0 0 0 127 0" result="hardAlpha"/>
<feOffset dx="48.6515" dy="48.65"/>
<feGaussianBlur stdDeviation="32.8378"/>
<feComposite in2="hardAlpha" operator="out"/>
<feColorMatrix type="matrix" values="0 0 0 0 0 0 0 0 0 0 0 0 0 0 0 0 0 0 0.08 0"/>
<feBlend mode="normal" in2="BackgroundImageFix" result="effect1_dropShadow_469_37344"/>
<feBlend mode="normal" in="SourceGraphic" in2="effect1_dropShadow_469_37344" result="shape"/>
</filter>
<filter id="filter1_d_469_37344" x="0.425888" y="65.7299" width="269.351" height="241.351" filterUnits="userSpaceOnUse" color-interpolation-filters="sRGB">
<feFlood flood-opacity="0" result="BackgroundImageFix"/>
<feColorMatrix in="SourceAlpha" type="matrix" values="0 0 0 0 0 0 0 0 0 0 0 0 0 0 0 0 0 0 127 0" result="hardAlpha"/>
<feOffset dy="21.8919"/>
<feGaussianBlur stdDeviation="32.8378"/>
<feComposite in2="hardAlpha" operator="out"/>
<feColorMatrix type="matrix" values="0 0 0 0 0 0 0 0 0 0 0 0 0 0 0 0 0 0 0.12 0"/>
<feBlend mode="normal" in2="BackgroundImageFix" result="effect1_dropShadow_469_37344"/>
<feBlend mode="normal" in="SourceGraphic" in2="effect1_dropShadow_469_37344" result="shape"/>
</filter>
<filter id="filter2_d_469_37344" x="319.666" y="257.334" width="33.4678" height="37.4433" filterUnits="userSpaceOnUse" color-interpolation-filters="sRGB">
<feFlood flood-opacity="0" result="BackgroundImageFix"/>
<feColorMatrix in="SourceAlpha" type="matrix" values="0 0 0 0 0 0 0 0 0 0 0 0 0 0 0 0 0 0 127 0" result="hardAlpha"/>
<feOffset dx="-1.33333"/>
<feGaussianBlur stdDeviation="2.66667"/>
<feComposite in2="hardAlpha" operator="out"/>
<feColorMatrix type="matrix" values="0 0 0 0 0 0 0 0 0 0 0 0 0 0 0 0 0 0 0.23 0"/>
<feBlend mode="normal" in2="BackgroundImageFix" result="effect1_dropShadow_469_37344"/>
<feBlend mode="normal" in="SourceGraphic" in2="effect1_dropShadow_469_37344" result="shape"/>
</filter>
<clipPath id="clip0_469_37344">
<rect width="32" height="32" fill="white" transform="translate(323 260)"/>
</clipPath>
</defs>
</svg>
